<?xml version="1.0" encoding="UTF-8"?>
<svg width="301px" height="512px" viewBox="0 0 301 512" version="1.1" xmlns="http://www.w3.org/2000/svg" xmlns:xlink="http://www.w3.org/1999/xlink">
    <!-- Generator: Sketch 49.1 (51147) - http://www.bohemiancoding.com/sketch -->
    <title>005-little-red-riding-hood</title>
    <desc>Created with Sketch.</desc>
    <defs></defs>
    <g id="login" stroke="none" stroke-width="1" fill="none" fill-rule="evenodd">
        <g id="005-little-red-riding-hood" transform="translate(0.000000, -1.000000)" fill-rule="nonzero">
            <path d="M256.003906,375.253906 L228.683594,365.027344 C219.101562,361.441406 216.703125,348.945312 224.328125,342.121094 C254.164062,315.417969 279.984375,284.371094 290.414062,257.617188 C309.265625,209.238281 299.871094,110.910156 273.027344,75.847656 C245.949219,40.480469 168.027344,19.671875 150.148438,13.84375 C123.152344,4.507812 64.851562,-4.832031 48.304688,5.570312 C31.757812,15.972656 73.214844,35.824219 46.117188,58.21875 L46.117188,58.222656 C38.625,63.628906 32.125,69.503906 27.265625,75.847656 C0.421875,110.910156 -8.96875,209.238281 9.882812,257.617188 C20.308594,284.371094 46.132812,315.417969 75.96875,342.121094 C83.59375,348.945312 81.195312,361.441406 71.609375,365.027344 L44.292969,375.253906 C23.363281,383.082031 9.496094,403.078125 9.496094,425.425781 L9.496094,508.769531 C9.496094,511.105469 11.390625,513 13.726562,513 L286.570312,513 C288.90625,513 290.800781,511.105469 290.800781,508.769531 L290.800781,425.425781 C290.800781,403.078125 276.929688,383.082031 256.003906,375.253906 Z" id="Shape" fill="#ED6161"></path>
            <path d="M256.003906,375.253906 L228.683594,365.027344 C219.101562,361.441406 216.703125,348.945312 224.328125,342.121094 C254.164062,315.417969 279.984375,284.371094 290.414062,257.617188 C309.265625,209.238281 299.871094,110.910156 273.027344,75.847656 C245.949219,40.480469 168.027344,19.671875 150.148438,13.84375 C128.671875,6.417969 87.386719,-1.011719 63.070312,1.496094 C85.386719,3.121094 111.210938,8.484375 126.710938,13.84375 C144.589844,19.671875 222.515625,40.480469 249.59375,75.847656 C276.4375,110.910156 285.828125,209.238281 266.976562,257.617188 C256.550781,284.371094 230.726562,315.417969 200.890625,342.121094 C193.265625,348.945312 195.664062,361.441406 205.25,365.027344 L232.566406,375.253906 C253.496094,383.082031 267.363281,403.078125 267.363281,425.425781 L267.363281,508.769531 C267.363281,511.105469 265.46875,513 263.132812,513 L286.570312,513 C288.90625,513 290.800781,511.105469 290.800781,508.769531 L290.800781,425.425781 C290.800781,403.078125 276.929688,383.082031 256.003906,375.253906 Z" id="Shape" fill="#CE4545"></path>
            <path d="M37.664062,198.398438 C37.664062,317.558594 115.441406,366.988281 150.148438,393.796875 C184.851562,366.992188 262.632812,317.558594 262.632812,198.398438 L37.664062,198.398438 Z" id="Shape" fill="#AA3535"></path>
            <path d="M192.109375,290.105469 L192.109375,365.5 C192.109375,366.40625 192.078125,367.308594 192.023438,368.191406 C177.710938,378.550781 163.386719,387.363281 150.148438,393.800781 C136.90625,387.363281 122.582031,378.550781 108.269531,368.191406 C108.214844,367.308594 108.183594,366.40625 108.183594,365.5 L108.183594,290.105469 L192.109375,290.105469 Z" id="Shape" fill="#F9C295"></path>
            <path d="M108.183594,328.761719 C124.734375,339.550781 143.945312,345.726562 164.4375,345.726562 C173.988281,345.726562 183.257812,344.382812 192.109375,341.859375 L192.109375,290.105469 L108.183594,290.105469 L108.183594,328.761719 Z" id="Shape" fill="#E59F6A"></path>
            <path d="M262.632812,198.398438 C262.632812,128.410156 212.269531,71.675781 150.148438,71.675781 C88.023438,71.675781 37.664062,128.410156 37.664062,198.398438 C37.664062,268.386719 88.023438,325.121094 150.148438,325.121094 C212.269531,325.121094 262.632812,268.386719 262.632812,198.398438 Z" id="Shape" fill="#F9C295"></path>
            <path d="M202.328125,86.117188 C226.867188,109.363281 242.464844,144.199219 242.464844,183.144531 C242.464844,253.132812 192.105469,309.867188 129.980469,309.867188 C111.144531,309.867188 93.394531,304.644531 77.800781,295.425781 C97.355469,313.957031 122.59375,325.125 150.148438,325.125 C212.269531,325.125 262.632812,268.386719 262.632812,198.398438 C262.632812,149.632812 238.175781,107.304688 202.328125,86.117188 Z" id="Shape" fill="#E59F6A"></path>
            <path d="M37.972656,188.980469 C83.527344,180.898438 104.484375,136.523438 104.925781,113.359375 L104.925781,82.34375 C67.742188,100.757812 41.089844,141.183594 37.972656,188.980469 Z" id="Shape" fill="#F9DC6A"></path>
            <path d="M48.125,56.4375 C57.117188,50.238281 68.246094,44.164062 81.476562,38.257812 C85.257812,36.570312 86.957031,32.132812 85.269531,28.351562 C83.578125,24.566406 79.140625,22.871094 75.363281,24.558594 C67.800781,27.933594 60.855469,31.398438 54.503906,34.933594 C56.605469,41.605469 56.136719,48.863281 48.125,56.4375 Z" id="Shape" fill="#CE4545"></path>
            <path d="M215.082031,467.777344 C185.277344,460.941406 170.105469,432.019531 170.105469,403.625 L130.1875,403.625 C130.1875,432.019531 115.015625,460.941406 85.210938,467.777344 C55.40625,474.613281 41.320312,496.699219 41.320312,513 L258.972656,513 C258.972656,496.699219 244.886719,474.613281 215.082031,467.777344 Z" id="Shape" fill="#6E7093"></path>
            <path d="M170.105469,403.625 L130.1875,403.625 C130.1875,423.503906 122.742188,443.628906 108.058594,456.265625 L108.058594,513 L192.238281,513 L192.238281,456.265625 C177.550781,443.628906 170.105469,423.503906 170.105469,403.625 Z" id="Shape" fill="#E6EFF5"></path>
            <path d="M192.234375,509.601562 C191.242188,509.601562 190.234375,509.402344 189.269531,508.984375 L105.089844,472.703125 C101.285156,471.0625 99.527344,466.648438 101.167969,462.847656 C102.808594,459.042969 107.21875,457.285156 111.023438,458.929688 L195.207031,495.210938 C199.007812,496.851562 200.765625,501.265625 199.125,505.066406 C197.902344,507.902344 195.136719,509.601562 192.234375,509.601562 Z" id="Shape" fill="#4E5173"></path>
            <path d="M108.0625,509.601562 C105.15625,509.601562 102.390625,507.902344 101.167969,505.066406 C99.527344,501.261719 101.285156,496.851562 105.089844,495.210938 L189.269531,458.929688 C193.074219,457.285156 197.484375,459.042969 199.125,462.847656 C200.761719,466.652344 199.007812,471.0625 195.207031,472.703125 L111.023438,508.984375 C110.058594,509.402344 109.050781,509.601562 108.0625,509.601562 Z" id="Shape" fill="#4E5173"></path>
            <path d="M200.488281,435.242188 L158.257812,418.105469 L158.257812,397.890625 L200.488281,380.753906 C209.289062,377.183594 218.902344,383.660156 218.902344,393.15625 L218.902344,422.84375 C218.902344,432.339844 209.285156,438.8125 200.488281,435.242188 Z" id="Shape" fill="#3185DB"></path>
            <path d="M188.578125,415.5 L169.996094,415.5 C165.855469,415.5 162.496094,412.140625 162.496094,408 C162.496094,403.855469 165.855469,400.5 169.996094,400.5 L188.578125,400.5 C192.722656,400.5 196.078125,403.855469 196.078125,408 C196.078125,412.140625 192.722656,415.5 188.578125,415.5 Z" id="Shape" fill="#1F6EA3"></path>
            <path d="M99.804688,435.242188 L142.039062,418.105469 L142.039062,397.890625 L99.804688,380.753906 C91.007812,377.183594 81.394531,383.660156 81.394531,393.15625 L81.394531,422.84375 C81.394531,432.339844 91.007812,438.8125 99.804688,435.242188 Z" id="Shape" fill="#3185DB"></path>
            <path d="M130.296875,415.5 L111.714844,415.5 C107.570312,415.5 104.214844,412.140625 104.214844,408 C104.214844,403.855469 107.570312,400.5 111.714844,400.5 L130.296875,400.5 C134.441406,400.5 137.796875,403.855469 137.796875,408 C137.796875,412.140625 134.441406,415.5 130.296875,415.5 Z" id="Shape" fill="#1F6EA3"></path>
            <path d="M152.96875,382.808594 L147.324219,382.808594 C138.355469,382.808594 131.082031,390.082031 131.082031,399.054688 L131.082031,416.941406 C131.082031,425.914062 138.355469,433.1875 147.324219,433.1875 L152.96875,433.1875 C161.9375,433.1875 169.210938,425.914062 169.210938,416.941406 L169.210938,399.054688 C169.210938,390.082031 161.9375,382.808594 152.96875,382.808594 Z" id="Shape" fill="#80B9F9"></path>
            <path d="M94.632812,88.167969 C100.191406,59.195312 158.886719,42.546875 213.671875,75.847656 C266.355469,107.875 285.121094,183.617188 267.917969,248.296875 C267.082031,251.4375 262.9375,252.121094 261.171875,249.390625 C250.433594,232.8125 234.601562,205.230469 196.003906,188.644531 C160.71875,173.480469 78.566406,171.863281 94.632812,88.167969 Z" id="Shape" fill="#FFCD34"></path>
            <path d="M213.671875,75.847656 C188.066406,60.28125 161.605469,55.632812 140.117188,58.050781 C156.4375,59.773438 174.175781,65.304688 191.523438,75.847656 C239.753906,105.167969 259.550781,171.121094 249.355469,231.6875 C254.109375,238.199219 257.882812,244.3125 261.171875,249.390625 C262.9375,252.121094 267.082031,251.4375 267.917969,248.296875 C285.121094,183.613281 266.359375,107.871094 213.671875,75.847656 Z" id="Shape" fill="#E69012"></path>
            <g id="Group" transform="translate(92.000000, 194.000000)" fill="#363B51">
                <path d="M8.398438,17.488281 C4.253906,17.488281 0.898438,14.128906 0.898438,9.988281 L0.898438,7.988281 C0.898438,3.847656 4.253906,0.488281 8.398438,0.488281 C12.539062,0.488281 15.898438,3.847656 15.898438,7.988281 L15.898438,9.988281 C15.898438,14.128906 12.539062,17.488281 8.398438,17.488281 Z" id="Shape"></path>
                <path d="M107.898438,17.488281 C103.753906,17.488281 100.398438,14.128906 100.398438,9.988281 L100.398438,7.988281 C100.398438,3.847656 103.753906,0.488281 107.898438,0.488281 C112.039062,0.488281 115.398438,3.847656 115.398438,7.988281 L115.398438,9.988281 C115.398438,14.128906 112.039062,17.488281 107.898438,17.488281 Z" id="Shape"></path>
                <path d="M58.144531,79.292969 C45.265625,79.292969 32.824219,73.902344 24.011719,64.503906 C21.175781,61.484375 21.328125,56.738281 24.347656,53.902344 C27.371094,51.070312 32.117188,51.222656 34.949219,54.242188 C41.027344,60.722656 49.265625,64.289062 58.144531,64.289062 C67.027344,64.289062 75.265625,60.722656 81.34375,54.242188 C84.175781,51.222656 88.925781,51.070312 91.945312,53.902344 C94.964844,56.738281 95.117188,61.484375 92.285156,64.503906 C83.46875,73.902344 71.023438,79.292969 58.144531,79.292969 Z" id="Shape"></path>
            </g>
        </g>
    </g>
</svg>