<?xml version="1.0" encoding="UTF-8"?>
<svg width="418px" height="512px" viewBox="0 0 418 512" version="1.1" xmlns="http://www.w3.org/2000/svg" xmlns:xlink="http://www.w3.org/1999/xlink">
    <!-- Generator: Sketch 49.1 (51147) - http://www.bohemiancoding.com/sketch -->
    <title>001-clown</title>
    <desc>Created with Sketch.</desc>
    <defs></defs>
    <g id="login" stroke="none" stroke-width="1" fill="none" fill-rule="evenodd">
        <g id="001-clown" fill-rule="nonzero">
            <path d="M371.378906,230.453125 C388.710938,229.304688 424.164062,206.296875 416.664062,167.757812 C410.878906,172.082031 402.058594,171.402344 395.746094,168.742188 C395.394531,168.59375 420.042969,136.90625 401.320312,111.886719 C394.011719,122.667969 387.667969,131.582031 373.058594,132.015625 C360.085938,132.402344 347.851562,126.511719 336.285156,120.648438 C324.71875,114.785156 312.667969,108.664062 299.691406,108.527344 C289.828125,108.421875 282.277344,110.785156 280.140625,120.222656 C279.007812,125.234375 264.339844,224.632812 261.046875,246.414062 C274.832031,272.335938 303.984375,289.363281 333.421875,288.6875 C362.855469,288.011719 391.191406,269.664062 403.765625,243.136719 C392.253906,246.417969 379.125,239.546875 371.378906,230.453125 Z" id="Shape" fill="#FFA436"></path>
            <path d="M371.378906,230.453125 C388.710938,229.304688 424.164062,206.296875 416.664062,167.757812 C410.878906,172.082031 402.058594,171.402344 395.746094,168.742188 C395.394531,168.59375 420.042969,136.90625 401.320312,111.886719 C395.707031,120.167969 390.648438,127.328125 381.992188,130.410156 C383.191406,150.230469 371.515625,168.628906 371.738281,168.742188 C376.921875,171.402344 384.171875,172.082031 388.925781,167.757812 C395.085938,206.296875 365.957031,229.304688 351.714844,230.453125 C358.078125,239.546875 368.863281,246.414062 378.324219,243.136719 C368.605469,268.097656 347.417969,285.808594 324.796875,288.378906 C327.660156,288.644531 330.539062,288.753906 333.421875,288.6875 C362.855469,288.011719 391.191406,269.664062 403.765625,243.136719 C392.253906,246.417969 379.125,239.546875 371.378906,230.453125 Z" id="Shape" fill="#CC6D0E"></path>
            <path d="M46.3125,230.453125 C28.980469,229.304688 -6.472656,206.296875 1.027344,167.757812 C6.8125,172.082031 15.632812,171.402344 21.945312,168.742188 C22.296875,168.59375 -2.351562,136.90625 16.371094,111.886719 C23.679688,122.667969 30.023438,131.582031 44.632812,132.015625 C57.605469,132.402344 69.839844,126.511719 81.40625,120.648438 C92.972656,114.785156 105.023438,108.664062 118,108.527344 C127.863281,108.421875 135.414062,110.785156 137.550781,120.222656 C138.683594,125.234375 153.351562,224.632812 156.644531,246.414062 C142.859375,272.335938 113.707031,289.363281 84.269531,288.6875 C54.835938,288.011719 26.5,269.664062 13.925781,243.136719 C25.4375,246.417969 38.566406,239.546875 46.3125,230.453125 Z" id="Shape" fill="#FFA436"></path>
            <path d="M150.792969,67.492188 C153.609375,61.585938 157.671875,56.132812 162.050781,51.589844 C172.042969,41.21875 184.457031,32.597656 191.585938,19.472656 C192.449219,17.878906 194.816406,18.117188 195.296875,19.863281 C196.878906,25.613281 197.457031,31.683594 196.964844,37.648438 C215.042969,35.734375 231.109375,20.507812 235.722656,1.523438 C236.105469,-0.046875 238.101562,-0.53125 239.171875,0.679688 C260.445312,24.820312 281.765625,60.15625 266.597656,93.660156 C249.03125,132.46875 202.472656,129.667969 171.074219,114.496094 C161.050781,109.652344 151.003906,102.148438 147.878906,90.734375 C145.730469,82.867188 147.296875,74.832031 150.792969,67.492188 Z" id="Shape" fill="#FFA436"></path>
            <path d="M347.246094,415.476562 L347.246094,507.832031 C347.246094,510.132812 345.378906,512 343.078125,512 L74.613281,512 C72.3125,512 70.445312,510.132812 70.445312,507.832031 L70.445312,415.476562 C70.445312,393.5 84.09375,373.820312 104.6875,366.117188 L208.847656,327.140625 L313.003906,366.117188 C333.597656,373.820312 347.246094,393.5 347.246094,415.476562 Z" id="Shape" fill="#80B9F9"></path>
            <path d="M347.246094,415.476562 L347.246094,507.832031 C347.246094,510.132812 345.378906,512 343.078125,512 L208.847656,512 L208.847656,327.140625 L313.003906,366.117188 C333.597656,373.820312 347.246094,393.5 347.246094,415.476562 Z" id="Shape" fill="#81EBC7"></path>
            <path d="M313.003906,366.113281 L208.847656,327.136719 L208.847656,335.890625 L289.609375,366.113281 C310.199219,373.816406 323.847656,393.496094 323.847656,415.480469 L323.847656,507.835938 C323.847656,510.136719 321.980469,512 319.683594,512 L343.078125,512 C345.378906,512 347.242188,510.136719 347.242188,507.835938 L347.242188,415.480469 C347.242188,393.496094 333.597656,373.816406 313.003906,366.113281 Z" id="Shape" fill="#50B596"></path>
            <path d="M331.210938,252.738281 L293.675781,252.738281 L293.675781,187.433594 L331.210938,187.433594 C342.011719,187.433594 350.769531,196.1875 350.769531,206.988281 L350.769531,233.183594 C350.769531,243.984375 342.011719,252.738281 331.210938,252.738281 Z" id="Shape" fill="#C5D3D6"></path>
            <path d="M86.480469,252.738281 L124.015625,252.738281 L124.015625,187.433594 L86.480469,187.433594 C75.679688,187.433594 66.921875,196.1875 66.921875,206.988281 L66.921875,233.183594 C66.921875,243.984375 75.679688,252.738281 86.480469,252.738281 Z" id="Shape" fill="#C5D3D6"></path>
            <path d="M306.527344,343.855469 C306.527344,333.335938 297.269531,324.496094 284.726562,321.953125 C282.476562,321.496094 281.375,319.257812 282.617188,317.578125 C289.011719,308.925781 287.449219,297.707031 277.917969,290.320312 C268.167969,282.761719 253.246094,281.667969 241.992188,287.027344 C240.085938,287.929688 237.746094,286.988281 237.152344,285.183594 C233.933594,275.386719 222.484375,268.144531 208.847656,268.144531 C195.207031,268.144531 183.757812,275.386719 180.539062,285.183594 C179.945312,286.988281 177.605469,287.933594 175.699219,287.027344 C164.445312,281.667969 149.523438,282.761719 139.773438,290.320312 C130.242188,297.707031 128.679688,308.925781 135.074219,317.578125 C136.316406,319.257812 135.214844,321.496094 132.964844,321.953125 C120.421875,324.496094 111.164062,333.335938 111.164062,343.855469 C111.164062,354.378906 120.421875,363.21875 132.964844,365.761719 C135.214844,366.214844 136.316406,368.453125 135.074219,370.136719 C128.679688,378.785156 130.242188,390.003906 139.773438,397.394531 C149.523438,404.949219 164.445312,406.046875 175.699219,400.6875 C177.605469,399.78125 179.945312,400.722656 180.539062,402.53125 C183.757812,412.324219 195.207031,419.570312 208.847656,419.570312 C222.484375,419.570312 233.933594,412.324219 237.152344,402.53125 C237.746094,400.722656 240.085938,399.78125 241.992188,400.6875 C253.246094,406.046875 268.167969,404.949219 277.917969,397.394531 C287.449219,390.003906 289.011719,378.785156 282.617188,370.136719 C281.375,368.453125 282.476562,366.214844 284.726562,365.761719 C297.269531,363.21875 306.527344,354.375 306.527344,343.855469 Z" id="Shape" fill="#ED6161"></path>
            <path d="M284.726562,365.757812 C297.269531,363.214844 306.527344,354.375 306.527344,343.855469 C306.527344,333.335938 297.269531,324.496094 284.726562,321.953125 C282.476562,321.496094 281.375,319.257812 282.617188,317.574219 C289.011719,308.925781 287.449219,297.707031 277.917969,290.320312 C269.824219,284.042969 258.167969,282.242188 248,284.871094 C251.667969,285.945312 255.121094,287.75 258.042969,290.320312 C266.4375,297.707031 267.816406,308.925781 262.183594,317.574219 C261.085938,319.257812 262.058594,321.496094 264.039062,321.953125 C275.089844,324.496094 283.242188,333.335938 283.242188,343.855469 C283.242188,354.375 275.089844,363.214844 264.039062,365.757812 C262.058594,366.214844 261.085938,368.453125 262.183594,370.136719 C267.816406,378.785156 266.4375,390.003906 258.042969,397.390625 C255.121094,399.960938 251.667969,401.765625 248,402.839844 C258.167969,405.46875 269.824219,403.664062 277.917969,397.390625 C287.449219,390.003906 289.011719,378.785156 282.617188,370.136719 C281.371094,368.453125 282.476562,366.214844 284.726562,365.757812 Z" id="Shape" fill="#CE4545"></path>
            <path d="M167.554688,276.121094 L167.554688,336.859375 C167.554688,359.664062 186.039062,378.152344 208.847656,378.152344 C231.652344,378.152344 250.140625,359.664062 250.140625,336.859375 L250.140625,276.121094 L167.554688,276.121094 Z" id="Shape" fill="#E6EFF5"></path>
            <path d="M167.554688,333.089844 C183.59375,343.28125 202.113281,349.105469 221.847656,349.105469 C231.316406,349.105469 240.511719,347.761719 249.285156,345.242188 C249.84375,342.535156 250.140625,339.730469 250.140625,336.859375 L250.140625,276.121094 L167.554688,276.121094 L167.554688,333.089844 Z" id="Shape" fill="#C5D3D6"></path>
            <path d="M319.527344,202.445312 C319.527344,133.578125 269.972656,77.75 208.847656,77.75 C147.71875,77.75 98.164062,133.578125 98.164062,202.445312 C98.164062,271.308594 147.71875,327.136719 208.847656,327.136719 C269.972656,327.136719 319.527344,271.308594 319.527344,202.445312 Z" id="Shape" fill="#E6EFF5"></path>
            <path d="M260.191406,91.960938 C284.335938,114.835938 299.683594,149.113281 299.683594,187.433594 C299.683594,256.296875 250.128906,312.125 189.003906,312.125 C170.472656,312.125 153.003906,306.984375 137.65625,297.914062 C156.902344,316.144531 181.734375,327.132812 208.847656,327.132812 C269.972656,327.132812 319.527344,271.308594 319.527344,202.441406 C319.527344,154.457031 295.460938,112.808594 260.191406,91.960938 Z" id="Shape" fill="#C5D3D6"></path>
            <path d="M232.3125,220.085938 C232.3125,233.046875 221.804688,243.550781 208.847656,243.550781 C195.886719,243.550781 185.378906,233.046875 185.378906,220.085938 C185.378906,207.125 195.886719,196.617188 208.847656,196.617188 C221.804688,196.617188 232.3125,207.125 232.3125,220.085938 Z" id="Shape" fill="#ED6161"></path>
            <path d="M224.429688,275.089844 L220.902344,298.980469 C220.453125,301.980469 217.871094,304.207031 214.832031,304.207031 L202.859375,304.207031 C199.820312,304.207031 197.238281,301.980469 196.792969,298.980469 L193.261719,275.089844 C198.3125,276.152344 203.527344,276.703125 208.847656,276.703125 C214.164062,276.703125 219.378906,276.152344 224.429688,275.089844 Z" id="Shape" fill="#F9C295"></path>
            <path d="M226.953125,472.964844 C226.953125,482.964844 218.847656,491.074219 208.847656,491.074219 C198.84375,491.074219 190.738281,482.964844 190.738281,472.964844 C190.738281,462.960938 198.84375,454.855469 208.847656,454.855469 C218.847656,454.855469 226.953125,462.960938 226.953125,472.964844 Z" id="Shape" fill="#EF3F61"></path>
            <path d="M208.847656,284.238281 C203.074219,284.238281 197.3125,283.640625 191.710938,282.464844 C177.6875,279.515625 164.277344,272.832031 152.9375,263.128906 C149.777344,260.425781 149.40625,255.667969 152.113281,252.507812 C154.816406,249.34375 159.570312,248.976562 162.734375,251.679688 C172.160156,259.742188 183.25,265.289062 194.8125,267.71875 C203.976562,269.648438 213.714844,269.648438 222.878906,267.71875 C234.441406,265.289062 245.53125,259.742188 254.957031,251.679688 C258.117188,248.976562 262.875,249.34375 265.578125,252.507812 C268.285156,255.667969 267.914062,260.425781 264.75,263.128906 C253.414062,272.832031 240.003906,279.515625 225.980469,282.464844 C220.378906,283.640625 214.617188,284.238281 208.847656,284.238281 Z" id="Shape" fill="#6E7093"></path>
            <path d="M303.820312,451.621094 L303.820312,512 L288.753906,512 L288.753906,451.621094 C288.753906,447.460938 292.128906,444.085938 296.289062,444.085938 C300.445312,444.085938 303.820312,447.460938 303.820312,451.621094 Z" id="Shape" fill="#50B596"></path>
            <path d="M128.9375,451.621094 L128.9375,512 L113.867188,512 L113.867188,451.621094 C113.867188,447.460938 117.242188,444.085938 121.402344,444.085938 C125.5625,444.085938 128.9375,447.460938 128.9375,451.621094 Z" id="Shape" fill="#3185DB"></path>
            <g id="Group" transform="translate(147.000000, 184.000000)" fill="#363B51">
                <path d="M115.511719,16.167969 C111.371094,16.167969 108.011719,12.808594 108.011719,8.667969 L108.011719,7.667969 C108.011719,3.527344 111.371094,0.167969 115.511719,0.167969 C119.65625,0.167969 123.011719,3.527344 123.011719,7.667969 L123.011719,8.667969 C123.011719,12.808594 119.65625,16.167969 115.511719,16.167969 Z" id="Shape"></path>
                <path d="M8.179688,16.167969 C4.035156,16.167969 0.679688,12.808594 0.679688,8.667969 L0.679688,7.667969 C0.679688,3.527344 4.035156,0.167969 8.179688,0.167969 C12.320312,0.167969 15.679688,3.527344 15.679688,7.667969 L15.679688,8.667969 C15.679688,12.808594 12.320312,16.167969 8.179688,16.167969 Z" id="Shape"></path>
            </g>
        </g>
    </g>
</svg>