<?xml version="1.0" encoding="UTF-8"?>
<svg width="336px" height="512px" viewBox="0 0 336 512" version="1.1" xmlns="http://www.w3.org/2000/svg" xmlns:xlink="http://www.w3.org/1999/xlink">
    <!-- Generator: Sketch 49.1 (51147) - http://www.bohemiancoding.com/sketch -->
    <title>011-vampire</title>
    <desc>Created with Sketch.</desc>
    <defs></defs>
    <g id="login" stroke="none" stroke-width="1" fill="none" fill-rule="evenodd">
        <g id="011-vampire" fill-rule="nonzero">
            <path d="M309.632812,183.597656 L285.050781,183.597656 C269.945312,172.523438 256.175781,157.253906 255.886719,149.082031 C255.707031,144.167969 259.90625,130.488281 263.074219,116.257812 C266.65625,100.21875 268.949219,83.457031 262.222656,77.75 C256.734375,73.09375 247.121094,78.296875 234.179688,85.695312 C217.207031,95.414062 194.492188,108.902344 167.816406,108.902344 C141.140625,108.902344 118.425781,95.414062 101.453125,85.695312 C88.511719,78.296875 78.894531,73.09375 73.410156,77.75 C66.683594,83.457031 68.976562,100.21875 72.558594,116.257812 C75.726562,130.488281 79.925781,144.167969 79.746094,149.082031 C79.453125,157.253906 65.683594,172.523438 50.582031,183.597656 L26,183.597656 C19.28125,147.214844 33.128906,63.09375 66.300781,30.082031 C91.332031,5.171875 143.667969,0 164.816406,0 L170.816406,0 C191.964844,0 244.300781,5.171875 269.332031,30.082031 C302.503906,63.09375 316.351562,147.214844 309.632812,183.597656 Z" id="Shape" fill="#6E7093"></path>
            <path d="M269.332031,30.082031 C244.300781,5.171875 191.964844,0 170.816406,0 L164.816406,0 C163.523438,0 162.109375,0.0195312 160.597656,0.0625 C181.546875,0.726562 224.867188,7.246094 246.230469,32.996094 C272.277344,64.394531 285.164062,137.925781 284.171875,182.941406 C284.464844,183.160156 284.757812,183.382812 285.050781,183.597656 L309.632812,183.597656 C316.347656,147.214844 302.503906,63.09375 269.332031,30.082031 Z" id="Shape" fill="#4E5173"></path>
            <path d="M261.726562,204.570312 C274.292969,192.226562 306.960938,162.136719 321.804688,148.503906 C324.742188,145.808594 329.363281,148.007812 329.296875,152.070312 C328.90625,175.535156 326.371094,231.636719 311.253906,249.808594 C291.953125,273.007812 249.972656,254.449219 250.53125,249.808594 C251.09375,245.167969 242.054688,223.902344 261.726562,204.570312 Z" id="Shape" fill="#E59F6A"></path>
            <path d="M73.902344,204.570312 C61.339844,192.226562 28.671875,162.136719 13.824219,148.503906 C10.890625,145.808594 6.265625,148.007812 6.335938,152.070312 C6.722656,175.535156 9.261719,231.636719 24.378906,249.808594 C43.679688,273.007812 85.660156,254.449219 85.097656,249.808594 C84.539062,245.167969 93.578125,223.902344 73.902344,204.570312 Z" id="Shape" fill="#E59F6A"></path>
            <path d="M317.53125,418.777344 L317.53125,507.496094 C317.53125,509.980469 315.523438,512 313.03125,512 L22.601562,512 C20.109375,512 18.101562,509.980469 18.101562,507.496094 L18.101562,418.777344 C18.101562,394.992188 32.863281,373.710938 55.136719,365.375 L167.816406,323.210938 L280.496094,365.375 C302.769531,373.707031 317.53125,394.992188 317.53125,418.777344 Z" id="Shape" fill="#6E7093"></path>
            <g id="Group" transform="translate(56.000000, 323.000000)" fill="#4E5173">
                <path d="M224.496094,42.371094 L111.816406,0.207031 L104.359375,2.996094 L199.597656,42.371094 C219.757812,50.707031 233.121094,71.992188 233.121094,95.777344 L233.121094,184.496094 C233.121094,186.984375 231.296875,189 229.042969,189 L257.03125,189 C259.519531,189 261.539062,186.984375 261.539062,184.496094 L261.539062,95.777344 C261.535156,71.992188 246.773438,50.707031 224.496094,42.371094 Z" id="Shape"></path>
                <path d="M223.097656,145.898438 L223.097656,189 L207.644531,189 L207.644531,145.898438 C207.644531,141.632812 211.105469,138.171875 215.367188,138.171875 C219.636719,138.171875 223.097656,141.632812 223.097656,145.898438 Z" id="Shape"></path>
                <path d="M15.988281,145.898438 L15.988281,189 L0.535156,189 L0.535156,145.898438 C0.535156,141.632812 3.996094,138.171875 8.261719,138.171875 C12.527344,138.171875 15.988281,141.632812 15.988281,145.898438 Z" id="Shape"></path>
            </g>
            <path d="M168.652344,276.910156 L168.101562,276.90625 C168.085938,276.90625 168.089844,276.90625 168.082031,276.90625 C167.992188,276.90625 167.90625,276.90625 167.816406,276.910156 C167.726562,276.910156 167.640625,276.90625 167.550781,276.90625 C167.542969,276.90625 167.546875,276.90625 167.53125,276.90625 L166.980469,276.910156 C97.828125,277.046875 19.746094,290.105469 0,311.007812 C79.847656,350.578125 168.082031,439.265625 168.082031,443.152344 C168.082031,439.265625 255.785156,350.578125 335.632812,311.007812 C315.886719,290.105469 237.800781,277.046875 168.652344,276.910156 Z M167.550781,276.90625 C167.542969,276.910156 167.535156,276.910156 167.53125,276.910156 C167.421875,276.910156 167.503906,276.910156 167.550781,276.90625 Z M168.101562,276.910156 C168.09375,276.910156 168.089844,276.910156 168.082031,276.910156 L168.082031,276.90625 C168.128906,276.910156 168.210938,276.910156 168.101562,276.910156 Z" id="Shape" fill="#ED6161"></path>
            <path d="M335.632812,311.007812 C315.886719,290.105469 237.800781,277.046875 168.652344,276.910156 L168.101562,276.90625 C168.085938,276.90625 168.089844,276.90625 168.082031,276.90625 C167.992188,276.90625 167.90625,276.90625 167.816406,276.910156 C167.726562,276.910156 167.640625,276.90625 167.550781,276.90625 C167.542969,276.90625 167.546875,276.90625 167.53125,276.90625 L166.980469,276.910156 C150.929688,276.941406 134.394531,277.671875 118.222656,279.03125 C118.917969,279.109375 119.4375,279.175781 119.691406,279.226562 C126.109375,280.519531 132.421875,282.3125 138.601562,284.460938 C162.765625,292.851562 187.898438,303.953125 206.886719,321.800781 C226.195312,339.949219 231.550781,361.03125 228.460938,384.859375 C259.425781,358.617188 298.382812,329.46875 335.632812,311.007812 Z M167.550781,276.910156 C167.542969,276.910156 167.535156,276.910156 167.53125,276.910156 C167.421875,276.910156 167.503906,276.90625 167.550781,276.90625 L167.550781,276.910156 Z M168.101562,276.910156 C168.09375,276.910156 168.089844,276.910156 168.082031,276.910156 L168.082031,276.90625 C168.128906,276.910156 168.210938,276.910156 168.101562,276.910156 Z" id="Shape" fill="#CE4545"></path>
            <path d="M123.144531,276.226562 L123.144531,341.933594 C123.144531,366.605469 143.144531,386.605469 167.816406,386.605469 C192.488281,386.605469 212.488281,366.605469 212.488281,341.933594 L212.488281,276.226562 L123.144531,276.226562 Z" id="Shape" fill="#C5D3D6"></path>
            <path d="M287.554688,197.992188 C287.554688,272.496094 233.945312,332.890625 167.816406,332.890625 C101.6875,332.890625 48.074219,272.496094 48.074219,197.992188 C48.074219,193.617188 48.265625,189.273438 48.625,185.007812 C49.285156,184.546875 49.933594,184.078125 50.585938,183.597656 C65.6875,172.523438 79.457031,157.253906 79.746094,149.082031 C79.925781,144.167969 75.726562,130.488281 72.558594,116.257812 C68.976562,100.21875 66.683594,83.457031 73.410156,77.75 C78.898438,73.09375 88.511719,78.296875 101.453125,85.695312 C118.425781,95.414062 141.140625,108.902344 167.816406,108.902344 C194.492188,108.902344 217.210938,95.414062 234.179688,85.695312 C247.121094,78.296875 256.738281,73.09375 262.222656,77.75 C268.949219,83.457031 266.65625,100.21875 263.074219,116.257812 C259.90625,130.488281 255.707031,144.167969 255.886719,149.082031 C256.179688,157.253906 269.949219,172.523438 285.050781,183.597656 C285.699219,184.078125 286.347656,184.546875 287.007812,185.007812 C287.367188,189.273438 287.554688,193.613281 287.554688,197.992188 Z" id="Shape" fill="#F9C295"></path>
            <path d="M287.007812,185.007812 C286.347656,184.546875 285.699219,184.078125 285.050781,183.597656 C269.945312,172.523438 256.179688,157.253906 255.886719,149.082031 C255.707031,144.167969 259.90625,130.488281 263.074219,116.257812 C266.65625,100.21875 268.949219,83.457031 262.222656,77.75 C257.832031,74.023438 250.792969,76.617188 241.527344,81.589844 C244.390625,89.171875 242.535156,102.957031 239.886719,116.257812 C237.058594,130.488281 233.3125,144.167969 233.472656,149.082031 C233.734375,157.253906 246.019531,172.523438 259.492188,183.597656 C260.070312,184.078125 260.648438,184.546875 261.238281,185.007812 C261.558594,189.273438 261.726562,193.617188 261.726562,197.992188 C261.726562,269.914062 217.152344,328.683594 160.992188,332.667969 C163.25,332.8125 165.523438,332.890625 167.816406,332.890625 C233.945312,332.890625 287.554688,272.496094 287.554688,197.992188 C287.554688,193.613281 287.367188,189.273438 287.007812,185.007812 Z" id="Shape" fill="#E59F6A"></path>
            <path d="M209.164062,358.847656 C179.640625,359.023438 150.074219,352.808594 123.144531,340.707031 L123.144531,341.933594 C123.144531,366.605469 143.144531,386.605469 167.816406,386.605469 C186.5,386.605469 202.496094,375.128906 209.164062,358.847656 Z" id="Shape" fill="#E6EFF5"></path>
            <path d="M238.039062,461.578125 C238.039062,471.746094 232.496094,480.757812 223.964844,486.347656 C214.617188,474.921875 199.492188,467.511719 182.421875,467.511719 C178.203125,467.511719 174.09375,467.960938 170.164062,468.828125 C169.527344,466.503906 169.191406,464.074219 169.191406,461.578125 C169.191406,457.421875 170.117188,453.464844 171.796875,449.851562 C175,451.289062 178.605469,452.089844 182.421875,452.089844 C195.53125,452.089844 206.15625,442.640625 206.210938,430.953125 C224.011719,432.132812 238.039062,445.394531 238.039062,461.578125 Z" id="Shape" fill="#E69012"></path>
            <path d="M97.59375,461.578125 C97.59375,471.746094 103.136719,480.757812 111.664062,486.347656 C121.015625,474.921875 136.136719,467.511719 153.210938,467.511719 C157.429688,467.511719 161.539062,467.960938 165.46875,468.828125 C166.105469,466.503906 166.441406,464.074219 166.441406,461.578125 C166.441406,457.421875 165.511719,453.464844 163.835938,449.851562 C160.632812,451.289062 157.027344,452.089844 153.210938,452.089844 C140.101562,452.089844 129.476562,442.640625 129.421875,430.953125 C111.621094,432.132812 97.59375,445.394531 97.59375,461.578125 Z" id="Shape" fill="#E69012"></path>
            <path d="M188.246094,458.652344 C188.246094,469.933594 179.101562,479.082031 167.816406,479.082031 C156.53125,479.082031 147.386719,469.933594 147.386719,458.652344 C147.386719,447.367188 156.53125,438.21875 167.816406,438.21875 C179.101562,438.21875 188.246094,447.367188 188.246094,458.652344 Z" id="Shape" fill="#FFCD34"></path>
            <path d="M218.4375,292.824219 L186.367188,265.699219 C196.710938,263.304688 206.425781,258.925781 215.171875,252.925781 L223.589844,289.691406 C224.273438,292.667969 220.769531,294.796875 218.4375,292.824219 Z" id="Shape" fill="#E6EFF5"></path>
            <path d="M149.265625,265.699219 L117.191406,292.824219 C114.863281,294.792969 111.359375,292.667969 112.042969,289.6875 L120.460938,252.925781 C129.203125,258.925781 138.921875,263.304688 149.265625,265.699219 Z" id="Shape" fill="#E6EFF5"></path>
            <path d="M167.816406,275.550781 C161.585938,275.550781 155.375,274.910156 149.359375,273.640625 L149.027344,273.566406 C148.507812,273.453125 147.980469,273.335938 147.464844,273.210938 C136.371094,270.644531 125.796875,265.957031 116.089844,259.296875 C113.214844,257.351562 110.347656,255.160156 107.609375,252.8125 C104.367188,250.035156 103.992188,245.160156 106.769531,241.921875 C109.546875,238.679688 114.425781,238.304688 117.664062,241.082031 C119.960938,243.046875 122.355469,244.878906 124.789062,246.527344 C132.941406,252.117188 141.746094,256.027344 151.011719,258.171875 C151.488281,258.289062 151.917969,258.382812 152.339844,258.472656 L152.617188,258.535156 C162.417969,260.601562 173.148438,260.617188 183.078125,258.519531 L183.261719,258.480469 C183.695312,258.386719 184.132812,258.289062 184.566406,258.183594 C193.886719,256.027344 202.691406,252.117188 210.800781,246.554688 C213.277344,244.878906 215.675781,243.046875 217.964844,241.082031 C221.207031,238.304688 226.082031,238.679688 228.859375,241.917969 C231.636719,245.160156 231.261719,250.035156 228.023438,252.8125 C225.285156,255.160156 222.417969,257.351562 219.5,259.328125 C209.835938,265.957031 199.261719,270.644531 188.109375,273.226562 C187.640625,273.339844 187.101562,273.457031 186.570312,273.574219 L186.335938,273.628906 C180.257812,274.910156 174.046875,275.550781 167.816406,275.550781 Z" id="Shape" fill="#6E7093"></path>
            <path d="M221.484375,200.167969 C217.339844,200.167969 213.984375,196.808594 213.984375,192.667969 L213.984375,191.667969 C213.984375,187.523438 217.339844,184.167969 221.484375,184.167969 C225.625,184.167969 228.984375,187.523438 228.984375,191.667969 L228.984375,192.667969 C228.984375,196.808594 225.625,200.167969 221.484375,200.167969 Z" id="Shape" fill="#363B51"></path>
            <path d="M114.148438,200.167969 C110.007812,200.167969 106.648438,196.808594 106.648438,192.667969 L106.648438,191.667969 C106.648438,187.523438 110.007812,184.167969 114.148438,184.167969 C118.289062,184.167969 121.648438,187.523438 121.648438,191.667969 L121.648438,192.667969 C121.648438,196.808594 118.292969,200.167969 114.148438,200.167969 Z" id="Shape" fill="#363B51"></path>
        </g>
    </g>
</svg>