<?xml version="1.0" encoding="UTF-8"?>
<svg width="387px" height="512px" viewBox="0 0 387 512" version="1.1" xmlns="http://www.w3.org/2000/svg" xmlns:xlink="http://www.w3.org/1999/xlink">
    <!-- Generator: Sketch 49.1 (51147) - http://www.bohemiancoding.com/sketch -->
    <title>012-witch</title>
    <desc>Created with Sketch.</desc>
    <defs></defs>
    <g id="login" stroke="none" stroke-width="1" fill="none" fill-rule="evenodd">
        <g id="012-witch" fill-rule="nonzero">
            <path d="M58.503906,158.402344 C56.320312,176.511719 55.160156,195.34375 55.160156,214.675781 C55.160156,356.339844 116.984375,471.179688 193.25,471.179688 C269.515625,471.179688 331.335938,356.339844 331.335938,214.675781 C331.335938,195.34375 330.175781,176.511719 327.996094,158.402344 L58.503906,158.402344 Z" id="Shape" fill="#F9DC6A"></path>
            <path d="M327.992188,158.402344 L305.09375,158.402344 C307.09375,176.511719 308.15625,195.34375 308.15625,214.675781 C308.15625,352.574219 254.488281,465.039062 187.199219,470.921875 C189.203125,471.082031 191.21875,471.179688 193.246094,471.179688 C269.511719,471.179688 331.335938,356.339844 331.335938,214.675781 C331.335938,195.34375 330.175781,176.511719 327.992188,158.402344 Z" id="Shape" fill="#E5AC51"></path>
            <path d="M213.742188,0 L269.558594,77.277344 L327.597656,31.699219 C340.851562,21.289062 333.492188,0 316.636719,0 L213.742188,0 Z" id="Shape" fill="#6E7093"></path>
            <path d="M327.300781,512 L59.195312,512 C56.898438,512 55.039062,510.136719 55.039062,507.84375 L55.039062,425.945312 C55.039062,403.988281 68.667969,384.339844 89.230469,376.644531 L193.246094,337.722656 L297.265625,376.644531 C317.828125,384.339844 331.457031,403.988281 331.457031,425.945312 L331.457031,507.84375 C331.457031,510.136719 329.59375,512 327.300781,512 Z" id="Shape" fill="#6E7093"></path>
            <g id="Group" transform="translate(98.000000, 337.000000)" fill="#4E5173">
                <path d="M199.265625,39.644531 L95.246094,0.722656 L82.980469,5.3125 L174.730469,39.644531 C195.296875,47.339844 208.921875,66.988281 208.921875,88.945312 L208.921875,170.84375 C208.921875,173.140625 207.0625,175 204.765625,175 L229.296875,175 C231.59375,175 233.457031,173.136719 233.457031,170.84375 L233.457031,88.945312 C233.457031,66.988281 219.828125,47.339844 199.265625,39.644531 Z" id="Shape"></path>
                <path d="M15.648438,175 L15.648438,125.039062 C15.648438,120.769531 12.191406,117.3125 7.925781,117.3125 C3.65625,117.3125 0.199219,120.773438 0.199219,125.039062 L0.199219,175 L15.648438,175 Z" id="Shape"></path>
                <path d="M190.296875,175 L190.296875,125.039062 C190.296875,120.769531 186.839844,117.3125 182.570312,117.3125 C178.304688,117.3125 174.847656,120.773438 174.847656,125.039062 L174.847656,175 L190.296875,175 Z" id="Shape"></path>
            </g>
            <path d="M152.011719,292.976562 L152.011719,353.632812 C152.011719,376.40625 170.472656,394.867188 193.246094,394.867188 C216.023438,394.867188 234.484375,376.40625 234.484375,353.632812 L234.484375,292.976562 L152.011719,292.976562 Z" id="Shape" fill="#F9C295"></path>
            <path d="M152.011719,335.972656 C167.566406,345.386719 185.347656,350.742188 204.238281,350.742188 C214.726562,350.742188 224.871094,349.089844 234.484375,346.015625 L234.484375,292.976562 L152.011719,292.976562 L152.011719,335.972656 Z" id="Shape" fill="#E59F6A"></path>
            <path d="M291.113281,260.796875 C272.613281,300.398438 235.722656,327.390625 193.246094,327.390625 C151.179688,327.390625 114.585938,300.90625 95.910156,261.925781 C112.539062,242.28125 118.109375,216.332031 119.773438,183.148438 L173.035156,183.148438 C183.304688,215.226562 224.839844,243.914062 291.113281,260.796875 Z" id="Shape" fill="#F9C295"></path>
            <path d="M383.949219,172.925781 L320.441406,131.777344 L256.371094,13.652344 C251.808594,5.238281 243.007812,0 233.4375,0 L153.058594,0 C143.488281,0 134.6875,5.238281 130.125,13.652344 L66.054688,131.777344 L2.546875,172.925781 C-2.101562,175.933594 0.03125,183.148438 5.570312,183.148438 L380.925781,183.148438 C386.464844,183.148438 388.597656,175.933594 383.949219,172.925781 Z" id="Shape" fill="#6E7093"></path>
            <path d="M383.949219,172.925781 L320.441406,131.777344 L256.371094,13.652344 C251.808594,5.238281 243.007812,0 233.4375,0 L206.652344,0 C215.121094,0 222.914062,5.238281 226.953125,13.652344 L283.667969,131.777344 L339.890625,172.925781 C344.003906,175.933594 342.113281,183.148438 337.214844,183.148438 L380.925781,183.148438 C386.464844,183.148438 388.597656,175.933594 383.949219,172.925781 Z" id="Shape" fill="#4E5173"></path>
            <polygon id="Shape" fill="#B78358" points="81.398438 103.484375 66.054688 131.777344 320.441406 131.777344 305.097656 103.484375"></polygon>
            <polygon id="Shape" fill="#935D38" points="305.097656 103.484375 270.085938 103.484375 283.667969 131.777344 320.441406 131.777344"></polygon>
            <path d="M208.359375,144.898438 L178.136719,144.898438 C168.441406,144.898438 160.585938,137.039062 160.585938,127.34375 L160.585938,107.917969 C160.585938,98.222656 168.441406,90.363281 178.136719,90.363281 L208.359375,90.363281 C218.054688,90.363281 225.914062,98.222656 225.914062,107.917969 L225.914062,127.34375 C225.914062,137.039062 218.054688,144.898438 208.359375,144.898438 Z" id="Shape" fill="#FFCD34"></path>
            <path d="M258.628906,512 C250.707031,471.261719 220.609375,415.878906 193.246094,394.867188 C165.886719,415.878906 135.789062,471.261719 127.867188,512 L258.628906,512 Z" id="Shape" fill="#B1BFC4"></path>
            <path d="M210.128906,394.867188 C210.128906,404.191406 202.570312,411.746094 193.246094,411.746094 C183.925781,411.746094 176.367188,404.191406 176.367188,394.867188 C176.367188,385.546875 183.925781,377.988281 193.246094,377.988281 C202.570312,377.988281 210.128906,385.546875 210.128906,394.867188 Z" id="Shape" fill="#BFEA92"></path>
            <path d="M143.496094,225.78125 C139.355469,225.78125 135.996094,222.425781 135.996094,218.28125 L135.996094,216.28125 C135.996094,212.140625 139.355469,208.78125 143.496094,208.78125 C147.640625,208.78125 150.996094,212.140625 150.996094,216.28125 L150.996094,218.28125 C150.996094,222.425781 147.640625,225.78125 143.496094,225.78125 Z" id="Shape" fill="#363B51"></path>
            <path d="M193.242188,278.046875 C181.0625,278.046875 169.632812,275.527344 161.054688,270.953125 C157.398438,269.007812 156.015625,264.464844 157.964844,260.808594 C159.910156,257.152344 164.453125,255.765625 168.109375,257.71875 C174.460938,261.101562 183.621094,263.042969 193.246094,263.042969 C202.871094,263.042969 212.035156,261.101562 218.390625,257.71875 C222.042969,255.765625 226.585938,257.152344 228.535156,260.808594 C230.484375,264.464844 229.097656,269.007812 225.445312,270.953125 C216.863281,275.527344 205.429688,278.046875 193.242188,278.046875 Z" id="Shape" fill="#363B51"></path>
        </g>
    </g>
</svg>