<?xml version="1.0" encoding="UTF-8"?>
<svg width="351px" height="512px" viewBox="0 0 351 512" version="1.1" xmlns="http://www.w3.org/2000/svg" xmlns:xlink="http://www.w3.org/1999/xlink">
    <!-- Generator: Sketch 49.1 (51147) - http://www.bohemiancoding.com/sketch -->
    <title>013-potion</title>
    <desc>Created with Sketch.</desc>
    <defs></defs>
    <g id="login" stroke="none" stroke-width="1" fill="none" fill-rule="evenodd">
        <g id="013-potion" fill-rule="nonzero">
            <path d="M119.722656,16.210938 L136.382812,85.941406 L214.507812,85.941406 L231.171875,16.210938 C233.148438,7.941406 226.878906,0 218.375,0 L132.515625,0 C124.011719,0 117.746094,7.941406 119.722656,16.210938 Z" id="Shape" fill="#FFCD34"></path>
            <path d="M218.375,0 L193.910156,0 C202.410156,0 208.679688,7.941406 206.703125,16.210938 L190.039062,85.941406 L214.507812,85.941406 L231.171875,16.210938 C233.148438,7.941406 226.878906,0 218.375,0 Z" id="Shape" fill="#E69012"></path>
            <path d="M350.621094,369.023438 C347.203125,338.9375 279.875,276.304688 247.246094,247.550781 C236.15625,237.777344 229.8125,223.714844 229.8125,208.933594 L229.8125,147.15625 L234.242188,147.15625 C251.144531,147.15625 264.847656,133.453125 264.847656,116.550781 C264.847656,99.648438 251.144531,85.945312 234.242188,85.945312 L116.652344,85.945312 C99.75,85.945312 86.046875,99.648438 86.046875,116.550781 C86.046875,133.453125 99.75,147.15625 116.652344,147.15625 L121.082031,147.15625 L121.082031,208.933594 C121.082031,223.714844 114.734375,237.777344 103.644531,247.550781 C71.015625,276.304688 3.6875,338.941406 0.273438,369.023438 C-4.714844,412.925781 59.984375,512 104.167969,512 L246.722656,512 C290.910156,512 355.605469,412.925781 350.621094,369.023438 Z" id="Shape" fill="#D8E6F0"></path>
            <path d="M350.621094,369.023438 C347.203125,338.9375 279.875,276.304688 247.246094,247.550781 C236.15625,237.777344 229.8125,223.714844 229.8125,208.933594 L229.8125,147.15625 L234.242188,147.15625 C251.144531,147.15625 264.847656,133.453125 264.847656,116.550781 C264.847656,99.648438 251.144531,85.945312 234.242188,85.945312 L210.894531,85.945312 C227.796875,85.945312 241.496094,99.648438 241.496094,116.550781 C241.496094,133.453125 227.796875,147.15625 210.894531,147.15625 L206.460938,147.15625 L206.460938,208.933594 C206.460938,223.714844 212.808594,237.777344 223.898438,247.550781 C256.527344,276.304688 323.855469,338.941406 327.273438,369.023438 C332.257812,412.925781 267.558594,512 223.375,512 L246.722656,512 C290.910156,512 355.605469,412.925781 350.621094,369.023438 Z" id="Shape" fill="#BDCDD6"></path>
            <path d="M175.445312,147.152344 C171.304688,147.152344 167.945312,150.511719 167.945312,154.652344 C167.945312,158.796875 171.304688,162.152344 175.445312,162.152344 L229.8125,162.152344 L229.8125,147.152344 L175.445312,147.152344 Z" id="Shape" fill="#BDCDD6"></path>
            <path d="M322.996094,372.292969 C322.765625,371.226562 319.507812,358.839844 288.257812,325.375 C285.34375,322.253906 282.359375,319.132812 279.339844,316.039062 C280.6875,325.855469 280.363281,335.878906 274.066406,343.089844 C266.625,351.613281 253.839844,352.546875 242.542969,351.925781 C204.632812,349.847656 167.585938,340.050781 130.691406,331.109375 C106.628906,325.277344 72.347656,316.039062 57.472656,330.984375 C29.652344,358.941406 28.113281,371.285156 27.894531,372.289062 C27.300781,378.039062 29.710938,391.265625 38.46875,409.886719 C46.78125,427.546875 58.796875,445.796875 71.441406,459.957031 C89.1875,479.832031 101.082031,484.183594 104.167969,484.183594 L246.722656,484.183594 C249.808594,484.183594 261.703125,479.832031 279.449219,459.957031 C292.09375,445.796875 304.109375,427.546875 312.421875,409.886719 C321.183594,391.265625 323.589844,378.039062 322.996094,372.292969 Z" id="Shape" fill="#7F56AF"></path>
            <path d="M322.996094,372.292969 C322.765625,371.226562 319.507812,358.839844 288.257812,325.375 C285.34375,322.253906 282.359375,319.132812 279.339844,316.039062 C280.566406,324.980469 280.40625,334.089844 275.613281,341.09375 C293.914062,362.835938 296.160156,371.414062 296.351562,372.289062 C296.945312,378.039062 294.535156,391.265625 285.777344,409.886719 C277.464844,427.546875 265.449219,445.796875 252.804688,459.960938 C235.058594,479.832031 223.164062,484.183594 220.078125,484.183594 L246.722656,484.183594 C249.808594,484.183594 261.703125,479.832031 279.449219,459.960938 C292.09375,445.796875 304.113281,427.546875 312.421875,409.886719 C321.183594,391.265625 323.589844,378.039062 322.996094,372.292969 Z" id="Shape" fill="#5E4487"></path>
            <path d="M242.542969,351.929688 C253.839844,352.546875 266.625,351.613281 274.0625,343.09375 C280.359375,335.878906 280.6875,325.855469 279.339844,316.039062 C271.117188,307.816406 239.636719,277.585938 148.800781,335.527344 C179.722656,343.046875 210.832031,350.1875 242.542969,351.929688 Z" id="Shape" fill="#9E71D3"></path>
            <g id="Group" transform="translate(149.000000, 12.000000)" fill="#E69012">
                <path d="M7.558594,20.097656 C3.414062,20.097656 0.058594,16.738281 0.058594,12.597656 L0.058594,8.476562 C0.058594,4.332031 3.414062,0.976562 7.558594,0.976562 C11.703125,0.976562 15.058594,4.332031 15.058594,8.476562 L15.058594,12.597656 C15.058594,16.738281 11.703125,20.097656 7.558594,20.097656 Z" id="Shape"></path>
                <path d="M45.332031,32.152344 C41.191406,32.152344 37.832031,28.796875 37.832031,24.652344 L37.832031,20.53125 C37.832031,16.386719 41.191406,13.03125 45.332031,13.03125 C49.476562,13.03125 52.832031,16.386719 52.832031,20.53125 L52.832031,24.652344 C52.832031,28.796875 49.476562,32.152344 45.332031,32.152344 Z" id="Shape"></path>
                <path d="M31.253906,61.945312 C27.109375,61.945312 23.753906,58.589844 23.753906,54.445312 L23.753906,50.324219 C23.753906,46.183594 27.109375,42.824219 31.253906,42.824219 C35.398438,42.824219 38.753906,46.183594 38.753906,50.324219 L38.753906,54.445312 C38.753906,58.589844 35.394531,61.945312 31.253906,61.945312 Z" id="Shape"></path>
            </g>
            <path d="M118.785156,378.421875 C118.785156,385.910156 112.714844,391.984375 105.222656,391.984375 C97.730469,391.984375 91.65625,385.910156 91.65625,378.421875 C91.65625,370.929688 97.730469,364.855469 105.222656,364.855469 C112.714844,364.855469 118.785156,370.929688 118.785156,378.421875 Z" id="Shape" fill="#9E71D3"></path>
            <path d="M196.804688,439.238281 C196.804688,448.199219 189.542969,455.460938 180.582031,455.460938 C171.621094,455.460938 164.355469,448.199219 164.355469,439.238281 C164.355469,430.277344 171.621094,423.011719 180.582031,423.011719 C189.542969,423.011719 196.804688,430.277344 196.804688,439.238281 Z" id="Shape" fill="#9E71D3"></path>
        </g>
    </g>
</svg>