<?xml version="1.0" encoding="UTF-8"?>
<svg width="441px" height="512px" viewBox="0 0 441 512" version="1.1" xmlns="http://www.w3.org/2000/svg" xmlns:xlink="http://www.w3.org/1999/xlink">
    <!-- Generator: Sketch 49.1 (51147) - http://www.bohemiancoding.com/sketch -->
    <title>014-candy-1</title>
    <desc>Created with Sketch.</desc>
    <defs></defs>
    <g id="login" stroke="none" stroke-width="1" fill="none" fill-rule="evenodd">
        <g id="014-candy-1" transform="translate(0.000000, -1.000000)" fill-rule="nonzero">
            <path d="M129.402344,211.007812 C124.742188,208.644531 121.714844,210.929688 122.714844,216.058594 C123.710938,221.1875 123.226562,226.886719 120.234375,231.449219 C117.238281,236.011719 111.375,239.039062 106.257812,237.707031 C100.847656,236.296875 97.878906,230.875 95.796875,225.800781 C88.214844,207.316406 84.902344,186.949219 86.160156,166.574219 L91.835938,162.289062 C111.773438,166.667969 130.453125,175.4375 146.148438,187.796875 C150.460938,191.1875 154.863281,195.527344 154.734375,201.117188 C154.613281,206.402344 150.09375,211.214844 144.886719,212.84375 C139.675781,214.472656 134.0625,213.375 129.402344,211.007812 Z" id="Shape" fill="#3185DB"></path>
            <path d="M34.898438,85.804688 C35.898438,90.933594 32.871094,93.21875 28.210938,90.851562 C23.554688,88.484375 17.9375,87.386719 12.730469,89.015625 C7.519531,90.648438 3.003906,95.457031 2.882812,100.742188 C2.753906,106.332031 7.15625,110.671875 11.464844,114.0625 C27.164062,126.421875 45.839844,135.191406 65.78125,139.570312 L71.457031,135.285156 C72.710938,114.910156 69.398438,94.542969 61.816406,76.058594 C59.734375,70.984375 56.769531,65.5625 51.355469,64.152344 C46.242188,62.820312 40.375,65.847656 37.382812,70.410156 C34.386719,74.972656 33.902344,80.675781 34.898438,85.804688 Z" id="Shape" fill="#3185DB"></path>
            <path d="M113.421875,124.8125 C97.335938,103.5 68.796875,97.917969 49.679688,112.347656 C30.558594,126.773438 28.101562,155.75 44.1875,177.066406 C60.273438,198.378906 88.8125,203.960938 107.933594,189.535156 C127.050781,175.105469 129.507812,146.128906 113.421875,124.8125 Z" id="Shape" fill="#80B9F9"></path>
            <path d="M229.632812,204.5625 C232.941406,200.515625 231.359375,197.070312 226.136719,196.945312 C220.914062,196.820312 215.445312,195.128906 211.632812,191.222656 C207.820312,187.320312 206.121094,180.945312 208.515625,176.234375 C211.054688,171.25 216.988281,169.515625 222.390625,168.570312 C242.066406,165.125 262.671875,166.253906 282.304688,171.847656 L285.273438,178.308594 C276.722656,196.847656 264.152344,213.210938 248.71875,225.894531 C244.480469,229.378906 239.296875,232.746094 233.863281,231.425781 C228.726562,230.171875 225,224.726562 224.523438,219.292969 C224.046875,213.855469 226.324219,208.605469 229.632812,204.5625 Z" id="Shape" fill="#9BC66A"></path>
            <path d="M372.183594,139.09375 C366.960938,138.96875 365.378906,135.519531 368.6875,131.476562 C371.996094,127.433594 374.273438,122.183594 373.796875,116.746094 C373.320312,111.3125 369.59375,105.867188 364.457031,104.613281 C359.023438,103.292969 353.839844,106.660156 349.601562,110.144531 C334.167969,122.828125 321.597656,139.191406 313.046875,157.730469 L316.015625,164.191406 C335.648438,169.785156 356.253906,170.914062 375.929688,167.46875 C381.335938,166.523438 387.265625,164.789062 389.804688,159.804688 C392.203125,155.09375 390.5,148.71875 386.6875,144.816406 C382.875,140.910156 377.410156,139.21875 372.183594,139.09375 Z" id="Shape" fill="#9BC66A"></path>
            <path d="M343.089844,147.816406 C333.09375,126.050781 305.316406,117.441406 281.050781,128.585938 C256.785156,139.734375 245.21875,166.414062 255.214844,188.179688 C265.214844,209.945312 292.992188,218.554688 317.257812,207.40625 C341.519531,196.261719 353.085938,169.582031 343.089844,147.816406 Z" id="Shape" fill="#BFEA92"></path>
            <path d="M-6.31088724e-30,228.253906 C-6.31088724e-30,240.835938 10.199219,251.035156 22.78125,251.035156 L388.679688,251.035156 C401.261719,251.035156 411.464844,240.835938 411.464844,228.253906 C411.464844,215.671875 401.261719,205.472656 388.679688,205.472656 L22.78125,205.472656 C10.199219,205.472656 -5.68434189e-14,215.671875 -6.31088724e-30,228.253906 Z" id="Shape" fill="#878CAD"></path>
            <path d="M388.679688,205.472656 L364.664062,205.472656 C377.246094,205.472656 387.445312,215.671875 387.445312,228.253906 C387.445312,240.835938 377.246094,251.035156 364.664062,251.035156 L388.679688,251.035156 C401.261719,251.035156 411.464844,240.835938 411.464844,228.253906 C411.464844,215.671875 401.261719,205.472656 388.679688,205.472656 Z" id="Shape" fill="#6E7093"></path>
            <path d="M395.171875,330.710938 C395.171875,302.246094 388.882812,275.257812 377.640625,251.039062 L33.824219,251.039062 C22.578125,275.257812 16.289062,302.246094 16.289062,330.710938 C16.289062,378.722656 34.160156,417.785156 63.601562,446.011719 C50.273438,477.660156 48.929688,507.082031 60.765625,512.226562 C71.429688,516.863281 89.214844,500.222656 102.914062,473.953125 C132.527344,489.335938 167.828125,497.503906 205.730469,497.503906 C243.632812,497.503906 278.933594,489.335938 308.546875,473.953125 C322.246094,500.222656 340.03125,516.863281 350.695312,512.226562 C362.53125,507.082031 361.1875,477.660156 347.859375,446.011719 C377.300781,417.785156 395.171875,378.722656 395.171875,330.710938 Z" id="Shape" fill="#6E7093"></path>
            <path d="M395.171875,330.710938 C395.171875,302.246094 388.882812,275.257812 377.640625,251.039062 L352.128906,251.039062 C362.578125,275.257812 368.421875,302.246094 368.421875,330.710938 C368.421875,378.722656 351.8125,417.785156 324.453125,446.011719 C334.269531,471.097656 337.082031,494.773438 332.351562,506.078125 C339.253906,511.9375 345.746094,514.382812 350.699219,512.226562 C362.53125,507.082031 361.191406,477.660156 347.863281,446.011719 C377.300781,417.785156 395.171875,378.722656 395.171875,330.710938 Z" id="Shape" fill="#4E5173"></path>
            <path d="M107.894531,34.800781 C112.628906,33.703125 113.425781,30.269531 109.648438,27.207031 C105.875,24.148438 102.816406,19.792969 102.226562,14.753906 C101.636719,9.710938 104.011719,4.050781 108.453125,1.945312 C113.15625,-0.28125 118.507812,1.8125 123.023438,4.191406 C139.464844,12.839844 153.988281,25.382812 165.261719,40.660156 L163.769531,47.101562 C146.941406,55.890625 128.386719,60.789062 109.816406,61.351562 C104.71875,61.503906 98.988281,61.039062 95.742188,56.976562 C92.671875,53.136719 93.019531,47.011719 95.761719,42.738281 C98.503906,38.46875 103.164062,35.898438 107.894531,34.800781 Z" id="Shape" fill="#CC6D0E"></path>
            <path d="M250.039062,67.640625 C246.261719,64.578125 247.058594,61.140625 251.792969,60.046875 C256.523438,58.949219 261.183594,56.378906 263.925781,52.109375 C266.664062,47.835938 267.015625,41.710938 263.945312,37.867188 C260.699219,33.804688 254.96875,33.339844 249.871094,33.496094 C231.300781,34.058594 212.746094,38.957031 195.914062,47.742188 L194.425781,54.1875 C205.695312,69.464844 220.222656,82.007812 236.664062,90.65625 C241.179688,93.03125 246.53125,95.125 251.230469,92.898438 C255.675781,90.796875 258.046875,85.136719 257.460938,80.09375 C256.871094,75.054688 253.8125,70.699219 250.039062,67.640625 Z" id="Shape" fill="#CC6D0E"></path>
            <path d="M188.921875,8.132812 C164.726562,2.542969 141.046875,15.605469 136.035156,37.308594 C131.019531,59.011719 146.570312,81.140625 170.765625,86.730469 C194.960938,92.320312 218.640625,79.257812 223.65625,57.554688 C228.667969,35.851562 213.121094,13.722656 188.921875,8.132812 Z" id="Shape" fill="#FFA436"></path>
            <path d="M388.40625,280.4375 C390.753906,288.984375 392.515625,297.773438 393.65625,306.761719 C403.242188,316.808594 410.8125,325.941406 416.261719,334.0625 C424.265625,345.976562 427.375,355.476562 424.792969,360.125 C420.988281,366.972656 408.25,370.117188 389.828125,368.757812 C352.734375,366.023438 298.296875,346.46875 244.207031,316.453125 C205.1875,294.804688 170.007812,269.652344 145.152344,245.640625 C137.890625,238.621094 131.597656,231.796875 126.453125,225.347656 C123.871094,222.109375 119.152344,221.578125 115.914062,224.164062 C112.675781,226.746094 112.144531,231.464844 114.730469,234.703125 C120.273438,241.652344 127.003906,248.960938 134.726562,256.425781 C160.5,281.324219 196.796875,307.300781 236.929688,329.570312 C292.824219,360.585938 349.570312,380.828125 388.722656,383.71875 C391.59375,383.929688 394.605469,384.058594 397.671875,384.058594 C413.375,384.058594 430.542969,380.652344 437.90625,367.410156 C447.753906,349.671875 431.554688,321.195312 388.40625,280.4375 Z" id="Shape" fill="#363B51"></path>
        </g>
    </g>
</svg>