<?xml version="1.0" encoding="UTF-8"?>
<svg width="504px" height="512px" viewBox="0 0 504 512" version="1.1" xmlns="http://www.w3.org/2000/svg" xmlns:xlink="http://www.w3.org/1999/xlink">
    <!-- Generator: Sketch 49.1 (51147) - http://www.bohemiancoding.com/sketch -->
    <title>004-monster</title>
    <desc>Created with Sketch.</desc>
    <defs></defs>
    <g id="login" stroke="none" stroke-width="1" fill="none" fill-rule="evenodd">
        <g id="004-monster" fill-rule="nonzero">
            <g id="Group" fill="#E59F6A">
                <path d="M503.207031,341.917969 L497.957031,304.824219 C497.566406,302.054688 495.664062,299.734375 493.027344,298.800781 L460.261719,287.253906 C456.136719,272.628906 449.023438,250.578125 440.925781,231.140625 C428.578125,201.476562 418.820312,188.816406 408.300781,188.816406 C408.296875,188.816406 408.285156,188.820312 408.289062,188.816406 C400.796875,188.824219 370.339844,201.585938 352.855469,209.195312 C350.804688,210.085938 349.257812,211.84375 348.640625,213.992188 L338.855469,247.878906 C338.046875,250.671875 338.925781,253.675781 341.109375,255.59375 C343.292969,257.511719 346.386719,257.996094 349.050781,256.835938 C368.199219,248.507812 391.246094,239.320312 397.695312,237.878906 C399.90625,239.84375 407.722656,249.230469 423.824219,291.785156 L409.058594,294.742188 C407.0625,295.144531 405.3125,296.339844 404.214844,298.058594 C403.117188,299.773438 402.765625,301.863281 403.238281,303.847656 L414.933594,352.601562 C415.757812,356.039062 418.832031,358.351562 422.222656,358.351562 C422.800781,358.351562 423.390625,358.285156 423.976562,358.144531 C428.003906,357.175781 430.488281,353.128906 429.519531,349.101562 L419.644531,307.921875 L429.074219,306.03125 C437.371094,329.109375 444.035156,350.210938 446.339844,357.640625 L440.949219,383.554688 L431.988281,388.730469 C428.402344,390.800781 427.171875,395.386719 429.242188,398.972656 C430.632812,401.378906 433.152344,402.726562 435.746094,402.726562 C437.015625,402.726562 438.308594,402.402344 439.488281,401.71875 L451.359375,394.863281 C453.210938,393.796875 454.515625,391.988281 454.953125,389.898438 L461.417969,358.796875 C461.425781,358.769531 461.425781,358.738281 461.433594,358.707031 C461.464844,358.550781 461.488281,358.394531 461.507812,358.234375 C461.519531,358.148438 461.53125,358.0625 461.539062,357.976562 C461.542969,357.953125 461.546875,357.933594 461.546875,357.914062 C461.898438,353.839844 464.332031,324.292969 463.097656,304.160156 L483.742188,311.4375 L488.351562,344.019531 C488.882812,347.761719 492.089844,350.46875 495.769531,350.46875 C496.117188,350.46875 496.472656,350.445312 496.828125,350.394531 C500.933594,349.8125 503.785156,346.019531 503.207031,341.917969 Z" id="Shape"></path>
                <path d="M155.140625,213.992188 C154.519531,211.84375 152.976562,210.085938 150.925781,209.195312 C133.4375,201.585938 102.980469,188.824219 95.492188,188.820312 C95.492188,188.816406 95.484375,188.820312 95.480469,188.820312 C84.960938,188.820312 75.203125,201.476562 62.851562,231.140625 C54.757812,250.578125 47.640625,272.628906 43.515625,287.253906 L10.753906,298.804688 C8.113281,299.734375 6.210938,302.054688 5.820312,304.828125 L0.574219,341.917969 C-0.0078125,346.019531 2.847656,349.8125 6.949219,350.394531 C7.304688,350.445312 7.660156,350.46875 8.007812,350.46875 C11.6875,350.46875 14.898438,347.765625 15.425781,344.019531 L20.035156,311.4375 L40.679688,304.160156 C39.445312,324.292969 41.878906,353.839844 42.230469,357.914062 C42.230469,357.9375 42.234375,357.957031 42.238281,357.976562 C42.246094,358.0625 42.261719,358.148438 42.273438,358.238281 C42.292969,358.394531 42.316406,358.550781 42.34375,358.707031 C42.351562,358.738281 42.351562,358.769531 42.359375,358.800781 L48.828125,389.898438 C49.261719,391.988281 50.570312,393.796875 52.417969,394.867188 L64.289062,401.71875 C65.472656,402.402344 66.761719,402.726562 68.035156,402.726562 C70.625,402.726562 73.148438,401.378906 74.535156,398.976562 C76.605469,395.386719 75.378906,390.800781 71.789062,388.730469 L62.828125,383.554688 L57.4375,357.640625 C59.742188,350.210938 66.40625,329.109375 74.703125,306.035156 L84.136719,307.921875 L74.257812,349.101562 C73.292969,353.128906 75.773438,357.175781 79.800781,358.144531 C80.390625,358.285156 80.976562,358.351562 81.558594,358.351562 C84.945312,358.351562 88.019531,356.039062 88.84375,352.601562 L100.539062,303.847656 C101.015625,301.867188 100.664062,299.777344 99.566406,298.058594 C98.464844,296.339844 96.714844,295.144531 94.71875,294.742188 L79.953125,291.785156 C96.058594,249.230469 103.871094,239.84375 106.082031,237.878906 C112.53125,239.320312 135.578125,248.511719 154.726562,256.839844 C157.390625,257.996094 160.484375,257.515625 162.667969,255.597656 C164.851562,253.675781 165.730469,250.671875 164.921875,247.878906 L155.140625,213.992188 Z" id="Shape"></path>
                <path d="M448.355469,482.589844 C412.578125,482.386719 362.960938,466.5625 362.960938,427.597656 C362.960938,395.007812 362.960938,310.875 362.960938,225.429688 C362.960938,134.824219 380.117188,42.746094 387.085938,9.078125 C388.03125,4.515625 382.789062,1.25 379.101562,4.09375 L341.808594,32.835938 L326.421875,3.355469 C324.640625,-0.0585938 319.839844,-0.28125 317.753906,2.953125 L284.667969,54.148438 C281.625,58.859375 276.402344,61.703125 270.792969,61.703125 C264.636719,61.703125 258.992188,58.28125 256.144531,52.820312 L230.019531,2.699219 C228.320312,-0.554688 223.8125,-0.949219 221.578125,1.964844 L184.347656,50.539062 L134.355469,4.878906 C130.917969,1.742188 125.429688,4.558594 125.980469,9.179688 C130.171875,44.449219 140.824219,143.355469 140.824219,238.175781 L140.824219,427.597656 C140.824219,466.5625 91.207031,482.386719 55.425781,482.589844 C20.351562,482.789062 26.40625,511.996094 40.414062,511.996094 L463.367188,511.996094 C477.375,511.996094 483.429688,482.789062 448.355469,482.589844 Z" id="Shape"></path>
            </g>
            <path d="M448.355469,482.589844 C412.578125,482.386719 362.960938,466.5625 362.960938,427.597656 L362.960938,225.429688 C362.960938,134.824219 380.117188,42.746094 387.085938,9.078125 C388.03125,4.515625 382.789062,1.246094 379.101562,4.089844 L353.488281,23.832031 C346.234375,65.101562 334.136719,145.835938 334.136719,225.429688 L334.136719,427.597656 C334.136719,466.5625 379.464844,482.386719 412.15625,482.589844 C444.199219,482.789062 438.667969,511.996094 425.867188,511.996094 L463.367188,511.996094 C477.375,511.996094 483.429688,482.789062 448.355469,482.589844 Z" id="Shape" fill="#C98353"></path>
            <path d="M175.253906,216.613281 L231.105469,246.464844 C232.941406,247.445312 233.871094,249.550781 233.363281,251.566406 L231.777344,257.832031 C231.234375,259.984375 229.203125,261.425781 226.992188,261.230469 L190.800781,258.023438 C178.230469,256.910156 168.59375,246.378906 168.59375,233.757812 L168.59375,220.605469 C168.589844,217.1875 172.238281,215 175.253906,216.613281 Z" id="Shape" fill="#4E5173"></path>
            <path d="M328.527344,216.613281 L272.675781,246.464844 C270.839844,247.445312 269.910156,249.550781 270.417969,251.566406 L272.003906,257.832031 C272.546875,259.984375 274.578125,261.425781 276.789062,261.230469 L312.980469,258.023438 C325.550781,256.910156 335.1875,246.378906 335.1875,233.757812 L335.1875,220.605469 C335.191406,217.1875 331.542969,215 328.527344,216.613281 Z" id="Shape" fill="#4E5173"></path>
            <path d="M177.9375,44.683594 C178.324219,45.316406 178.808594,45.902344 179.394531,46.417969 L193.058594,58.441406 C195.75,60.808594 197.292969,64.222656 197.292969,67.808594 L197.292969,108.71875 C197.292969,112.863281 200.648438,116.21875 204.792969,116.21875 C208.933594,116.21875 212.292969,112.863281 212.292969,108.71875 L212.292969,67.808594 C212.292969,59.914062 208.894531,52.394531 202.96875,47.183594 L193.382812,38.75 L184.347656,50.539062 L177.9375,44.683594 Z" id="Shape" fill="#C98353"></path>
            <path d="M302.734375,132.199219 C298.59375,132.199219 295.234375,128.839844 295.234375,124.699219 L295.234375,91.222656 C295.234375,87.082031 298.59375,83.722656 302.734375,83.722656 C306.878906,83.722656 310.234375,87.082031 310.234375,91.222656 L310.234375,124.699219 C310.234375,128.839844 306.878906,132.199219 302.734375,132.199219 Z" id="Shape" fill="#C98353"></path>
            <path d="M249.890625,428.117188 L223.171875,383.929688 C222.207031,382.332031 219.851562,382.457031 219.058594,384.144531 L212.328125,398.476562 C211.453125,400.339844 208.769531,400.242188 208.03125,398.316406 C204.675781,389.53125 198.035156,371.28125 195.902344,359.097656 C195.523438,356.945312 192.640625,356.464844 191.566406,358.367188 C187.039062,366.410156 184.199219,375.082031 182.460938,380.996094 C181.855469,383.046875 179.039062,383.285156 178.117188,381.355469 C171.167969,366.84375 156.160156,329.113281 166.515625,294.457031 C167.03125,292.738281 169.226562,292.238281 170.453125,293.542969 C180.242188,303.984375 202.171875,320.453125 209.296875,325.09375 C210.132812,325.640625 211.214844,325.601562 212.003906,324.996094 C219.503906,319.21875 228.476562,306.851562 233.035156,300.71875 C234.136719,299.238281 236.4375,299.558594 237.089844,301.285156 C241.128906,311.953125 246.664062,327.484375 249.691406,336.042969 C250.421875,338.117188 253.355469,338.117188 254.089844,336.042969 C257.117188,327.484375 262.648438,311.953125 266.6875,301.285156 C267.339844,299.558594 269.640625,299.238281 270.742188,300.71875 C275.300781,306.851562 284.273438,319.21875 291.777344,324.996094 C292.566406,325.601562 293.644531,325.640625 294.480469,325.09375 C301.609375,320.453125 323.535156,303.984375 333.328125,293.542969 C334.554688,292.238281 336.746094,292.738281 337.261719,294.457031 C347.621094,329.113281 332.613281,366.84375 325.664062,381.355469 C324.738281,383.285156 321.921875,383.046875 321.320312,380.996094 C319.578125,375.082031 316.742188,366.410156 312.210938,358.367188 C311.140625,356.464844 308.253906,356.945312 307.878906,359.097656 C305.746094,371.28125 299.105469,389.53125 295.746094,398.316406 C295.011719,400.242188 292.328125,400.339844 291.449219,398.476562 L284.71875,384.144531 C283.925781,382.457031 281.570312,382.332031 280.605469,383.929688 L253.886719,428.117188 C252.980469,429.621094 250.800781,429.621094 249.890625,428.117188 Z" id="Shape" fill="#4E5173"></path>
            <path d="M200.855469,462.097656 C201.671875,458.035156 199.042969,454.082031 194.980469,453.265625 C190.917969,452.449219 186.964844,455.078125 186.152344,459.140625 C182.738281,476.121094 166.4375,500.269531 142.957031,511.574219 C142.695312,511.699219 142.441406,511.84375 142.199219,511.996094 L169.339844,511.996094 C186.441406,497.355469 197.71875,477.707031 200.855469,462.097656 Z" id="Shape" fill="#C98353"></path>
            <path d="M322.359375,475.867188 C321.726562,471.773438 317.894531,468.964844 313.800781,469.601562 C309.707031,470.234375 306.902344,474.066406 307.539062,478.160156 C309.339844,489.800781 318.675781,502.5625 327.644531,511.996094 L350.085938,511.996094 C341.351562,506.160156 324.15625,487.46875 322.359375,475.867188 Z" id="Shape" fill="#C98353"></path>
        </g>
    </g>
</svg>