<?xml version="1.0" encoding="UTF-8"?>
<svg width="427px" height="512px" viewBox="0 0 427 512" version="1.1" xmlns="http://www.w3.org/2000/svg" xmlns:xlink="http://www.w3.org/1999/xlink">
    <!-- Generator: Sketch 49.1 (51147) - http://www.bohemiancoding.com/sketch -->
    <title>016-frankenstein</title>
    <desc>Created with Sketch.</desc>
    <defs></defs>
    <g id="login" stroke="none" stroke-width="1" fill="none" fill-rule="evenodd">
        <g id="016-frankenstein" fill-rule="nonzero">
            <path d="M369.730469,135.363281 L349.347656,135.363281 C345.203125,135.363281 341.847656,132.003906 341.847656,127.863281 C341.847656,123.71875 345.203125,120.363281 349.347656,120.363281 L369.730469,120.363281 C373.875,120.363281 377.230469,123.71875 377.230469,127.863281 C377.230469,132.003906 373.875,135.363281 369.730469,135.363281 Z" id="Shape" fill="#90B2BA"></path>
            <path d="M77.640625,135.363281 L57.257812,135.363281 C53.113281,135.363281 49.757812,132.003906 49.757812,127.863281 C49.757812,123.71875 53.113281,120.363281 57.257812,120.363281 L77.640625,120.363281 C81.785156,120.363281 85.140625,123.71875 85.140625,127.863281 C85.140625,132.003906 81.78125,135.363281 77.640625,135.363281 Z" id="Shape" fill="#90B2BA"></path>
            <path d="M426.988281,512 L0,512 L0,314.371094 C0,250.566406 51.722656,198.84375 115.527344,198.84375 L311.460938,198.84375 C375.265625,198.84375 426.988281,250.566406 426.988281,314.371094 L426.988281,512 Z" id="Shape" fill="#6E7093"></path>
            <path d="M311.460938,198.84375 L286.738281,198.84375 C350.539062,198.84375 402.265625,250.566406 402.265625,314.371094 L402.265625,512 L426.988281,512 L426.988281,314.371094 C426.988281,250.566406 375.265625,198.84375 311.460938,198.84375 Z" id="Shape" fill="#4E5173"></path>
            <path d="M125.84375,0 L301.144531,0 C327.765625,0 349.347656,21.582031 349.347656,48.203125 L349.347656,190.140625 L77.640625,190.140625 L77.640625,48.203125 C77.640625,21.582031 99.222656,0 125.84375,0 Z" id="Shape" fill="#6E7093"></path>
            <path d="M301.144531,0 L276.640625,0 C303.261719,0 324.839844,21.582031 324.839844,48.203125 L324.839844,190.140625 L349.347656,190.140625 L349.347656,48.203125 C349.347656,21.582031 327.765625,0 301.144531,0 Z" id="Shape" fill="#4E5173"></path>
            <path d="M350.449219,227.914062 L310.464844,227.914062 L310.464844,172.679688 L350.449219,172.679688 C361.953125,172.679688 371.277344,182.007812 371.277344,193.511719 L371.277344,207.082031 C371.277344,218.585938 361.953125,227.914062 350.449219,227.914062 Z" id="Shape" fill="#9BC66A"></path>
            <path d="M76.539062,227.914062 L116.523438,227.914062 L116.523438,172.679688 L76.539062,172.679688 C65.035156,172.679688 55.710938,182.007812 55.710938,193.511719 L55.710938,207.082031 C55.710938,218.585938 65.035156,227.914062 76.539062,227.914062 Z" id="Shape" fill="#9BC66A"></path>
            <path d="M323.421875,83.496094 L323.421875,228.894531 C323.421875,241.78125 312.976562,252.230469 300.085938,252.230469 L296.285156,252.230469 C291.671875,252.230469 287.929688,255.972656 287.929688,260.585938 L287.929688,281.320312 C287.929688,306.996094 267.113281,327.8125 241.4375,327.8125 L185.550781,327.8125 C159.871094,327.8125 139.058594,306.996094 139.058594,281.320312 L139.058594,260.585938 C139.058594,255.972656 135.316406,252.230469 130.703125,252.230469 L126.898438,252.230469 C114.011719,252.230469 103.566406,241.785156 103.566406,228.898438 L103.566406,83.5 C103.566406,80.722656 106.777344,79.183594 108.941406,80.921875 L128.976562,96.992188 C130.183594,97.960938 131.90625,97.960938 133.113281,96.992188 L156.453125,78.265625 C157.664062,77.296875 159.386719,77.296875 160.59375,78.265625 L183.933594,96.992188 C185.144531,97.960938 186.863281,97.960938 188.074219,96.992188 L211.414062,78.265625 C212.625,77.296875 214.34375,77.296875 215.554688,78.265625 L238.894531,96.992188 C240.105469,97.960938 241.824219,97.960938 243.03125,96.992188 L266.386719,78.265625 C267.59375,77.296875 269.3125,77.296875 270.523438,78.265625 L293.863281,96.992188 C295.074219,97.960938 296.792969,97.960938 298.003906,96.992188 L318.050781,80.914062 C320.210938,79.183594 323.421875,80.722656 323.421875,83.496094 Z" id="Shape" fill="#BFEA92"></path>
            <path d="M391.867188,150.460938 L374.140625,150.460938 C371.707031,150.460938 369.730469,148.484375 369.730469,146.050781 L369.730469,109.675781 C369.730469,107.238281 371.707031,105.265625 374.140625,105.265625 L391.867188,105.265625 C394.304688,105.265625 396.277344,107.238281 396.277344,109.675781 L396.277344,146.050781 C396.277344,148.484375 394.304688,150.460938 391.867188,150.460938 Z" id="Shape" fill="#ACCFDD"></path>
            <path d="M35.117188,150.460938 L52.847656,150.460938 C55.28125,150.460938 57.257812,148.484375 57.257812,146.050781 L57.257812,109.675781 C57.257812,107.238281 55.28125,105.265625 52.847656,105.265625 L35.117188,105.265625 C32.683594,105.265625 30.710938,107.238281 30.710938,109.675781 L30.710938,146.050781 C30.710938,148.484375 32.683594,150.460938 35.117188,150.460938 Z" id="Shape" fill="#ACCFDD"></path>
            <path d="M269.15625,240.078125 L157.828125,240.078125 C153.6875,240.078125 150.328125,236.71875 150.328125,232.578125 C150.328125,228.433594 153.6875,225.078125 157.828125,225.078125 L269.15625,225.078125 C273.300781,225.078125 276.65625,228.433594 276.65625,232.578125 C276.65625,236.71875 273.300781,240.078125 269.15625,240.078125 Z" id="Shape" fill="#7EA052"></path>
            <g id="Group" transform="translate(165.000000, 213.000000)" fill="#E6EFF5">
                <path d="M7.710938,38.566406 C3.566406,38.566406 0.210938,35.210938 0.210938,31.066406 L0.210938,8.085938 C0.210938,3.945312 3.566406,0.585938 7.710938,0.585938 C11.855469,0.585938 15.210938,3.945312 15.210938,8.085938 L15.210938,31.066406 C15.210938,35.210938 11.851562,38.566406 7.710938,38.566406 Z" id="Shape"></path>
                <path d="M34.898438,38.566406 C30.757812,38.566406 27.398438,35.210938 27.398438,31.066406 L27.398438,8.085938 C27.398438,3.945312 30.757812,0.585938 34.898438,0.585938 C39.042969,0.585938 42.398438,3.945312 42.398438,8.085938 L42.398438,31.066406 C42.398438,35.210938 39.042969,38.566406 34.898438,38.566406 Z" id="Shape"></path>
                <path d="M62.089844,38.566406 C57.945312,38.566406 54.589844,35.210938 54.589844,31.066406 L54.589844,8.085938 C54.589844,3.945312 57.945312,0.585938 62.089844,0.585938 C66.230469,0.585938 69.589844,3.945312 69.589844,8.085938 L69.589844,31.066406 C69.589844,35.210938 66.230469,38.566406 62.089844,38.566406 Z" id="Shape"></path>
                <path d="M89.277344,38.566406 C85.132812,38.566406 81.777344,35.210938 81.777344,31.066406 L81.777344,8.085938 C81.777344,3.945312 85.132812,0.585938 89.277344,0.585938 C93.421875,0.585938 96.777344,3.945312 96.777344,8.085938 L96.777344,31.066406 C96.777344,35.210938 93.421875,38.566406 89.277344,38.566406 Z" id="Shape"></path>
            </g>
            <path d="M426.988281,377.46875 L412.367188,358.757812 C411.042969,357.0625 408.480469,357.0625 407.15625,358.757812 L395.140625,374.132812 C393.816406,375.824219 391.253906,375.824219 389.929688,374.132812 L377.917969,358.757812 C376.59375,357.0625 374.03125,357.0625 372.707031,358.757812 L360.695312,374.132812 C359.371094,375.824219 356.808594,375.824219 355.484375,374.132812 L346.785156,362.992188 C344.847656,360.515625 340.871094,361.882812 340.871094,365.027344 L340.871094,512 L426.988281,512 L426.988281,377.46875 Z" id="Shape" fill="#BFEA92"></path>
            <path d="M412.367188,358.757812 C411.042969,357.0625 408.480469,357.0625 407.15625,358.757812 L402.265625,365.015625 L402.265625,512 L426.988281,512 L426.988281,377.46875 L412.367188,358.757812 Z" id="Shape" fill="#9BC66A"></path>
            <path d="M0,377.46875 L14.621094,358.757812 C15.945312,357.0625 18.507812,357.0625 19.832031,358.757812 L31.847656,374.132812 C33.171875,375.824219 35.734375,375.824219 37.058594,374.132812 L49.070312,358.757812 C50.394531,357.0625 52.957031,357.0625 54.28125,358.757812 L66.292969,374.132812 C67.617188,375.824219 70.179688,375.824219 71.503906,374.132812 L80.203125,362.992188 C82.140625,360.515625 86.117188,361.882812 86.117188,365.027344 L86.117188,512 L0,512 L0,377.46875 Z" id="Shape" fill="#BFEA92"></path>
            <path d="M283.855469,158.089844 C283.855469,171.210938 273.21875,181.851562 260.097656,181.851562 C246.976562,181.851562 236.335938,171.210938 236.335938,158.089844 C236.335938,156.539062 236.488281,155.019531 236.777344,153.550781 L283.417969,153.550781 C283.707031,155.019531 283.855469,156.539062 283.855469,158.089844 Z" id="Shape" fill="#E6EFF5"></path>
            <path d="M143.132812,158.089844 C143.132812,171.210938 153.769531,181.851562 166.890625,181.851562 C180.011719,181.851562 190.652344,171.210938 190.652344,158.089844 C190.652344,156.539062 190.5,155.019531 190.210938,153.550781 L143.570312,153.550781 C143.28125,155.019531 143.132812,156.539062 143.132812,158.089844 Z" id="Shape" fill="#E6EFF5"></path>
            <path d="M283.757812,161.050781 L227.429688,161.050781 C223.285156,161.050781 219.929688,157.691406 219.929688,153.550781 C219.929688,149.40625 223.285156,146.050781 227.429688,146.050781 L283.757812,146.050781 C283.851562,146.050781 283.929688,145.972656 283.929688,145.878906 L283.929688,142 C283.929688,141.914062 283.84375,141.828125 283.757812,141.828125 L275.429688,141.828125 C271.285156,141.828125 267.929688,138.472656 267.929688,134.328125 C267.929688,130.1875 271.285156,126.828125 275.429688,126.828125 L283.757812,126.828125 C292.121094,126.828125 298.929688,133.636719 298.929688,142 L298.929688,145.878906 C298.929688,154.246094 292.121094,161.050781 283.757812,161.050781 Z" id="Shape" fill="#7EA052"></path>
            <path d="M199.558594,161.050781 L143.230469,161.050781 C134.867188,161.050781 128.058594,154.246094 128.058594,145.878906 L128.058594,142 C128.058594,133.636719 134.867188,126.828125 143.230469,126.828125 L151.558594,126.828125 C155.703125,126.828125 159.058594,130.1875 159.058594,134.328125 C159.058594,138.472656 155.703125,141.828125 151.558594,141.828125 L143.230469,141.828125 C143.144531,141.828125 143.058594,141.914062 143.058594,142 L143.058594,145.878906 C143.058594,145.972656 143.136719,146.050781 143.230469,146.050781 L199.558594,146.050781 C203.703125,146.050781 207.058594,149.40625 207.058594,153.550781 C207.058594,157.691406 203.703125,161.050781 199.558594,161.050781 Z" id="Shape" fill="#7EA052"></path>
        </g>
    </g>
</svg>