<?xml version="1.0" encoding="UTF-8"?>
<svg width="311px" height="512px" viewBox="0 0 311 512" version="1.1" xmlns="http://www.w3.org/2000/svg" xmlns:xlink="http://www.w3.org/1999/xlink">
    <!-- Generator: Sketch 49.1 (51147) - http://www.bohemiancoding.com/sketch -->
    <title>002-nun</title>
    <desc>Created with Sketch.</desc>
    <defs></defs>
    <g id="login" stroke="none" stroke-width="1" fill="none" fill-rule="evenodd">
        <g id="002-nun" fill-rule="nonzero">
            <path d="M155.359375,0 C227.808594,0 288.042969,55.789062 293.585938,128.027344 L310.621094,350.023438 C312.023438,368.292969 297.578125,383.886719 279.257812,383.886719 L31.457031,383.886719 C13.136719,383.886719 -1.308594,368.292969 0.09375,350.023438 L17.128906,128.027344 C22.675781,55.789062 82.90625,-5.68434189e-14 155.359375,-5.68434189e-14 Z" id="Shape" fill="#6E7093"></path>
            <path d="M310.621094,350.023438 L293.585938,128.027344 C288.039062,55.785156 227.808594,0 155.359375,0 C151.386719,0 147.457031,0.175781 143.570312,0.507812 C210.664062,6.171875 264.765625,59.746094 270.007812,128.027344 L287.042969,350.023438 C288.445312,368.292969 274,383.886719 255.679688,383.886719 L279.257812,383.886719 C297.578125,383.886719 312.023438,368.292969 310.621094,350.023438 Z" id="Shape" fill="#4E5173"></path>
            <path d="M263.164062,374.949219 C261.226562,374.136719 260.953125,374.097656 197.339844,350.277344 L197.339844,289.011719 L113.375,289.011719 L113.375,350.277344 C44.789062,375.945312 48.378906,374.527344 45.707031,375.761719 C26.878906,384.480469 14.644531,403.398438 14.644531,424.386719 L14.644531,507.765625 C14.644531,510.105469 16.539062,512 18.878906,512 L291.835938,512 C294.175781,512 296.070312,510.105469 296.070312,507.765625 L296.070312,424.386719 C296.070312,403.007812 283.289062,383.359375 263.164062,374.949219 Z" id="Shape" fill="#6E7093"></path>
            <g id="Group" transform="translate(58.000000, 289.000000)" fill="#4E5173">
                <path d="M205.164062,85.949219 C203.226562,85.136719 202.953125,85.097656 139.339844,61.277344 L139.339844,0.011719 L116.371094,0.011719 L116.371094,53.300781 C116.371094,58.097656 119.351562,62.390625 123.84375,64.074219 C180.007812,85.101562 180.335938,85.171875 182.195312,85.949219 C202.320312,94.359375 215.101562,114.007812 215.101562,135.386719 L215.101562,218.765625 C215.101562,221.105469 213.207031,223 210.867188,223 L233.835938,223 C236.175781,223 238.070312,221.105469 238.070312,218.765625 L238.070312,135.386719 C238.070312,114.007812 225.289062,94.359375 205.164062,85.949219 Z" id="Shape"></path>
                <path d="M16.179688,223 L16.179688,172.132812 C16.179688,167.867188 12.71875,164.40625 8.453125,164.40625 C4.1875,164.40625 0.726562,167.867188 0.726562,172.132812 L0.726562,223 L16.179688,223 Z" id="Shape"></path>
                <path d="M193.988281,172.132812 C193.988281,167.867188 190.53125,164.40625 186.261719,164.40625 C181.996094,164.40625 178.539062,167.867188 178.539062,172.132812 L178.539062,223 L193.992188,223 L193.992188,172.132812 L193.988281,172.132812 Z" id="Shape"></path>
            </g>
            <path d="M261.257812,374.195312 L197.339844,350.277344 L197.339844,289.011719 L113.375,289.011719 L113.375,350.277344 L49.453125,374.195312 C46.902344,375.148438 44.457031,376.285156 42.128906,377.585938 C62.203125,419.960938 105.355469,449.269531 155.355469,449.269531 C205.359375,449.269531 248.511719,419.960938 268.585938,377.585938 C266.257812,376.285156 263.8125,375.148438 261.257812,374.195312 Z" id="Shape" fill="#E6EFF5"></path>
            <path d="M181.839844,353.074219 C238.007812,374.101562 238.335938,374.171875 240.195312,374.949219 C248.660156,378.488281 255.820312,384.019531 261.28125,390.824219 C263.96875,386.574219 266.417969,382.160156 268.585938,377.585938 C266.882812,376.636719 265.117188,375.773438 263.292969,375.003906 C263.25,374.988281 263.210938,374.96875 263.164062,374.949219 C263.15625,374.945312 263.148438,374.941406 263.140625,374.9375 C262.585938,374.707031 262.027344,374.484375 261.460938,374.273438 C261.238281,374.1875 260.976562,374.085938 260.671875,373.972656 L240.03125,366.25 C230.554688,362.707031 216.964844,357.621094 197.339844,350.273438 L197.339844,289.011719 L174.371094,289.011719 L174.371094,342.300781 C174.371094,347.097656 177.347656,351.390625 181.839844,353.074219 Z" id="Shape" fill="#C5D3D6"></path>
            <path d="M42.128906,377.585938 C44.460938,376.285156 46.90625,375.148438 49.457031,374.195312 L79.910156,362.796875 C80.601562,362.933594 81.296875,363.054688 81.984375,363.207031 C87.328125,364.382812 93.699219,367.429688 93.53125,372.898438 C93.273438,381.183594 78.433594,383.300781 78.859375,391.578125 C79.066406,395.597656 83.195312,398.367188 87.164062,399.042969 C91.132812,399.71875 95.21875,398.984375 99.21875,399.449219 C109.3125,400.625 117.394531,409.777344 119.035156,419.808594 C120.304688,427.5625 118.207031,435.519531 114.160156,442.320312 C82.367188,431.242188 56.40625,407.726562 42.128906,377.585938 Z" id="Shape" fill="#ED6161"></path>
            <path d="M155.359375,112.519531 C93.207031,112.519531 42.828125,129.652344 42.828125,199.671875 C42.828125,269.6875 93.207031,326.449219 155.359375,326.449219 C217.507812,326.449219 267.886719,269.6875 267.886719,199.671875 C267.886719,129.652344 217.507812,112.519531 155.359375,112.519531 Z" id="Shape" fill="#F9C295"></path>
            <path d="M207.390625,118.199219 C230.796875,130.78125 245.570312,153.179688 245.570312,191.085938 C245.570312,261.101562 195.1875,317.863281 133.039062,317.863281 C124.445312,317.863281 116.078125,316.773438 108.039062,314.71875 C122.425781,322.238281 138.453125,326.445312 155.359375,326.445312 C217.507812,326.445312 267.886719,269.6875 267.886719,199.671875 C267.886719,150.804688 243.34375,127.703125 207.390625,118.199219 Z" id="Shape" fill="#E59F6A"></path>
            <path d="M42.828125,161.589844 L42.828125,197.265625 C117.847656,102.304688 192.867188,102.304688 267.886719,197.265625 L267.886719,161.589844 C267.886719,150.964844 264.050781,140.679688 257.058594,132.679688 C189.257812,55.113281 121.457031,55.113281 53.65625,132.679688 C46.664062,140.679688 42.828125,150.964844 42.828125,161.589844 Z" id="Shape" fill="#E6EFF5"></path>
            <path d="M257.058594,132.679688 C247.492188,121.738281 237.929688,112.339844 228.363281,104.484375 C230.769531,108.050781 233.175781,111.746094 235.582031,115.613281 C241.875,125.726562 245.328125,138.730469 245.328125,152.164062 L245.328125,171.585938 C252.847656,179.199219 260.367188,187.746094 267.886719,197.265625 L267.886719,161.589844 C267.886719,150.964844 264.050781,140.679688 257.058594,132.679688 Z" id="Shape" fill="#C5D3D6"></path>
            <polygon id="Shape" fill="#F9DC6A" points="192.445312 438.949219 168.75 438.949219 168.75 415.164062 141.964844 415.164062 141.964844 438.949219 118.269531 438.949219 118.269531 464.652344 141.964844 464.652344 141.964844 512 168.75 512 168.75 464.652344 192.445312 464.652344"></polygon>
            <path d="M105.609375,208.488281 C101.464844,208.488281 98.109375,205.128906 98.109375,200.988281 L98.109375,198.988281 C98.109375,194.847656 101.464844,191.488281 105.609375,191.488281 C109.75,191.488281 113.109375,194.847656 113.109375,198.988281 L113.109375,200.988281 C113.109375,205.128906 109.75,208.488281 105.609375,208.488281 Z" id="Shape" fill="#363B51"></path>
            <path d="M205.109375,208.488281 C200.964844,208.488281 197.609375,205.128906 197.609375,200.988281 L197.609375,198.988281 C197.609375,194.847656 200.964844,191.488281 205.109375,191.488281 C209.25,191.488281 212.609375,194.847656 212.609375,198.988281 L212.609375,200.988281 C212.609375,205.128906 209.25,208.488281 205.109375,208.488281 Z" id="Shape" fill="#363B51"></path>
            <path d="M155.355469,270.289062 C142.476562,270.289062 130.035156,264.902344 121.222656,255.503906 C118.386719,252.484375 118.539062,247.738281 121.5625,244.902344 C124.582031,242.070312 129.328125,242.222656 132.160156,245.242188 C138.238281,251.722656 146.476562,255.289062 155.355469,255.289062 C164.238281,255.289062 172.476562,251.722656 178.554688,245.242188 C181.386719,242.222656 186.136719,242.070312 189.15625,244.902344 C192.175781,247.738281 192.328125,252.484375 189.496094,255.503906 C180.679688,264.902344 168.234375,270.289062 155.355469,270.289062 Z" id="Shape" fill="#363B51"></path>
        </g>
    </g>
</svg>