<?xml version="1.0" encoding="UTF-8"?>
<svg width="512px" height="407px" viewBox="0 0 512 407" version="1.1" xmlns="http://www.w3.org/2000/svg" xmlns:xlink="http://www.w3.org/1999/xlink">
    <!-- Generator: Sketch 49.1 (51147) - http://www.bohemiancoding.com/sketch -->
    <title>007-monster-1</title>
    <desc>Created with Sketch.</desc>
    <defs></defs>
    <g id="login" stroke="none" stroke-width="1" fill="none" fill-rule="evenodd">
        <g id="007-monster-1" fill-rule="nonzero">
            <path d="M166.539062,191.515625 C164.242188,184.082031 156.347656,179.921875 148.921875,182.214844 C140.355469,184.863281 130.203125,184.136719 121.070312,180.21875 C112.164062,176.398438 104.042969,169.675781 97.582031,160.773438 C94.542969,156.585938 89.621094,148.503906 90.800781,141.449219 C91.167969,139.230469 92.234375,136.523438 93.363281,133.65625 C94.554688,130.625 95.902344,127.191406 96.84375,123.367188 C99.792969,111.328125 97.597656,98.628906 91.515625,88.167969 C94.207031,87.015625 96.871094,85.617188 99.414062,83.878906 C109.769531,76.78125 115.710938,65.414062 114.914062,54.21875 C114.429688,47.386719 108.503906,42.246094 101.671875,42.730469 C94.84375,43.214844 89.699219,49.144531 90.183594,55.972656 C90.292969,57.480469 89.457031,59.339844 88.050781,61.011719 C84.5625,55.847656 79.273438,52.027344 73.121094,50.421875 C69.667969,39.988281 68.085938,28.789062 68.527344,17.613281 C68.800781,10.773438 63.472656,5.007812 56.632812,4.738281 C49.8125,4.464844 44.027344,9.792969 43.757812,16.632812 C43.222656,30.132812 45.039062,43.6875 49.023438,56.421875 C45.667969,59.507812 43.140625,63.457031 41.777344,67.898438 C34.003906,64.878906 26.570312,60.78125 19.804688,55.738281 C14.316406,51.644531 6.550781,52.777344 2.460938,58.265625 C-1.632812,63.753906 -0.5,71.519531 4.988281,75.613281 C18.777344,85.894531 34.789062,93.089844 51.335938,96.464844 C55.609375,99.574219 60.863281,101.382812 66.5,101.390625 C69.429688,105.902344 70.710938,111.636719 69.480469,116.660156 C68.996094,118.640625 68.097656,120.925781 67.144531,123.347656 C65.609375,127.25 63.871094,131.675781 63.015625,136.808594 C60.859375,149.722656 64.925781,163.730469 74.785156,177.316406 C84.226562,190.328125 96.390625,200.285156 109.96875,206.105469 C120.03125,210.421875 130.679688,212.378906 141.058594,211.917969 C146.570312,211.671875 152.011719,210.746094 157.246094,209.128906 C164.675781,206.835938 168.835938,198.945312 166.539062,191.515625 Z" id="Shape" fill="#BFEA92"></path>
            <path d="M345.457031,191.515625 C347.757812,184.082031 355.648438,179.921875 363.078125,182.214844 C371.640625,184.863281 381.792969,184.136719 390.929688,180.21875 C399.835938,176.398438 407.957031,169.675781 414.414062,160.773438 C417.453125,156.585938 422.378906,148.503906 421.199219,141.449219 C420.828125,139.230469 419.765625,136.523438 418.636719,133.65625 C417.445312,130.625 416.09375,127.191406 415.15625,123.367188 C412.207031,111.328125 414.398438,98.628906 420.480469,88.167969 C417.792969,87.015625 415.125,85.617188 412.585938,83.878906 C402.230469,76.78125 396.289062,65.414062 397.085938,54.21875 C397.570312,47.386719 403.496094,42.246094 410.328125,42.730469 C417.15625,43.214844 422.296875,49.144531 421.8125,55.972656 C421.707031,57.480469 422.542969,59.339844 423.945312,61.011719 C427.433594,55.847656 432.726562,52.027344 438.875,50.421875 C442.332031,39.988281 443.914062,28.789062 443.46875,17.613281 C443.199219,10.773438 448.523438,5.007812 455.363281,4.738281 C462.1875,4.464844 467.96875,9.792969 468.242188,16.632812 C468.777344,30.132812 466.960938,43.6875 462.976562,56.421875 C466.328125,59.507812 468.855469,63.457031 470.21875,67.898438 C477.996094,64.878906 485.425781,60.78125 492.191406,55.738281 C497.683594,51.644531 505.445312,52.777344 509.539062,58.265625 C513.632812,63.753906 512.5,71.519531 507.011719,75.613281 C493.21875,85.894531 477.210938,93.089844 460.664062,96.464844 C456.386719,99.574219 451.136719,101.382812 445.496094,101.390625 C442.570312,105.902344 441.285156,111.636719 442.515625,116.660156 C443.003906,118.640625 443.902344,120.925781 444.851562,123.347656 C446.386719,127.25 448.128906,131.675781 448.984375,136.808594 C451.140625,149.722656 447.070312,163.730469 437.214844,177.316406 C427.773438,190.328125 415.605469,200.285156 402.03125,206.105469 C391.96875,210.421875 381.316406,212.378906 370.941406,211.917969 C365.425781,211.671875 359.984375,210.746094 354.753906,209.128906 C347.324219,206.835938 343.160156,198.945312 345.457031,191.515625 Z" id="Shape" fill="#BFEA92"></path>
            <path d="M415.3125,241.550781 C421.238281,231.214844 424.644531,219.25 424.644531,206.484375 L424.644531,199.308594 C424.644531,165.859375 401.386719,137.863281 370.167969,130.558594 L370.167969,99.421875 C370.167969,44.789062 325.878906,0.5 271.246094,0.5 L240.753906,0.5 C186.121094,0.5 141.832031,44.789062 141.832031,99.421875 L141.832031,130.558594 C110.609375,137.863281 87.355469,165.859375 87.355469,199.308594 L87.355469,206.484375 C87.355469,219.25 90.761719,231.214844 96.6875,241.550781 C60.984375,247.140625 33.671875,278.027344 33.671875,315.296875 L33.671875,323.34375 C33.671875,361.171875 61.972656,392.917969 99.523438,397.480469 C203.839844,410.160156 308.15625,410.160156 412.472656,397.480469 C450.023438,392.917969 478.328125,361.171875 478.328125,323.34375 L478.328125,315.296875 C478.328125,278.027344 451.011719,247.140625 415.3125,241.550781 Z" id="Shape" fill="#BFEA92"></path>
            <path d="M415.3125,241.550781 C421.238281,231.214844 424.644531,219.25 424.644531,206.484375 L424.644531,199.308594 C424.644531,165.859375 401.386719,137.863281 370.167969,130.558594 L370.167969,99.421875 C370.167969,44.789062 325.878906,0.5 271.246094,0.5 L246.519531,0.5 C301.152344,0.5 345.445312,44.789062 345.445312,99.421875 L345.445312,130.558594 C376.664062,137.863281 399.917969,165.859375 399.917969,199.308594 L399.917969,206.484375 C399.917969,219.253906 396.515625,231.21875 390.589844,241.550781 C426.289062,247.140625 453.605469,278.027344 453.605469,315.296875 L453.605469,323.34375 C453.605469,361.171875 425.300781,392.917969 387.75,397.480469 C339.714844,403.320312 291.675781,406.460938 243.636719,406.921875 C299.917969,407.464844 356.195312,404.320312 412.472656,397.480469 C450.023438,392.917969 478.328125,361.171875 478.328125,323.34375 L478.328125,315.296875 C478.328125,278.027344 451.015625,247.140625 415.3125,241.550781 Z" id="Shape" fill="#9BC66A"></path>
            <path d="M297.144531,44.238281 C282.039062,43.121094 268.460938,49.9375 260.136719,60.949219 C258.074219,63.675781 253.925781,63.675781 251.863281,60.949219 C243.539062,49.9375 229.960938,43.121094 214.855469,44.238281 C194.082031,45.777344 177.316406,62.605469 175.847656,83.382812 C174.09375,108.160156 193.675781,128.804688 218.082031,128.804688 C231.839844,128.804688 244.058594,122.238281 251.789062,112.074219 C253.921875,109.273438 258.078125,109.273438 260.210938,112.074219 C267.941406,122.238281 280.164062,128.804688 293.921875,128.804688 C318.324219,128.804688 337.90625,108.160156 336.152344,83.382812 C334.683594,62.605469 317.917969,45.777344 297.144531,44.238281 Z" id="Shape" fill="#E6EFF5"></path>
            <path d="M236.960938,92.246094 C236.960938,102.671875 228.507812,111.125 218.078125,111.125 C207.652344,111.125 199.199219,102.671875 199.199219,92.246094 C199.199219,81.816406 207.652344,73.363281 218.078125,73.363281 C228.507812,73.363281 236.960938,81.816406 236.960938,92.246094 Z" id="Shape" fill="#363B51"></path>
            <path d="M312.800781,81.496094 C312.800781,91.921875 304.347656,100.375 293.917969,100.375 C283.492188,100.375 275.039062,91.921875 275.039062,81.496094 C275.039062,71.066406 283.492188,62.613281 293.917969,62.613281 C304.347656,62.613281 312.800781,71.066406 312.800781,81.496094 Z" id="Shape" fill="#363B51"></path>
            <g id="Group" transform="translate(90.000000, 169.000000)" fill="#9BC66A">
                <path d="M330.929688,60.09375 C329.554688,58.539062 327.550781,57.550781 325.3125,57.550781 L214.53125,57.550781 C210.386719,57.550781 207.03125,60.910156 207.03125,65.050781 C207.03125,69.191406 210.386719,72.550781 214.53125,72.550781 L325.3125,72.550781 C327.566406,68.621094 329.453125,64.449219 330.929688,60.09375 Z" id="Shape"></path>
                <path d="M49.050781,65.050781 C49.050781,60.910156 45.695312,57.550781 41.550781,57.550781 L0.265625,57.550781 C1.835938,62.835938 3.996094,67.863281 6.6875,72.550781 L41.550781,72.550781 C45.691406,72.550781 49.050781,69.191406 49.050781,65.050781 Z" id="Shape"></path>
                <path d="M88.765625,137.773438 C88.765625,148.210938 80.300781,156.675781 69.863281,156.675781 C59.425781,156.675781 50.960938,148.210938 50.960938,137.773438 C50.960938,127.335938 59.425781,118.871094 69.863281,118.871094 C80.300781,118.871094 88.765625,127.335938 88.765625,137.773438 Z" id="Shape"></path>
                <path d="M98.351562,15.785156 C98.351562,24.484375 91.296875,31.542969 82.59375,31.542969 C73.890625,31.542969 66.835938,24.484375 66.835938,15.785156 C66.835938,7.082031 73.890625,0.023438 82.59375,0.023438 C91.296875,0.023438 98.351562,7.082031 98.351562,15.785156 Z" id="Shape"></path>
                <path d="M295.925781,172.433594 C295.925781,181.136719 288.871094,188.191406 280.167969,188.191406 C271.464844,188.191406 264.410156,181.136719 264.410156,172.433594 C264.410156,163.730469 271.464844,156.675781 280.167969,156.675781 C288.871094,156.675781 295.925781,163.730469 295.925781,172.433594 Z" id="Shape"></path>
            </g>
        </g>
    </g>
</svg>