<?xml version="1.0" encoding="UTF-8"?>
<svg width="334px" height="512px" viewBox="0 0 334 512" version="1.1" xmlns="http://www.w3.org/2000/svg" xmlns:xlink="http://www.w3.org/1999/xlink">
    <!-- Generator: Sketch 49.1 (51147) - http://www.bohemiancoding.com/sketch -->
    <title>018-magician</title>
    <desc>Created with Sketch.</desc>
    <defs></defs>
    <g id="login" stroke="none" stroke-width="1" fill="none" fill-rule="evenodd">
        <g id="018-magician" fill-rule="nonzero">
            <path d="M43.46875,183.132812 C41.300781,193.363281 40.148438,204.03125 40.148438,214.992188 C40.148438,229.425781 42.136719,243.347656 45.828125,256.441406 L287.8125,256.441406 C291.5,243.347656 293.488281,229.425781 293.488281,214.992188 C293.488281,204.03125 292.339844,193.363281 290.171875,183.132812 L43.46875,183.132812 Z" id="Shape" fill="#363B51"></path>
            <path d="M297.570312,512 L36.066406,512 C33.828125,512 32.011719,510.183594 32.011719,507.945312 L32.011719,449.230469 C32.011719,427.816406 45.304688,408.648438 65.363281,401.144531 L166.820312,363.179688 L268.277344,401.144531 C288.335938,408.648438 301.628906,427.816406 301.628906,449.230469 L301.628906,507.945312 C301.628906,510.183594 299.8125,512 297.570312,512 Z" id="Shape" fill="#6E7093"></path>
            <polygon id="Shape" fill="#E6EFF5" points="166.820312 363.179688 114.195312 382.871094 114.195312 512 219.445312 512 219.445312 382.871094"></polygon>
            <g id="Group" transform="translate(60.000000, 363.000000)" fill="#4E5173">
                <path d="M208.277344,38.144531 L106.820312,0.179688 L106.820312,8.707031 L185.488281,38.144531 C205.542969,45.648438 218.835938,64.816406 218.835938,86.230469 L218.835938,144.945312 C218.835938,147.183594 217.019531,149 214.78125,149 L237.570312,149 C239.8125,149 241.628906,147.183594 241.628906,144.945312 L241.628906,86.230469 C241.628906,64.816406 228.335938,45.652344 208.277344,38.144531 Z" id="Shape"></path>
                <path d="M16.101562,149 L16.101562,118.414062 C16.101562,114.144531 12.640625,110.6875 8.375,110.6875 C4.109375,110.6875 0.648438,114.144531 0.648438,118.414062 L0.648438,149 L16.101562,149 Z" id="Shape"></path>
                <path d="M212.992188,149 L212.992188,118.414062 C212.992188,114.144531 209.535156,110.6875 205.265625,110.6875 C201,110.6875 197.542969,114.144531 197.542969,118.414062 L197.542969,149 L212.992188,149 Z" id="Shape"></path>
            </g>
            <path d="M283.449219,291.222656 L248.558594,291.222656 L248.558594,230.515625 L283.449219,230.515625 C293.488281,230.515625 301.628906,238.65625 301.628906,248.695312 L301.628906,273.042969 C301.628906,283.082031 293.488281,291.222656 283.449219,291.222656 Z" id="Shape" fill="#E59F6A"></path>
            <path d="M50.191406,291.222656 L85.082031,291.222656 L85.082031,230.515625 L50.191406,230.515625 C40.152344,230.515625 32.011719,238.65625 32.011719,248.695312 L32.011719,273.042969 C32.011719,283.082031 40.152344,291.222656 50.191406,291.222656 Z" id="Shape" fill="#E59F6A"></path>
            <path d="M126.597656,326.589844 L126.597656,378.699219 C126.597656,400.910156 144.605469,418.917969 166.820312,418.917969 C189.035156,418.917969 207.042969,400.910156 207.042969,378.699219 L207.042969,326.589844 L126.597656,326.589844 Z" id="Shape" fill="#F9C295"></path>
            <path d="M269.703125,238.699219 C269.703125,174.683594 223.640625,122.792969 166.820312,122.792969 C110,122.792969 63.9375,174.683594 63.9375,238.699219 C63.9375,302.710938 110,354.605469 166.820312,354.605469 C223.640625,354.605469 269.703125,302.710938 269.703125,238.699219 Z" id="Shape" fill="#F9C295"></path>
            <path d="M214.546875,136 C236.992188,157.261719 251.257812,189.125 251.257812,224.746094 C251.257812,288.757812 205.195312,340.652344 148.375,340.652344 C131.148438,340.652344 114.914062,335.875 100.648438,327.441406 C118.539062,344.390625 141.617188,354.605469 166.820312,354.605469 C223.640625,354.605469 269.703125,302.710938 269.703125,238.699219 C269.703125,194.09375 247.332031,155.378906 214.546875,136 Z" id="Shape" fill="#E59F6A"></path>
            <path d="M0,175.148438 L0,191.117188 C0,197.886719 5.488281,203.375 12.261719,203.375 L321.378906,203.375 C328.152344,203.375 333.640625,197.886719 333.640625,191.117188 L333.640625,175.148438 C333.640625,168.375 328.152344,162.886719 321.378906,162.886719 L12.261719,162.886719 C5.488281,162.886719 2.84217094e-14,168.375 0,175.148438 Z" id="Shape" fill="#6E7093"></path>
            <path d="M321.378906,162.886719 L298.699219,162.886719 C305.472656,162.886719 310.960938,168.375 310.960938,175.148438 L310.960938,191.117188 C310.960938,197.886719 305.472656,203.375 298.699219,203.375 L321.378906,203.375 C328.152344,203.375 333.640625,197.886719 333.640625,191.117188 L333.640625,175.148438 C333.640625,168.375 328.152344,162.886719 321.378906,162.886719 Z" id="Shape" fill="#4E5173"></path>
            <path d="M281.96875,162.886719 C274.5625,114.832031 273.652344,66.777344 279.246094,18.722656 C280.453125,8.347656 272.058594,-0.636719 261.636719,0.0351562 C198.425781,4.121094 135.214844,4.121094 72.003906,0.0351562 C61.582031,-0.636719 53.1875,8.347656 54.394531,18.722656 C59.988281,66.777344 59.078125,114.832031 51.667969,162.886719 L281.96875,162.886719 Z" id="Shape" fill="#6E7093"></path>
            <path d="M279.246094,18.722656 C280.453125,8.347656 272.058594,-0.636719 261.636719,0.0351562 C255.957031,0.402344 250.277344,0.722656 244.601562,1.027344 C251.59375,3.59375 256.363281,10.738281 255.433594,18.71875 C249.839844,66.777344 250.75,114.832031 258.160156,162.886719 L281.96875,162.886719 C274.5625,114.832031 273.652344,66.777344 279.246094,18.722656 Z" id="Shape" fill="#4E5173"></path>
            <path d="M55.921875,127.777344 C54.886719,139.480469 53.476562,151.183594 51.671875,162.886719 L281.96875,162.886719 C280.164062,151.183594 278.753906,139.480469 277.71875,127.777344 L55.921875,127.777344 Z" id="Shape" fill="#ED6161"></path>
            <path d="M280.683594,154.0625 C280.308594,151.320312 279.957031,148.578125 279.621094,145.835938 C279.601562,145.664062 279.574219,145.492188 279.554688,145.320312 C278.847656,139.476562 278.238281,133.632812 277.722656,127.789062 C277.722656,127.785156 277.71875,127.78125 277.71875,127.777344 L253.910156,127.777344 C254.941406,139.480469 256.351562,151.183594 258.160156,162.886719 L281.96875,162.886719 C281.515625,159.945312 281.089844,157.003906 280.683594,154.0625 Z" id="Shape" fill="#CE4545"></path>
            <path d="M172.605469,429.332031 L214.347656,454.1875 C220.878906,458.074219 229.324219,455.933594 233.210938,449.402344 L236.707031,443.53125 C239.914062,438.136719 239.070312,431.257812 234.65625,426.804688 L230.445312,422.554688 C225.128906,417.191406 225.128906,408.542969 230.445312,403.179688 L234.65625,398.933594 C239.070312,394.476562 239.914062,387.597656 236.707031,382.207031 L233.210938,376.335938 C229.324219,369.804688 220.878906,367.660156 214.347656,371.550781 L172.605469,396.402344 L172.605469,429.332031 Z" id="Shape" fill="#CE4545"></path>
            <path d="M161.035156,429.332031 L119.292969,454.1875 C112.761719,458.074219 104.316406,455.933594 100.429688,449.402344 L96.933594,443.53125 C93.726562,438.136719 94.570312,431.257812 98.984375,426.804688 L103.195312,422.554688 C108.511719,417.191406 108.511719,408.542969 103.195312,403.179688 L98.984375,398.933594 C94.566406,394.476562 93.726562,387.597656 96.933594,382.207031 L100.429688,376.335938 C104.316406,369.804688 112.761719,367.660156 119.292969,371.550781 L161.035156,396.402344 L161.035156,429.332031 Z" id="Shape" fill="#CE4545"></path>
            <path d="M166.820312,380.613281 C156.976562,380.613281 148.996094,388.59375 148.996094,398.4375 L148.996094,427.296875 C148.996094,437.144531 156.976562,445.125 166.820312,445.125 C176.664062,445.125 184.644531,437.140625 184.644531,427.296875 L184.644531,398.4375 C184.644531,388.59375 176.664062,380.613281 166.820312,380.613281 Z" id="Shape" fill="#ED6161"></path>
            <path d="M166.820312,479.574219 C162.554688,479.574219 159.09375,476.117188 159.09375,471.847656 L159.09375,469.832031 C159.09375,465.566406 162.554688,462.109375 166.820312,462.109375 C171.085938,462.109375 174.546875,465.566406 174.546875,469.832031 L174.546875,471.847656 C174.546875,476.117188 171.085938,479.574219 166.820312,479.574219 Z" id="Shape" fill="#4E5173"></path>
            <path d="M166.820312,502.421875 C162.554688,502.421875 159.09375,498.964844 159.09375,494.699219 L159.09375,492.679688 C159.09375,488.414062 162.554688,484.957031 166.820312,484.957031 C171.085938,484.957031 174.546875,488.414062 174.546875,492.679688 L174.546875,494.699219 C174.546875,498.964844 171.085938,502.421875 166.820312,502.421875 Z" id="Shape" fill="#4E5173"></path>
            <path d="M166.820312,303.300781 C155.960938,317.203125 140.152344,328.195312 123.070312,332.589844 C105.988281,336.988281 86.84375,334.316406 72.59375,323.917969 C60.277344,314.929688 51.828125,299.753906 51.671875,284.574219 C51.652344,282.617188 54.085938,281.777344 55.324219,283.296875 C59.507812,288.429688 66.601562,291.359375 73.394531,291.359375 C82.453125,291.355469 90.992188,287.21875 98.699219,282.460938 C106.410156,277.707031 113.765625,272.199219 122.214844,268.929688 C136.433594,263.425781 153.894531,265.027344 166.820312,273.117188 C179.742188,265.027344 197.203125,263.425781 211.425781,268.929688 C219.875,272.195312 227.226562,277.707031 234.9375,282.460938 C242.648438,287.21875 251.183594,291.359375 260.242188,291.359375 C267.039062,291.359375 274.128906,288.429688 278.3125,283.296875 C279.550781,281.777344 281.984375,282.617188 281.964844,284.574219 C281.808594,299.753906 273.359375,314.929688 261.042969,323.917969 C246.792969,334.316406 227.648438,336.988281 210.566406,332.589844 C193.488281,328.195312 177.679688,317.203125 166.820312,303.300781 Z" id="Shape" fill="#6E7093"></path>
            <path d="M220.488281,241.167969 C216.34375,241.167969 212.988281,237.808594 212.988281,233.667969 L212.988281,232.667969 C212.988281,228.527344 216.34375,225.167969 220.488281,225.167969 C224.628906,225.167969 227.988281,228.527344 227.988281,232.667969 L227.988281,233.667969 C227.988281,237.808594 224.628906,241.167969 220.488281,241.167969 Z" id="Shape" fill="#363B51"></path>
            <path d="M113.152344,241.167969 C109.011719,241.167969 105.652344,237.808594 105.652344,233.667969 L105.652344,232.667969 C105.652344,228.527344 109.011719,225.167969 113.152344,225.167969 C117.296875,225.167969 120.652344,228.527344 120.652344,232.667969 L120.652344,233.667969 C120.652344,237.808594 117.296875,241.167969 113.152344,241.167969 Z" id="Shape" fill="#363B51"></path>
        </g>
    </g>
</svg>