<?xml version="1.0" encoding="UTF-8"?>
<svg width="454px" height="512px" viewBox="0 0 454 512" version="1.1" xmlns="http://www.w3.org/2000/svg" xmlns:xlink="http://www.w3.org/1999/xlink">
    <!-- Generator: Sketch 49.1 (51147) - http://www.bohemiancoding.com/sketch -->
    <title>008-marshmallow</title>
    <desc>Created with Sketch.</desc>
    <defs></defs>
    <g id="login" stroke="none" stroke-width="1" fill="none" fill-rule="evenodd">
        <g id="008-marshmallow" fill-rule="nonzero">
            <path d="M1.042969,67.808594 L36.9375,201.777344 C41.277344,217.964844 57.914062,227.570312 74.101562,223.234375 L184.585938,193.628906 C200.773438,189.292969 210.378906,172.65625 206.042969,156.46875 L170.144531,22.496094 C165.808594,6.308594 149.167969,-3.296875 132.980469,1.042969 L22.5,30.644531 C6.3125,34.984375 -3.296875,51.621094 1.042969,67.808594 Z" id="Shape" fill="#E6EFF5"></path>
            <path d="M206.042969,156.46875 L170.144531,22.496094 C165.808594,6.308594 149.167969,-3.296875 132.980469,1.042969 L114.609375,5.964844 C128.667969,2.199219 143.582031,12.265625 147.917969,28.453125 L183.816406,162.421875 C188.152344,178.605469 180.273438,194.78125 166.214844,198.550781 L184.585938,193.628906 C200.773438,189.292969 210.378906,172.65625 206.042969,156.46875 Z" id="Shape" fill="#C5D3D6"></path>
            <path d="M72.292969,89.417969 L64.824219,85.105469 L69.136719,77.636719 C71.207031,74.050781 69.980469,69.460938 66.390625,67.390625 C62.804688,65.320312 58.21875,66.546875 56.148438,70.136719 L51.835938,77.605469 L44.363281,73.292969 C40.777344,71.222656 36.191406,72.453125 34.121094,76.039062 C32.046875,79.625 33.277344,84.210938 36.863281,86.285156 L44.335938,90.597656 L40.023438,98.066406 C37.949219,101.652344 39.179688,106.242188 42.765625,108.3125 C43.949219,108.992188 45.238281,109.316406 46.507812,109.316406 C49.101562,109.316406 51.621094,107.972656 53.011719,105.566406 L57.324219,98.097656 L64.792969,102.410156 C65.976562,103.089844 67.265625,103.414062 68.539062,103.414062 C71.128906,103.414062 73.652344,102.070312 75.039062,99.664062 C77.113281,96.078125 75.882812,91.492188 72.292969,89.417969 Z" id="Shape" fill="#4E5173"></path>
            <path d="M151.515625,68.191406 L144.046875,63.878906 L148.359375,56.410156 C150.429688,52.824219 149.203125,48.234375 145.613281,46.164062 C142.027344,44.09375 137.441406,45.324219 135.371094,48.910156 L131.054688,56.378906 L123.585938,52.066406 C120,49.992188 115.414062,51.222656 113.339844,54.8125 C111.269531,58.398438 112.5,62.984375 116.085938,65.054688 L123.558594,69.371094 L119.246094,76.839844 C117.171875,80.425781 118.402344,85.011719 121.988281,87.085938 C123.171875,87.765625 124.460938,88.089844 125.734375,88.089844 C128.324219,88.089844 130.84375,86.746094 132.234375,84.339844 L136.546875,76.871094 L144.015625,81.183594 C145.199219,81.863281 146.488281,82.1875 147.761719,82.1875 C150.351562,82.1875 152.875,80.84375 154.261719,78.4375 C156.332031,74.851562 155.105469,70.261719 151.515625,68.191406 Z" id="Shape" fill="#4E5173"></path>
            <path d="M120.140625,174.085938 C107.65625,177.441406 99.992188,165.449219 101.175781,157.636719 C101.554688,151 99.871094,144.71875 96.226562,139.164062 C91.292969,132.988281 91.933594,118.769531 104.425781,115.433594 C116.910156,112.078125 124.570312,124.070312 123.390625,131.886719 C123.011719,138.519531 124.695312,144.800781 128.339844,150.359375 C133.269531,156.535156 132.632812,170.75 120.140625,174.085938 Z" id="Shape" fill="#4E5173"></path>
            <path d="M113.773438,212.605469 L166.753906,410.335938 C167.050781,411.4375 168.179688,412.089844 169.28125,411.796875 L196.4375,404.519531 C197.535156,404.226562 198.191406,403.09375 197.894531,401.996094 L144.914062,204.261719 L113.773438,212.605469 Z" id="Shape" fill="#F9DC6A"></path>
            <polygon id="Shape" fill="#E5AC51" points="113.765625 212.601562 144.90625 204.257812 150.957031 226.847656 119.816406 235.1875"></polygon>
            <path d="M286.722656,123.984375 L239.285156,254.316406 C233.554688,270.0625 241.671875,287.476562 257.421875,293.207031 L364.902344,332.328125 C380.652344,338.058594 398.0625,329.941406 403.796875,314.191406 L451.234375,183.863281 C456.964844,168.113281 448.84375,150.703125 433.097656,144.96875 L325.613281,105.847656 C309.867188,100.117188 292.453125,108.238281 286.722656,123.984375 Z" id="Shape" fill="#FFA436"></path>
            <g id="Group" transform="translate(271.000000, 110.000000)" fill="#CC6D0E">
                <path d="M162.097656,34.96875 L144.425781,28.535156 C158.125,33.523438 164.585938,50.332031 158.855469,66.078125 L111.417969,196.410156 C105.6875,212.15625 89.9375,220.878906 76.234375,215.894531 L93.90625,222.328125 C109.652344,228.058594 127.066406,219.9375 132.796875,204.191406 L180.234375,73.863281 C185.964844,58.113281 177.84375,40.699219 162.097656,34.96875 Z" id="Shape"></path>
                <path d="M87.292969,194.355469 C83.835938,192.082031 79.183594,193.039062 76.90625,196.5 C70.644531,206.03125 67.085938,210.113281 65.15625,211.863281 L80.402344,217.414062 C83.4375,213.707031 86.433594,209.316406 89.441406,204.742188 C91.71875,201.28125 90.757812,196.628906 87.292969,194.355469 Z" id="Shape"></path>
                <path d="M135.464844,68.902344 C138.53125,68.902344 141.410156,67.007812 142.515625,63.957031 L143.738281,60.582031 C146.863281,52 149.460938,40.21875 149.09375,30.238281 L131.5625,23.855469 C132.070312,24.339844 132.648438,24.757812 133.292969,25.09375 C134.878906,28.351562 134.730469,41.484375 129.640625,55.460938 L128.414062,58.84375 C127.003906,62.738281 129.015625,67.039062 132.910156,68.453125 C133.75,68.757812 134.617188,68.902344 135.464844,68.902344 Z" id="Shape"></path>
                <path d="M66.421875,3.078125 C60.613281,9.734375 55.300781,18.773438 52.207031,27.273438 L50.980469,30.65625 C49.566406,34.550781 51.578125,38.851562 55.472656,40.265625 C56.320312,40.570312 57.179688,40.714844 58.03125,40.714844 C61.097656,40.714844 63.976562,38.820312 65.082031,35.773438 L66.304688,32.398438 C71.0625,19.335938 80.699219,8.503906 84.34375,7.300781 C85.109375,7.492188 85.878906,7.550781 86.632812,7.503906 L68.445312,0.882812 C67.78125,1.5625 67.109375,2.292969 66.421875,3.078125 Z" id="Shape"></path>
                <path d="M16.039062,174.347656 C16.519531,170.234375 13.574219,166.507812 9.460938,166.027344 C5.339844,165.542969 1.621094,168.492188 1.136719,172.605469 C0.53125,177.789062 0.351562,183.457031 0.601562,188.367188 L16.386719,194.113281 C15.507812,190.511719 15.039062,182.867188 16.039062,174.347656 Z" id="Shape"></path>
            </g>
            <path d="M296.015625,307.253906 L226,499.617188 C225.613281,500.6875 226.164062,501.871094 227.234375,502.261719 L240.625,507.132812 L253.652344,511.875 C254.722656,512.265625 255.90625,511.714844 256.296875,510.640625 L326.3125,318.28125 L296.015625,307.253906 Z" id="Shape" fill="#81EBC7"></path>
            <polygon id="Shape" fill="#50B596" points="296.015625 307.253906 288.140625 328.890625 303.46875 334.46875 318.433594 339.917969 326.308594 318.28125"></polygon>
            <path d="M320.484375,209.582031 L294.132812,199.992188 C289.390625,198.265625 288.25,192.078125 292.0625,188.769531 L313.859375,169.886719 C317.777344,166.492188 323.90625,168.722656 324.726562,173.84375 L329.285156,202.320312 C330.082031,207.304688 325.230469,211.308594 320.484375,209.582031 Z" id="Shape" fill="#4E5173"></path>
            <path d="M396.699219,237.324219 L370.347656,227.730469 C365.601562,226.003906 364.460938,219.816406 368.277344,216.511719 L390.070312,197.628906 C393.992188,194.230469 400.121094,196.460938 400.941406,201.582031 L405.496094,230.058594 C406.292969,235.042969 401.441406,239.050781 396.699219,237.324219 Z" id="Shape" fill="#4E5173"></path>
            <path d="M333.042969,255.867188 L330.503906,262.835938 C329.726562,264.980469 327.355469,266.085938 325.210938,265.304688 L313.242188,260.949219 C311.097656,260.167969 309.992188,257.796875 310.773438,255.652344 L313.308594,248.683594 L284.128906,238.066406 C282.039062,237.304688 279.921875,239.082031 280.277344,241.273438 C283.699219,262.464844 298.183594,281.222656 319.785156,289.085938 C341.394531,296.949219 364.558594,291.882812 380.800781,277.835938 C382.46875,276.390625 381.964844,273.675781 379.890625,272.921875 L333.042969,255.867188 Z" id="Shape" fill="#4E5173"></path>
        </g>
    </g>
</svg>