<?xml version="1.0" encoding="UTF-8"?>
<svg width="512px" height="508px" viewBox="0 0 512 508" version="1.1" xmlns="http://www.w3.org/2000/svg" xmlns:xlink="http://www.w3.org/1999/xlink">
    <!-- Generator: Sketch 49.1 (51147) - http://www.bohemiancoding.com/sketch -->
    <title>009-cake</title>
    <desc>Created with Sketch.</desc>
    <defs></defs>
    <g id="login" stroke="none" stroke-width="1" fill="none" fill-rule="evenodd">
        <g id="009-cake" transform="translate(-1.000000, 0.000000)" fill-rule="nonzero">
            <path d="M506.472656,215.757812 C498.691406,190.910156 480.457031,163.464844 456.707031,156.578125 C452.476562,155.351562 448.742188,159.648438 450.425781,163.71875 C452.617188,169.015625 452.804688,174.707031 451.773438,179.191406 C449.296875,189.933594 440.8125,198.117188 430.804688,202.242188 C422.691406,205.585938 394.710938,205.664062 379.398438,200.519531 C366.683594,196.246094 390.84375,252.941406 390.84375,252.941406 C412.984375,241.019531 440.800781,240.292969 463.53125,251.042969 C482.96875,260.230469 499.335938,276.097656 506.695312,295.929688 C507.507812,298.117188 510.734375,297.679688 510.996094,295.359375 C513.988281,268.617188 514.472656,241.316406 506.472656,215.757812 Z" id="Shape" fill="#6E7093"></path>
            <path d="M435.3125,200.046875 C433.855469,200.871094 432.347656,201.605469 430.800781,202.242188 C422.6875,205.585938 394.710938,205.664062 379.398438,200.519531 C378.996094,200.382812 378.632812,200.308594 378.304688,200.292969 L378.304688,218.449219 C382.632812,233.675781 390.84375,252.9375 390.84375,252.9375 C404.367188,245.65625 420.007812,242.550781 435.3125,243.6875 L435.3125,200.046875 Z" id="Shape" fill="#4E5173"></path>
            <path d="M7.527344,215.757812 C15.308594,190.910156 33.542969,163.464844 57.296875,156.578125 C61.523438,155.351562 65.257812,159.648438 63.574219,163.71875 C61.382812,169.015625 61.195312,174.707031 62.226562,179.191406 C64.703125,189.933594 73.1875,198.117188 83.195312,202.242188 C91.308594,205.585938 119.289062,205.664062 134.601562,200.519531 C147.316406,196.246094 123.15625,252.941406 123.15625,252.941406 C101.015625,241.019531 73.199219,240.292969 50.46875,251.042969 C31.03125,260.230469 14.664062,276.097656 7.304688,295.929688 C6.492188,298.117188 3.265625,297.679688 3.003906,295.359375 C0.011719,268.617188 -0.472656,241.316406 7.527344,215.757812 Z" id="Shape" fill="#6E7093"></path>
            <path d="M101.867188,144.289062 L101.867188,349.964844 L412.132812,349.964844 L412.132812,144.289062 C412.132812,121.902344 393.984375,103.753906 371.597656,103.753906 L142.402344,103.753906 C120.015625,103.753906 101.867188,121.902344 101.867188,144.289062 Z" id="Shape" fill="#BFEA92"></path>
            <path d="M371.597656,103.753906 L347.605469,103.753906 C369.996094,103.753906 388.144531,121.902344 388.144531,144.289062 L388.144531,349.964844 L412.132812,349.964844 L412.132812,144.289062 C412.132812,121.902344 393.984375,103.753906 371.597656,103.753906 Z" id="Shape" fill="#9BC66A"></path>
            <path d="M381.445312,54.140625 C381.445312,84.039062 357.207031,108.277344 327.308594,108.277344 C297.40625,108.277344 273.167969,84.039062 273.167969,54.140625 C273.167969,24.238281 297.40625,0 327.308594,0 C357.207031,0 381.445312,24.238281 381.445312,54.140625 Z" id="Shape" fill="#E6EFF5"></path>
            <path d="M240.832031,54.140625 C240.832031,84.039062 216.59375,108.277344 186.691406,108.277344 C156.792969,108.277344 132.554688,84.039062 132.554688,54.140625 C132.554688,24.238281 156.792969,0 186.691406,0 C216.59375,0 240.832031,24.238281 240.832031,54.140625 Z" id="Shape" fill="#E6EFF5"></path>
            <path d="M358.722656,40.738281 C358.722656,50.386719 350.898438,58.207031 341.25,58.207031 C331.601562,58.207031 323.78125,50.386719 323.78125,40.738281 C323.78125,31.089844 331.601562,23.269531 341.25,23.269531 C350.898438,23.269531 358.722656,31.089844 358.722656,40.738281 Z" id="Shape" fill="#80B9F9"></path>
            <path d="M186.859375,61.824219 C186.859375,71.472656 179.039062,79.296875 169.390625,79.296875 C159.742188,79.296875 151.921875,71.472656 151.921875,61.824219 C151.921875,52.179688 159.742188,44.355469 169.390625,44.355469 C179.039062,44.355469 186.859375,52.179688 186.859375,61.824219 Z" id="Shape" fill="#80B9F9"></path>
            <path d="M257,262.152344 C208.4375,262.152344 169.070312,222.785156 169.070312,174.222656 L169.070312,170.648438 C169.070312,158.789062 178.683594,149.175781 190.542969,149.175781 L323.457031,149.175781 C335.316406,149.175781 344.929688,158.789062 344.929688,170.648438 L344.929688,174.222656 C344.929688,222.785156 305.5625,262.152344 257,262.152344 Z" id="Shape" fill="#ED6161"></path>
            <path d="M231.875,188.117188 L216.121094,149.175781 L258.746094,149.175781 L242.996094,188.117188 C240.972656,193.117188 233.894531,193.117188 231.875,188.117188 Z" id="Shape" fill="#E6EFF5"></path>
            <path d="M311.386719,243.320312 L301.515625,205.472656 C299.820312,198.972656 290.597656,198.972656 288.902344,205.472656 L274.578125,260.394531 C288.273438,257.617188 300.808594,251.65625 311.386719,243.320312 Z" id="Shape" fill="#E6EFF5"></path>
            <path d="M459.296875,383.84375 L459.296875,471.984375 L54.703125,471.984375 L54.703125,383.84375 C54.703125,365.136719 69.878906,349.960938 88.585938,349.960938 L425.414062,349.960938 C444.121094,349.960938 459.296875,365.136719 459.296875,383.84375 Z" id="Shape" fill="#F8CC7C"></path>
            <path d="M459.296875,383.84375 L459.296875,471.984375 L436.34375,471.984375 L436.34375,383.84375 C436.34375,365.136719 421.179688,349.960938 402.460938,349.960938 L425.414062,349.960938 C444.121094,349.960938 459.296875,365.136719 459.296875,383.84375 Z" id="Shape" fill="#D3A159"></path>
            <path d="M236.808594,409.222656 L219.421875,439.175781 C211.917969,452.117188 195.328125,456.519531 182.386719,449 C169.445312,441.496094 165.042969,424.90625 172.546875,411.964844 L179.871094,399.34375 C190.644531,394.621094 201.113281,387.871094 212.015625,391.152344 C221.882812,394.117188 227.820312,404.429688 236.808594,409.222656 Z" id="Shape" fill="#ED6161"></path>
            <path d="M199.082031,427.738281 C197.804688,427.738281 196.507812,427.414062 195.324219,426.722656 C191.738281,424.644531 190.523438,420.054688 192.601562,416.472656 L208.742188,388.660156 C210.820312,385.078125 215.414062,383.859375 218.996094,385.9375 C222.578125,388.019531 223.796875,392.605469 221.714844,396.1875 L205.574219,424.003906 C204.183594,426.398438 201.667969,427.738281 199.082031,427.738281 Z" id="Shape" fill="#AA3535"></path>
            <path d="M371.886719,349.964844 C373.230469,345.546875 373.949219,340.859375 373.949219,336 C373.949219,309.492188 352.464844,288.003906 325.957031,288.003906 C299.449219,288.003906 277.960938,309.492188 277.960938,336 C277.960938,340.855469 278.679688,345.546875 280.023438,349.964844 L371.886719,349.964844 Z" id="Shape" fill="#E6EFF5"></path>
            <path d="M350.777344,349.964844 C351.386719,347.960938 351.714844,345.832031 351.714844,343.625 C351.714844,331.589844 341.960938,321.835938 329.925781,321.835938 C317.890625,321.835938 308.132812,331.589844 308.132812,343.625 C308.132812,345.832031 308.460938,347.960938 309.070312,349.964844 L350.777344,349.964844 Z" id="Shape" fill="#4E5173"></path>
            <path d="M233.976562,349.964844 C235.316406,345.546875 236.039062,340.859375 236.039062,336 C236.039062,309.492188 214.550781,288.003906 188.042969,288.003906 C161.539062,288.003906 140.046875,309.492188 140.046875,336 C140.046875,340.855469 140.769531,345.546875 142.113281,349.964844 L233.976562,349.964844 Z" id="Shape" fill="#E6EFF5"></path>
            <path d="M212.867188,349.964844 C213.476562,347.960938 213.804688,345.832031 213.804688,343.625 C213.804688,331.589844 204.046875,321.835938 192.011719,321.835938 C179.976562,321.835938 170.222656,331.589844 170.222656,343.625 C170.222656,345.832031 170.550781,347.960938 171.160156,349.964844 L212.867188,349.964844 Z" id="Shape" fill="#4E5173"></path>
            <path d="M20.058594,477.097656 L20.058594,480.691406 C20.058594,495.226562 31.84375,507.011719 46.378906,507.011719 L467.621094,507.011719 C482.15625,507.011719 493.941406,495.226562 493.941406,480.691406 L493.941406,477.097656 C493.941406,474.273438 491.652344,471.984375 488.828125,471.984375 L25.171875,471.984375 C22.347656,471.984375 20.058594,474.273438 20.058594,477.097656 Z" id="Shape" fill="#E6EFF5"></path>
            <path d="M488.828125,471.984375 L461.011719,471.984375 C463.835938,471.984375 466.128906,474.273438 466.128906,477.097656 L466.128906,480.691406 C466.128906,495.226562 454.34375,507.011719 439.804688,507.011719 L467.621094,507.011719 C482.15625,507.011719 493.941406,495.226562 493.941406,480.691406 L493.941406,477.097656 C493.941406,474.273438 491.652344,471.984375 488.828125,471.984375 Z" id="Shape" fill="#C5D3D6"></path>
            <path d="M399.378906,392.738281 C395.222656,388.164062 390.496094,384.132812 385.351562,380.738281 C385.222656,380.652344 385.09375,380.570312 384.960938,380.488281 C380.042969,377.289062 374.753906,374.664062 369.203125,372.707031 C365.300781,371.332031 361.015625,373.378906 359.636719,377.285156 C358.261719,381.191406 360.308594,385.472656 364.214844,386.851562 C366.585938,387.6875 368.894531,388.679688 371.132812,389.808594 C362.617188,403.011719 345.1875,410.796875 330.046875,407.273438 C325.175781,406.132812 320.332031,404.007812 315.207031,401.757812 C306.535156,397.953125 297.578125,394.019531 287.191406,394.289062 C279.128906,394.503906 271.761719,397.238281 264.636719,399.886719 C256.054688,403.074219 248.644531,405.824219 242.234375,403.460938 C241.582031,403.214844 240.957031,402.933594 240.339844,402.605469 C237.332031,401.003906 234.46875,398.324219 231.4375,395.488281 C226.761719,391.113281 221.464844,386.15625 214.179688,383.972656 C202.417969,380.429688 191.726562,385.492188 182.292969,389.964844 C180.414062,390.851562 178.644531,391.691406 176.820312,392.488281 C174.117188,393.695312 171.886719,394.515625 169.796875,395.085938 C161.285156,397.417969 151.601562,395.316406 144.179688,390.050781 C144.894531,389.851562 145.617188,389.667969 146.347656,389.519531 C150.410156,388.710938 153.046875,384.757812 152.234375,380.695312 C151.421875,376.636719 147.476562,374.003906 143.410156,374.808594 C137.8125,375.929688 132.4375,378.191406 127.625,381.332031 C127.367188,381.476562 127.113281,381.636719 126.871094,381.816406 C126.839844,381.835938 126.816406,381.859375 126.789062,381.878906 C121.585938,385.433594 117.09375,390.03125 113.796875,395.351562 C111.613281,398.875 112.699219,403.496094 116.21875,405.679688 C117.449219,406.441406 118.816406,406.804688 120.164062,406.804688 C122.671875,406.804688 125.125,405.546875 126.546875,403.257812 C127.671875,401.4375 129.011719,399.746094 130.515625,398.207031 C141.941406,409.035156 158.730469,413.667969 173.746094,409.554688 C176.582031,408.785156 179.496094,407.71875 182.882812,406.210938 C184.867188,405.339844 186.824219,404.414062 188.714844,403.519531 C196.714844,399.730469 203.625,396.457031 209.859375,398.335938 C213.785156,399.515625 217.382812,402.878906 221.191406,406.441406 C224.800781,409.816406 228.527344,413.304688 233.292969,415.847656 C234.476562,416.476562 235.707031,417.03125 236.996094,417.515625 C248.667969,421.820312 259.925781,417.640625 269.863281,413.949219 C276.113281,411.625 282.019531,409.429688 287.585938,409.285156 C294.605469,409.082031 301.6875,412.207031 309.179688,415.492188 C314.703125,417.917969 320.414062,420.421875 326.640625,421.878906 C330.238281,422.71875 333.898438,423.117188 337.5625,423.117188 C355.597656,423.117188 373.625,413.398438 383.5625,398.214844 C385.214844,399.664062 386.796875,401.195312 388.28125,402.824219 C389.761719,404.457031 391.792969,405.28125 393.832031,405.28125 C395.632812,405.28125 397.4375,404.636719 398.875,403.332031 C401.9375,400.546875 402.164062,395.804688 399.378906,392.738281 Z" id="Shape" fill="#D3A159"></path>
        </g>
    </g>
</svg>