<?xml version="1.0" encoding="UTF-8"?>
<svg width="50px" height="50px" viewBox="0 0 50 50" version="1.1" xmlns="http://www.w3.org/2000/svg" xmlns:xlink="http://www.w3.org/1999/xlink">
    <!-- Generator: Sketch 49.1 (51147) - http://www.bohemiancoding.com/sketch -->
    <title>chat</title>
    <desc>Created with Sketch.</desc>
    <defs></defs>
    <g id="Page-2" stroke="none" stroke-width="1" fill="none" fill-rule="evenodd">
        <g id="chat" fill-rule="nonzero">
            <circle id="Oval" fill="#4A90E2" cx="25" cy="25" r="25"></circle>
            <path d="M26.0869565,10.8695652 C17.6827586,10.8695652 10.8695652,16.8511067 10.8695652,24.2292489 C10.8695652,26.9484585 11.7973013,29.4760078 13.3862069,31.5863241 C13.1773613,34.0244663 12.5770615,37.4584189 10.8695652,39.1304348 C10.8695652,39.1304348 16.0870315,38.4136363 19.6206147,36.3238735 C19.6242878,36.325415 19.6284858,36.3269565 19.6321589,36.328498 C21.0825337,35.403083 22.5350074,34.4499209 22.8356822,34.2084189 C22.9931035,33.9920948 23.2969265,33.926838 23.5335833,34.066087 C23.6889057,34.1575493 23.7870315,34.3245454 23.79018,34.5018183 C23.7954274,34.8214228 23.7875563,34.9046641 20.8595202,36.7734783 C22.4904048,37.2975889 24.2493254,37.5889328 26.0869565,37.5889328 C34.4911543,37.5889328 41.3043478,31.6073913 41.3043478,24.2292489 C41.3043478,16.8511067 34.4911543,10.8695652 26.0869565,10.8695652 Z" id="Shape" fill="#FFFFFF"></path>
        </g>
    </g>
</svg>