<?xml version="1.0" encoding="UTF-8"?>
<svg width="14px" height="11px" viewBox="0 0 14 11" version="1.1" xmlns="http://www.w3.org/2000/svg" xmlns:xlink="http://www.w3.org/1999/xlink">
    <!-- Generator: Sketch 49.1 (51147) - http://www.bohemiancoding.com/sketch -->
    <title>checked</title>
    <desc>Created with Sketch.</desc>
    <defs></defs>
    <g id="sign-up" stroke="none" stroke-width="1" fill="none" fill-rule="evenodd">
        <g transform="translate(-235.000000, -665.000000)" fill="#FFFFFF" fill-rule="nonzero" id="form">
            <g transform="translate(235.000000, 164.000000)">
                <g id="checked" transform="translate(0.000000, 501.000000)">
                    <path d="M0.161538462,5.92307692 C0.0538461538,5.81538462 0,5.65384615 0,5.54615385 C0,5.43846154 0.0538461538,5.27692308 0.161538462,5.16923077 L0.915384615,4.41538462 C1.13076923,4.2 1.45384615,4.2 1.66923077,4.41538462 L1.72307692,4.46923077 L4.68461538,7.64615385 C4.79230769,7.75384615 4.95384615,7.75384615 5.06153846,7.64615385 L12.2769231,0.161538462 L12.3307692,0.161538462 C12.5461538,-0.0538461538 12.8692308,-0.0538461538 13.0846154,0.161538462 L13.8384615,0.915384615 C14.0538462,1.13076923 14.0538462,1.45384615 13.8384615,1.66923077 L5.22307692,10.6076923 C5.11538462,10.7153846 5.00769231,10.7692308 4.84615385,10.7692308 C4.68461538,10.7692308 4.57692308,10.7153846 4.46923077,10.6076923 L0.269230769,6.08461538 L0.161538462,5.92307692 Z" id="Shape"></path>
                </g>
            </g>
        </g>
    </g>
</svg>