<?xml version="1.0" encoding="UTF-8"?>
<svg width="36px" height="36px" viewBox="0 0 36 36" version="1.1" xmlns="http://www.w3.org/2000/svg" xmlns:xlink="http://www.w3.org/1999/xlink">
    <!-- Generator: Sketch 49.1 (51147) - http://www.bohemiancoding.com/sketch -->
    <title>Group-5</title>
    <desc>Created with Sketch.</desc>
    <defs></defs>
    <g id="tabbar" stroke="none" stroke-width="1" fill="none" fill-rule="evenodd">
        <g id="logo" fill-rule="nonzero">
            <g id="Group-5">
                <rect id="Rectangle-4" fill="#FDFDFD" x="0" y="0" width="36" height="36" rx="3"></rect>
                <g id="suit" transform="translate(3.600000, 3.600000)">
                    <path d="M13.4416142,0.465733163 L9.33214928,5.68585563 C8.98210125,6.13049788 8.98210125,6.75789991 9.33214928,7.20254216 L13.4416142,12.4226646 C13.9304666,13.0436422 14.8695897,13.0436422 15.3583858,12.4226646 L19.4678507,7.20254216 C19.8178987,6.75789991 19.8178987,6.13049788 19.4678507,5.68585563 L15.3584421,0.465733163 C14.8696459,-0.155244388 13.9304103,-0.155244388 13.4416142,0.465733163 Z" id="Shape" fill="#FF5368"></path>
                    <path d="M15.2485843,0.465733163 C14.7652459,-0.155244388 13.8367158,-0.155244388 13.353433,0.465733163 L13.2066298,0.654353896 L16.8735398,5.36553288 C17.3658865,5.9981196 17.3658865,6.89033455 16.8735398,7.52280855 L13.2066298,12.2339875 L13.353433,12.4226646 C13.8367714,13.0436422 14.7653015,13.0436422 15.2485843,12.4226646 L19.311696,7.2024858 C19.6577956,6.75784356 19.6577956,6.13044152 19.311696,5.68579928 L15.2485843,0.465733163 Z" id="Shape" fill="#C5324F" opacity="0.26"></path>
                    <path d="M9.11666748,11.1939713 C9.09022781,9.40128203 7.60633679,7.9558011 5.7785046,7.9558011 C3.94509133,7.9558011 2.45742321,9.41010372 2.4399471,11.2103941 C1.03278184,11.5969949 0,12.8670407 0,14.3753831 C0,16.1904318 1.49510956,17.6618785 3.33934674,17.6618785 C4.05265398,17.6618785 4.71302552,17.4409478 5.25557423,17.0659983 L6.35995176,17.0659983 C6.9024441,17.4409478 7.562872,17.6618785 8.27612287,17.6618785 C10.12036,17.6618785 11.6154696,16.1904318 11.6154696,14.3753831 C11.6154696,12.8460129 10.5540495,11.5608204 9.11666748,11.1939713 Z" id="Shape" fill="#343434"></path>
                    <path d="M11.4386102,13.3329284 C11.0794101,12.2903668 10.2062775,11.4822368 9.11660974,11.2034562 C9.09016314,9.40551597 7.60588279,7.9558011 5.77757105,7.9558011 C5.77757105,8.81779523 6.16643198,9.53405554 6.78316225,10.0305744 C7.13723095,10.3155872 7.36690475,10.7467234 7.37395342,11.2283851 C7.38534406,12.0025717 7.91957672,12.6737597 8.67908481,12.8680714 C9.38220356,13.0480825 9.87329837,13.6755336 9.87329837,14.394131 C9.87329837,14.9281545 9.49396724,15.389005 8.96435851,15.4989035 C8.74224088,15.5449775 8.5118904,15.5692386 8.27573183,15.5692942 C6.91325247,15.5692942 6.81891309,14.9728929 5.76533456,14.9716687 C5.46043737,14.9713349 5.16140468,15.0501836 4.89169444,15.1905755 C3.42342867,15.9548017 1.65410018,15.5194921 0.691477668,14.2869034 C0.460901635,13.9917632 -0.0151372173,14.1601445 0.000369852655,14.5324641 C0.000820967417,14.5439825 0.00144125021,14.5555567 0.00200514367,14.5671308 C0.0908183624,16.2704748 1.51081485,17.6391708 3.238528,17.688806 C3.98985964,17.7103405 4.68671917,17.4860362 5.25439071,17.0926829 L4.1340472,18.5500211 C3.80332369,18.9635735 4.10179249,19.5712707 4.63568681,19.5712707 L6.97793104,19.5712707 C7.51176898,19.5712707 7.81023778,18.9635735 7.47957066,18.5500211 L6.35922715,17.0926829 C6.95390918,17.5048442 7.69035403,17.7313186 8.48268072,17.6840762 C9.59490417,17.6177475 10.5676768,17.004764 11.1234502,16.1138346 L11.1257057,16.1138346 C11.6267251,15.3070401 11.7654992,14.3004807 11.4386102,13.3329284 Z" id="Shape" fill="#3E3E3E"></path>
                    <path d="M19.1547628,19.8957832 C17.8303882,18.4336895 15.6032155,18.4029566 14.2409001,19.8037517 C12.8786412,18.4030123 10.6514684,18.4336895 9.3270375,19.8957832 C8.06552167,21.2885054 8.16243125,23.4811728 9.47124617,24.8269605 L12.4305683,27.8698482 C13.4303888,28.8978959 15.0513551,28.8978959 16.0511193,27.8698482 L19.0104413,24.8269605 C20.3193126,23.4811728 20.4162786,21.2885054 19.1547628,19.8957832 Z" id="Shape" fill="#FF5368"></path>
                    <path d="M18.9985618,19.8671095 C18.7005833,19.5359831 18.3564724,19.278701 17.9871318,19.0939227 C18.6783318,20.44686 18.4343525,22.1765598 17.3403786,23.3089138 L14.3907679,26.3617786 C13.5056543,27.2778503 12.1324696,27.3795678 11.1381215,26.6682716 L12.2966022,27.8673201 C13.2931416,28.8987386 14.9087886,28.8987386 15.9052719,27.8673201 L18.8548826,24.8144553 C20.1592901,23.464255 20.2559378,21.2643981 18.9985618,19.8671095 Z" id="Shape" fill="#C5324F" opacity="0.260303442"></path>
                    <path d="M18.0783717,16.559868 C19.402748,17.9984006 21.6299239,18.0285502 22.992241,16.6504275 C24.3545019,18.0285502 26.5816777,17.9984006 27.9061104,16.559868 C29.167628,15.1896152 29.0707183,13.032315 27.7619016,11.7082287 L24.8025754,8.71438932 C23.8027535,7.70293837 22.1817849,7.70293837 21.1819631,8.71438932 L18.2226369,11.7082287 C16.9138202,13.032315 16.8169105,15.1896152 18.0783717,16.559868 Z" id="Shape" fill="#343434"></path>
                    <path d="M27.7589524,11.7154624 L24.7889354,8.70653024 C24.3490313,8.26092755 23.7893489,8.01072164 23.2149559,7.9558011 C22.9034869,8.58889113 23.008102,9.37253916 23.5349118,9.90625978 L26.5049289,12.9151919 C26.5252974,12.9357454 26.5450436,12.9567444 26.564224,12.9780219 C27.4818836,13.9962798 26.68553,15.6111439 25.3032978,15.5744931 C24.7958946,15.5610136 24.2909244,15.4339611 23.8285584,15.1931686 C23.2967696,14.9161708 22.6543683,14.9108236 22.1232584,15.1892139 C20.7986239,15.8833515 19.120482,15.6431159 18.0404964,14.4683958 C18.0369884,14.4646082 18.0335371,14.4608206 18.0301423,14.4570329 C17.7084325,14.1038928 17.1140104,14.3731482 17.1914108,14.8413096 C17.2965352,15.4774074 17.5771685,16.0873818 18.0405529,16.5914698 C19.2067088,17.8598779 21.0701479,18.0385646 22.43303,17.1279755 L21.2937493,18.5490024 C20.9619118,18.9629673 21.261386,19.5712707 21.7970788,19.5712707 L24.147213,19.5712707 C24.6828492,19.5712707 24.9823234,18.9629673 24.6505424,18.5490024 L23.5112051,17.1278641 C24.8747096,18.0387317 26.7384882,17.8583183 27.9033993,16.591804 C29.1634769,15.2216872 29.07725,13.0509894 27.7589524,11.7154624 Z" id="Shape" fill="#343434"></path>
                    <path d="M27.7589524,11.7154624 L24.7889354,8.70653024 C24.3490313,8.26092755 23.7893489,8.01072164 23.2149559,7.9558011 C22.9034869,8.58889113 23.008102,9.37253916 23.5349118,9.90625978 L26.5049289,12.9151919 C26.5252974,12.9357454 26.5450436,12.9567444 26.564224,12.9780219 C27.4818836,13.9962798 26.68553,15.6111439 25.3032978,15.5744931 C24.7958946,15.5610136 24.2909244,15.4339611 23.8285584,15.1931686 C23.2967696,14.9161708 22.6543683,14.9108236 22.1232584,15.1892139 C20.7986239,15.8833515 19.120482,15.6431159 18.0404964,14.4683958 C18.0369884,14.4646082 18.0335371,14.4608206 18.0301423,14.4570329 C17.7084325,14.1038928 17.1140104,14.3731482 17.1914108,14.8413096 C17.2965352,15.4774074 17.5771685,16.0873818 18.0405529,16.5914698 C19.2067088,17.8598779 21.0701479,18.0385646 22.43303,17.1279755 L21.2937493,18.5490024 C20.9619118,18.9629673 21.261386,19.5712707 21.7970788,19.5712707 L24.147213,19.5712707 C24.6828492,19.5712707 24.9823234,18.9629673 24.6505424,18.5490024 L23.5112051,17.1278641 C24.8747096,18.0387317 26.7384882,17.8583183 27.9033993,16.591804 C29.1634769,15.2216872 29.07725,13.0509894 27.7589524,11.7154624 Z" id="Shape" fill="#FFFFFF" opacity="0.05"></path>
                </g>
            </g>
        </g>
    </g>
</svg>