<?xml version="1.0" encoding="UTF-8"?>
<svg width="24px" height="21px" viewBox="0 0 24 21" version="1.1" xmlns="http://www.w3.org/2000/svg" xmlns:xlink="http://www.w3.org/1999/xlink">
    <!-- Generator: Sketch 49.1 (51147) - http://www.bohemiancoding.com/sketch -->
    <title>Shape</title>
    <desc>Created with Sketch.</desc>
    <defs></defs>
    <g id="sign-up" stroke="none" stroke-width="1" fill="none" fill-rule="evenodd">
        <g id="Game" transform="translate(-1241.000000, -31.000000)" fill="#FFFFFF" fill-rule="nonzero">
            <g id="Group" transform="translate(1.000000, 0.000000)">
                <g id="user" transform="translate(873.000000, 24.000000)">
                    <g id="top" transform="translate(367.000000, 0.000000)">
                        <g id="message-icon">
                            <path d="M22.3931669,11.3336523 C21.3216164,9.99571166 19.8661129,8.93890347 18.0270315,8.16332302 C16.1879971,7.38783788 14.1788224,7 12.0002111,7 C10.3751302,7 8.82153921,7.22899497 7.33943806,7.68708021 C5.85733692,8.1451178 4.58060494,8.76423821 3.5091483,9.54429848 C2.43750403,10.3244541 1.58502028,11.2519671 0.950993403,12.3267899 C0.316966528,13.4016603 0,14.5288112 0,15.7080518 C0,17.0686298 0.403889568,18.3435194 1.21199707,19.531815 C2.02010457,20.7199676 3.12486685,21.7179186 4.5267999,22.5252391 C4.42847789,22.8879614 4.31242414,23.2327644 4.17845101,23.5590763 C4.0445248,23.8856264 3.92401466,24.1535577 3.81687369,24.3621552 C3.7096389,24.5707527 3.56468898,24.8021782 3.38150794,25.0561458 C3.19860836,25.3100657 3.06022575,25.4893061 2.96645395,25.5934857 C2.87277596,25.6978559 2.71877254,25.8704719 2.50434987,26.1105234 C2.29020865,26.3510992 2.15173223,26.5074639 2.08929587,26.5801895 C2.08024237,26.584431 2.04459125,26.6255595 1.98210799,26.7025266 C1.91967163,26.7794937 1.88833618,26.8180011 1.88833618,26.8180011 L1.80798045,26.9402906 C1.76327584,27.0084887 1.74319863,27.0515235 1.74760811,27.0692998 C1.75211141,27.0870761 1.74319863,27.1327322 1.72086978,27.2051718 C1.69849401,27.2778973 1.70079257,27.33237 1.72753091,27.3687805 L1.72753091,27.3823152 C1.76341656,27.5457333 1.84152065,27.6771731 1.96198387,27.7767775 C2.0824471,27.8764773 2.2187657,27.9173676 2.37047056,27.8989241 C2.95097386,27.8263891 3.45984657,27.7270706 3.89727633,27.5998247 C6.23664598,26.9918085 8.29029074,25.894539 10.0580699,24.3068247 C10.7275602,24.3793596 11.3749094,24.41577 11.9999296,24.41577 C14.178494,24.41577 16.1875749,24.0279322 18.026797,23.2521134 C19.8660191,22.4766283 21.3213819,21.4197724 22.3927447,20.0820701 C23.4642951,18.7447014 24,17.2863299 24,15.7080042 C24.0000469,14.1296308 23.464389,12.6713546 22.3931669,11.3336523 Z" id="Shape"></path>
                        </g>
                    </g>
                </g>
            </g>
        </g>
    </g>
</svg>