<?xml version="1.0" encoding="UTF-8"?>
<svg width="380px" height="512px" viewBox="0 0 380 512" version="1.1" xmlns="http://www.w3.org/2000/svg" xmlns:xlink="http://www.w3.org/1999/xlink">
    <!-- Generator: Sketch 49.1 (51147) - http://www.bohemiancoding.com/sketch -->
    <title>019-pirate</title>
    <desc>Created with Sketch.</desc>
    <defs></defs>
    <g id="login" stroke="none" stroke-width="1" fill="none" fill-rule="evenodd">
        <g id="019-pirate" fill-rule="nonzero">
            <path d="M255.117188,159.109375 C239.226562,203.082031 273.070312,250.339844 342.414062,258.332031 C350.5625,259.269531 353.257812,149.300781 255.117188,159.109375 Z" id="Shape" fill="#CE4545"></path>
            <path d="M247.183594,141.832031 C272.886719,102.777344 331,101.585938 378.921875,152.339844 C384.554688,158.304688 298.09375,226.3125 247.183594,141.832031 Z" id="Shape" fill="#ED6161"></path>
            <path d="M20.695312,154.820312 L20.695312,232.820312 L277.9375,232.820312 L277.9375,154.820312 C277.9375,135.640625 262.390625,120.09375 243.210938,120.09375 L55.421875,120.09375 C36.242188,120.09375 20.695312,135.640625 20.695312,154.820312 Z" id="Shape" fill="#6E7093"></path>
            <path d="M280.960938,512 L17.671875,512 C15.417969,512 13.589844,510.171875 13.589844,507.914062 L13.589844,427.488281 C13.589844,405.929688 26.972656,386.632812 47.164062,379.074219 L149.316406,340.847656 L251.46875,379.074219 C271.660156,386.632812 285.042969,405.929688 285.042969,427.488281 L285.042969,507.914062 C285.046875,510.171875 283.21875,512 280.960938,512 Z" id="Shape" fill="#E6EFF5"></path>
            <path d="M251.46875,379.074219 L149.316406,340.851562 L149.316406,349.4375 L228.523438,379.074219 C248.714844,386.632812 262.097656,405.929688 262.097656,427.492188 L262.097656,507.917969 C262.097656,510.171875 260.269531,512 258.015625,512 L280.960938,512 C283.214844,512 285.046875,510.171875 285.046875,507.917969 L285.046875,427.488281 C285.046875,405.929688 271.664062,386.632812 251.46875,379.074219 Z" id="Shape" fill="#C5D3D6"></path>
            <path d="M13.589844,427.488281 L13.589844,473.746094 L285.046875,473.746094 L285.046875,427.488281 C285.046875,423.480469 284.582031,419.550781 283.699219,415.757812 L14.9375,415.757812 C14.054688,419.550781 13.589844,423.480469 13.589844,427.488281 Z" id="Shape" fill="#ED6161"></path>
            <path d="M284.320312,418.886719 C284.289062,418.707031 284.253906,418.523438 284.222656,418.34375 C284.066406,417.476562 283.894531,416.609375 283.695312,415.757812 L260.75,415.757812 C261.632812,419.550781 262.097656,423.480469 262.097656,427.488281 L262.097656,473.746094 L285.042969,473.746094 L285.042969,427.488281 C285.042969,426.59375 285.015625,425.703125 284.96875,424.816406 C284.957031,424.601562 284.945312,424.386719 284.929688,424.171875 C284.816406,422.390625 284.613281,420.625 284.320312,418.886719 Z" id="Shape" fill="#CE4545"></path>
            <path d="M227.347656,512 L227.347656,462.9375 C227.347656,458.667969 230.808594,455.210938 235.074219,455.210938 C239.339844,455.210938 242.800781,458.667969 242.800781,462.9375 L242.800781,512 L227.347656,512 Z M71.285156,512 L71.285156,462.9375 C71.285156,458.667969 67.828125,455.210938 63.5625,455.210938 C59.292969,455.210938 55.835938,458.667969 55.835938,462.9375 L55.835938,512 L71.285156,512 Z" id="Shape" fill="#C5D3D6"></path>
            <path d="M71.285156,473.746094 L71.285156,462.9375 C71.285156,458.667969 67.828125,455.210938 63.5625,455.210938 C59.292969,455.210938 55.835938,458.667969 55.835938,462.9375 L55.835938,473.746094 L71.285156,473.746094 Z" id="Shape" fill="#CE4545"></path>
            <path d="M242.800781,462.9375 C242.800781,458.667969 239.339844,455.210938 235.074219,455.210938 C230.808594,455.210938 227.347656,458.667969 227.347656,462.9375 L227.347656,473.746094 L242.800781,473.746094 L242.800781,462.9375 Z" id="Shape" fill="#CE4545"></path>
            <path d="M269.324219,264.84375 L232.511719,264.84375 L232.511719,200.796875 L269.324219,200.796875 C279.914062,200.796875 288.503906,209.382812 288.503906,219.976562 L288.503906,245.664062 C288.503906,256.257812 279.914062,264.84375 269.324219,264.84375 Z" id="Shape" fill="#E59F6A"></path>
            <path d="M29.3125,264.84375 L66.121094,264.84375 L66.121094,200.796875 L29.3125,200.796875 C18.71875,200.796875 10.132812,209.382812 10.132812,219.976562 L10.132812,245.664062 C10.132812,256.257812 18.71875,264.84375 29.3125,264.84375 Z" id="Shape" fill="#E59F6A"></path>
            <path d="M108.820312,296.90625 L108.820312,356.472656 C108.820312,378.839844 126.953125,396.96875 149.316406,396.96875 C171.683594,396.96875 189.8125,378.839844 189.8125,356.472656 L189.8125,296.90625 L108.820312,296.90625 Z" id="Shape" fill="#F9C295"></path>
            <path d="M257.863281,208.414062 C257.863281,140.875 209.265625,86.128906 149.316406,86.128906 C89.371094,86.128906 40.773438,140.875 40.773438,208.414062 C40.773438,275.953125 89.371094,330.699219 149.316406,330.699219 C209.265625,330.699219 257.863281,275.953125 257.863281,208.414062 Z" id="Shape" fill="#F9C295"></path>
            <path d="M199.671875,100.0625 C223.351562,122.496094 238.402344,156.109375 238.402344,193.691406 C238.402344,261.230469 189.808594,315.980469 129.859375,315.980469 C111.683594,315.980469 94.554688,310.941406 79.503906,302.042969 C98.375,319.921875 122.730469,330.699219 149.320312,330.699219 C209.265625,330.699219 257.863281,275.949219 257.863281,208.414062 C257.863281,161.351562 234.261719,120.507812 199.671875,100.0625 Z" id="Shape" fill="#E59F6A"></path>
            <path d="M206.65625,296.699219 C191.941406,306.996094 176.210938,296.90625 149.316406,296.90625 C122.421875,296.90625 106.695312,306.996094 91.976562,296.699219 C77.261719,286.402344 55.949219,253.71875 41.441406,222.035156 C41.441406,222.035156 48.027344,321.09375 67.410156,334.109375 C86.789062,347.121094 95.1875,320.699219 105.253906,345.054688 C115.320312,369.410156 140.375,371.441406 149.320312,371.441406 C158.257812,371.441406 183.316406,369.410156 193.382812,345.054688 C203.453125,320.695312 211.847656,347.121094 231.226562,334.109375 C250.609375,321.09375 257.195312,222.035156 257.195312,222.035156 C242.683594,253.71875 221.371094,286.402344 206.65625,296.699219 Z" id="Shape" fill="#6E7093"></path>
            <path d="M227.320312,274.132812 C223.707031,300.246094 217.992188,327.679688 209.515625,334.109375 C209.035156,334.46875 208.570312,334.796875 208.109375,335.097656 C214.027344,336.972656 221.140625,340.882812 231.226562,334.109375 C250.609375,321.09375 257.195312,222.035156 257.195312,222.035156 C248.675781,240.636719 237.816406,259.574219 227.320312,274.132812 Z" id="Shape" fill="#4E5173"></path>
            <path d="M176,345.054688 C168.757812,364.832031 152.769531,369.890625 142.773438,371.089844 C145.382812,371.367188 147.636719,371.441406 149.316406,371.441406 C158.257812,371.441406 183.316406,369.410156 193.382812,345.054688 C194.734375,341.785156 196.054688,339.4375 197.378906,337.777344 C188.171875,336.460938 182.476562,327.363281 176,345.054688 Z" id="Shape" fill="#4E5173"></path>
            <path d="M70.257812,207.488281 C52.328125,207.488281 38.476562,204.953125 31.734375,200.035156 C28.289062,197.519531 27.53125,192.6875 30.046875,189.242188 C32.558594,185.792969 37.390625,185.035156 40.839844,187.550781 C45.160156,190.699219 67.199219,195.167969 107.75,188.867188 C138.917969,184.023438 188.542969,171.613281 247.9375,139.996094 C251.699219,137.992188 256.382812,139.421875 258.386719,143.1875 C260.394531,146.953125 258.964844,151.632812 255.199219,153.636719 C193.898438,186.269531 142.46875,199.109375 110.125,204.136719 C95.652344,206.386719 82.070312,207.488281 70.257812,207.488281 Z" id="Shape" fill="#363B51"></path>
            <path d="M142.621094,197.097656 L140.253906,183.6875 C138.699219,174.878906 130.269531,168.972656 121.457031,170.527344 L77.476562,178.28125 C73.210938,179.035156 69.488281,181.402344 67.003906,184.953125 C64.519531,188.503906 63.5625,192.808594 64.316406,197.078125 L66.683594,210.488281 C68.386719,220.164062 73.757812,228.59375 81.804688,234.226562 C88.058594,238.605469 95.34375,240.886719 102.820312,240.886719 C104.964844,240.886719 107.125,240.699219 109.285156,240.320312 L112.792969,239.699219 C122.464844,237.996094 130.894531,232.625 136.53125,224.578125 C142.160156,216.53125 144.324219,206.773438 142.621094,197.097656 Z" id="Shape" fill="#6E7093"></path>
            <path d="M294.585938,138.023438 C282.089844,117.054688 288.355469,0 149.316406,0 C10.28125,0 16.542969,117.054688 4.050781,138.023438 C-8.445312,158.988281 11.019531,176.660156 21.34375,166.101562 C43.628906,143.308594 84.484375,124.667969 149.316406,124.667969 C214.148438,124.667969 255.003906,143.308594 277.289062,166.101562 C287.613281,176.660156 307.078125,158.988281 294.585938,138.023438 Z" id="Shape" fill="#ED6161"></path>
            <path d="M294.585938,138.023438 C282.089844,117.054688 288.355469,0 149.316406,0 C146.960938,0 144.65625,0.0390625 142.378906,0.105469 C262.554688,3.945312 257.234375,117.410156 268.425781,138.023438 C272.941406,146.332031 272.867188,154.117188 270.5625,159.839844 C272.96875,161.882812 275.210938,163.972656 277.289062,166.101562 C287.613281,176.660156 307.078125,158.988281 294.585938,138.023438 Z" id="Shape" fill="#CE4545"></path>
            <g id="Group" transform="translate(114.000000, 199.000000)" fill="#363B51">
                <path d="M85.925781,17.070312 C81.785156,17.070312 78.425781,13.714844 78.425781,9.570312 L78.425781,7.570312 C78.425781,3.429688 81.785156,0.070312 85.925781,0.070312 C90.066406,0.070312 93.425781,3.429688 93.425781,7.570312 L93.425781,9.570312 C93.425781,13.714844 90.070312,17.070312 85.925781,17.070312 Z" id="Shape"></path>
                <path d="M36.496094,83.25 C22.292969,83.25 9.394531,76.003906 1.992188,63.863281 C-0.164062,60.324219 0.957031,55.710938 4.492188,53.554688 C8.03125,51.398438 12.644531,52.515625 14.800781,56.054688 C19.457031,63.691406 27.570312,68.25 36.496094,68.25 C45.433594,68.25 53.542969,63.691406 58.191406,56.058594 C60.34375,52.519531 64.957031,51.398438 68.496094,53.550781 C72.035156,55.707031 73.15625,60.320312 71.003906,63.859375 C63.613281,76 50.710938,83.25 36.496094,83.25 Z" id="Shape"></path>
            </g>
        </g>
    </g>
</svg>