<?xml version="1.0" encoding="UTF-8"?>
<svg width="512px" height="492px" viewBox="0 0 512 492" version="1.1" xmlns="http://www.w3.org/2000/svg" xmlns:xlink="http://www.w3.org/1999/xlink">
    <!-- Generator: Sketch 49.1 (51147) - http://www.bohemiancoding.com/sketch -->
    <title>010-basket</title>
    <desc>Created with Sketch.</desc>
    <defs></defs>
    <g id="login" stroke="none" stroke-width="1" fill="none" fill-rule="evenodd">
        <g id="010-basket" fill-rule="nonzero">
            <path d="M479.050781,287.164062 C474.90625,287.164062 471.550781,283.804688 471.550781,279.664062 L471.550781,219.226562 C471.550781,106.613281 379.933594,15 267.324219,15 L244.675781,15 C132.066406,15 40.449219,106.613281 40.449219,219.226562 L40.449219,279.664062 C40.449219,283.804688 37.09375,287.164062 32.949219,287.164062 C28.808594,287.164062 25.449219,283.804688 25.449219,279.664062 L25.449219,219.226562 C25.449219,160.667969 48.253906,105.617188 89.660156,64.210938 C131.066406,22.804688 186.117188,0 244.675781,0 L267.324219,0 C325.882812,0 380.933594,22.804688 422.339844,64.210938 C463.746094,105.617188 486.550781,160.667969 486.550781,219.226562 L486.550781,279.664062 C486.550781,283.804688 483.191406,287.164062 479.050781,287.164062 Z" id="Shape" fill="#363B51"></path>
            <path d="M494.992188,293.277344 L424.363281,293.277344 L424.363281,259.261719 L494.992188,259.261719 C504.386719,259.261719 512,266.878906 512,276.269531 C512,285.664062 504.386719,293.277344 494.992188,293.277344 Z" id="Shape" fill="#9BC66A"></path>
            <path d="M17.007812,293.277344 L87.636719,293.277344 L87.636719,259.261719 L17.007812,259.261719 C7.613281,259.265625 0,266.878906 0,276.269531 C0,285.664062 7.613281,293.277344 17.007812,293.277344 Z" id="Shape" fill="#9BC66A"></path>
            <path d="M110.90625,164.992188 C104.761719,164.992188 99.007812,167.925781 95.328125,172.847656 C67.378906,210.265625 43.648438,260.605469 43.648438,323.796875 C43.648438,451.890625 138.722656,491.140625 256,491.140625 C373.277344,491.140625 468.351562,451.890625 468.351562,323.796875 C468.351562,265.769531 440.875,212.726562 407.738281,172.050781 C404.082031,167.5625 398.570312,164.988281 392.78125,164.988281 L110.90625,164.988281 L110.90625,164.992188 Z" id="Shape" fill="#FFB05A"></path>
            <path d="M407.738281,172.050781 C404.078125,167.5625 398.570312,164.992188 392.777344,164.992188 L327.023438,164.992188 C330.03125,164.992188 332.894531,167.5625 334.792969,172.050781 C351.996094,212.726562 366.265625,265.769531 366.265625,323.800781 C366.265625,451.890625 316.898438,491.140625 256,491.140625 C373.277344,491.140625 468.351562,451.890625 468.351562,323.800781 C468.351562,265.769531 440.875,212.726562 407.738281,172.050781 Z" id="Shape" fill="#F79A34"></path>
            <path d="M407.738281,172.050781 C404.078125,167.5625 398.570312,164.992188 392.777344,164.992188 L375.40625,164.992188 C380.503906,164.992188 385.355469,167.5625 388.578125,172.050781 C417.753906,212.726562 441.945312,265.769531 441.945312,323.796875 C441.945312,450.851562 359.585938,490.488281 257.480469,491.125 C256.984375,491.128906 256.492188,491.140625 256,491.140625 C373.277344,491.140625 468.351562,451.890625 468.351562,323.796875 C468.351562,265.769531 440.875,212.726562 407.738281,172.050781 Z" id="Shape" fill="#CC6D0E"></path>
            <path d="M145.734375,323.796875 C145.734375,260.605469 158.054688,210.265625 172.570312,172.847656 C174.480469,167.925781 177.46875,164.992188 180.65625,164.992188 L110.90625,164.992188 C104.761719,164.992188 99.007812,167.925781 95.328125,172.847656 C67.382812,210.265625 43.652344,260.605469 43.652344,323.796875 C43.652344,451.890625 138.722656,491.140625 256.003906,491.140625 C195.101562,491.140625 145.734375,451.890625 145.734375,323.796875 Z" id="Shape" fill="#FFCE80"></path>
            <g id="Group" transform="translate(115.000000, 222.000000)" fill="#4E5173">
                <path d="M269.261719,40.703125 L239.464844,1.183594 C238.753906,0.234375 237.378906,0.113281 236.511719,0.917969 L190.074219,43.914062 C188.941406,44.964844 189.371094,46.839844 190.84375,47.296875 L232.382812,60.097656 C233.566406,60.460938 234.796875,59.671875 234.953125,58.441406 L237.144531,41.535156 L267.507812,43.902344 C269.226562,44.035156 270.296875,42.078125 269.261719,40.703125 Z" id="Shape"></path>
                <path d="M12.738281,40.703125 L42.535156,1.183594 C43.246094,0.234375 44.621094,0.113281 45.488281,0.917969 L91.925781,43.914062 C93.058594,44.964844 92.628906,46.839844 91.15625,47.296875 L49.617188,60.097656 C48.433594,60.460938 47.203125,59.671875 47.046875,58.441406 L44.855469,41.535156 L14.492188,43.902344 C12.773438,44.035156 11.703125,42.078125 12.738281,40.703125 Z" id="Shape"></path>
                <path d="M278.753906,110.128906 C262.035156,131.402344 235.773438,148.394531 204.070312,158.214844 L193.207031,179.941406 C190.484375,185.390625 182.707031,185.390625 179.984375,179.941406 L172.644531,165.261719 C162.421875,166.738281 151.839844,167.523438 141,167.523438 C130.160156,167.523438 119.578125,166.738281 109.355469,165.261719 L102.015625,179.941406 C99.289062,185.390625 91.515625,185.390625 88.789062,179.941406 L77.929688,158.214844 C46.226562,148.394531 19.964844,131.402344 3.242188,110.128906 C1.441406,117.015625 0.488281,124.136719 0.488281,131.425781 C0.488281,190.890625 63.398438,239.097656 141,239.097656 C218.601562,239.097656 281.507812,190.890625 281.507812,131.425781 C281.511719,124.136719 280.558594,117.015625 278.753906,110.128906 Z" id="Shape"></path>
                <path d="M163.796875,102.960938 C163.796875,117.769531 152.808594,105.039062 139.253906,105.039062 C125.699219,105.039062 114.710938,117.769531 114.710938,102.960938 C114.710938,88.148438 139.253906,71.277344 139.253906,71.277344 C139.253906,71.277344 163.796875,88.148438 163.796875,102.960938 Z" id="Shape"></path>
            </g>
        </g>
    </g>
</svg>