<?xml version="1.0" encoding="UTF-8"?>
<svg width="348px" height="512px" viewBox="0 0 348 512" version="1.1" xmlns="http://www.w3.org/2000/svg" xmlns:xlink="http://www.w3.org/1999/xlink">
    <!-- Generator: Sketch 49.1 (51147) - http://www.bohemiancoding.com/sketch -->
    <title>006-wizard</title>
    <desc>Created with Sketch.</desc>
    <defs></defs>
    <g id="login" stroke="none" stroke-width="1" fill="none" fill-rule="evenodd">
        <g id="006-wizard" fill-rule="nonzero">
            <path d="M312.332031,293.792969 C323.785156,297.582031 335.910156,296.960938 347.148438,292.425781 C320.734375,271.222656 302.75,236.867188 298.910156,200.285156 L49.046875,200.285156 C45.207031,236.867188 27.222656,271.222656 0.808594,292.425781 C12.050781,296.960938 24.175781,297.582031 35.625,293.792969 C29.683594,314.703125 16.191406,334.09375 0.5,346.855469 C16.925781,351.488281 34.773438,349.382812 49.445312,339.773438 C55.210938,374.960938 57.199219,410.972656 56.292969,446.753906 L291.664062,446.753906 C290.761719,410.972656 292.75,374.960938 298.515625,339.773438 C313.1875,349.382812 331.035156,351.488281 347.460938,346.855469 C331.765625,334.09375 318.277344,314.707031 312.332031,293.792969 Z" id="Shape" fill="#C5D3D6"></path>
            <path d="M304.539062,436.558594 L304.539062,508.070312 C304.539062,510.238281 302.777344,512 300.609375,512 L47.347656,512 C45.179688,512 43.417969,510.238281 43.417969,508.070312 L43.417969,436.558594 C43.417969,415.820312 56.289062,397.261719 75.71875,389.988281 L173.980469,353.21875 L272.238281,389.988281 C291.667969,397.261719 304.539062,415.820312 304.539062,436.558594 Z" id="Shape" fill="#6E7093"></path>
            <g id="Group" transform="translate(83.000000, 353.000000)" fill="#4E5173">
                <path d="M189.242188,36.992188 L90.980469,0.222656 L90.980469,8.480469 L167.167969,36.992188 C186.59375,44.261719 199.46875,62.824219 199.46875,83.566406 L199.46875,155.070312 C199.46875,157.242188 197.707031,159 195.539062,159 L217.613281,159 C219.78125,159 221.539062,157.242188 221.539062,155.070312 L221.539062,83.566406 C221.539062,62.824219 208.667969,44.261719 189.242188,36.992188 Z" id="Shape"></path>
                <path d="M180.96875,117.660156 L180.96875,159 L165.96875,159 L165.96875,117.660156 C165.96875,113.519531 169.328125,110.160156 173.46875,110.160156 C177.609375,110.160156 180.96875,113.519531 180.96875,117.660156 Z" id="Shape"></path>
                <path d="M15.988281,117.660156 L15.988281,159 L0.988281,159 L0.988281,117.660156 C0.988281,113.519531 4.347656,110.160156 8.488281,110.160156 C12.628906,110.160156 15.988281,113.519531 15.988281,117.660156 Z" id="Shape"></path>
            </g>
            <path d="M278.394531,234.613281 C278.394531,169.644531 231.644531,116.980469 173.980469,116.980469 C116.3125,116.980469 69.566406,169.644531 69.566406,234.613281 C69.566406,299.578125 116.3125,352.246094 173.980469,352.246094 C231.644531,352.246094 278.394531,299.578125 278.394531,234.613281 Z" id="Shape" fill="#F9C295"></path>
            <path d="M222.417969,130.386719 C245.195312,151.964844 259.675781,184.300781 259.675781,220.453125 C259.675781,285.417969 212.925781,338.085938 155.261719,338.085938 C137.777344,338.085938 121.300781,333.238281 106.820312,324.679688 C124.976562,341.878906 148.402344,352.246094 173.980469,352.246094 C231.644531,352.246094 278.394531,299.578125 278.394531,234.613281 C278.394531,189.34375 255.691406,150.054688 222.417969,130.386719 Z" id="Shape" fill="#E59F6A"></path>
            <path d="M287.972656,303.714844 C282.121094,307.761719 257.199219,308.269531 236.101562,290.332031 C215.007812,272.394531 193.390625,259.152344 173.976562,275.261719 C154.5625,259.152344 132.949219,272.394531 111.855469,290.332031 C90.757812,308.269531 65.835938,307.761719 59.980469,303.714844 C59.429688,311.210938 70.742188,337.734375 105.863281,345.070312 C104.859375,348.945312 104.285156,352.9375 104.1875,356.90625 C103.820312,371.296875 108.773438,385.371094 115.527344,398.085938 C122.277344,410.804688 130.832031,422.460938 138.429688,434.691406 C141.292969,439.304688 144.085938,444.191406 144.621094,449.59375 C145.160156,454.992188 142.832031,461.046875 137.871094,463.246094 C133.238281,465.300781 126.792969,462.199219 126.230469,457.367188 C126.539062,470.71875 135.589844,483.253906 147.933594,488.441406 C160.605469,493.765625 175.480469,492.28125 187.910156,486.421875 C200.34375,480.566406 210.527344,470.695312 218.722656,459.664062 C242.570312,427.554688 249.746094,384.027344 238.757812,345.695312 C276.5,339.394531 288.542969,311.445312 287.972656,303.714844 Z" id="Shape" fill="#E6EFF5"></path>
            <path d="M287.972656,303.714844 C282.121094,307.761719 257.199219,308.269531 236.101562,290.332031 C217.242188,274.292969 197.96875,262.03125 180.21875,271.121094 C194.386719,268.011719 207.464844,281.191406 219.878906,297.410156 C235.167969,317.382812 255.902344,319.449219 261.257812,316.035156 C260.777344,323.761719 247.34375,350.261719 215.261719,352.628906 C219.652344,391.796875 208.339844,434.253906 184.601562,463.664062 C176.445312,473.769531 166.78125,482.515625 155.75,487.046875 C153.726562,487.878906 151.652344,488.550781 149.554688,489.0625 C161.859375,493.617188 176.003906,492.035156 187.910156,486.421875 C200.34375,480.566406 210.53125,470.699219 218.722656,459.664062 C242.570312,427.554688 249.746094,384.027344 238.757812,345.699219 C276.5,339.394531 288.542969,311.445312 287.972656,303.714844 Z" id="Shape" fill="#B1BFC4"></path>
            <path d="M291.039062,163.972656 L233.480469,44.507812 C230.222656,37.738281 224.492188,32.476562 217.472656,29.800781 L146.878906,2.875 C126.691406,-4.828125 103.910156,3.390625 93.285156,22.207031 L58.113281,84.496094 C55.351562,89.390625 49.484375,91.597656 44.179688,89.746094 C32.367188,85.625 12.726562,78.351562 7.042969,73.667969 C-0.917969,67.113281 4.632812,133.691406 63.269531,150.789062 L56.917969,163.972656 C30.707031,163.992188 9.464844,185.246094 9.464844,211.460938 L9.464844,218.84375 C9.464844,223.855469 13.527344,227.914062 18.535156,227.914062 L329.421875,227.914062 C334.433594,227.914062 338.492188,223.855469 338.492188,218.84375 L338.492188,211.460938 C338.492188,185.246094 317.25,163.992188 291.039062,163.972656 Z" id="Shape" fill="#B78358"></path>
            <path d="M291.039062,163.972656 L233.480469,44.507812 C230.222656,37.738281 224.492188,32.476562 217.472656,29.800781 L146.878906,2.875 C136.976562,-0.902344 126.449219,-0.84375 117.035156,2.414062 C117.46875,2.566406 117.898438,2.710938 118.324219,2.875 L188.921875,29.800781 C195.941406,32.476562 201.667969,37.738281 204.929688,44.507812 L262.488281,163.972656 C288.699219,163.992188 309.941406,185.246094 309.941406,211.460938 L309.941406,218.84375 C309.941406,223.855469 305.878906,227.914062 300.867188,227.914062 L329.421875,227.914062 C334.433594,227.914062 338.492188,223.855469 338.492188,218.84375 L338.492188,211.460938 C338.492188,185.246094 317.25,163.992188 291.039062,163.972656 Z" id="Shape" fill="#935D38"></path>
            <path d="M90.023438,78.011719 C86.292969,76.214844 81.808594,77.78125 80.011719,81.515625 L49.265625,145.332031 C53.558594,147.46875 58.210938,149.316406 63.269531,150.792969 L93.523438,88.023438 C95.324219,84.292969 93.753906,79.8125 90.023438,78.011719 Z" id="Shape" fill="#935D38"></path>
            <path d="M173.980469,163.972656 L291.039062,163.972656 L283.8125,148.972656 L173.980469,148.972656 C169.835938,148.972656 166.480469,152.332031 166.480469,156.472656 C166.480469,160.613281 169.835938,163.972656 173.980469,163.972656 Z" id="Shape" fill="#935D38"></path>
            <path d="M227.644531,255.167969 C223.503906,255.167969 220.144531,251.808594 220.144531,247.667969 L220.144531,246.667969 C220.144531,242.523438 223.503906,239.167969 227.644531,239.167969 C231.789062,239.167969 235.144531,242.523438 235.144531,246.667969 L235.144531,247.667969 C235.144531,251.808594 231.789062,255.167969 227.644531,255.167969 Z" id="Shape" fill="#363B51"></path>
            <path d="M120.3125,255.167969 C116.167969,255.167969 112.8125,251.808594 112.8125,247.667969 L112.8125,246.667969 C112.8125,242.523438 116.167969,239.167969 120.3125,239.167969 C124.453125,239.167969 127.8125,242.523438 127.8125,246.667969 L127.8125,247.667969 C127.8125,251.808594 124.453125,255.167969 120.3125,255.167969 Z" id="Shape" fill="#363B51"></path>
        </g>
    </g>
</svg>