<?xml version="1.0" encoding="UTF-8"?>
<svg width="540px" height="268px" viewBox="0 0 540 268" version="1.1" xmlns="http://www.w3.org/2000/svg" xmlns:xlink="http://www.w3.org/1999/xlink">
    <!-- Generator: Sketch 49.1 (51147) - http://www.bohemiancoding.com/sketch -->
    <title>Group 3</title>
    <desc>Created with Sketch.</desc>
    <defs>
        <rect id="path-1" x="0" y="0" width="540" height="268" rx="2"></rect>
    </defs>
    <g id="Page-1" stroke="none" stroke-width="1" fill="none" fill-rule="evenodd">
        <g id="Group-3">
            <mask id="mask-2" fill="white">
                <use xlink:href="#path-1"></use>
            </mask>
            <use id="Mask" fill="#50E3C2" xlink:href="#path-1"></use>
            <rect id="Rectangle-2" fill="#50E3C2" mask="url(#mask-2)" x="1" y="0" width="539" height="268"></rect>
            <circle id="Oval-2" fill="#A5F2D5" mask="url(#mask-2)" cx="146.5" cy="134.5" r="158.5"></circle>
            <g id="fireworks" mask="url(#mask-2)" fill-rule="nonzero">
                <g transform="translate(31.000000, 175.000000)">
                    <circle id="Oval" fill="#6EDCF9" cx="52.5" cy="31.5" r="2.5"></circle>
                    <circle id="Oval" fill="#8DD83D" cx="3.5" cy="63.5" r="2.5"></circle>
                    <path d="M44.2569042,6.60631091 L38.3982215,5.75994752 L35.7782746,0.481084956 C35.632002,0.186505572 35.3301989,0 35.0000671,0 C34.6699352,0 34.3681322,0.18632146 34.2218595,0.481084956 L31.6019126,5.75994752 L25.7430448,6.60631091 C25.0331595,6.70886136 24.7480204,7.57971166 25.2621966,8.07810316 L29.5015114,12.1873014 L28.500562,17.9895948 C28.3794705,18.6927189 29.1243501,19.2319833 29.7596178,18.8991086 L34.9998819,16.1598886 C40.7082185,19.1437936 40.3493876,18.9985291 40.6437845,18.9985291 C40.8237554,18.9985291 41.0028005,18.9429273 41.1540724,18.8335647 C41.4210662,18.6404311 41.5551186,18.313448 41.4993869,17.9897789 L40.4984376,12.1874856 L44.7375672,8.07828727 C45.2515582,7.58063222 44.9679004,6.70922958 44.2569042,6.60631091 Z" id="Shape" fill="#FFA92C"></path>
                    <path d="M34.6277068,13.7095404 L30.3576026,9.60034212 C29.8402516,9.10250296 30.1261561,8.23128444 30.8419431,8.12854988 L36.7433629,7.28218648 L38,4.76850378 L35.8565554,0.481084956 C35.7092204,0.186505572 35.4052254,0 35.0726959,0 C34.7401663,0 34.4361713,0.18632146 34.2888363,0.481084956 L31.6498612,5.75994752 L25.7484414,6.60631091 C25.0334004,6.70886136 24.7461903,7.57971166 25.2641009,8.07810316 L29.5342051,12.1873014 L28.525986,17.9895948 C28.404015,18.6927189 29.1543046,19.2319833 29.7941861,18.8991086 L34.1153913,16.656623 L34.6277068,13.7095404 Z" id="Shape" fill="#FF8828"></path>
                    <path d="M78.7817165,35.2871018 L75.2092888,31.8043144 L76.1038964,26.9383656 C76.2121347,26.3485313 75.583527,25.8906724 75.0404595,26.1649453 L70.5657331,28.42696 L66.1324636,26.0873453 C65.5952113,25.8042248 64.9575994,26.2499184 65.0553328,26.8421489 L65.8621492,31.7228436 L62.2274422,35.1427767 C61.7869854,35.5575039 62.0220333,36.291479 62.6253166,36.3825347 L67.5988397,37.1369697 L69.7861169,41.5902188 C69.8388292,41.6980479 69.9166783,41.7891036 70.0112227,41.8576718 C70.3787077,42.1251248 70.9032041,42.0021812 71.1091758,41.6016468 L73.3759903,37.1872899 L78.3622695,36.5193025 C78.9663032,36.4391219 79.2148574,35.7095706 78.7817165,35.2871018 Z" id="Shape" fill="#FFA92C"></path>
                    <path d="M68.4188006,36.0424975 L67.6186239,30.7088168 C67.5218808,30.062426 68.1531293,29.5741583 68.6868905,29.8839585 L73.0836764,32.4407171 L75.2892321,31.2121919 L75.9878286,27.025457 C76.0951762,26.3808791 75.4717416,25.8805255 74.9331433,26.1802542 L70.4952415,28.6522105 L66.0984556,26.0954519 C65.5656246,25.7860546 64.9332598,26.2731137 65.0301889,26.9203102 L65.8303657,32.2539909 L62.2255705,35.9913341 C61.7887384,36.444553 62.0218519,37.2466496 62.6201705,37.3461563 L66.5310087,38 L68.4188006,36.0424975 Z" id="Shape" fill="#FF8828"></path>
                    <path d="M28,89 C28,89 24.9296109,64.630614 16.0967173,50.9441704 C14.9044749,49.21998 13.0217897,48.3437705 10.5804752,49.577916 L10.5783046,49.5790451 C7.95485846,50.9065325 9.39375801,53.5673411 9.39375801,53.5673411 L9.39356069,53.5675293 C13.4440669,58.3659802 22.4456741,70.4819841 28,89 Z" id="Shape" fill="#E8C018"></path>
                    <path d="M72.5113706,71.5511583 L72.5117407,71.550968 C72.8017262,71.3694189 73.0817185,71.1968141 73.3520878,71.0327729 C74.3835996,70.2702287 75.830381,68.6874785 74.4017353,66.4196375 C72.7265927,63.7605334 69.823407,65.5937224 69.365019,65.9075321 C54.3275979,77.0231312 46,97 46,97 C55.4599662,83.5299719 66.2208882,75.4910016 72.5113706,71.5511583 Z" id="Shape" fill="#F2D422"></path>
                    <path d="M5.06399088,73.025757 C4.54254749,72.6446638 1.85259436,70.8464867 0.43711461,73.1585908 C-0.436564538,74.5860819 0.0437909067,75.8544372 1.48280284,76.7307245 C1.48298961,76.7309137 1.48429695,76.7316706 1.48429695,76.7316706 C6.49497199,79.7908233 15.2857381,86.1782024 23,97 C23,97 16.6173611,81.9146514 5.06399088,73.025757 Z" id="Shape" fill="#E8C018"></path>
                    <path d="M18.9686043,36.6435604 C19.0828225,36.3231677 18.9956316,36.3485764 16.7634717,34.2666332 C17.3284536,31.3265388 17.4069439,31.3301935 17.1203803,31.130579 C16.8317804,30.9297462 16.8317804,31.0148478 14.0342683,32.3677715 C11.2358306,30.9549808 11.2624877,30.884846 10.9718515,31.0795876 C10.6795492,31.2764177 10.7658145,31.3026965 11.2697073,34.2210368 L9.13380901,36.1440889 C8.87482811,36.3769436 9.01274146,36.7897472 9.36761379,36.8412606 L12.2904512,37.2655503 C13.6708805,39.9548647 13.6044229,39.9966324 13.9622572,39.999939 C14.3217575,40.0025494 14.2684433,39.9339809 15.6855261,37.2937434 L18.6157683,36.9183567 C18.7794131,36.8971248 18.9162158,36.7907914 18.9686043,36.6435604 Z" id="Shape" fill="#EA473B"></path>
                    <path d="M15.5322489,36.5032645 C12.2299497,36.0476296 12.204829,36.1188116 12.092078,35.7987533 C11.9787428,35.4764325 12.0685152,35.5044528 14.4584856,33.4587947 L14.2557675,32.3435507 C11.3713675,30.9592419 11.3900619,30.8845791 11.0845243,31.0793291 C10.7770393,31.2761675 10.8677853,31.3024475 11.3978513,34.2209128 C8.98470753,36.2864115 8.91888744,36.2408132 9.03144369,36.5608715 C9.14497362,36.8830183 9.20125174,36.8140987 12.4716146,37.2653827 C13.8793467,39.8726658 13.8156687,39.8225424 13.9626929,39.9201785 C14.1905316,40.0703744 14.514569,40.0009327 14.6413409,39.776248 L16,37.3698063 L15.5322489,36.5032645 Z" id="Shape" fill="#D63322"></path>
                    <path d="M39.8895817,27.3817484 L39.8872704,27.3806173 C36.4039373,25.5884617 35.7240277,25.4915681 32.0511674,27.3811829 L32.0503969,27.3815599 C28.8906469,29.007262 28.9453478,31.3002862 29.0223914,31.9110555 C30.8462057,42.9531621 34.2842757,65.3955424 35.9694115,87 C37.6491543,65.4679299 41.0698895,43.1035923 42.898519,32.0226529 C43.1049958,30.7603962 43.3340078,29.1541105 39.8895817,27.3817484 Z" id="Shape" fill="#F2D422"></path>
                    <path d="M32.9443954,31.910825 C32.8665451,31.3000531 32.8116035,29.0070194 35.9964733,27.3813105 L35.9972498,27.3809334 C36.7821586,26.98035 37.4305868,26.6698743 38,26.4451706 C36.0137517,25.6424956 34.9605412,25.9082945 32.0754239,27.3809334 L32.0746473,27.3813105 C28.8897775,29.0070194 28.9449133,31.3000531 29.0225694,31.910825 C30.8608829,42.9529778 34.3262852,65.395452 36.0248177,87 C36.5451134,80.3819848 37.231399,73.6857381 37.9858278,67.2624536 C36.2775883,52.7162798 34.2195081,39.5703571 32.9443954,31.910825 Z" id="Shape" fill="#E8C018"></path>
                    <path d="M64.4256501,47.6876953 C65.2121085,46.61797 65.0075319,45.7444564 64.8674007,45.3915043 L63.9784667,43.5165296 C63.5580731,42.6306216 62.8369968,42.3836886 62.5183294,42.3161873 L62.3583401,42.2910173 L62.3581527,42.2910173 C62.3581527,42.2910173 62.3581527,42.2910173 60.6947503,42.0295924 C59.1229577,41.7826594 58.2630616,43.157857 58.1727632,43.3104025 C48.2341256,61.0489639 43,90 43,90 C49.8128498,69.2391311 58.9341178,55.0310444 64.4237767,47.6903648 C64.4245261,47.6896021 64.4249008,47.6886487 64.4256501,47.6876953 Z" id="Shape" fill="#F2D422"></path>
                </g>
            </g>
            <g id="garland" mask="url(#mask-2)">
                <g transform="translate(148.306227, 45.444246) rotate(-15.000000) translate(-148.306227, -45.444246) translate(-16.193773, -29.555754)">
                    <path d="M126.610403,91.486227 L126.610403,142.94723 L80.86729,142.94723 L80.86729,91.486227 C96.0034548,92.3632064 111.442351,92.3648177 126.610403,91.486227 Z" id="Shape" fill="#0098FF" fill-rule="nonzero"></path>
                    <path d="M80.86729,91.486227 L80.86729,142.94723 L103.738847,142.94723 L103.738847,92.1444651 C95.9437158,92.1444651 88.3047942,91.9172642 80.86729,91.486227 Z" id="Shape" fill="#078CD6" fill-rule="nonzero"></path>
                    <path d="M86.7733675,123.343038 C84.6062293,123.343038 82.5837525,123.960993 80.86729,125.027644 L80.86729,142.130388 L95.1812121,142.130388 C101.566977,134.906941 96.5006507,123.343038 86.7733675,123.343038 Z" id="Shape" fill="#71C5DB" fill-rule="nonzero"></path>
                    <ellipse id="Oval" fill="#7FCEEA" fill-rule="nonzero" cx="108.639895" cy="113.949363" rx="7.35157181" ry="6.94315116"></ellipse>
                    <g id="Group" stroke-width="1" fill="none" fill-rule="evenodd" transform="translate(80.867290, 91.486227)">
                        <path d="M22.8711555,18.6652324 C20.5185952,21.4473939 20.5193977,25.5324173 22.8711555,28.313762 L22.8711555,18.6652324 Z" id="Shape" fill="#71C5DB" fill-rule="nonzero"></path>
                        <path d="M0.135223064,14.9098045 C8.90786947,18.6995398 17.4044522,9.11063958 13.0026806,0.653881471 C8.65588109,0.543199473 4.35963972,0.369212273 0.135223064,0.119667252 L0.135223064,14.9098045 Z" id="Shape" fill="#71C5DB" fill-rule="nonzero"></path>
                    </g>
                    <path d="M80.86729,17.9705089 L80.86729,69.4315116 L126.610403,69.4315116 L126.610403,17.9705089 C111.949858,18.820498 96.4961635,18.8764926 80.86729,17.9705089 Z" id="Shape" fill="#FFCA54" fill-rule="nonzero"></path>
                    <path d="M80.86729,17.9705089 L80.86729,69.4315116 L103.738847,69.4315116 L103.738847,18.6291498 C95.9437158,18.6291498 88.3047942,18.4019489 80.86729,17.9705089 Z" id="Shape" fill="#F99830" fill-rule="nonzero"></path>
                    <path d="M136.412499,17.57801 L166.519386,64.5304637 C167.331672,61.4041118 179.753973,13.5749819 180.52193,10.6189371 C167.327279,13.8032745 152.436572,16.1896015 136.412499,17.57801 Z" id="Shape" fill="#17DDC0" fill-rule="nonzero"></path>
                    <path d="M148.073957,16.3368263 C144.261908,16.8025515 140.371714,17.2106696 136.412499,17.5559067 L166.317446,64.5304637 L169.902993,50.6256443 L148.073957,16.3368263 Z" id="Shape" fill="#0DBAA1" fill-rule="nonzero"></path>
                    <path d="M52.9001796,117.331687 L40.1413391,137.229341 L26.138922,83.3178139 C39.3334536,86.501698 54.2244249,88.8888001 70.2483529,90.2767821 L58.8077675,108.118211" id="Shape" fill="#7F8CDD" fill-rule="nonzero"></path>
                    <path d="M36.7578591,85.7683378 L47.2689048,124.976721 C61.3630788,103.68206 48.0426033,123.805985 70.2483529,90.2555656 C58.3920766,89.2607762 47.1559649,87.737752 36.7578591,85.7683378 Z" id="Shape" fill="#959FEF" fill-rule="nonzero"></path>
                    <path d="M20.7577862,9.80209575 L11.4357784,59.4653423 L37.1656424,47.2445497 L56.7441362,67.797829 L66.1641463,17.612519 C49.5151476,15.9774984 34.1645773,13.3003635 20.7577862,9.80209575 Z" id="Shape" fill="#FC3842" fill-rule="nonzero"></path>
                    <path d="M42.4757483,14.5404586 C34.7393813,13.1996792 27.421467,11.6113402 20.6157065,9.80209575 L11.4357784,59.6294158 L36.3951721,47.5506896 L42.4757483,14.5404586 Z" id="Shape" fill="#EF2235" fill-rule="nonzero"></path>
                    <g id="Group-2" stroke-width="1" fill="none" fill-rule="evenodd" transform="translate(166.705770, 116.330131) rotate(9.000000) translate(-166.705770, -116.330131) translate(138.705770, 86.830131)">
                        <path d="M45.9030659,0.500972587 L55.2250737,50.1642191 L29.4952097,37.9434266 L9.91671592,58.4967058 L0.496705791,8.31179831 C17.1457045,6.67637523 32.4958682,3.99964289 45.9030659,0.500972587 Z" id="Shape" fill="#FC3842" fill-rule="nonzero"></path>
                        <path d="M23.7393569,4.58517915 C16.3478469,5.86767214 8.57778277,6.92827348 0.496705791,7.73522621 L9.86551356,58.4967058 L29.3375886,37.7072909 L29.902993,37.9804823 L23.7393569,4.58517915 Z" id="Shape" fill="#EF2235" fill-rule="nonzero"></path>
                    </g>
                    <path d="M125.793562,35.3347738 L106.461587,18.3693985 C99.7761422,18.4200704 93.501128,18.3353469 85.7683378,17.9705089 C129.710375,56.532676 110.5588,39.7237757 125.793562,53.0946853 L125.793562,35.3347738 Z" id="Shape" fill="#F99841" fill-rule="nonzero"></path>
                    <path d="M85.7683378,17.9705089 L103.738847,32.6736525 L103.738847,18.3690523 C102.013835,18.3690523 100.299216,18.3548597 98.590595,18.3329954 C91.8524537,18.2478398 85.7683378,17.9705089 85.7683378,17.9705089 Z" id="Shape" fill="#EA5E18" fill-rule="nonzero"></path>
                    <polygon id="Shape" fill="#F99841" fill-rule="nonzero" points="80.86729 49.4962983 104.269366 69.4315116 124.976721 69.4315116 80.86729 31.8568112"></polygon>
                    <polygon id="Shape" fill="#EA5E18" fill-rule="nonzero" points="103.738847 51.1350375 80.86729 31.8568112 80.86729 49.3368429 103.738847 68.6146703"></polygon>
                    <g id="Group" stroke-width="1" fill="none" fill-rule="evenodd">
                        <path d="M2.52536345,6.6774821 C0.841921837,6.05506961 -0.0184949401,4.18783215 0.604704128,2.50611376 C1.2279032,0.824796935 3.09790246,-0.0337307413 4.78134407,0.58828019 C30.1089583,9.94655311 66.0285443,15.3137565 103.330426,15.3137565 C140.63271,15.3137565 176.552296,9.94655311 201.87991,0.58828019 C203.563352,-0.0341322977 205.433351,0.825600048 206.05655,2.50611376 C206.679749,4.18743059 205.819332,6.05506961 204.135891,6.6774821 C149.406549,26.8990615 57.1662515,26.8665354 2.52536345,6.6774821 Z" id="Shape" fill="#BAD8E8" fill-rule="nonzero"></path>
                        <path d="M3.79153673,80.0450568 C1.10435524,79.4226443 -0.269078812,77.5554069 0.725698189,75.8736885 C1.72047519,74.1919701 4.70544799,73.3334424 7.39262947,73.9554533 C92.0635553,93.5542187 237.279818,93.56747 322.009147,73.9554533 C324.696329,73.3326393 327.681301,74.1923716 328.676078,75.8736885 C329.670855,77.5550053 328.297421,79.4226443 325.61024,80.0450568 C238.263685,100.262621 91.0315544,100.238126 3.79153673,80.0450568 Z" id="Shape" fill="#BAD8E8" fill-rule="nonzero"></path>
                    </g>
                </g>
            </g>
            <g id="002-girl-1" mask="url(#mask-2)">
                <g transform="translate(111.000000, 65.000000)">
                    <path d="M164,82 C164,127.287933 127.287933,164 82,164 C36.7120666,164 0,127.287933 0,82 C0,36.7120666 36.7120666,0 82,0 C127.287933,0 164,36.7120666 164,82 Z" id="Shape" fill="#FFE05C" fill-rule="nonzero"></path>
                    <path d="M53,80.5006497 C53,85.7269354 49.1822906,90.0618156 44.182105,90.8661592 C43.6350474,90.9545204 43.073696,91 42.4993502,91 C36.7000188,91 32,86.3012808 32,80.5006497 C32,74.7000185 36.7000188,70 42.4993502,70 C43.073696,70 43.6350474,70.0467793 44.182105,70.1351402 C49.1822906,70.939484 53,75.2730646 53,80.5006497 Z" id="Shape" fill="#F6BA97" fill-rule="nonzero"></path>
                    <path d="M52,80 C52,85.0419959 48.261135,89.2240193 43.3642148,90 C42.4746757,86.8133385 42,83.4599474 42,80 C42,76.5387991 42.4746757,73.185408 43.3642148,70 C48.261135,70.775981 52,74.9567505 52,80 Z" id="Shape" fill="#EAA27F" fill-rule="nonzero"></path>
                    <path d="M44,80.5 C44,82.4329987 42.43327,84 40.499394,84 C38.5667303,84 37,82.4329987 37,80.5 C37,78.5670016 38.5667303,77 40.499394,77 C42.43327,77 44,78.5670016 44,80.5 Z" id="Shape" fill="#EAA27F" fill-rule="nonzero"></path>
                    <path d="M113,80.5006497 C113,85.7269354 116.817709,90.0618156 121.817895,90.8661592 C122.364953,90.9545204 122.926304,91 123.50065,91 C129.301281,91 134,86.3012808 134,80.5006497 C134,74.7000185 129.301281,70 123.50065,70 C122.926304,70 122.364953,70.0467793 121.817895,70.1351402 C116.817709,70.939484 113,75.2730646 113,80.5006497 Z" id="Shape" fill="#F6BA97" fill-rule="nonzero"></path>
                    <path d="M113,80 C113,85.0419959 116.738389,89.2240193 121.634686,90 C122.524112,86.8133385 123,83.4599474 123,80 C123,76.5387991 122.525385,73.185408 121.634686,70 C116.738389,70.775981 113,74.9567505 113,80 Z" id="Shape" fill="#EAA27F" fill-rule="nonzero"></path>
                    <path d="M125,80.5 C125,82.4329987 123.432999,84 121.5,84 C119.567001,84 118,82.4329987 118,80.5 C118,78.5670016 119.567001,77 121.5,77 C123.432999,77 125,78.5670016 125,80.5 Z" id="Shape" fill="#EAA27F" fill-rule="nonzero"></path>
                    <path d="M127.438481,84.8905629 C127.366204,84.8322522 127.28645,84.7898445 127.20545,84.7567131 C126.797956,84.4545582 126.369278,84.1987862 125.918169,84 C125.599153,84.6308154 125.219074,85.219223 124.78915,85.7652229 C125.307552,85.936179 125.797292,86.2078536 126.248401,86.5656693 C126.449032,86.7246983 126.647171,86.9009555 126.842818,87.0917904 C128.214837,88.5416054 129.043532,90.8117459 129.043532,93.2210364 C129.043532,97.4657878 126.556202,100.91937 123.499377,100.91937 C120.443798,100.91937 117.956467,97.4657878 117.956467,93.2210364 C117.956467,90.4048964 119.070533,87.8113971 120.863754,86.4543489 C121.304893,86.1203878 121.407078,85.4710189 121.094293,85.0032084 C120.781507,84.5353979 120.169643,84.4254027 119.72975,84.7593638 C117.429343,86.5007325 116,89.7422752 116,93.2210364 C116,98.6134475 119.364626,103 123.499377,103 C127.635374,103 131,98.6134475 131,93.2210364 C131,89.79661 129.667858,86.6822906 127.438481,84.8905629 Z" id="Shape" fill="#FFFFFF" fill-rule="nonzero"></path>
                    <path d="M38.5612227,84.8905629 C38.6347399,84.8322522 38.7132414,84.7898445 38.7942349,84.7567131 C39.2016947,84.4545582 39.6315833,84.1987862 40.0814088,84 C40.4016446,84.6308154 40.7816914,85.219223 41.21158,85.7652229 C40.6919755,85.936179 40.2022759,86.2078536 39.7512045,86.5656693 C39.5505898,86.7246983 39.3524672,86.9009555 39.1568367,87.0917904 C37.7861771,88.5416054 36.9563049,90.8117459 36.9563049,93.2210364 C36.9563049,97.4657878 39.443429,100.91937 42.5000002,100.91937 C45.556571,100.91937 48.0424491,97.4657878 48.0424491,93.2210364 C48.0424491,90.4048964 46.9284765,87.8113971 45.1354045,86.4543489 C44.6955475,86.1203878 44.5921249,85.4710189 44.9061305,85.0032084 C45.2188902,84.5353979 45.8294569,84.4254027 46.2705599,84.7593638 C48.5707761,86.5007325 50,89.7422752 50,93.2210364 C50,98.6134475 46.6356537,103 42.5000002,103 C38.3643463,103 35,98.6134475 35,93.2210364 C35,89.79661 36.3307859,86.6822906 38.5612227,84.8905629 Z" id="Shape" fill="#FFFFFF" fill-rule="nonzero"></path>
                    <polygon id="Shape" fill="#151A1C" fill-rule="nonzero" points="48 87 115 87 115 147 48 147"></polygon>
                    <path d="M123,144.189919 L123,153.471401 C118.171837,156.173902 113.041364,158.415243 107.666285,160.116084 C107.109334,160.295837 106.552383,160.464434 105.987905,160.630551 C103.898084,161.247911 101.770632,161.784692 99.6130736,162.232217 C98.6672602,162.430566 97.7176839,162.614038 96.760581,162.776436 C92.1268488,163.582228 87.3626593,164 82.5006272,164 C80.1749804,164 77.866895,163.907024 75.5876604,163.714874 C73.1052144,163.512806 70.6553825,163.196688 68.239419,162.778916 C67.2835708,162.616517 66.3339941,162.434284 65.388181,162.235936 C62.8806468,161.711551 60.4220341,161.074356 58.0060706,160.331788 C57.8718507,160.288399 57.7376304,160.248729 57.6034101,160.20658 C57.5130937,160.179307 57.4252863,160.149555 57.3349699,160.119803 C51.9623993,158.418962 46.829418,156.177621 42,153.471401 L42,144.189919 C42,132.990653 48.1678568,123.215778 57.3349699,118.005405 C57.421523,117.955818 57.5130937,117.90623 57.6034101,117.856643 C60.0156103,116.51407 62.6260047,115.488855 65.388181,114.835544 C66.9009803,114.474797 68.4576838,114.225622 70.0520186,114.099174 C70.8774102,114.033471 71.7090737,114 72.5520266,114 L92.4454648,114 C94.797454,114 97.0867235,114.259093 99.2844222,114.756204 C99.3948089,114.782238 99.5051956,114.805792 99.6130736,114.831825 C102.475601,115.512409 105.180075,116.589691 107.666285,118.005405 C116.829635,123.218258 123,132.994372 123,144.189919 Z" id="Shape" fill="#EAA27F" fill-rule="nonzero"></path>
                    <path d="M123,144.189919 L123,153.471401 C111.520198,159.850792 98.3300725,163.624377 84.2702269,163.972727 C83.5562204,163.990083 82.8447462,164 82.126942,164 C81.4091378,164 80.6938657,163.990083 79.9836575,163.970248 C71.9878007,163.774378 64.2767867,162.467756 57,160.20658 L57,144.189919 C57,127.516227 70.805386,114 87.83646,114 L92.16354,114 C109.197146,114 123,127.516227 123,144.189919 Z" id="Shape" fill="#F6BA97" fill-rule="nonzero"></path>
                    <path d="M93,102 L93,115.2253 C93,120.06697 89.7415848,124.15957 85.2527187,125.518809 C84.2260776,125.830095 83.1310776,126 81.9981013,126 C75.9243339,126 71,121.175693 71,115.2253 L71,102 L93,102 Z" id="Shape" fill="#EAA27F" fill-rule="nonzero"></path>
                    <path d="M93,114 L93,114.828431 C93,119.612745 89.8269232,123.656863 85.4556213,125 C81.5120808,123.794118 78.5473373,120.386029 78,116.214461 C78.7149901,116.258579 79.4349112,116.280637 80.157298,116.280637 C82.1839252,116.280637 84.1711047,116.120098 86.1065089,115.803922 C88.4906313,115.42402 90.7946253,114.813725 93,114 Z" id="Shape" fill="#F6BA97" fill-rule="nonzero"></path>
                    <path d="M120,59.3840285 L120,73.6197018 C120,92.2221913 106.368285,107.654014 88.5182105,110.517562 C88.4583402,110.527509 88.3947279,110.537456 88.3348577,110.548646 C86.436471,110.850792 84.4869449,111 82.4987528,111 C61.7898719,111 45,94.2638523 45,73.6197018 L45,59.3840285 C45,55.0371063 45.7446365,50.8592863 47.1191583,46.9773953 C52.2467985,32.4296292 66.154166,22 82.4987528,22 L82.5024944,22 C84.4869449,22 86.4389654,22.1529381 88.3410941,22.4513538 C106.277233,25.2452707 120,40.7181259 120,59.3840285 Z" id="Shape" fill="#EAA27F" fill-rule="nonzero"></path>
                    <path d="M119,61.3111131 L119,75.6926551 C119,94.485759 105.437509,110.075707 87.6780783,112.968597 C87.6185121,112.978646 87.5552228,112.988695 87.4956566,113 C69.6493589,110.177454 56,94.5460537 56,75.6926551 L56,61.3111131 C56,42.4539463 69.6530819,26.8225453 87.5018613,24 C105.346918,26.8225453 119,42.4539463 119,61.3111131 Z" id="Shape" fill="#F6BA97" fill-rule="nonzero"></path>
                    <g id="Group" stroke-width="1" fill="none" fill-rule="evenodd" transform="translate(57.000000, 66.000000)">
                        <path d="M50.9788331,19.9321546 C50.9788331,22.5907174 48.8907713,24.7442947 46.3158693,24.7442947 C43.7409666,24.7442947 41.6529052,22.5907174 41.6529052,19.9321546 C41.6529052,17.2748766 43.7409666,15.1200145 46.3158693,15.1200145 C48.8907713,15.1200145 50.9788331,17.2748766 50.9788331,19.9321546 Z" id="Shape" fill="#EAA27F" fill-rule="nonzero"></path>
                        <path d="M9.34584945,19.9321546 C9.34584945,22.5907174 7.25778801,24.7442947 4.68288566,24.7442947 C2.10798332,24.7442947 0.019921875,22.5907174 0.019921875,19.9321546 C0.019921875,17.2748766 2.10798332,15.1200145 4.68288566,15.1200145 C7.25778801,15.1200145 9.34584945,17.2748766 9.34584945,19.9321546 Z" id="Shape" fill="#EAA27F" fill-rule="nonzero"></path>
                        <path d="M45.6024169,6.52754934 C45.6024169,2.98365526 42.8183349,0.110505921 39.3855469,0.110505921 C35.9515135,0.110505921 33.1674318,2.98365526 33.1674318,6.52754934" id="Shape" fill="#EAA27F" fill-rule="nonzero"></path>
                        <path d="M17.8338136,6.52754934 C17.8338136,2.98365526 15.0497315,0.110505921 11.6169432,0.110505921 C8.18291016,0.110505921 5.39882813,2.98365526 5.39882813,6.52754934" id="Shape" fill="#EAA27F" fill-rule="nonzero"></path>
                    </g>
                    <path d="M72,74.4993401 C72,76.9851927 69.9851927,79 67.5006595,79 C65.0148073,79 63,76.9851927 63,74.4993401 C63,72.014807 65.0148073,70 67.5006595,70 C69.9851927,70 72,72.014807 72,74.4993401 Z" id="Shape" fill="#2F373B" fill-rule="nonzero"></path>
                    <path d="M101,74.4993401 C101,76.9851927 98.985193,79 96.5006599,79 C94.0148073,79 92,76.9851927 92,74.4993401 C92,72.014807 94.0148073,70 96.5006599,70 C98.985193,70 101,72.014807 101,74.4993401 Z" id="Shape" fill="#2F373B" fill-rule="nonzero"></path>
                    <path d="M87.1909054,85 L78.8078657,85 C77.8099137,85 77,84.1053707 77,83 C77,81.8959892 77.8099137,81 78.8078657,81 L87.1909054,81 C88.190086,81 89,81.8959892 89,83 C89,84.1053707 88.190086,85 87.1909054,85 Z" id="Shape" fill="#EAA27F" fill-rule="nonzero"></path>
                    <path d="M82.0004956,96 C78.8621054,96 75.7249616,95.2843876 72.8645144,93.8508907 C72.058105,93.4465128 71.7627125,92.523032 72.2064246,91.7881093 C72.6501366,91.0531865 73.6634453,90.7851158 74.4698546,91.1883578 C79.1849185,93.551015 84.8148267,93.551015 89.5298903,91.1883578 C90.3362996,90.78398 91.3496085,91.0520507 91.7933203,91.7881093 C92.2370327,92.523032 91.9428861,93.4465128 91.1352305,93.8508907 C88.2760299,95.2843876 85.1376398,96 82.0004956,96 Z" id="Shape" fill="#EAA27F" fill-rule="nonzero"></path>
                    <path d="M72,73.0006842 C72,74.1050292 71.1050293,75 70.0006844,75 C68.8949711,75 68,74.1050292 68,73.0006842 C68,71.8949708 68.8949711,71 70.0006844,71 C71.1050293,71 72,71.8949708 72,73.0006842 Z" id="Shape" fill="#FFFFFF" fill-rule="nonzero"></path>
                    <path d="M100,73.0006842 C100,74.1050292 99.1047229,75 98,75 C96.8952774,75 96,74.1050292 96,73.0006842 C96,71.8949708 96.8952774,71 98,71 C99.1047229,71 100,71.8949708 100,73.0006842 Z" id="Shape" fill="#FFFFFF" fill-rule="nonzero"></path>
                    <path d="M110.033397,28.047532 C102.324444,20.2882748 92.0404301,16.0100281 81.0723964,16 C70.0943771,16.0100281 59.7829027,20.2882748 52.0365026,28.0512926 C44.2738758,35.8230851 40,46.180879 40,57.2093032 L40,113.017041 C40,116.615882 41.5764911,119.999119 44.327549,122.305587 L49.9307702,127 L49.9307702,63.4593287 L112.070478,63.4593287 L112.070478,127 L117.672451,122.305587 C120.424757,119.999119 122,116.615882 122,113.017041 L122,57.2093032 C122,46.1670903 117.74984,35.8105502 110.033397,28.047532 Z" id="Shape" fill="#2F373B" fill-rule="nonzero"></path>
                    <path d="M91,17.2334587 C83.8729107,19.0172105 77.3390186,22.7088119 72.0189376,28.0500392 C64.2687421,35.8230851 60.0017105,46.180879 60.0017105,57.2093032 L60.0017105,63.4593287 L49.9148668,63.4593287 L49.9148668,127 L44.3206188,122.305587 C41.5739664,119.999119 40,116.615882 40,113.017041 L40,57.2093032 C40,46.180879 44.2670315,35.8230851 52.0172271,28.0500392 C59.7512219,20.2882748 70.0461831,16.0100281 81.006622,16 C84.4237365,16.0025072 87.7735556,16.4224348 91,17.2334587 Z" id="Shape" fill="#151A1C" fill-rule="nonzero"></path>
                    <path d="M76,162 C73.3773456,161.801568 70.7891473,161.491136 68.2367303,161.08088 C67.2268957,160.921403 66.223687,160.742449 65.2244544,160.547668 C62.5752948,160.032717 59.9778197,159.406985 57.4254027,158.677775 C57.283602,158.635167 57.141801,158.596211 57,158.55482 L57,116.96675 C59.5484412,115.64833 62.3062705,114.641558 65.2244544,114 C65.2244544,127.305943 74.4759714,137.726699 76,162 Z" id="Shape" fill="#F46D11" fill-rule="nonzero"></path>
                    <path d="M89,162 C91.6237969,161.801568 94.2104897,161.491136 96.7627283,161.08088 C97.7738178,160.921403 98.7769563,160.742449 99.7761195,160.547668 C102.423769,160.032717 105.022388,159.406985 107.574627,158.677775 C107.716418,158.635167 107.858209,158.596211 108,158.55482 L108,116.96675 C105.451737,115.64833 102.692774,114.641558 99.7761195,114 C99.7761195,127.305943 90.5239223,137.726699 89,162 Z" id="Shape" fill="#F46D11" fill-rule="nonzero"></path>
                </g>
            </g>
            <g id="004-girl-3" mask="url(#mask-2)">
                <g transform="translate(403.000000, 97.000000)">
                    <path d="M161,80.5 C161,124.959496 124.959496,161 80.5,161 C36.0405044,161 0,124.959496 0,80.5 C0,36.0405044 36.0405044,0 80.5,0 C124.959496,0 161,36.0405044 161,80.5 Z" id="Shape" fill="#27BA9E" fill-rule="nonzero"></path>
                    <polygon id="Shape" fill="#DD104F" fill-rule="nonzero" points="44 67 118 67 118 143 44 143"></polygon>
                    <path d="M120,141.586121 L120,150.681973 C115.291051,153.330424 110.287256,155.526938 105.044895,157.193762 C104.501696,157.36992 103.958497,157.535145 103.407957,157.697939 C101.369737,158.302953 99.2948137,158.828999 97.1905286,159.267573 C96.2680686,159.461954 95.3419386,159.641757 94.4084679,159.800907 C89.8891488,160.590583 85.2425936,161 80.5006117,161 C75.7586297,161 71.1108515,160.590583 66.5915321,159.803337 C65.9345549,159.690353 65.2763539,159.570079 64.6254936,159.436442 C64.3538942,159.384202 64.0822945,159.329532 63.810695,159.271217 C61.3650753,158.75732 58.967169,158.132869 56.610859,157.405152 C56.4799531,157.362631 56.3490469,157.323755 56.2181407,157.282449 C56.1300544,157.255721 56.044415,157.226564 55.9563287,157.197407 C55.5795148,157.077133 55.200254,156.953214 54.8271105,156.826866 C50.9855668,155.540302 47.2737057,153.970669 43.7159962,152.141051 C43.3269479,151.943024 42.9415701,151.741353 42.5549689,151.533608 C42.0350148,151.256614 41.5138374,150.971115 41,150.681973 L41,141.586121 C41,138.277986 41.5468695,135.096199 42.5549689,132.125803 C42.8914099,131.134456 43.2780111,130.166191 43.7159962,129.22344 C46.1224661,124.031017 50.0031593,119.646493 54.8271105,116.604418 C55.196584,116.37116 55.5733975,116.143976 55.9563287,115.925297 C58.38115,114.537897 61.0188469,113.482161 63.810695,112.818833 C64.0786241,112.754444 64.3502239,112.692485 64.6254936,112.6366 C65.8427982,112.380259 67.0894648,112.198027 68.3593762,112.097191 C69.1643877,112.032802 69.9755163,112 70.7976556,112 L90.1998977,112 C92.4938132,112 94.7265575,112.253911 96.869992,112.74108 C96.9776531,112.766593 97.0853142,112.789676 97.1905286,112.815188 C99.9823764,113.482161 102.620073,114.537897 105.044895,115.925297 C113.981989,121.033893 120,130.614484 120,141.586121 Z" id="Shape" fill="#151A1C" fill-rule="nonzero"></path>
                    <path d="M120,141.586121 L120,150.681973 C108.867056,156.934991 96.0781049,160.633104 82.4433489,160.974487 C81.7509925,160.990281 81.0610914,161 80.3650522,161 C79.669013,161 78.9766566,160.990281 78.2867556,160.970843 C70.5333462,160.778891 63.0561427,159.498401 56,157.282449 L56,141.586121 C56,125.245903 69.3880117,112 85.9014483,112 L90.0985517,112 C106.614443,112 120,125.245903 120,141.586121 Z" id="Shape" fill="#2F373B" fill-rule="nonzero"></path>
                    <path d="M56,142 L56,158 C50.7444261,156.287007 45.7254336,154.049629 41,151.347796 L41,142 L56,142 Z" id="Shape" fill="#EAA27F" fill-rule="nonzero"></path>
                    <path d="M120,142 L120,151.347796 C115.275415,154.049629 110.254769,156.287007 105,158 L105,142 L120,142 Z" id="Shape" fill="#F6BA97" fill-rule="nonzero"></path>
                    <path d="M94,112.660502 L94,113.389331 C94,118.95265 90.3218971,123.794332 84.8424254,125.435397 C83.6032122,125.8106 82.3071659,126 80.9987647,126 C73.8303555,126 68,120.34318 68,113.389331 L68,112.086309 C68.7338911,112.02877 69.4739596,112 70.2251475,112 L87.9188369,112 C90.0105494,112 92.0466642,112.227759 94,112.660502 Z" id="Shape" fill="#151A1C" fill-rule="nonzero"></path>
                    <path d="M91,100 L91,113.2253 C91,118.06697 87.8896943,122.15957 83.604868,123.518809 C82.6248921,123.831335 81.5796651,124 80.4981874,124 C74.7005007,124 70,119.176933 70,113.2253 L70,100 L91,100 Z" id="Shape" fill="#EAA27F" fill-rule="nonzero"></path>
                    <path d="M91,113 L91,113.827298 C91,118.612145 87.8269229,122.656713 83.4556213,124 C79.5133135,122.795209 76.5473373,119.385515 76,115.214708 C76.7149901,115.257605 77.4349112,115.279666 78.157298,115.279666 C80.1839249,115.279666 82.1711047,115.120334 84.1065089,114.804123 C86.4906313,114.422953 88.7946253,113.812591 91,113 Z" id="Shape" fill="#F6BA97" fill-rule="nonzero"></path>
                    <path d="M50,78.5005878 C50,83.229132 46.5458822,87.1511665 42.0219047,87.8789059 C41.5281234,87.9588518 41.0190584,88 40.5005878,88 C35.2523977,88 31,83.7487779 31,78.5005878 C31,73.2523977 35.2523977,69 40.5005878,69 C41.0190584,69 41.5281234,69.0423241 42.0219047,69.1222697 C46.5458822,69.8500094 50,73.770868 50,78.5005878 Z" id="Shape" fill="#F6BA97" fill-rule="nonzero"></path>
                    <path d="M51,78.5 C51,83.2898961 47.2611353,87.2628183 42.3642148,88 C41.4746754,84.9726716 41,81.78695 41,78.5 C41,75.2118591 41.4746754,72.0261376 42.3642148,69 C47.2611353,69.737182 51,73.708913 51,78.5 Z" id="Shape" fill="#EAA27F" fill-rule="nonzero"></path>
                    <path d="M46,79 C46,81.2091414 44.2091414,83 42,83 C39.790859,83 38,81.2091414 38,79 C38,76.790859 39.790859,75 42,75 C44.2091414,75 46,76.790859 46,79 Z" id="Shape" fill="#EAA27F" fill-rule="nonzero"></path>
                    <path d="M111,78.5005878 C111,83.229132 114.45508,87.1511665 118.978778,87.8789059 C119.472528,87.9588518 119.981562,88 120.5,88 C125.747865,88 130,83.7487779 130,78.5005878 C130,73.2523977 125.747865,69 120.5,69 C119.981562,69 119.472528,69.0423241 118.978778,69.1222697 C114.45508,69.8500094 111,73.770868 111,78.5005878 Z" id="Shape" fill="#F6BA97" fill-rule="nonzero"></path>
                    <path d="M111,78.5 C111,83.2898961 114.739662,87.2628183 119.635959,88 C120.524112,84.9726716 121,81.78695 121,78.5 C121,75.2118591 120.525385,72.0261376 119.635959,69 C114.739662,69.737182 111,73.708913 111,78.5 Z" id="Shape" fill="#EAA27F" fill-rule="nonzero"></path>
                    <path d="M125,79 C125,81.2091414 123.209141,83 121,83 C118.790859,83 117,81.2091414 117,79 C117,76.790859 118.790859,75 121,75 C123.209141,75 125,76.790859 125,79 Z" id="Shape" fill="#EAA27F" fill-rule="nonzero"></path>
                    <path d="M118,59.9634667 L118,74.0389919 C118,92.4322077 104.548811,107.691655 86.9367371,110.522989 C86.8776651,110.532824 86.814901,110.542659 86.755829,110.552494 C84.8827538,110.851241 82.9604523,111 80.9975385,111 C60.564776,111 44,94.4509005 44,74.0389919 L44,59.9634667 C44,55.6654464 44.7334772,51.5346259 46.0896722,47.6976347 C51.1501745,33.3122983 64.8708796,23 80.9975385,23 L81.0012306,23 C82.9604523,23 84.8852153,23.1512176 86.7619822,23.4475056 C104.460203,26.2099918 118,41.5075512 118,59.9634667 Z" id="Shape" fill="#EAA27F" fill-rule="nonzero"></path>
                    <path d="M117,59.471948 L117,73.5305077 C117,91.9015539 103.651828,107.142609 86.1746376,109.97053 C86.116018,109.980353 86.0537346,109.990177 85.995115,110 C68.4324378,107.240843 55,91.9604945 55,73.5305077 L55,59.471948 C55,41.0382777 68.4361013,25.7591566 86.0012212,23 C103.563899,25.7591566 117,41.0382777 117,59.471948 Z" id="Shape" fill="#F6BA97" fill-rule="nonzero"></path>
                    <g id="Group" stroke-width="1" fill="none" fill-rule="evenodd" transform="translate(56.000000, 63.000000)">
                        <path d="M49.9780275,19.1361019 C49.9780275,21.6870887 47.9309081,23.7557564 45.4064941,23.7557564 C42.88208,23.7557564 40.8349609,21.6870887 40.8349609,19.1361019 C40.8349609,16.5838816 42.88208,14.5164474 45.4064941,14.5164474 C47.9309081,14.5164474 49.9780275,16.5838816 49.9780275,19.1361019 Z" id="Shape" fill="#EAA27F" fill-rule="nonzero"></path>
                        <path d="M9.16137688,19.1361019 C9.16137688,21.6870887 7.11547844,23.7557564 4.58984375,23.7557564 C2.06542969,23.7557564 0.018310625,21.6870887 0.018310625,19.1361019 C0.018310625,16.5838816 2.06542969,14.5164474 4.58984375,14.5164474 C7.11547844,14.5164474 9.16137688,16.5838816 9.16137688,19.1361019 Z" id="Shape" fill="#EAA27F" fill-rule="nonzero"></path>
                        <path d="M44.7070312,6.26644737 C44.7070312,2.86430905 41.9787597,0.107319158 38.6120606,0.107319158 C35.2453612,0.107319158 32.5158691,2.86430905 32.5158691,6.26644737" id="Shape" fill="#EAA27F" fill-rule="nonzero"></path>
                        <path d="M17.48291,6.26644737 C17.48291,2.86430905 14.7546387,0.107319158 11.3879394,0.107319158 C8.02124031,0.107319158 5.29174812,2.86430905 5.29174812,6.26644737" id="Shape" fill="#EAA27F" fill-rule="nonzero"></path>
                    </g>
                    <path d="M71,73.5006599 C71,75.9851927 68.9851927,78 66.5006595,78 C64.014807,78 62,75.9851927 62,73.5006599 C62,71.014807 64.014807,69 66.5006595,69 C68.9851927,69 71,71.014807 71,73.5006599 Z" id="Shape" fill="#2F373B" fill-rule="nonzero"></path>
                    <path d="M99,73.5006599 C99,75.9851927 96.9854883,78 94.5000002,78 C92.014512,78 90,75.9851927 90,73.5006599 C90,71.014807 92.014512,69 94.5000002,69 C96.9854883,69 99,71.014807 99,73.5006599 Z" id="Shape" fill="#2F373B" fill-rule="nonzero"></path>
                    <path d="M84.1919491,82 L75.8080506,82 C74.8099967,82 74,81.3282367 74,80.5005097 C74,79.6717636 74.8099967,79 75.8080506,79 L84.1919491,79 C85.1912323,79 86,79.6717636 86,80.5005097 C86,81.3282367 85.1912323,82 84.1919491,82 Z" id="Shape" fill="#EAA27F" fill-rule="nonzero"></path>
                    <path d="M80.5001897,94 C77.5186422,94 74.538279,93.2833091 71.8207847,91.8499268 C71.0546761,91.446717 70.7752301,90.52331 71.1955833,89.7873102 C71.6171203,89.0524462 72.5809725,88.7843969 73.3470811,89.1876068 C77.8265068,91.550075 83.1738726,91.550075 87.6532983,89.1876068 C88.4194068,88.7843969 89.3820748,89.0524462 89.803612,89.7873102 C90.2251493,90.52331 89.9457033,91.446717 89.1795947,91.8499268 C86.4621004,93.2833091 83.4805529,94 80.5001897,94 Z" id="Shape" fill="#EAA27F" fill-rule="nonzero"></path>
                    <path d="M70,71.5005131 C70,72.3287719 69.328772,73 68.499487,73 C67.6712283,73 67,72.3287719 67,71.5005131 C67,70.6722544 67.6712283,70 68.499487,70 C69.328772,70 70,70.6722544 70,71.5005131 Z" id="Shape" fill="#FFFFFF" fill-rule="nonzero"></path>
                    <path d="M97,71.5005131 C97,72.3287719 96.3277456,73 95.4994869,73 C94.6712281,73 94,72.3287719 94,71.5005131 C94,70.6722544 94.6712281,70 95.4994869,70 C96.3277456,70 97,70.6722544 97,71.5005131 Z" id="Shape" fill="#FFFFFF" fill-rule="nonzero"></path>
                    <path d="M65,52 L65,159 C64.727225,158.9476 64.4544497,158.892762 64.1816747,158.834269 C61.7254696,158.318797 59.3171845,157.692432 56.9506756,156.962485 C56.8192032,156.919834 56.6877304,156.880838 56.5562576,156.839406 C56.46779,156.812596 56.3817799,156.78335 56.2933123,156.754103 C55.9148675,156.633461 55.5339651,156.509162 55.1592066,156.382427 C51.3010356,155.09192 47.5731084,153.517476 44,151.682251 L44,52 L65,52 Z" id="Shape" fill="#F73B6C" fill-rule="nonzero"></path>
                    <path d="M119,54.6332206 L119,69 C94.7297951,66.9072063 80.9993876,53.7637144 80.9993876,42.1013726 C80.9993876,53.7637144 67.2702049,66.9072063 43,69 L43,54.6332206 C43,33.2966906 60.0129139,16 80.9993876,16 C101.985861,16 119,33.2966906 119,54.6332206 Z" id="Shape" fill="#F73B6C" fill-rule="nonzero"></path>
                    <path d="M87,16.5021655 C68.992839,19.4559367 55.2502429,35.238994 55.2502429,54.2657705 L55.2502429,157 C50.9930055,155.551493 46.9006357,153.74641 43,151.624235 L43,54.2657705 C43,33.1291574 59.956896,16 80.874268,16 C82.9613644,16 85.0069389,16.1715011 87,16.5021655 Z" id="Shape" fill="#DD104F" fill-rule="nonzero"></path>
                    <path d="M113.835378,48 C129.052492,34.3422597 125.68245,19.3172617 125.68245,19.3172617 C125.68245,19.3172617 110.656955,15.9485668 97,31.1651784" id="Shape" fill="#2F373B" fill-rule="nonzero"></path>
                    <path d="M113.191676,48 C124.209738,38.1099978 121.770204,27.2297964 121.770204,27.2297964 C121.770204,27.2297964 110.890002,24.7902624 101,35.8083245" id="Shape" fill="#151A1C" fill-rule="nonzero"></path>
                    <path d="M47.1641035,48 C31.9476378,34.3422597 35.3175365,19.3172617 35.3175365,19.3172617 C35.3175365,19.3172617 50.3423905,15.9485668 64,31.1651784" id="Shape" fill="#2F373B" fill-rule="nonzero"></path>
                    <path d="M47.8089636,48 C36.789197,38.1099978 39.2300418,27.2297964 39.2300418,27.2297964 C39.2300418,27.2297964 50.1095438,24.7902624 60,35.8083245" id="Shape" fill="#151A1C" fill-rule="nonzero"></path>
                </g>
            </g>
            <g id="027-man-3" mask="url(#mask-2)">
                <g transform="translate(243.000000, -27.000000)">
                    <path d="M204,102 C204,158.333771 158.333771,204 102,204 C45.6662291,204 0,158.333771 0,102 C0,45.6662291 45.6662291,0 102,0 C158.333771,0 204,45.6662291 204,102 Z" id="Shape" fill="#673389" fill-rule="nonzero"></path>
                    <path d="M153,179.039298 L153,190.733965 C138.09572,199.178117 120.862499,204 102.5,204 C91.6764487,204 81.2501783,202.323978 71.4558027,199.220291 C64.6363398,197.06005 58.1218759,194.201597 52,190.733965 L52,179.039298 C52,159.080108 67.3938429,142.7057 86.9779014,141.126522 C88.0070774,141.042174 89.0440734,141 90.0951466,141 L114.901725,141 C117.834407,141 120.68732,141.326457 123.427618,141.952818 C140.36366,145.821883 153,160.95919 153,179.039298 Z" id="Shape" fill="#E89F18" fill-rule="nonzero"></path>
                    <path d="M152,179.039298 L152,190.733965 C142.96064,195.890115 133.06209,199.6967 122.566924,201.872561 C116.690873,203.097166 110.626827,203.810999 104.426056,203.965636 C103.566866,203.987504 102.701462,204 101.837611,204 C91.0860858,204 80.729198,202.323978 71,199.220291 L71,179.039298 C71,176.343292 71.2781104,173.711328 71.8094716,171.174646 C72.8908389,165.993504 75.0225,161.205985 77.9698471,157.035455 C84.8262747,147.330771 96.1013925,141 108.844746,141 L114.155254,141 C135.060133,141 152,158.030446 152,179.039298 Z" id="Shape" fill="#FFE05C" fill-rule="nonzero"></path>
                    <polyline id="Shape" fill="#F2EFEA" fill-rule="nonzero" points="102 156.639115 85.1323076 166 80 142.16531 90.4815386 136"></polyline>
                    <polyline id="Shape" fill="#F2EFEA" fill-rule="nonzero" points="102 156.639115 118.867692 166 124 142.16531 113.518461 136"></polyline>
                    <path d="M115,126 L115,142.531625 C115,148.583712 111.001036,153.699463 105.491973,155.398512 C104.23045,155.787619 102.886587,156 101.49767,156 C94.0419471,156 88,149.969616 88,142.531625 L88,126 L115,126 Z" id="Shape" fill="#EAA27F" fill-rule="nonzero"></path>
                    <path d="M115,143 L115,144.054367 C115,150.143494 110.9811,155.290553 105.444572,157 C100.449831,155.465241 96.6947982,151.127674 96,145.818405 C96.907141,145.874554 97.8189661,145.90263 98.7339142,145.90263 C101.300764,145.90263 103.81609,145.698307 106.267401,145.2959 C109.288602,144.812389 112.206755,144.035651 115,143 Z" id="Shape" fill="#F6BA97" fill-rule="nonzero"></path>
                    <path d="M64,99.9991956 C64,106.471444 59.4551078,111.83683 53.502506,112.832684 C52.8527937,112.943692 52.1829714,113 51.5007736,113 C44.5952604,113 39,107.180929 39,99.9991956 C39,92.8190705 44.5952604,87 51.5007736,87 C52.1829714,87 52.8527937,87.0563085 53.502506,87.1673164 C59.4551078,88.1631707 64,93.5285562 64,99.9991956 Z" id="Shape" fill="#F6BA97" fill-rule="nonzero"></path>
                    <path d="M65,98.9992478 C65,105.051527 60.1394756,110.068765 53.7734792,111 C52.6170784,107.177271 52,103.152949 52,98.9992478 C52,94.8470507 52.6170784,90.8227292 53.7734792,87 C60.1394756,87.9312356 65,92.9484735 65,98.9992478 Z" id="Shape" fill="#EAA27F" fill-rule="nonzero"></path>
                    <path d="M57,99.4992211 C57,101.985633 54.9856328,104 52.5007791,104 C50.0159254,104 48,101.985633 48,99.4992211 C48,97.0143672 50.0159254,95 52.5007791,95 C54.9856328,95 57,97.0143672 57,99.4992211 Z" id="Shape" fill="#EAA27F" fill-rule="nonzero"></path>
                    <path d="M139,99.9991956 C139,106.471444 143.726688,111.83683 149.917394,112.832684 C150.594703,112.943692 151.28971,113 151.999196,113 C159.180929,113 165,107.180929 165,99.9991956 C165,92.8190705 159.180929,87 151.999196,87 C151.28971,87 150.594703,87.0563085 149.917394,87.1673164 C143.726688,88.1631707 139,93.5285562 139,99.9991956 Z" id="Shape" fill="#F6BA97" fill-rule="nonzero"></path>
                    <g id="Group" stroke-width="1" fill="none" fill-rule="evenodd" transform="translate(54.000000, 28.000000)">
                        <path d="M83.9435133,71.5569395 C83.9435133,77.8205072 88.5070281,83.0129006 94.4840212,83.9766458 C95.5697589,80.0204626 96.1491295,75.8556494 96.1491295,71.5569395 C96.1491295,67.2597865 95.5697589,63.0949732 94.4840212,59.13879 C88.5070281,60.1025357 83.9435133,65.2949286 83.9435133,71.5569395 Z" id="Shape" fill="#EAA27F" fill-rule="nonzero"></path>
                        <path d="M93.6188484,47.0475977 L93.6188484,64.8729983 C93.6188484,70.9606316 92.4601072,76.7758007 90.3492096,82.1098752 L89.9717643,83.0300266 L89.8506092,83.3227312 C88.3051028,86.9363881 86.3107008,90.3196175 83.9466196,93.39613 C76.8543769,102.633452 66.396192,109.143016 54.414247,111.075178 C54.33969,111.087634 54.260473,111.100089 54.1859159,111.114102 C51.8218351,111.492438 49.3940699,111.67927 46.9181535,111.67927 C31.8405359,111.67927 18.4280266,104.512678 9.8943465,93.3930159 C3.82726378,85.4962188 0.220564913,75.6049822 0.220564913,64.8729983 L0.220564913,47.0475977 C0.220564913,41.6045372 1.14786858,36.3732204 2.85957483,31.5124555 C9.24507874,13.2962633 26.5640689,0.236654804 46.9181535,0.236654804 L46.922813,0.236654804 C49.3940699,0.236654804 51.8249415,0.428158463 54.1936821,0.801823943 C76.5297431,4.3002667 93.6188484,23.6748223 93.6188484,47.0475977 Z" id="Shape" fill="#EAA27F" fill-rule="nonzero"></path>
                        <path d="M100.981361,71.5569395 C100.981361,74.0418149 98.9729793,76.0549376 96.4939562,76.0549376 C94.0164862,76.0549376 92.0081048,74.0418149 92.0081048,71.5569395 C92.0081048,69.0736209 94.0164862,67.0604982 96.4939562,67.0604982 C98.9729793,67.0604982 100.981361,69.0736209 100.981361,71.5569395 Z" id="Shape" fill="#EAA27F" fill-rule="nonzero"></path>
                    </g>
                    <path d="M149,75.1148588 L149,92.8897985 C149,116.11723 131.993066,135.385705 109.723305,138.961187 C109.64861,138.973607 109.569248,138.986027 109.494553,139 C87.1158627,135.51146 70,116.191752 70,92.8897985 L70,75.1148588 C70,51.8082483 87.1205312,32.4885392 109.502334,29 C131.879469,32.4885392 149,51.8082483 149,75.1148588 Z" id="Shape" fill="#F6BA97" fill-rule="nonzero"></path>
                    <path d="M101.500779,116 C97.5778411,116 93.6564613,114.996633 90.0809479,112.991488 C89.0713912,112.425404 88.7037132,111.132634 89.2583462,110.102234 C89.8129792,109.073425 91.0795992,108.698156 92.0875976,109.262649 C97.9813523,112.570105 105.018648,112.570105 110.912402,109.262649 C111.920401,108.698156 113.187021,109.073425 113.741654,110.102234 C114.296287,111.132634 113.928609,112.425404 112.919052,112.991488 C109.345097,114.996633 105.422159,116 101.500779,116 Z" id="Shape" fill="#EAA27F" fill-rule="nonzero"></path>
                    <path d="M106.739936,104 L96.2600636,104 C95.0109599,104 94,102.881713 94,101.5 C94,100.118287 95.0109599,99 96.2600636,99 L106.739936,99 C107.98904,99 109,100.118287 109,101.5 C109,102.880014 107.98904,104 106.739936,104 Z" id="Shape" fill="#EAA27F" fill-rule="nonzero"></path>
                    <path d="M91,90.000733 C91,92.7627913 88.7627915,95 86.0007328,95 C83.2386748,95 81,92.7627913 81,90.000733 C81,87.2386747 83.2386748,85 86.0007328,85 C88.7627915,85 91,87.2386747 91,90.000733 Z" id="Shape" fill="#2F373B" fill-rule="nonzero"></path>
                    <path d="M122,90.000733 C122,92.7627913 119.761653,95 117,95 C114.238347,95 112,92.7627913 112,90.000733 C112,87.2386747 114.238347,85 117,85 C119.761653,85 122,87.2386747 122,90.000733 Z" id="Shape" fill="#2F373B" fill-rule="nonzero"></path>
                    <path d="M92,89.4999998 C92,90.8809033 90.8812866,92 89.5008554,92 C88.1204243,92 87,90.8809033 87,89.4999998 C87,88.1190967 88.1204243,87 89.5008554,87 C90.8812866,87 92,88.1190967 92,89.4999998 Z" id="Shape" fill="#FFFFFF" fill-rule="nonzero"></path>
                    <path d="M122,89.4999998 C122,90.8809033 120.879576,92 119.499145,92 C118.118714,92 117,90.8809033 117,89.4999998 C117,88.1190967 118.118714,87 119.499145,87 C120.879576,87 122,88.1190967 122,89.4999998 Z" id="Shape" fill="#FFFFFF" fill-rule="nonzero"></path>
                    <path d="M150,64.6670868 L150,85 L141.251888,85 L141.251888,68.6259825 L78.1078994,56.9453731 L64.748112,54.4726196 L64.748112,85 L56,85 L56,64.6670868 C56,43.8626546 72.939697,27 93.836055,27 L112.163945,27 C112.661068,27 113.15819,27.0077807 113.656877,27.0326795 C133.857575,27.8076522 150,44.3575167 150,64.6670868 Z" id="Shape" fill="#D65A05" fill-rule="nonzero"></path>
                    <path d="M150,64.655624 L150,85 L141.238758,85 L141.238758,68.6167515 L78,56.9295571 C81.4850833,40.2862821 96.0046969,27.6757586 113.602331,27 C133.833348,27.7754096 150,44.3346043 150,64.655624 Z" id="Shape" fill="#F46D11" fill-rule="nonzero"></path>
                    <path d="M125,133.342952 C120.593578,139.231465 114.097448,143.382698 106.654419,144.614471 C106.607774,144.62247 106.558019,144.630468 106.512929,144.638467 C105.043603,144.880022 103.536961,145 101.999223,145 C92.6328545,145 84.302011,140.429644 79,133.339753 C80.7367584,134.574725 83.0674666,135.129822 85.4199425,134.667507 L96.0130808,132.583093 C99.9577152,131.805636 104.045395,131.805636 107.988474,132.583093 L118.583167,134.667507 C120.934088,135.129822 123.264796,134.577924 125,133.342952 Z" id="Shape" fill="#D65A05" fill-rule="nonzero"></path>
                    <polygon id="Shape" fill="#D65A05" fill-rule="nonzero" points="103.000778 128 107 121 99 121"></polygon>
                </g>
            </g>
            <g id="036-person" mask="url(#mask-2)">
                <g transform="translate(234.000000, 164.000000)">
                    <path d="M131,66.5 C131,102.674118 101.674118,132 65.5,132 C29.3248824,132 0,102.674118 0,66.5 C0,30.3248824 29.3248824,1 65.5,1 C101.674118,1 131,30.3248824 131,66.5 Z" id="Shape" fill="#1DA2DD" fill-rule="nonzero"></path>
                    <path d="M99,96.9443384 L99,103.998264 C90.1458348,109.091563 79.9081195,112 68.9995354,112 C62.5696034,112 56.3756833,110.989066 50.5571525,109.117001 C46.5059236,107.813998 42.6358849,106.089852 39,103.998264 L39,96.9443384 C39,84.9054619 48.1440694,75.028835 59.7783439,74.0763146 C60.3897449,74.0254383 61.0057919,74 61.6302015,74 L76.3670109,74 C78.1092252,74 79.8040512,74.1969107 81.4319762,74.5747154 C91.4931473,76.9084371 99,86.0398186 99,96.9443384 Z" id="Shape" fill="#512375" fill-rule="nonzero"></path>
                    <path d="M100,95.9944246 L100,103.025823 C94.531745,106.124597 88.5437333,108.412994 82.1957456,109.721991 C78.640158,110.458184 74.9717841,110.887317 71.2207006,110.98028 C70.7009436,110.992488 70.1774274,111 69.6548509,111 C63.150842,111 56.8855642,109.993368 51,108.126592 L51,95.9944246 C51,94.3746113 51.1682396,92.7923587 51.4906204,91.2673865 C52.1438408,88.1526498 53.4333642,85.2745467 55.2163273,82.7673572 C55.9776345,81.6949939 56.8329306,80.69024 57.7652972,79.7662421 L63.2213335,84.0237691 L69.6576706,79 L76.0930679,84.0237691 L82.5275251,79 L88.9629224,84.0237691 L93.7478805,80.2911556 C97.6249088,84.3852926 100,89.9133166 100,95.9944246 Z" id="Shape" fill="#673389" fill-rule="nonzero"></path>
                    <g id="Group" stroke-width="1" fill="none" fill-rule="evenodd" transform="translate(56.000000, 70.000000)">
                        <path d="M15.0792061,8.8086477 L15.0792061,41.7206827 C14.5528043,41.7339546 14.029227,41.7415385 13.5,41.7415385 C12.970773,41.7415385 12.4443709,41.7339546 11.9207939,41.7187869 L11.9207939,8.8086477 L15.0792061,8.8086477 Z" id="Shape" fill="#512375" fill-rule="nonzero"></path>
                        <polyline id="Shape" fill="#512375" fill-rule="nonzero" points="13.4971749 12.9579644 3.17253761 18.7340179 0.0310755536 4.02702706 6.44677746 0.222775804"></polyline>
                        <polyline id="Shape" fill="#512375" fill-rule="nonzero" points="13.4971749 12.9579644 23.8218122 18.7340179 26.9632742 4.02702706 20.5475725 0.222775804"></polyline>
                    </g>
                    <path d="M76,65 L76,74.9189748 C76,78.5502274 73.6302433,81.6196776 70.3656137,82.6391071 C69.6189654,82.8725714 68.822602,83 67.998619,83 C63.5813339,83 60,79.3817694 60,74.9189748 L60,65 L76,65 Z" id="Shape" fill="#EAA27F" fill-rule="nonzero"></path>
                    <path d="M102,80 L95.5026578,74.9806558 L89.002468,80 L82.5032273,74.9806558 L76.004936,80 L69.5056953,74.9806558 L63.0055054,80 L56.5053156,74.9806558 L50.002278,80 L43.5030373,74.9806558 L43.1015217,75.2893219 L37,80 C40.0346242,54.2343452 40.0346242,28.4705667 37,2.70397353 C38.8329243,2.39812177 40.6686965,2.11947785 42.5025701,1.86897967 C62.3372616,-0.87711776 82.1681562,-0.595659198 102,2.70397353 C98.9691726,28.4705667 98.9691726,54.2343452 102,80 Z" id="Shape" fill="#F46D11" fill-rule="nonzero"></path>
                    <polygon id="Shape" fill="#EAA27F" fill-rule="nonzero" points="67 47.9468456 64.0053666 48.5707899 56.3596759 50.1634378 52.3393666 51 49 38.7247889 56.0840787 37.956781 61.0135748 37.425236 64.9278123 37"></polygon>
                    <polygon id="Shape" fill="#EAA27F" fill-rule="nonzero" points="89 38.7247889 85.6614049 51 81.6427782 50.1634378 73.9938437 48.5707899 71 47.9468456 73.0722965 37 76.9867403 37.425236 81.919337 37.956781"></polygon>
                    <path d="M65,43.7668886 C65,45.5815707 64.3880725,47.2425528 63.3848379,48.4946938 L56.0553255,50.1372321 L52.2012712,51 L49,38.340262 L55.7911252,37.5481959 L60.516768,37 C63.1052034,37.8607187 65,40.5678842 65,43.7668886 Z" id="Shape" fill="#F6BA97" fill-rule="nonzero"></path>
                    <path d="M63,43.4994869 C63,45.4329277 61.4331573,47 59.4999999,47 C57.5668424,47 56,45.4329277 56,43.4994869 C56,41.5660461 57.5668424,40 59.4999999,40 C61.4331573,40 63,41.5660461 63,43.4994869 Z" id="Shape" fill="#2F373B" fill-rule="nonzero"></path>
                    <path d="M87,43.3690844 C87,45.8480641 85.3059569,47.994641 82.860413,49 L74.3363678,47.5481168 L71,46.9793192 L73.3093869,37 L77.6716802,37.3876519 L83.1686128,37.8722168 C85.4463355,38.9255794 87,40.9951694 87,43.3690844 Z" id="Shape" fill="#F6BA97" fill-rule="nonzero"></path>
                    <path d="M83,43.4994869 C83,45.4329277 81.4329277,47 79.4994869,47 C77.5660461,47 76,45.4329277 76,43.4994869 C76,41.5660461 77.5660461,40 79.4994869,40 C81.4329277,40 83,41.5660461 83,43.4994869 Z" id="Shape" fill="#2F373B" fill-rule="nonzero"></path>
                    <path d="M62,41.4994867 C62,42.3277454 61.3285423,43 60.5000001,43 C59.671458,43 59,42.3277454 59,41.4994867 C59,40.6712283 59.671458,40 60.5000001,40 C61.3285423,40 62,40.6712283 62,41.4994867 Z" id="Shape" fill="#FFFFFF" fill-rule="nonzero"></path>
                    <path d="M82,41.4994867 C82,42.3277454 81.3287717,43 80.500513,43 C79.671228,43 79,42.3277454 79,41.4994867 C79,40.6712283 79.671228,40 80.500513,40 C81.3287717,40 82,40.6712283 82,41.4994867 Z" id="Shape" fill="#FFFFFF" fill-rule="nonzero"></path>
                    <path d="M43.3825449,76.2369294 L37,81 C40.1743926,54.9477775 40.1743926,28.8974521 37,2.84428073 C38.9173449,2.53502726 40.8376689,2.25328424 42.7560069,2 C45.3584726,16.0169553 48.2161212,51.0299359 43.3825449,76.2369294 Z" id="Shape" fill="#D65A05" fill-rule="nonzero"></path>
                </g>
            </g>
        </g>
    </g>
</svg>