<?xml version="1.0" encoding="UTF-8"?>
<svg width="48px" height="46px" viewBox="0 0 48 46" version="1.1" xmlns="http://www.w3.org/2000/svg" xmlns:xlink="http://www.w3.org/1999/xlink">
    <!-- Generator: Sketch 49.1 (51147) - http://www.bohemiancoding.com/sketch -->
    <title>Slice</title>
    <desc>Created with Sketch.</desc>
    <defs></defs>
    <g id="Page-1" stroke="none" stroke-width="1" fill="none" fill-rule="evenodd">
        <g id="chat" transform="translate(1.000000, 0.000000)">
            <circle id="Oval" fill="#4A90E2" cx="11.5" cy="11.5" r="11.5"></circle>
            <path d="M12,5 C8.13406897,5 5,7.75150909 5,11.1454545 C5,12.3962909 5.42675862,13.5589636 6.15765517,14.5297091 C6.06158621,15.6512545 5.78544828,17.2308727 5,18 C5,18 7.40003448,17.6702727 9.02548276,16.7089818 C9.02717241,16.7096909 9.02910345,16.7104 9.0307931,16.7111091 C9.69796552,16.2854182 10.3661034,15.8469636 10.5044138,15.7358727 C10.5768276,15.6363636 10.7165862,15.6063455 10.8254483,15.6704 C10.8968966,15.7124727 10.9420345,15.7892909 10.9434828,15.8708364 C10.9458966,16.0178545 10.9422759,16.0561455 9.59537931,16.9158 C10.3455862,17.1568909 11.1546897,17.2909091 12,17.2909091 C15.865931,17.2909091 19,14.5394 19,11.1454545 C19,7.75150909 15.865931,5 12,5 Z" id="Shape" fill="#FFFFFF" fill-rule="nonzero"></path>
        </g>
        <g id="chat" transform="translate(25.000000, 0.000000)">
            <circle id="Oval" fill="#C0C0C0" cx="11.5" cy="11.5" r="11.5"></circle>
            <path d="M12,5 C8.13406897,5 5,7.75150909 5,11.1454545 C5,12.3962909 5.42675862,13.5589636 6.15765517,14.5297091 C6.06158621,15.6512545 5.78544828,17.2308727 5,18 C5,18 7.40003448,17.6702727 9.02548276,16.7089818 C9.02717241,16.7096909 9.02910345,16.7104 9.0307931,16.7111091 C9.69796552,16.2854182 10.3661034,15.8469636 10.5044138,15.7358727 C10.5768276,15.6363636 10.7165862,15.6063455 10.8254483,15.6704 C10.8968966,15.7124727 10.9420345,15.7892909 10.9434828,15.8708364 C10.9458966,16.0178545 10.9422759,16.0561455 9.59537931,16.9158 C10.3455862,17.1568909 11.1546897,17.2909091 12,17.2909091 C15.865931,17.2909091 19,14.5394 19,11.1454545 C19,7.75150909 15.865931,5 12,5 Z" id="Shape" fill="#E9E9E9" fill-rule="nonzero"></path>
        </g>
        <g id="crown-not-current" transform="translate(24.000000, 24.000000)" fill-rule="nonzero">
            <path d="M2.54678977,19.4379818 L21.7506875,19.4379818 C22.4862799,19.4379818 23.0826034,19.9819035 23.0826034,20.6528557 C23.0826034,21.3238079 22.4862799,21.8677296 21.7506875,21.8677296 L2.54678977,21.8677296 C1.81119743,21.8677296 1.21487387,21.3238079 1.21487387,20.6528557 C1.21487387,19.9819035 1.81119743,19.4379818 2.54678977,19.4379818 Z" id="Shape" fill="#B6B6B6"></path>
            <g id="Group">
                <g transform="translate(1.166279, 0.000000)" id="Shape">
                    <polygon fill="#A0A0A0" points="10.9652895 0.0499448145 11.9294134 1.38360635 12.8935373 2.71726788 11.9294134 4.05092941 10.9652895 5.38459094 10.0011656 4.05092941 9.04222519 2.71726788 10.0011656 1.38360635"></polygon>
                    <polygon fill="#A0A0A0" points="0.930107431 4.82304925 1.8164794 5.58976964 2.70285138 6.35649004 2.24152327 7.45797567 1.78019517 8.55946131 0.893823199 7.79274092 0.00745122637 7.02602052 0.468779329 5.92453488"></polygon>
                    <polygon fill="#A0A0A0" points="21.0004716 4.82304925 20.1140996 5.58976964 19.2277277 6.35649004 19.6890558 7.45797567 20.1503839 8.55946131 21.0367559 7.79274092 21.9231278 7.02602052 21.4617997 5.92453488"></polygon>
                    <path d="M10.9652895,5.6113674 C-0.599013807,5.6113674 7.12434431,19.4177339 7.12434431,19.4177339 L14.8062347,19.4177339 C14.8062347,19.4177339 22.5295929,5.6113674 10.9652895,5.6113674 Z" fill="#C0C0C0"></path>
                </g>
                <g transform="translate(0.000000, 5.601918)" fill="#E9E9E9" id="Shape">
                    <path d="M12.1315684,13.8158156 L15.9725137,13.8158156 C15.9725137,13.8158156 23.6958718,0.00944901895 12.1315684,0.00944901895 L12.1315684,13.8158156 Z"></path>
                    <path d="M8.29062322,13.8158156 C8.29062322,13.8158156 4.3563757,6.79654435 6.31572427,2.75236424 C-5.17082714,2.78476087 2.52143021,13.8158156 2.52143021,13.8158156 L8.29062322,13.8158156 Z"></path>
                </g>
                <path d="M17.9525961,8.35428261 C19.9119446,12.3822644 15.9776971,19.4177339 15.9776971,19.4177339 L21.7417067,19.4177339 C21.7417067,19.4177339 29.4391475,8.38667925 17.9525961,8.35428261 Z" id="Shape" fill="#C0C0C0"></path>
            </g>
        </g>
        <g id="crown" transform="translate(0.000000, 24.000000)" fill-rule="nonzero">
            <path d="M2.54678977,19.4379818 L21.7506875,19.4379818 C22.4862799,19.4379818 23.0826034,19.9819035 23.0826034,20.6528557 C23.0826034,21.3238079 22.4862799,21.8677296 21.7506875,21.8677296 L2.54678977,21.8677296 C1.81119743,21.8677296 1.21487387,21.3238079 1.21487387,20.6528557 C1.21487387,19.9819035 1.81119743,19.4379818 2.54678977,19.4379818 Z" id="Shape" fill="#CE7419"></path>
            <g id="Group">
                <g transform="translate(1.166279, 0.000000)" fill="#FCBA29" id="Shape">
                    <polygon points="10.9652895 0.0499448145 11.9294134 1.38360635 12.8935373 2.71726788 11.9294134 4.05092941 10.9652895 5.38459094 10.0011656 4.05092941 9.04222519 2.71726788 10.0011656 1.38360635"></polygon>
                    <polygon points="0.930107431 4.82304925 1.8164794 5.58976964 2.70285138 6.35649004 2.24152327 7.45797567 1.78019517 8.55946131 0.893823199 7.79274092 0.00745122637 7.02602052 0.468779329 5.92453488"></polygon>
                    <polygon points="21.0004716 4.82304925 20.1140996 5.58976964 19.2277277 6.35649004 19.6890558 7.45797567 20.1503839 8.55946131 21.0367559 7.79274092 21.9231278 7.02602052 21.4617997 5.92453488"></polygon>
                    <path d="M10.9652895,5.6113674 C-0.599013807,5.6113674 7.12434431,19.4177339 7.12434431,19.4177339 L14.8062347,19.4177339 C14.8062347,19.4177339 22.5295929,5.6113674 10.9652895,5.6113674 Z"></path>
                </g>
                <g transform="translate(0.000000, 5.601918)" fill="#E99A23" id="Shape">
                    <path d="M12.1315684,13.8158156 L15.9725137,13.8158156 C15.9725137,13.8158156 23.6958718,0.00944901895 12.1315684,0.00944901895 L12.1315684,13.8158156 Z"></path>
                    <path d="M8.29062322,13.8158156 C8.29062322,13.8158156 4.3563757,6.79654435 6.31572427,2.75236424 C-5.17082714,2.78476087 2.52143021,13.8158156 2.52143021,13.8158156 L8.29062322,13.8158156 Z"></path>
                </g>
                <path d="M17.9525961,8.35428261 C19.9119446,12.3822644 15.9776971,19.4177339 15.9776971,19.4177339 L21.7417067,19.4177339 C21.7417067,19.4177339 29.4391475,8.38667925 17.9525961,8.35428261 Z" id="Shape" fill="#FCBA29"></path>
            </g>
        </g>
    </g>
</svg>