<?xml version="1.0" encoding="UTF-8"?>
<svg width="305px" height="512px" viewBox="0 0 305 512" version="1.1" xmlns="http://www.w3.org/2000/svg" xmlns:xlink="http://www.w3.org/1999/xlink">
    <!-- Generator: Sketch 49.1 (51147) - http://www.bohemiancoding.com/sketch -->
    <title>017-mummy</title>
    <desc>Created with Sketch.</desc>
    <defs></defs>
    <g id="login" stroke="none" stroke-width="1" fill="none" fill-rule="evenodd">
        <g id="017-mummy" fill-rule="nonzero">
            <path d="M196.398438,198.882812 L230.128906,183.929688 C224.71875,195.785156 231.574219,209.539062 241.214844,218.910156 C250.859375,228.277344 263.226562,235.125 272.410156,244.867188 C283.960938,257.113281 289.765625,273.710938 288.113281,289.78125 L254.386719,304.734375 C256.035156,288.660156 250.234375,272.0625 238.683594,259.816406 C229.496094,250.074219 217.128906,243.230469 207.484375,233.859375 C197.84375,224.492188 190.988281,210.738281 196.398438,198.882812 Z" id="Shape" fill="#C5D3D6"></path>
            <path d="M241.214844,218.910156 C231.574219,209.539062 224.714844,195.789062 230.128906,183.929688 L196.398438,198.882812 C190.984375,210.738281 197.84375,224.492188 207.484375,233.859375 C217.128906,243.230469 229.492188,250.074219 238.679688,259.816406 C242.203125,263.554688 245.1875,267.699219 247.59375,272.109375 C256.753906,264.117188 264.929688,254.765625 271.867188,244.308594 C262.738281,234.867188 250.671875,228.097656 241.214844,218.910156 Z" id="Shape" fill="#A5B3B7"></path>
            <path d="M267.265625,354.671875 L199.332031,329.253906 C198.527344,328.953125 197.992188,328.183594 197.992188,327.324219 L197.992188,262.355469 L106.996094,262.355469 L106.996094,327.324219 C106.996094,328.183594 106.464844,328.953125 105.65625,329.253906 L37.726562,354.671875 C15.035156,363.164062 0,384.84375 0,409.070312 L0,507.410156 C0,509.945312 2.054688,512 4.589844,512 L300.402344,512 C302.9375,512 304.988281,509.945312 304.988281,507.410156 L304.988281,409.070312 C304.988281,384.84375 289.953125,363.164062 267.265625,354.671875 Z" id="Shape" fill="#E6EFF5"></path>
            <path d="M267.265625,354.671875 L199.332031,329.253906 C198.527344,328.953125 197.992188,328.183594 197.992188,327.324219 L197.992188,262.355469 L173.390625,262.355469 L173.390625,324.003906 C173.390625,326.859375 175.160156,329.414062 177.839844,330.417969 L242.660156,354.671875 C265.347656,363.164062 280.386719,384.84375 280.386719,409.070312 L280.386719,507.410156 C280.386719,509.945312 278.332031,512 275.796875,512 L300.402344,512 C302.9375,512 304.988281,509.945312 304.988281,507.410156 L304.988281,409.070312 C304.988281,384.84375 289.953125,363.164062 267.265625,354.671875 Z" id="Shape" fill="#C5D3D6"></path>
            <path d="M106.996094,290.476562 C126.410156,303.867188 149.238281,311.589844 173.667969,311.589844 C181.988281,311.589844 190.117188,310.683594 197.992188,308.972656 L197.992188,262.355469 L106.996094,262.355469 L106.996094,290.476562 Z" id="Shape" fill="#C5D3D6"></path>
            <path d="M280.386719,144.082031 C280.386719,64.507812 223.125,0 152.496094,0 C81.863281,0 24.605469,64.507812 24.605469,144.082031 C24.605469,223.65625 81.863281,288.160156 152.496094,288.160156 C223.125,288.160156 280.386719,223.65625 280.386719,144.082031 Z" id="Shape" fill="#E6EFF5"></path>
            <path d="M174.945312,80.601562 C156.589844,77.523438 109.878906,51.308594 80.460938,25.023438 C76.363281,28.171875 72.4375,31.582031 68.699219,35.234375 C101.121094,64.789062 151.183594,92.285156 172.394531,95.839844 C172.824219,95.914062 173.253906,95.949219 173.679688,95.949219 C177.386719,95.949219 180.65625,93.273438 181.289062,89.496094 C181.992188,85.289062 179.15625,81.304688 174.945312,80.601562 Z" id="Shape" fill="#C5D3D6"></path>
            <path d="M152.496094,0 C150.316406,0 148.152344,0.0625 146,0.183594 C207.078125,3.992188 255.660156,66.960938 255.660156,144.082031 C255.660156,221.199219 207.078125,284.167969 146,287.976562 C148.152344,288.097656 150.316406,288.160156 152.496094,288.160156 C223.128906,288.160156 280.386719,223.65625 280.386719,144.082031 C280.386719,64.507812 223.128906,2.84217094e-14 152.496094,2.84217094e-14 Z" id="Shape" fill="#C5D3D6"></path>
            <path d="M254.105469,57.351562 C254.226562,57.273438 254.339844,57.1875 254.453125,57.105469 C251.546875,52.789062 248.4375,48.65625 245.125,44.738281 C222.210938,59.15625 197.28125,71.34375 171.007812,80.96875 C133.15625,94.851562 75.957031,102.246094 49.21875,102.246094 C44.949219,102.246094 41.492188,105.703125 41.492188,109.972656 C41.492188,114.238281 44.953125,117.695312 49.21875,117.695312 C77.105469,117.695312 136.792969,109.972656 176.324219,95.476562 C203.898438,85.378906 230.066406,72.550781 254.105469,57.351562 Z" id="Shape" fill="#C5D3D6"></path>
            <path d="M237.800781,67.105469 C242.289062,64.5625 252.308594,58.632812 254.453125,57.105469 C251.992188,53.65625 250.035156,50.550781 245.125,44.738281 C240.210938,47.832031 235.195312,50.816406 230.101562,53.699219 C232.863281,57.976562 235.433594,62.449219 237.800781,67.105469 Z" id="Shape" fill="#A5B3B7"></path>
            <path d="M253.734375,180.6875 C251.398438,177.117188 246.609375,176.117188 243.039062,178.453125 C230.433594,186.707031 158.792969,210.152344 101.242188,215.726562 C101.179688,215.730469 101.117188,215.734375 101.058594,215.742188 C82.367188,217.542969 58.339844,218.242188 42.4375,217.488281 C45.324219,222.976562 48.523438,228.234375 52.015625,233.21875 C53.605469,233.238281 55.230469,233.25 56.882812,233.25 C71.386719,233.25 88.132812,232.503906 102.378906,231.136719 C102.441406,231.132812 102.503906,231.128906 102.5625,231.121094 C162.332031,225.367188 235.933594,201.574219 251.503906,191.382812 C255.074219,189.042969 256.074219,184.257812 253.734375,180.6875 Z" id="Shape" fill="#C5D3D6"></path>
            <path d="M236.25,252.96875 C173.746094,244.226562 118.570312,223.972656 105.59375,216.691406 C104.4375,216.042969 103.125,215.703125 101.800781,215.703125 C97.53125,215.703125 94.078125,219.164062 94.078125,223.429688 C94.078125,226.394531 95.753906,228.96875 98.207031,230.265625 C113.03125,238.503906 162.976562,256.550781 220.429688,266.164062 C226.003906,262.21875 231.296875,257.808594 236.25,252.96875 Z" id="Shape" fill="#C5D3D6"></path>
            <path d="M218.335938,250.125 C214.152344,254.925781 209.683594,259.347656 204.964844,263.34375 C210.042969,264.34375 215.203125,265.289062 220.425781,266.164062 C223.203125,264.199219 225.90625,262.117188 228.535156,259.929688 C228.554688,259.914062 228.570312,259.902344 228.585938,259.886719 C229.816406,258.863281 231.023438,257.808594 232.21875,256.734375 C232.40625,256.566406 232.59375,256.398438 232.777344,256.226562 C233.949219,255.164062 235.109375,254.082031 236.246094,252.96875 L236.25,252.96875 C230.199219,252.121094 224.21875,251.164062 218.335938,250.125 Z" id="Shape" fill="#A5B3B7"></path>
            <path d="M106.996094,320.179688 C127.578125,337.320312 160.023438,355.867188 204.089844,355.867188 C218.765625,355.867188 234.734375,353.804688 251.976562,348.953125 L225.050781,338.878906 C165.957031,347.117188 126.453125,318.703125 106.996094,299.300781 L106.996094,320.179688 Z" id="Shape" fill="#C5D3D6"></path>
            <path d="M236.976562,352.546875 C241.863281,351.578125 246.863281,350.390625 251.976562,348.953125 L231.011719,341.109375 L225.050781,338.878906 C217.851562,339.882812 210.949219,340.332031 204.328125,340.332031 L236.976562,352.546875 Z" id="Shape" fill="#A5B3B7"></path>
            <path d="M56.136719,478.519531 C56.378906,478.519531 56.621094,478.507812 56.863281,478.484375 C124.273438,472.175781 177.1875,445.628906 209.703125,424.472656 C227.238281,413.0625 243.65625,400.089844 257.179688,386.953125 C266.804688,377.601562 274.558594,368.578125 279.515625,361.011719 C275.753906,358.457031 271.652344,356.316406 267.265625,354.671875 L265.625,354.058594 C251.90625,374.355469 220.492188,399.019531 201.273438,411.519531 C170.214844,431.730469 119.699219,457.082031 55.425781,463.101562 C51.175781,463.496094 48.054688,467.265625 48.449219,471.511719 C48.828125,475.515625 52.191406,478.519531 56.136719,478.519531 Z" id="Shape" fill="#C5D3D6"></path>
            <path d="M265.625,354.058594 C263.554688,357.121094 261.074219,360.285156 258.300781,363.492188 C262.367188,366.703125 265.964844,370.433594 269.011719,374.558594 C273.246094,369.730469 276.800781,365.152344 279.515625,361.007812 C272.480469,356.238281 266.445312,354.429688 265.625,354.058594 Z" id="Shape" fill="#A5B3B7"></path>
            <g id="Group" transform="translate(0.000000, 350.000000)" fill="#C5D3D6">
                <path d="M37.726562,4.671875 C35.867188,5.367188 34.070312,6.160156 32.320312,7.023438 C68.890625,38.816406 126.78125,75.003906 202.226562,76.957031 C202.296875,76.957031 202.363281,76.960938 202.433594,76.960938 C206.605469,76.960938 210.042969,73.632812 210.152344,69.433594 C210.261719,65.167969 206.894531,61.621094 202.628906,61.507812 C135.808594,59.78125 83.40625,29.28125 48.632812,0.59375 L37.726562,4.671875 Z" id="Shape"></path>
                <path d="M171.929688,162 C210.3125,148.300781 244.332031,130.542969 253.613281,123.265625 C256.972656,120.632812 257.558594,115.777344 254.925781,112.417969 C252.292969,109.0625 247.4375,108.476562 244.078125,111.105469 C232.980469,119.8125 166.644531,152.777344 113.710938,162 L171.929688,162 Z" id="Shape"></path>
                <path d="M0,103.042969 L0,123.90625 C19.757812,139.941406 41.089844,147.757812 55.152344,149.574219 C55.492188,149.617188 55.824219,149.640625 56.15625,149.640625 C59.980469,149.640625 63.304688,146.800781 63.808594,142.902344 C64.355469,138.671875 61.367188,134.796875 57.136719,134.25 C45.621094,132.761719 21.015625,124.503906 0,103.042969 Z" id="Shape"></path>
                <path d="M304.988281,101.324219 C287.683594,122.355469 264.242188,132.128906 247.855469,134.25 C243.621094,134.796875 240.636719,138.671875 241.183594,142.902344 C241.6875,146.796875 245.007812,149.640625 248.835938,149.640625 C249.164062,149.640625 249.5,149.617188 249.835938,149.574219 C257.824219,148.542969 282.285156,143.804688 304.988281,123.578125 L304.988281,101.324219 Z" id="Shape"></path>
            </g>
            <path d="M280.386719,472.449219 L280.386719,490.066406 C288.234375,486.242188 296.726562,480.941406 304.988281,473.578125 L304.988281,451.324219 C297.570312,460.34375 289.023438,467.285156 280.386719,472.449219 Z" id="Shape" fill="#A5B3B7"></path>
            <path d="M33.429688,91.394531 C27.734375,107.710938 24.605469,125.484375 24.605469,144.082031 C24.605469,146.289062 24.65625,148.488281 24.742188,150.671875 C65,176.714844 149.695312,199.804688 272.84375,192.914062 C277.722656,177.664062 280.386719,161.222656 280.386719,144.078125 C280.386719,136.6875 279.890625,129.429688 278.9375,122.335938 C145.605469,138.050781 71.03125,115.085938 33.429688,91.394531 Z" id="Shape" fill="#F9C295"></path>
            <path d="M278.9375,122.335938 C270.605469,123.320312 262.507812,124.148438 254.632812,124.839844 C257.074219,147.652344 255.21875,171.367188 248.558594,193.902344 C256.480469,193.703125 264.574219,193.378906 272.84375,192.914062 C280.144531,170.089844 282.058594,145.574219 278.9375,122.335938 Z" id="Shape" fill="#E59F6A"></path>
            <path d="M63.871094,512 L63.871094,448.894531 C63.871094,444.625 60.410156,441.167969 56.144531,441.167969 C51.878906,441.167969 48.417969,444.625 48.417969,448.894531 L48.417969,512 L63.871094,512 Z" id="Shape" fill="#A5B3B7"></path>
            <path d="M256.570312,512 L256.570312,448.894531 C256.570312,444.625 253.113281,441.167969 248.84375,441.167969 C244.578125,441.167969 241.117188,444.625 241.117188,448.894531 L241.117188,512 L256.570312,512 Z" id="Shape" fill="#A5B3B7"></path>
            <path d="M206.160156,165.167969 C210.304688,165.167969 213.660156,161.808594 213.660156,157.667969 L213.660156,156.667969 C213.660156,152.523438 210.304688,149.167969 206.160156,149.167969 C202.019531,149.167969 198.660156,152.523438 198.660156,156.667969 L198.660156,157.667969 C198.660156,161.808594 202.019531,165.167969 206.160156,165.167969 Z" id="Shape" fill="#363B51"></path>
            <path d="M98.828125,149.167969 C94.683594,149.167969 91.328125,152.523438 91.328125,156.667969 L91.328125,157.667969 C91.328125,161.808594 94.683594,165.167969 98.828125,165.167969 C102.972656,165.167969 106.328125,161.808594 106.328125,157.667969 L106.328125,156.667969 C106.328125,152.523438 102.972656,149.167969 98.828125,149.167969 Z" id="Shape" fill="#363B51"></path>
        </g>
    </g>
</svg>