<?xml version="1.0" encoding="UTF-8"?>
<svg width="500px" height="247px" viewBox="0 0 500 247" version="1.1" xmlns="http://www.w3.org/2000/svg" xmlns:xlink="http://www.w3.org/1999/xlink">
    <!-- Generator: Sketch 49.1 (51147) - http://www.bohemiancoding.com/sketch -->
    <title>Group 8</title>
    <desc>Created with Sketch.</desc>
    <defs>
        <rect id="path-1" x="0" y="0" width="500" height="247" rx="3"></rect>
    </defs>
    <g id="sign-up" stroke="none" stroke-width="1" fill="none" fill-rule="evenodd">
        <g id="table" transform="translate(-636.000000, -348.000000)">
            <g id="Group-8" transform="translate(636.000000, 348.000000)">
                <mask id="mask-2" fill="white">
                    <use xlink:href="#path-1"></use>
                </mask>
                <use id="Mask" fill="#FFBF7F" xlink:href="#path-1"></use>
                <g id="poker-(2)" mask="url(#mask-2)">
                    <g transform="translate(57.000000, -18.000000)">
                        <path d="M368,184 C368,239.395629 343.516551,289.075636 304.77933,322.811044 C284.832252,340.174476 261.115057,353.317385 235.009883,360.835327 C228.055315,362.840543 220.935983,364.439968 213.665559,365.61921 C204.01507,367.189136 194.101248,368 184.00036,368 C154.034414,368 125.736241,360.835327 100.741956,348.127709 C81.2531913,338.221783 63.7689193,324.951524 49.0489193,309.081752 C28.7939,287.234464 13.7810685,260.468028 6.00052789,230.765357 C2.0800391,215.835237 0,200.161166 0,183.999281 C0,120.695746 31.9711579,64.8497167 80.652419,31.7445813 C110.106809,11.7082471 145.6826,0 184.00036,0 C250.976036,0 309.601337,35.785952 341.782586,89.2893246 C352.484966,107.073658 360.265507,126.817879 364.448608,147.854303 C366.499149,158.120694 367.685584,168.695027 367.948197,179.494559 C367.984891,180.987499 368,182.489792 368,184 Z" id="Shape" fill="#4BC999" fill-rule="nonzero"></path>
                        <g id="Group" stroke-width="1" fill="none" fill-rule="evenodd" transform="translate(49.000000, 41.000000)">
                            <path d="M315.327064,107.052308 L282.986618,107.052308 C280.295591,107.052308 277.8588,105.962794 276.0971,104.197551 C274.328218,102.432308 273.240891,99.9913364 273.240891,97.2941776 C273.240891,91.9005794 277.603845,87.5288505 282.986618,87.5288505 L285.692727,87.5288505 C288.383755,87.5288505 290.820545,86.4393364 292.582245,84.6668972 C294.343945,82.9016542 295.438455,80.4606822 295.438455,77.7635234 C295.438455,72.3699252 291.0755,67.9981963 285.692727,67.9981963 L259.132209,67.9981963 C256.441182,67.9981963 254.004391,66.9086822 252.242691,65.136243 C250.473809,63.371 249.386482,60.930028 249.386482,58.240785 C249.386482,52.8471869 253.749436,48.4754579 259.132209,48.4754579 L292.702182,48.4754579 C303.385136,66.2631776 311.151555,86.0111589 315.327064,107.052308 Z" id="Shape" fill="#5BD3A2" fill-rule="nonzero"></path>
                            <path d="M155.071973,29.8810374 C155.071973,24.4888785 159.434209,20.1171495 164.816264,20.1171495 L196.215891,20.1171495 C201.597227,20.1171495 205.960182,15.7461402 205.960182,10.3532617 C205.960182,4.9611028 201.597945,0.589373832 196.215891,0.589373832 L103.649436,0.589373832 C98.2681,0.589373832 93.9051455,4.96038318 93.9051455,10.3532617 C93.9051455,15.7454206 89.5429091,20.1171495 84.1608545,20.1171495 L52.7612273,20.1171495 C47.3798909,20.1171495 43.0169364,24.4881589 43.0169364,29.8810374 C43.0169364,35.2731963 47.3791727,39.6449252 52.7612273,39.6449252 L99.3188,39.6449252 C104.700136,39.6449252 109.063091,44.0159346 109.063091,49.4088131 C109.063091,54.800972 113.425327,59.1727009 118.807382,59.1727009 L211.373836,59.1727009 C216.755173,59.1727009 221.118127,54.8016916 221.118127,49.4088131 C221.118127,44.0166542 216.755891,39.6449252 211.373836,39.6449252 L164.816264,39.6449252 C159.434927,39.6442056 155.071973,35.2731963 155.071973,29.8810374 Z" id="Shape" fill="#5BD3A2" fill-rule="nonzero"></path>
                        </g>
                        <path d="M350,202.343282 C350,248.58566 332.950504,290.839132 304.800667,323.175759 C284.852145,340.545711 261.133234,353.693555 235.026171,361.21432 C228.071099,363.220289 220.951252,364.820314 213.680302,366 L213.680302,333.776375 L151.739436,333.776375 C143.222243,333.776375 136.319698,326.864526 136.319698,318.351932 L136.319698,282.432343 L74.3788315,282.432343 C65.8616387,282.432343 58.9590931,275.527691 58.9590931,267.0079 L58.9590931,231.095508 L6.00096213,231.095508 C2.08018963,216.159782 0,200.479825 0,184.311871 C0,120.984566 31.9734716,65.1175664 80.6582556,32 L102.874767,32 C111.39196,32 118.294506,38.9046513 118.294506,47.4244425 L118.294506,83.3368344 L180.235372,83.3368344 C188.752565,83.3368344 195.65511,90.2414857 195.65511,98.7612769 L195.65511,134.680866 L257.595976,134.680866 C266.113169,134.680866 273.015715,141.585518 273.015715,150.097392 L273.015715,186.016981 L334.956581,186.016981 C342.234726,186.016981 348.325631,191.058176 349.948193,197.83471 C349.98489,199.32965 350,200.832507 350,202.343282 Z" id="Shape" fill="#41B787" fill-rule="nonzero"></path>
                        <path d="M137,29.4169875 L137,197.583012 C137,206.098686 130.082068,213 121.54589,213 L15.45411,213 C6.91793174,213 0,206.098686 0,197.583012 L0,29.4169875 C0,20.9013141 6.91793174,14 15.45411,14 L121.546611,14 C130.082789,14.0007194 137,20.9020335 137,29.4169875 Z" id="Shape" fill="#F9EED7" fill-rule="nonzero"></path>
                        <path d="M136.999279,57.0007186 L136.999279,197.599424 C136.999279,206.106032 130.078656,213 121.539158,213 L69,213 L69,72.4005758 C69,63.8939675 75.9278364,57 84.4601201,57 L137,57 L136.999279,57.0007186 Z" id="Shape" fill="#E8DBC4" fill-rule="nonzero"></path>
                        <path d="M112,102.588449 C112,113.723446 104.506858,124.71697 94.3026043,134.047818 C93.9048211,134.405789 93.5070379,134.771621 93.1013422,135.121733 C87.4403047,140.126194 81.0354918,144.62335 74.6529778,148.367407 C73.3840998,149.105501 72.1152218,149.821445 70.8535369,150.508093 C70.0723569,150.926084 69.2990894,151.336216 68.5258219,151.731342 C68.3452729,151.820657 68.1726365,151.910686 68,152 C67.054096,151.522704 66.1002796,151.023258 65.1464631,150.508093 C58.4942046,146.90551 51.6534846,142.430504 45.5040298,137.343874 C44.6178293,136.620071 43.754647,135.874832 42.8986578,135.121019 C42.4929621,134.770192 42.0951789,134.405075 41.6973957,134.047103 C31.493142,124.71697 24,113.723446 24,102.587734 C24,86.7983878 34.9401167,74 48.4402884,74 C59.2451732,74 68,84.240425 68,96.8673293 C68,95.0553199 68.180549,93.2947556 68.5258219,91.6092154 C70.5528617,81.5181239 78.3020811,74 87.5525184,74 C101.05269,74.001429 112,86.7998168 112,102.588449 Z" id="Shape" fill="#FF525D" fill-rule="nonzero"></path>
                        <path d="M112,102.686804 C112,113.860389 104.588587,124.89201 94.4956319,134.255194 C94.1021874,134.614406 93.7087428,134.981505 93.3074721,135.332831 C87.7081803,140.354635 81.3732255,144.867375 75.0603263,148.624407 C73.8052881,149.365059 72.5502498,150.083483 71.3023264,150.772512 C70.5296668,151.191951 69.7648334,151.603504 69,152 L69,91.6702394 C71.0049307,81.5441777 78.6696284,74 87.8191701,74 C101.172094,74.000717 112,86.843457 112,102.686804 Z" id="Shape" fill="#EF4152" fill-rule="nonzero"></path>
                        <g id="Group" stroke-width="1" fill="none" fill-rule="evenodd" transform="translate(10.000000, 22.000000)">
                            <path d="M35.132963,11.8206482 C35.132963,16.3001502 32.1520494,20.7235415 28.0920494,24.4772016 C27.9352346,24.6239526 27.7748395,24.7685455 27.6137284,24.9116996 C25.3631852,26.9252095 22.8161975,28.7329802 20.2770864,30.2386166 C19.7715556,30.5378735 19.2674568,30.8263399 18.7640741,31.100419 C18.3845679,31.3090356 18.0057778,31.5090198 17.6291358,31.7025296 C17.2532099,31.5097391 16.8744198,31.3090356 16.4941975,31.100419 C13.847679,29.6530514 11.1259753,27.8495968 8.67995062,25.8058735 C8.32837037,25.5130909 7.98395062,25.2152727 7.64525926,24.9116996 C7.48414815,24.7685455 7.32375309,24.6225138 7.16693827,24.4772016 C3.10693827,20.7235415 0.126024691,16.3008696 0.126024691,11.8206482 C0.126024691,5.46791304 4.47888889,0.319399209 9.84925926,0.319399209 C14.1462716,0.319399209 17.6291358,4.43921739 17.6291358,9.52154941 C17.6291358,4.43921739 21.111284,0.320118577 25.4075802,0.320118577 C30.7793827,0.319399209 35.132963,5.46863241 35.132963,11.8206482 Z" id="Shape" fill="#FF525D" fill-rule="nonzero"></path>
                            <path d="M80.8505679,170.380055 C80.8505679,165.900553 83.8314815,161.477162 87.8914815,157.723502 C88.0482963,157.576751 88.2086914,157.432158 88.3698025,157.289004 C90.6203457,155.276933 93.1673333,153.467723 95.7064444,151.962087 C96.2119753,151.66283 96.7160741,151.374364 97.2194568,151.100285 C97.598963,150.891668 97.9777531,150.691684 98.3543951,150.498174 C98.730321,150.690964 99.1091111,150.891668 99.4893333,151.100285 C102.135852,152.547652 104.857556,154.351107 107.30358,156.39483 C107.65516,156.687613 107.99958,156.985431 108.338272,157.289004 C108.499383,157.432158 108.659778,157.57819 108.816593,157.723502 C112.876593,161.477162 115.857506,165.899834 115.857506,170.380055 C115.857506,176.732791 111.504642,181.881304 106.134272,181.881304 C101.837975,181.881304 98.3551111,177.761486 98.3551111,172.679874 C98.3551111,177.762206 94.872963,181.881304 90.5766667,181.881304 C85.2041481,181.882024 80.8505679,176.732791 80.8505679,170.380055 Z" id="Shape" fill="#FF525D" fill-rule="nonzero"></path>
                        </g>
                        <path d="M198.547332,264 L92.4533888,264 C83.9186529,264 77,257.097942 77,248.583676 L77,80.4163238 C77,71.9020585 83.9186529,65 92.4533888,65 L198.546611,65 C207.081347,65 214,71.9020585 214,80.4163238 L214,248.583676 C214.000721,257.097942 207.082068,264 198.547332,264 Z" id="Shape" fill="#F9EED7" fill-rule="nonzero"></path>
                        <path d="M214,108 L214,248.599353 C214,257.106001 207.079378,264 198.53988,264 L146,264 L146,123.400647 C146,114.893999 152.927836,108 161.46012,108 L214,108 Z" id="Shape" fill="#E8DBC4" fill-rule="nonzero"></path>
                        <path d="M152.254167,193.574069 L152.254167,211.438832 L169.779069,211.438832 C174.05905,211.438832 177.535545,214.924516 177.535545,219.21581 C177.535545,223.514316 174.05905,227 169.779069,227 L122.220211,227 C117.940231,227 114.463735,223.514316 114.463735,219.21581 C114.463735,214.924516 117.940231,211.438832 122.220211,211.438832 L139.745114,211.438832 L139.745114,193.574069 C136.253513,197.398729 131.583658,199.739828 126.447681,199.739828 C112.947399,199.739828 102,186.821231 102,170.883583 C102,159.644 109.493203,148.54722 119.69754,139.128732 C120.095327,138.760186 120.493113,138.39813 120.898812,138.036796 C126.559896,132.985331 132.964761,128.453148 139.347327,124.673924 C140.616216,123.920965 141.885104,123.198296 143.146799,122.513132 C144.100624,121.985916 145.053729,121.488991 146.00036,121 C146.218315,121.113232 146.435551,121.225744 146.653506,121.338976 C147.382182,121.715456 148.117332,122.107082 148.853201,122.513132 C155.505513,126.141619 162.346289,130.66659 168.495794,135.793063 C169.382002,136.530877 170.245192,137.275903 171.101188,138.036796 C171.506887,138.39813 171.904673,138.759464 172.30246,139.128732 C182.506797,148.546499 190,159.643279 190,170.883583 C190,186.821231 179.059794,199.739828 165.559512,199.739828 C160.416342,199.739107 155.745768,197.398008 152.254167,193.574069 Z" id="Shape" fill="#5C5E70" fill-rule="nonzero"></path>
                        <path d="M151.666264,192.783184 L151.666264,210.536184 L169.000165,210.536184 C173.233499,210.536184 176.672105,214.000061 176.672105,218.264508 C176.672105,222.536122 173.233499,226 169.000165,226 L146,226 L146,122.93011 C146,122.279334 146.036997,121.635725 146.125933,121 C146.846667,121.374125 147.573804,121.7633 148.301653,122.16681 C154.881463,125.772597 161.647683,130.269259 167.730165,135.363661 C168.606714,136.096859 169.460496,136.837224 170.307163,137.593357 C170.70844,137.952431 171.101891,138.311504 171.495342,138.678462 C181.588464,148.03731 189,159.064668 189,170.234652 C189,186.072593 178.179029,198.91037 164.825885,198.91037 C159.739481,198.909653 155.119811,196.5832 151.666264,192.783184 Z" id="Shape" fill="#494B5B" fill-rule="nonzero"></path>
                        <path d="M276.547332,315 L170.453389,315 C161.918653,315 155,308.097917 155,299.58362 L155,131.41638 C155,122.902083 161.918653,116 170.453389,116 L276.546611,116 C285.081347,116 292,122.902083 292,131.41638 L292,299.58434 C292.000721,308.097917 285.082068,315 276.547332,315 Z" id="Shape" fill="#F9EED7" fill-rule="nonzero"></path>
                        <path d="M291,159 L291,299.599424 C291,308.106032 284.079378,315 275.53988,315 L223,315 L223,174.400576 C223,165.893968 229.927836,159 238.46012,159 L291,159 Z" id="Shape" fill="#E8DBC4" fill-rule="nonzero"></path>
                        <path d="M112.44501,106.427895 C118.27382,106.427895 123,100.942976 123,94.176808 C123,89.4052866 119.764116,84.6939917 115.357233,80.6960948 C115.186311,80.5405095 115.013207,80.3856412 114.837921,80.2329239 C114.47062,79.9102815 114.096046,79.5919411 113.714926,79.2807705 C111.05945,77.1040103 108.104314,75.183213 105.231367,73.6416997 C104.818972,73.419435 104.407304,73.2057741 104,73 C103.591969,73.2057741 103.181028,73.419435 102.768633,73.6416997 C102.222409,73.9342288 101.674731,74.2403805 101.126325,74.5601549 C98.3704781,76.1640457 95.6051755,78.0898619 93.1620794,80.2336408 C92.9867932,80.3863582 92.8136891,80.5412265 92.6427669,80.6968118 C88.2358841,84.6947087 85,89.4067205 85,94.177525 C85,100.943693 89.7269073,106.428612 95.5557172,106.428612 C97.7740688,106.428612 99.7916778,105.434874 101.297248,103.810908 L101.297248,111.395153 L93.7330322,111.395153 C91.8827087,111.395153 90.3829575,112.874289 90.3829575,114.697577 C90.3829575,116.520864 91.8834361,118 93.7330322,118 L114.266968,118 C116.117291,118 117.617042,116.520864 117.617042,114.697577 C117.617042,112.874289 116.116564,111.395153 114.266968,111.395153 L106.701298,111.395153 L106.701298,103.810908 C108.209049,105.43344 110.226659,106.427895 112.44501,106.427895 Z" id="Shape" fill="#5C5E70" fill-rule="nonzero"></path>
                        <polygon id="Shape" fill="#FF525D" fill-rule="nonzero" points="270 216.000361 223.527028 262.47189 222.999639 263 176 216.000361 222.999639 169 224.182115 170.183198"></polygon>
                        <path d="M269,215.673126 L223,262 L223,174.436707 C223,172.897632 223.223519,171.403866 223.64842,170 L269,215.673126 Z" id="Shape" fill="#EF4152" fill-rule="nonzero"></path>
                        <rect id="Rectangle-path" fill="#FF525D" fill-rule="nonzero" transform="translate(180.000000, 143.000000) rotate(-135.000000) translate(-180.000000, -143.000000) " x="168" y="131" width="24" height="24"></rect>
                        <path d="M368,184.307034 C368,268.158533 311.943923,338.900708 235.312153,361 C233.236853,358.373822 232,355.056772 232,351.455033 L232,183.40624 C232,174.896503 238.886321,168 247.383495,168 L352.991222,168 C360.25226,168 366.328849,173.035245 367.947597,179.803782 C367.984925,181.296958 368,182.798042 368,184.307034 Z" id="Shape" fill="#F9EED7" fill-rule="nonzero"></path>
                        <g id="Group" stroke-width="1" fill="none" fill-rule="evenodd" transform="translate(237.000000, 171.000000)">
                            <path d="M87.9453595,106.571729 C100.102876,106.571729 109.95902,96.7275 109.95902,84.5846809 C109.95902,72.4411436 100.102876,62.597633 87.9453595,62.597633 C86.7008497,62.597633 85.4822222,62.7060638 84.2945098,62.9042553 C84.7165359,61.205266 84.9437255,59.4294415 84.9437255,57.6004787 C84.9437255,45.4569415 75.0875817,35.6134309 62.9300654,35.6134309 C50.772549,35.6134309 40.9164052,45.4576596 40.9164052,57.6004787 C40.9164052,59.4294415 41.1435948,61.205266 41.5656209,62.9042553 C40.3779085,62.7053457 39.16,62.597633 37.9147712,62.597633 C25.7572549,62.597633 15.9011111,72.4418617 15.9011111,84.5846809 C15.9011111,96.7275 25.7572549,106.571729 37.9147712,106.571729 C45.4134641,106.571729 52.0328758,102.824043 56.0079739,97.1044947 L56.0079739,118.314574 L45.6694118,118.314574 C41.1105229,118.314574 37.4143791,122.00625 37.4143791,126.559628 C37.4143791,131.113005 41.1105229,134.804681 45.6694118,134.804681 L80.190719,134.804681 C84.7496078,134.804681 88.4457516,131.113005 88.4457516,126.559628 C88.4457516,122.00625 84.7496078,118.314574 80.190719,118.314574 L69.8535948,118.314574 L69.8535948,97.1044947 C73.8279739,102.824043 80.4473856,106.571729 87.9453595,106.571729 Z" id="Shape" fill="#5C5E70" fill-rule="nonzero"></path>
                            <path d="M31.6181699,30.9157181 C36.8924183,30.9157181 41.1673203,26.645266 41.1673203,21.3781117 C41.1673203,16.1102394 36.8916993,11.8397872 31.6181699,11.8397872 C31.0789542,11.8397872 30.5505229,11.8871809 30.0350327,11.972633 C30.218366,11.2358777 30.3161438,10.4653723 30.3161438,9.6718883 C30.3161438,4.40401596 26.0405229,0.13356383 20.7669935,0.13356383 C15.4934641,0.13356383 11.2178431,4.40401596 11.2178431,9.6718883 C11.2178431,10.4646543 11.3163399,11.2351596 11.4989542,11.972633 C10.9834641,11.8864628 10.4550327,11.8397872 9.91581699,11.8397872 C4.64156863,11.8397872 0.366666667,16.1102394 0.366666667,21.3781117 C0.366666667,26.645266 4.64228758,30.9157181 9.91581699,30.9157181 C13.168366,30.9157181 16.0398693,29.2899734 17.7639216,26.8089894 L17.7639216,36.0098138 L13.279085,36.0098138 C11.3019608,36.0098138 9.69797386,37.6111436 9.69797386,39.5865957 C9.69797386,41.5620479 11.3012418,43.1633777 13.279085,43.1633777 L28.254902,43.1633777 C30.2320261,43.1633777 31.8360131,41.5613298 31.8360131,39.5865957 C31.8360131,37.6118617 30.2327451,36.0098138 28.254902,36.0098138 L23.7700654,36.0098138 L23.7700654,26.8089894 C25.4933987,29.2906915 28.364902,30.9157181 31.6181699,30.9157181 Z" id="Shape" fill="#5C5E70" fill-rule="nonzero"></path>
                        </g>
                        <g id="Group" stroke-width="1" fill="none" fill-rule="evenodd" transform="translate(66.000000, 26.000000)">
                            <path d="M130.897673,65.6637553 L80.6939356,65.6637553 C78.142797,65.6637553 76.0747525,63.5972152 76.0747525,61.0479325 L76.0747525,55.8044726 C76.0747525,53.2551899 78.142797,51.1886498 80.6939356,51.1886498 L130.897673,51.1886498 C133.448812,51.1886498 135.516856,53.2551899 135.516856,55.8044726 L135.516856,61.0479325 C135.516856,63.5972152 133.448812,65.6637553 130.897673,65.6637553 Z" id="Shape" fill="#FCF8F2" fill-rule="nonzero"></path>
                            <path d="M55.4696782,14.7491139 L5.26522277,14.7491139 C2.71408416,14.7491139 0.646039604,12.6825738 0.646039604,10.1332911 L0.646039604,4.88983122 C0.646039604,2.34054852 2.71408416,0.274008439 5.26522277,0.274008439 L55.4696782,0.274008439 C58.0208168,0.274008439 60.0888614,2.34054852 60.0888614,4.88983122 L60.0888614,10.1332911 C60.0888614,12.6825738 58.0208168,14.7491139 55.4696782,14.7491139 Z" id="Shape" fill="#FCF8F2" fill-rule="nonzero"></path>
                            <path d="M209.82146,117.07692 L159.617723,117.07692 C157.066584,117.07692 154.99854,115.01038 154.99854,112.461097 L154.99854,107.217637 C154.99854,104.668354 157.066584,102.601814 159.617723,102.601814 L209.82146,102.601814 C212.372599,102.601814 214.440644,104.668354 214.440644,107.217637 L214.440644,112.461097 C214.441361,115.01038 212.373317,117.07692 209.82146,117.07692 Z" id="Shape" fill="#FCF8F2" fill-rule="nonzero"></path>
                            <path d="M285.249455,169.987806 L235.045718,169.987806 C232.494579,169.987806 230.426535,167.921266 230.426535,165.371983 L230.426535,160.128523 C230.426535,157.579241 232.494579,155.5127 235.045718,155.5127 L285.249455,155.5127 C287.800594,155.5127 289.868639,157.579241 289.868639,160.128523 L289.868639,165.371983 C289.869356,167.920549 287.801312,169.987806 285.249455,169.987806 Z" id="Shape" fill="#FCF8F2" fill-rule="nonzero"></path>
                        </g>
                    </g>
                </g>
            </g>
        </g>
    </g>
</svg>