<?xml version="1.0" encoding="UTF-8"?>
<svg width="383px" height="414px" viewBox="0 0 383 414" version="1.1" xmlns="http://www.w3.org/2000/svg" xmlns:xlink="http://www.w3.org/1999/xlink">
    <!-- Generator: Sketch 49.1 (51147) - http://www.bohemiancoding.com/sketch -->
    <title>robot1</title>
    <desc>Created with Sketch.</desc>
    <defs></defs>
    <g id="Page-5" stroke="none" stroke-width="1" fill="none" fill-rule="evenodd">
        <g id="robot1" fill-rule="nonzero">
            <path d="M264.361257,304.117118 C262.900524,303.470929 260.465968,302.663193 257.382199,303.147834 C251.701571,303.955571 247.806283,306.540328 239.691099,309.286632 C231.575916,311.871389 217.293194,314.294598 191,314.294598 C164.706806,314.294598 150.424084,311.871389 142.308901,309.286632 C134.193717,306.701875 130.298429,303.955571 124.617801,303.147834 C121.534032,302.663193 119.099476,303.470929 117.638743,304.117118 C93.1308904,320.110302 74.9528796,344.019302 67,371.966985 C101.570681,397.653006 144.581152,413 191,413 C237.581152,413 280.429319,397.814554 315,371.966985 C307.047121,344.180849 288.86911,320.271848 264.361257,304.117118 Z" id="XMLID_18_" fill="#FFFFFF"></path>
            <path d="M67,374.049871 C72.5555555,378.306081 78.4285714,382.398591 84.4603176,386 C86.8412696,376.014276 90.0158728,363.900448 94.4603176,353.096222 C101.761905,334.925478 119.380952,313.808128 127,304.968306 C125.888889,304.640906 124.619048,304.313505 123.349206,304.149805 C120.333334,303.658704 117.952381,304.477205 116.52381,305.132007 C92.5555552,321.665746 74.7777778,345.893404 67,374.049871 Z" id="XMLID_27_" fill="#5F5F5F" opacity="0.1"></path>
            <path d="M241.596027,407.789004 C245.50596,403.702823 251.859602,394.876671 251.859602,381.800891 C251.859602,367.907875 252.837086,313.479941 253,304.163447 C249.578808,305.471025 245.994702,307.105498 240.618543,308.903417 C232.472848,311.518574 218.136424,313.970283 191.744371,313.970283 C165.352318,313.970283 151.015894,311.518574 142.870199,308.903417 C137.168212,307.105498 133.584106,305.144131 130,304 C130.162914,312.989599 131.140398,367.907875 131.140398,381.964338 C131.140398,395.040119 137.49404,403.539376 141.403973,407.789004 C157.53245,411.875186 174.475496,414 192.070199,414 C208.850331,413.836553 225.46755,411.711739 241.596027,407.789004 Z" id="XMLID_26_" fill="#80B9F9"></path>
            <path d="M274.313003,0 L252.575604,0 L252.575604,7.94509044 C252.575604,21.8895349 241.220246,33.2396641 227.269377,33.2396641 L155.568403,33.2396641 C141.617535,33.2396641 130.262177,21.8895349 130.262177,7.94509044 L130.262177,0 L108.524778,0 C48.828039,0 0,48.8055556 0,108.474806 L0,142.525194 C0,202.194444 48.828039,251 108.524778,251 L274.475222,251 C334.171961,251 383,202.194444 383,142.525194 L383,108.474806 C382.675561,48.8055556 333.847522,0 274.313003,0 Z" id="XMLID_166_" fill="#FFFFFF"></path>
            <path d="M155.448276,33 L227.551724,33 C241.580902,33 253,21.7317073 253,7.88780488 L253,0 L130,0 L130,7.88780488 C130,21.7317073 141.419098,33 155.448276,33 Z" id="XMLID_165_" fill="#4E5173"></path>
            <path d="M29.2579506,142.525194 L29.2579506,108.474806 C29.2579506,51.3998708 74.1201414,4.21576228 130.522968,0.324289406 L130.522968,0 L108.742049,0 C48.9257951,0 0,48.8055556 0,108.474806 L0,142.525194 C0,202.194444 48.9257951,251 108.742049,251 L138,251 C78.1837456,251 29.2579506,202.194444 29.2579506,142.525194 Z" id="XMLID_53_" fill="#5F5F5F" opacity="0.1"></path>
            <ellipse id="XMLID_2_" fill="#FFFFFF" cx="161.5" cy="15" rx="7.5" ry="7"></ellipse>
            <ellipse id="XMLID_5_" fill="#FFFFFF" cx="190.5" cy="15" rx="7.5" ry="7"></ellipse>
            <ellipse id="XMLID_6_" fill="#FFFFFF" cx="220.5" cy="15" rx="7.5" ry="7"></ellipse>
            <path d="M142.180672,310 C150.233894,312.580645 164.407563,315 190.5,315 C216.592437,315 230.766106,312.580645 238.819328,310 C242.523809,308.709677 245.422969,307.580645 248,306.451613 C241.879552,296.774193 233.182073,288.709677 222.712885,283.225807 L222.712885,250 L158.287115,250 L158.287115,283.225807 C147.817927,288.709677 139.120448,296.612904 133,306.451613 C135.577031,307.580645 138.476191,308.709677 142.180672,310 Z" id="XMLID_13_" fill="#6E7093"></path>
            <path d="M160.922706,310 C157.144928,308.709677 154.188406,307.580645 151.560386,306.451613 C157.801932,296.774193 166.671498,288.709677 177.347826,283.225807 L177.347826,250 L158.787439,250 L158.787439,283.225807 C148.111111,288.709677 139.241546,296.612904 133,306.451613 C135.628019,307.419355 138.42029,308.709677 142.362319,310 C150.574879,312.580645 165.028985,315 191.637681,315 C194.922706,315 198.043478,315 201,314.838709 C180.140097,314.354839 168.149759,312.258065 160.922706,310 Z" id="XMLID_29_" fill="#000000" opacity="0.05"></path>
            <path d="M300.619335,200 L80.3806647,200 C66.8900302,200 56,189.039237 56,175.821845 L56,72.1781548 C56,58.7995758 67.052568,48 80.3806647,48 L300.619335,48 C314.10997,48 325,58.9607635 325,72.1781548 L325,175.821845 C325,189.200424 313.947432,200 300.619335,200 Z" id="XMLID_7_" fill="#6E7093"></path>
            <path d="M79.7410072,200 L100,200 C86.8633096,200 76.2589928,189.039237 76.2589928,175.821845 L76.2589928,72.1781548 C76.2589928,58.7995758 87.0215824,48 100,48 L79.7410072,48 C66.6043166,48 56,58.9607635 56,72.1781548 L56,175.821845 C56,189.200424 66.7625899,200 79.7410072,200 Z" id="XMLID_28_" fill="#000000" opacity="0.05"></path>
            <path d="M195.568627,357 C192.745098,357 190.862745,358.894737 189.921569,360.789473 C188.980392,359.052631 187.098039,357 184.27451,357 C180.666666,357 178,360 178,363.789474 C178,364.736842 178.156862,365.684211 178.627451,366.631579 C178.941177,367.263158 179.098039,367.736842 179.411765,368.052632 C179.411765,368.210526 179.568627,368.210526 179.568627,368.368421 C179.882353,368.842105 180.039216,369 180.039216,369 C181.607843,370.894737 183.803922,372.947369 186.627451,375.31579 C187.568627,376.105263 188.509804,376.894737 189.45098,377.842105 C189.607843,378 189.764706,378 189.921569,378 C190.078431,378 190.235294,378 190.392157,377.842105 C191.333334,376.894737 192.431373,376.105263 193.215686,375.31579 C196.352941,372.631579 199.019608,370.421052 200.431373,368.210526 C200.431373,368.210526 200.431373,368.052632 200.588235,368.052632 C200.901961,367.263158 201.058823,367.578947 201.372549,366.631579 C201.686274,365.684211 202,364.736842 202,363.789474 C201.843138,359.842105 199.17647,357 195.568627,357 Z" id="XMLID_8_" fill="#FFFFFF"></path>
            <path d="M134.5,86 C112.127016,86 94,104.127016 94,126.5 C94,148.872984 112.127016,167 134.5,167 C156.872984,167 175,148.872984 175,126.5 C175,103.963709 156.872984,86 134.5,86 Z M134.5,150.832662 C120.945564,150.832662 110.004033,139.891129 110.004033,126.336693 C110.004033,112.782258 120.945564,101.840726 134.5,101.840726 C148.054436,101.840726 158.995967,112.782258 158.995967,126.336693 C158.995967,139.891129 148.054436,150.832662 134.5,150.832662 Z" id="XMLID_23_" fill="#FFFFFF"></path>
            <path d="M248.5,86 C226.127016,86 208,104.127016 208,126.5 C208,148.872984 226.127016,167 248.5,167 C270.872984,167 289,148.872984 289,126.5 C288.836693,103.963709 270.709678,86 248.5,86 Z M248.5,150.832662 C234.945564,150.832662 224.004033,139.891129 224.004033,126.336693 C224.004033,112.782258 234.945564,101.840726 248.5,101.840726 C262.054436,101.840726 272.995967,112.782258 272.995967,126.336693 C272.995967,139.891129 261.891129,150.832662 248.5,150.832662 Z" id="XMLID_24_" fill="#FFFFFF"></path>
            <path d="M191,340 C176.610063,340 165,351.610063 165,366 C165,380.389937 176.610063,392 191,392 C205.389937,392 217,380.389937 217,366 C217,351.610063 205.389937,340 191,340 Z M191,385.622641 C180.207547,385.622641 171.377359,376.792453 171.377359,366 C171.377359,355.207547 180.207547,346.377359 191,346.377359 C201.792453,346.377359 210.622641,355.207547 210.622641,366 C210.622641,376.792453 201.792453,385.622641 191,385.622641 Z" id="XMLID_46_" fill="#FFFFFF"></path>
        </g>
    </g>
</svg>