<?xml version="1.0" encoding="UTF-8"?>
<svg width="468px" height="512px" viewBox="0 0 468 512" version="1.1" xmlns="http://www.w3.org/2000/svg" xmlns:xlink="http://www.w3.org/1999/xlink">
    <!-- Generator: Sketch 49.1 (51147) - http://www.bohemiancoding.com/sketch -->
    <title>monster</title>
    <desc>Created with Sketch.</desc>
    <defs></defs>
    <g id="login" stroke="none" stroke-width="1" fill="none" fill-rule="evenodd">
        <g id="monster" fill-rule="nonzero">
            <path d="M463.425781,86.121094 L463.425781,73.839844 C463.425781,69.351562 459.789062,65.714844 455.300781,65.714844 C451.769531,65.714844 448.773438,67.96875 447.648438,71.117188 C446.527344,67.96875 443.53125,65.714844 440,65.714844 C436.472656,65.714844 433.472656,67.96875 432.351562,71.113281 C431.230469,67.96875 428.234375,65.714844 424.703125,65.714844 C420.214844,65.714844 416.574219,69.351562 416.574219,73.839844 L416.574219,87.160156 C414.191406,91.234375 412.820312,95.96875 412.820312,101.023438 L412.820312,261.214844 L392,261.214844 L392,335.417969 C392.417969,335.773438 392.941406,336 393.515625,336 C394.445312,336 395.289062,335.453125 395.667969,334.605469 L403.765625,316.574219 L411.863281,334.605469 C412.242188,335.453125 413.085938,336 414.015625,336 C414.945312,336 415.789062,335.453125 416.167969,334.605469 L424.265625,316.574219 L432.363281,334.605469 C432.742188,335.453125 433.585938,336 434.515625,336 C435.445312,336 436.289062,335.453125 436.667969,334.605469 C436.667969,334.605469 467.820312,305.710938 467.820312,263.710938 L467.820312,101.023438 C467.820312,95.53125 466.203125,90.414062 463.425781,86.121094 Z" id="Shape" fill="#37C47A"></path>
            <path d="M76,261.214844 L55.179688,261.214844 L55.179688,101.023438 C55.179688,95.96875 53.808594,91.234375 51.425781,87.160156 L51.425781,73.839844 C51.425781,69.351562 47.789062,65.714844 43.300781,65.714844 C39.769531,65.714844 36.773438,67.96875 35.648438,71.117188 C34.527344,67.96875 31.53125,65.714844 28,65.714844 C24.472656,65.714844 21.472656,67.96875 20.351562,71.113281 C19.230469,67.96875 16.234375,65.714844 12.703125,65.714844 C8.214844,65.714844 4.574219,69.351562 4.574219,73.839844 L4.574219,86.121094 C1.800781,90.417969 0.183594,95.53125 0.183594,101.023438 L0.183594,263.714844 C0.183594,304.714844 31.332031,334.605469 31.332031,334.605469 C31.714844,335.453125 32.558594,336 33.484375,336 C34.414062,336 35.257812,335.453125 35.640625,334.605469 L43.734375,316.578125 L51.832031,334.605469 C52.214844,335.453125 53.058594,336 53.984375,336 C54.914062,336 55.757812,335.453125 56.140625,334.605469 L64.234375,316.578125 L72.332031,334.605469 C72.714844,335.453125 73.558594,336 74.484375,336 C75.058594,336 75.582031,335.773438 76.003906,335.417969 L76.003906,261.214844 L76,261.214844 Z" id="Shape" fill="#37C47A"></path>
            <path d="M22.359375,134.605469 C16.871094,132.375 13,127 13,120.710938 L13,104.710938 C13,97.585938 17.972656,91.632812 24.636719,90.105469 C25.238281,88.714844 25.941406,87.378906 26.753906,86.121094 L26.753906,73.839844 C26.753906,70.589844 28.667969,67.789062 31.429688,66.488281 C30.386719,66 29.230469,65.714844 28,65.714844 C24.46875,65.714844 21.472656,67.96875 20.351562,71.113281 C19.230469,67.96875 16.230469,65.714844 12.703125,65.714844 C8.214844,65.714844 4.574219,69.351562 4.574219,73.839844 L4.574219,86.121094 C1.796875,90.417969 0.179688,95.53125 0.179688,101.023438 L0.179688,263.714844 C0.179688,304.714844 31.332031,334.605469 31.332031,334.605469 C31.714844,335.453125 32.554688,336 33.484375,336 C34.414062,336 35.257812,335.453125 35.636719,334.605469 L41.933594,320.589844 C33.070312,307.972656 22.359375,287.757812 22.359375,263.714844 L22.359375,134.605469 Z" id="Shape" fill="#2BB381"></path>
            <path d="M190.492188,62.957031 L163.546875,2.953125 C162.738281,1.15625 160.953125,0 158.984375,0 C157.015625,0 155.230469,1.15625 154.421875,2.953125 L137.15625,41.398438 C143.144531,46.066406 147,53.339844 147,61.5 C147,65.320312 146.171875,69 144.542969,72.429688 L143.695312,74.210938 L145.632812,73.84375 C150.925781,72.835938 156.339844,72.328125 161.726562,72.328125 L186.871094,72.328125 C187.019531,68.769531 188.347656,65.515625 190.492188,62.957031 Z" id="Shape" fill="#FFD00D"></path>
            <path d="M154.421875,2.953125 L141.828125,31 L176.140625,31 L163.546875,2.953125 C162.738281,1.15625 160.953125,0 158.984375,0 C157.015625,0 155.230469,1.15625 154.421875,2.953125 Z" id="Shape" fill="#FFAF10"></path>
            <path d="M331.386719,42.613281 L313.578125,2.949219 C312.769531,1.15625 310.984375,0 309.015625,0 C307.046875,0 305.261719,1.15625 304.453125,2.953125 L277.511719,62.957031 C279.65625,65.515625 280.980469,68.773438 281.128906,72.328125 L306.273438,72.328125 C312.421875,72.328125 318.574219,72.988281 324.566406,74.289062 L326.605469,74.734375 L325.675781,72.867188 C323.898438,69.3125 323,65.488281 323,61.5 C323,54.019531 326.238281,47.28125 331.386719,42.613281 Z" id="Shape" fill="#FFD00D"></path>
            <path d="M304.453125,2.953125 L291.859375,31 L326.171875,31 L313.578125,2.953125 C312.769531,1.15625 310.984375,0 309.015625,0 C307.046875,0 305.261719,1.15625 304.453125,2.953125 Z" id="Shape" fill="#FFAF10"></path>
            <path d="M355.917969,86.941406 C366.941406,83.730469 375,73.558594 375,61.5 C375,46.863281 363.136719,35 348.5,35 C333.863281,35 322,46.863281 322,61.5 C322,65.746094 323.003906,69.757812 324.777344,73.3125 C318.816406,72.015625 312.625,71.328125 306.273438,71.328125 L281.070312,71.328125 C281.128906,71.871094 281.160156,72.421875 281.160156,72.984375 L281.160156,115.015625 C281.160156,123.640625 274.148438,130.652344 265.523438,130.652344 C258.804688,130.652344 252.851562,126.371094 250.710938,119.992188 L249.761719,117.171875 L248.8125,119.992188 C246.671875,126.371094 240.71875,130.652344 234,130.652344 C227.28125,130.652344 221.328125,126.371094 219.1875,119.992188 L218.238281,117.171875 L217.289062,119.992188 C215.148438,126.371094 209.195312,130.652344 202.476562,130.652344 C193.855469,130.652344 186.839844,123.640625 186.839844,115.015625 L186.839844,72.984375 C186.839844,72.421875 186.871094,71.871094 186.929688,71.328125 L161.726562,71.328125 C113.828125,71.328125 75,110.15625 75,158.054688 L75,453.382812 C117.796875,489.925781 173.316406,512 234,512 C294.683594,512 350.203125,489.925781 393,453.382812 L393,158.054688 C393,128.621094 378.335938,102.617188 355.917969,86.941406 Z" id="Shape" fill="#02AF8E"></path>
            <path d="M186.929688,71.328125 L161.726562,71.328125 C156.160156,71.328125 150.71875,71.859375 145.445312,72.859375 C147.082031,69.417969 148,65.566406 148,61.5 C148,46.863281 136.136719,35 121.5,35 C106.863281,35 95,46.863281 95,61.5 C95,73.054688 102.398438,82.878906 112.714844,86.503906 C89.941406,102.132812 75,128.347656 75,158.054688 L75,453.382812 C83.214844,460.398438 91.902344,466.871094 101,472.765625 L101,158.054688 C101,110.425781 139.398438,71.769531 186.925781,71.339844 C186.925781,71.335938 186.929688,71.332031 186.929688,71.328125 Z" id="Shape" fill="#159E97"></path>
            <path d="M292.738281,104.144531 L281.160156,104.144531 L281.160156,115.015625 C281.160156,123.640625 274.148438,130.65625 265.523438,130.65625 C258.804688,130.65625 252.851562,126.371094 250.710938,119.996094 L249.761719,117.175781 L248.8125,119.996094 C246.671875,126.371094 240.71875,130.65625 234,130.65625 C227.28125,130.65625 221.328125,126.371094 219.1875,119.996094 L218.238281,117.175781 L217.289062,119.996094 C215.148438,126.371094 209.195312,130.65625 202.476562,130.65625 C193.855469,130.65625 186.839844,123.640625 186.839844,115.015625 L186.839844,104.144531 L175.261719,104.144531 C136.984375,104.144531 105.847656,135.285156 105.847656,173.5625 C105.847656,203.15625 124.597656,229.519531 152.503906,239.160156 C153.078125,239.359375 153.679688,239.457031 154.273438,239.457031 C155.121094,239.457031 155.964844,239.257812 156.734375,238.867188 C158.046875,238.199219 159.027344,237.027344 159.460938,235.621094 C165.066406,217.316406 181.726562,205.015625 200.917969,205.015625 L267.082031,205.015625 C286.273438,205.015625 302.933594,217.316406 308.539062,235.621094 C308.972656,237.027344 309.953125,238.199219 311.265625,238.867188 C312.035156,239.257812 312.878906,239.457031 313.726562,239.457031 C314.324219,239.457031 314.921875,239.355469 315.496094,239.160156 C343.402344,229.519531 362.152344,203.15625 362.152344,173.5625 C362.152344,135.285156 331.015625,104.144531 292.738281,104.144531 Z" id="Shape" fill="#FFFFFF"></path>
            <path d="M126.691406,173.5625 C126.691406,138.429688 152.929688,109.328125 186.835938,104.78125 L186.835938,104.144531 L175.261719,104.144531 C136.984375,104.144531 105.84375,135.285156 105.84375,173.5625 C105.84375,203.15625 124.59375,229.519531 152.503906,239.160156 C153.078125,239.359375 153.675781,239.457031 154.273438,239.457031 C155.121094,239.457031 155.964844,239.257812 156.730469,238.867188 C158.042969,238.199219 159.027344,237.027344 159.460938,235.621094 C159.726562,234.757812 160.023438,233.910156 160.335938,233.074219 C139.769531,220.722656 126.691406,198.273438 126.691406,173.5625 Z" id="Shape" fill="#EEF6FF"></path>
            <path d="M156.105469,182.734375 C139.660156,173.242188 134.007812,152.140625 143.503906,135.691406 C145.554688,132.132812 150.109375,130.914062 153.667969,132.96875 L212.386719,166.871094 C215.945312,168.925781 217.164062,173.476562 215.109375,177.035156 C205.613281,193.480469 184.511719,199.136719 168.066406,189.640625 L156.105469,182.734375 Z" id="Shape" fill="#EA2A3D"></path>
            <path d="M312.140625,182.734375 C328.585938,173.242188 334.238281,152.140625 324.742188,135.691406 C322.6875,132.132812 318.136719,130.914062 314.578125,132.96875 L255.859375,166.871094 C252.300781,168.925781 251.082031,173.476562 253.136719,177.035156 C262.632812,193.480469 283.734375,199.136719 300.179688,189.640625 L312.140625,182.734375 Z" id="Shape" fill="#EA2A3D"></path>
            <path d="M294.195312,252.738281 C294.195312,267.714844 282.054688,279.855469 267.082031,279.855469 L200.917969,279.855469 C185.945312,279.855469 173.804688,267.714844 173.804688,252.738281 L173.804688,248.402344 C173.804688,233.425781 185.945312,221.285156 200.917969,221.285156 L267.082031,221.285156 C282.058594,221.285156 294.195312,233.425781 294.195312,248.402344 L294.195312,252.738281 Z" id="Shape" fill="#FF9F60"></path>
            <path d="M187.605469,252.738281 L187.605469,248.402344 C187.605469,247.128906 187.699219,245.882812 187.867188,244.65625 C187.59375,244.417969 187.347656,244.136719 187.195312,243.792969 L181.003906,230.007812 C176.535156,234.839844 173.804688,241.300781 173.804688,248.402344 L173.804688,252.738281 C173.804688,267.714844 185.945312,279.855469 200.917969,279.855469 L202.546875,279.855469 C202.546875,278.910156 202.640625,277.992188 202.777344,277.085938 C193.789062,272.667969 187.605469,263.429688 187.605469,252.738281 Z" id="Shape" fill="#FF8D4D"></path>
            <path d="M267.082031,221.285156 L200.917969,221.285156 C193.046875,221.285156 185.957031,224.644531 181.003906,230.003906 L187.195312,243.792969 C187.605469,244.710938 188.519531,245.304688 189.53125,245.304688 C190.539062,245.300781 191.453125,244.710938 191.863281,243.792969 L200.648438,224.234375 L209.429688,243.792969 C209.84375,244.710938 210.757812,245.304688 211.765625,245.304688 C212.773438,245.300781 213.6875,244.710938 214.101562,243.792969 L222.882812,224.234375 L231.664062,243.792969 C232.078125,244.710938 232.992188,245.304688 234,245.304688 C235.007812,245.300781 235.921875,244.710938 236.335938,243.792969 L245.117188,224.234375 L253.898438,243.792969 C254.3125,244.710938 255.226562,245.304688 256.234375,245.304688 C257.242188,245.300781 258.15625,244.710938 258.570312,243.792969 L267.351562,224.234375 L276.132812,243.792969 C276.546875,244.710938 277.460938,245.304688 278.46875,245.304688 C279.476562,245.300781 280.390625,244.710938 280.804688,243.792969 L286.996094,230.003906 C282.042969,224.644531 274.953125,221.285156 267.082031,221.285156 Z" id="Shape" fill="#FFD782"></path>
            <path d="M247.015625,261.417969 C241.933594,261.417969 237.335938,263.472656 234,266.796875 C230.664062,263.472656 226.066406,261.417969 220.984375,261.417969 C210.800781,261.417969 202.546875,269.671875 202.546875,279.855469 L265.453125,279.855469 C265.453125,269.671875 257.199219,261.417969 247.015625,261.417969 Z" id="Shape" fill="#FFD782"></path>
            <path d="M265.523438,56.347656 C258.191406,56.347656 209.808594,56.347656 202.476562,56.347656 C193.285156,56.347656 185.835938,63.796875 185.835938,72.984375 L185.835938,115.015625 C185.835938,124.207031 193.285156,131.65625 202.476562,131.65625 C209.808594,131.65625 216.023438,126.902344 218.238281,120.3125 C220.449219,126.902344 226.664062,131.65625 234,131.65625 C241.335938,131.65625 247.550781,126.902344 249.761719,120.3125 C251.976562,126.902344 258.191406,131.65625 265.527344,131.65625 C274.714844,131.65625 282.164062,124.207031 282.164062,115.015625 L282.164062,72.984375 C282.160156,63.792969 274.714844,56.347656 265.523438,56.347656 Z" id="Shape" fill="#EF8318"></path>
            <path d="M206.675781,115.015625 L206.675781,72.984375 C206.675781,63.792969 214.125,56.34375 223.316406,56.34375 C213.523438,56.34375 205.191406,56.34375 202.476562,56.34375 C193.289062,56.34375 185.839844,63.792969 185.839844,72.984375 L185.839844,115.015625 C185.839844,124.203125 193.285156,131.652344 202.476562,131.652344 C206.421875,131.652344 210.039062,130.269531 212.886719,127.972656 C209.101562,124.921875 206.675781,120.253906 206.675781,115.015625 Z" id="Shape" fill="#DB722C"></path>
            <g id="Group" transform="translate(110.000000, 50.000000)" fill="#37C47A">
                <path d="M11.5,23 C5.160156,23 0,17.839844 0,11.5 C0,5.160156 5.160156,0 11.5,0 C17.839844,0 23,5.160156 23,11.5 C23,17.839844 17.839844,23 11.5,23 Z" id="Shape"></path>
                <path d="M238.5,23 C232.160156,23 227,17.839844 227,11.5 C227,5.160156 232.160156,0 238.5,0 C244.839844,0 250,5.160156 250,11.5 C250,17.839844 244.839844,23 238.5,23 Z" id="Shape"></path>
                <path d="M23.253906,287.246094 C17.117188,287.246094 12.128906,282.257812 12.128906,276.125 L12.128906,266.855469 C12.128906,265.828125 12.960938,265 13.980469,265 L32.523438,265 C33.546875,265 34.378906,265.828125 34.378906,266.855469 L34.378906,276.125 C34.375,282.257812 29.386719,287.246094 23.253906,287.246094 Z" id="Shape"></path>
            </g>
            <path d="M184.253906,337.246094 C178.117188,337.246094 173.128906,332.257812 173.128906,326.125 L173.128906,316.855469 C173.128906,315.828125 173.960938,315 174.980469,315 L193.523438,315 C194.546875,315 195.378906,315.828125 195.378906,316.855469 L195.378906,326.125 C195.375,332.257812 190.386719,337.246094 184.253906,337.246094 Z" id="Shape" fill="#60D882"></path>
            <path d="M235.253906,337.246094 C229.117188,337.246094 224.128906,332.257812 224.128906,326.125 L224.128906,316.855469 C224.128906,315.828125 224.960938,315 225.980469,315 L244.523438,315 C245.546875,315 246.378906,315.828125 246.378906,316.855469 L246.378906,326.125 C246.375,332.257812 241.386719,337.246094 235.253906,337.246094 Z" id="Shape" fill="#37C47A"></path>
            <path d="M286.253906,337.246094 C280.117188,337.246094 275.128906,332.257812 275.128906,326.125 L275.128906,316.855469 C275.128906,315.828125 275.960938,315 276.980469,315 L295.523438,315 C296.546875,315 297.378906,315.828125 297.378906,316.855469 L297.378906,326.125 C297.375,332.257812 292.386719,337.246094 286.253906,337.246094 Z" id="Shape" fill="#60D882"></path>
            <path d="M337.253906,337.246094 C331.117188,337.246094 326.128906,332.257812 326.128906,326.125 L326.128906,316.855469 C326.128906,315.828125 326.960938,315 327.980469,315 L346.523438,315 C347.546875,315 348.378906,315.828125 348.378906,316.855469 L348.378906,326.125 C348.375,332.257812 343.386719,337.246094 337.253906,337.246094 Z" id="Shape" fill="#37C47A"></path>
            <path d="M133.253906,448.246094 C127.117188,448.246094 122.128906,443.257812 122.128906,437.125 L122.128906,427.855469 C122.128906,426.828125 122.960938,426 123.980469,426 L142.523438,426 C143.546875,426 144.378906,426.828125 144.378906,427.855469 L144.378906,437.125 C144.375,443.257812 139.386719,448.246094 133.253906,448.246094 Z" id="Shape" fill="#37C47A"></path>
            <path d="M184.253906,448.246094 C178.117188,448.246094 173.128906,443.257812 173.128906,437.125 L173.128906,427.855469 C173.128906,426.828125 173.960938,426 174.980469,426 L193.523438,426 C194.546875,426 195.378906,426.828125 195.378906,427.855469 L195.378906,437.125 C195.375,443.257812 190.386719,448.246094 184.253906,448.246094 Z" id="Shape" fill="#60D882"></path>
            <path d="M235.253906,448.246094 C229.117188,448.246094 224.128906,443.257812 224.128906,437.125 L224.128906,427.855469 C224.128906,426.828125 224.960938,426 225.980469,426 L244.523438,426 C245.546875,426 246.378906,426.828125 246.378906,427.855469 L246.378906,437.125 C246.375,443.257812 241.386719,448.246094 235.253906,448.246094 Z" id="Shape" fill="#37C47A"></path>
            <path d="M286.253906,448.246094 C280.117188,448.246094 275.128906,443.257812 275.128906,437.125 L275.128906,427.855469 C275.128906,426.828125 275.960938,426 276.980469,426 L295.523438,426 C296.546875,426 297.378906,426.828125 297.378906,427.855469 L297.378906,437.125 C297.375,443.257812 292.386719,448.246094 286.253906,448.246094 Z" id="Shape" fill="#60D882"></path>
            <path d="M337.253906,448.246094 C331.117188,448.246094 326.128906,443.257812 326.128906,437.125 L326.128906,427.855469 C326.128906,426.828125 326.960938,426 327.980469,426 L346.523438,426 C347.546875,426 348.378906,426.828125 348.378906,427.855469 L348.378906,437.125 C348.375,443.257812 343.386719,448.246094 337.253906,448.246094 Z" id="Shape" fill="#37C47A"></path>
            <path d="M106.5,392 C100.367188,392 95.375,387.011719 95.375,380.875 L95.375,371.605469 C95.375,370.582031 96.207031,369.753906 97.230469,369.753906 L115.769531,369.753906 C116.792969,369.753906 117.625,370.582031 117.625,371.605469 L117.625,380.875 C117.625,387.011719 112.636719,392 106.5,392 Z" id="Shape" fill="#37C47A"></path>
            <path d="M157.5,392 C151.367188,392 146.375,387.011719 146.375,380.875 L146.375,371.605469 C146.375,370.582031 147.207031,369.753906 148.230469,369.753906 L166.769531,369.753906 C167.792969,369.753906 168.625,370.582031 168.625,371.605469 L168.625,380.875 C168.625,387.011719 163.636719,392 157.5,392 Z" id="Shape" fill="#60D882"></path>
            <path d="M208.5,392 C202.367188,392 197.375,387.011719 197.375,380.875 L197.375,371.605469 C197.375,370.582031 198.207031,369.753906 199.230469,369.753906 L217.769531,369.753906 C218.792969,369.753906 219.625,370.582031 219.625,371.605469 L219.625,380.875 C219.625,387.011719 214.636719,392 208.5,392 Z" id="Shape" fill="#37C47A"></path>
            <path d="M259.5,392 C253.367188,392 248.375,387.011719 248.375,380.875 L248.375,371.605469 C248.375,370.582031 249.207031,369.753906 250.230469,369.753906 L268.769531,369.753906 C269.792969,369.753906 270.621094,370.582031 270.621094,371.605469 L270.621094,380.875 C270.625,387.011719 265.636719,392 259.5,392 Z" id="Shape" fill="#60D882"></path>
            <path d="M310.5,392 C304.367188,392 299.375,387.011719 299.375,380.875 L299.375,371.605469 C299.375,370.582031 300.207031,369.753906 301.230469,369.753906 L319.769531,369.753906 C320.792969,369.753906 321.621094,370.582031 321.621094,371.605469 L321.621094,380.875 C321.625,387.011719 316.636719,392 310.5,392 Z" id="Shape" fill="#37C47A"></path>
            <path d="M361.5,392 C355.367188,392 350.375,387.011719 350.375,380.875 L350.375,371.605469 C350.375,370.582031 351.207031,369.753906 352.230469,369.753906 L370.769531,369.753906 C371.792969,369.753906 372.621094,370.582031 372.621094,371.605469 L372.621094,380.875 C372.625,387.011719 367.636719,392 361.5,392 Z" id="Shape" fill="#60D882"></path>
            <path d="M455,120.714844 C455,128.996094 448.285156,135.714844 440,135.714844 C431.714844,135.714844 425,128.996094 425,120.714844 L425,104.714844 C425,96.429688 431.714844,89.714844 440,89.714844 C448.285156,89.714844 455,96.429688 455,104.714844 L455,120.714844 Z" id="Shape" fill="#02AF8E"></path>
            <path d="M435,120.714844 L435,104.714844 C435,98.183594 439.179688,92.644531 445,90.585938 C443.433594,90.03125 441.757812,89.714844 440,89.714844 C431.714844,89.714844 425,96.429688 425,104.714844 L425,120.714844 C425,128.996094 431.714844,135.714844 440,135.714844 C441.757812,135.714844 443.433594,135.394531 445,134.839844 C439.179688,132.78125 435,127.242188 435,120.714844 Z" id="Shape" fill="#159E97"></path>
            <path d="M43,120.714844 C43,128.996094 36.285156,135.714844 28,135.714844 C19.714844,135.714844 13,128.996094 13,120.714844 L13,104.714844 C13,96.429688 19.714844,89.714844 28,89.714844 C36.285156,89.714844 43,96.429688 43,104.714844 L43,120.714844 Z" id="Shape" fill="#02AF8E"></path>
            <path d="M23,120.714844 L23,104.714844 C23,98.183594 27.179688,92.644531 33,90.585938 C31.433594,90.03125 29.757812,89.714844 28,89.714844 C19.714844,89.714844 13,96.429688 13,104.714844 L13,120.714844 C13,128.996094 19.714844,135.714844 28,135.714844 C29.757812,135.714844 31.433594,135.394531 33,134.839844 C27.179688,132.78125 23,127.242188 23,120.714844 Z" id="Shape" fill="#159E97"></path>
            <path d="M161.25,159.5 C161.25,168.613281 168.636719,176 177.75,176 C186.863281,176 194.25,168.613281 194.25,159.5 C194.25,158.371094 194.136719,157.273438 193.921875,156.210938 L172.527344,143.855469 C165.976562,146.042969 161.25,152.214844 161.25,159.5 Z" id="Shape" fill="#A00026"></path>
            <path d="M273.75,159.5 C273.75,168.613281 281.136719,176 290.25,176 C299.363281,176 306.75,168.613281 306.75,159.5 C306.75,152.269531 302.09375,146.144531 295.621094,143.910156 L274.058594,156.363281 C273.859375,157.378906 273.75,158.425781 273.75,159.5 Z" id="Shape" fill="#A00026"></path>
        </g>
    </g>
</svg>