<?xml version="1.0" encoding="UTF-8"?>
<svg width="475px" height="516px" viewBox="0 0 475 516" version="1.1" xmlns="http://www.w3.org/2000/svg" xmlns:xlink="http://www.w3.org/1999/xlink">
    <!-- Generator: Sketch 49.1 (51147) - http://www.bohemiancoding.com/sketch -->
    <title>000-robot</title>
    <desc>Created with Sketch.</desc>
    <defs></defs>
    <g id="Page-5" stroke="none" stroke-width="1" fill="none" fill-rule="evenodd">
        <g id="000-robot" fill-rule="nonzero">
            <path d="M328.109948,379.39132 C326.295812,378.586521 323.272251,377.580522 319.442408,378.184121 C312.387435,379.19012 307.549738,382.409318 297.471204,385.829714 C287.39267,389.048912 269.65445,392.066909 237,392.066909 C204.34555,392.066909 186.60733,389.048912 176.528796,385.829714 C166.450262,382.610517 161.612565,379.19012 154.557592,378.184121 C150.727749,377.580522 147.704188,378.586521 145.890052,379.39132 C115.45288,399.310103 92.8769634,429.087676 83,463.895245 C125.934555,495.886017 179.350785,515 237,515 C294.850785,515 348.065445,496.087217 391,463.895245 C381.123037,429.288876 358.54712,399.511302 328.109948,379.39132 Z" id="XMLID_18_" fill="#C8E6EB"></path>
            <path d="M83,465.135206 C89.9444444,470.429516 97.2857143,475.520199 104.825397,480 C107.801587,467.578734 111.769841,452.510313 117.325397,439.07091 C126.452381,416.468278 148.47619,390.200354 158,379.204479 C156.611111,378.797225 155.02381,378.38997 153.436508,378.186343 C149.666667,377.575461 146.690476,378.593597 144.904762,379.408107 C114.944444,399.974465 92.7222222,430.111308 83,465.135206 Z" id="XMLID_27_" fill="#000000" opacity="0.05"></path>
            <path d="M298.907285,508.320951 C303.739073,503.268945 311.590728,492.356612 311.590728,476.190193 C311.590728,459.013373 312.798675,391.720654 313,380.20208 C308.772185,381.818722 304.343046,383.839525 297.699338,386.062407 C287.633113,389.295691 269.916556,392.326895 237.301987,392.326895 C204.687417,392.326895 186.970861,389.295691 176.904636,386.062407 C169.858278,383.839525 165.429139,381.414562 161,380 C161.201325,391.114413 162.409272,459.013373 162.409272,476.392273 C162.409272,492.558692 170.260927,503.066865 175.092715,508.320951 C195.023841,513.372957 215.961589,516 237.704636,516 C258.44106,515.79792 278.976159,513.170877 298.907285,508.320951 Z" id="XMLID_26_" fill="#82E1E1"></path>
            <path d="M340.205421,0 L313.246506,0 L313.246506,9.87596899 C313.246506,27.2093023 299.16349,41.3178295 281.861499,41.3178295 L192.937315,41.3178295 C175.635324,41.3178295 161.552308,27.2093023 161.552308,9.87596899 L161.552308,0 L134.593393,0 C60.5569674,0 0,60.6666667 0,134.837209 L0,177.162791 C0,251.333333 60.5569674,312 134.593393,312 L340.406607,312 C414.443033,312 475,251.333333 475,177.162791 L475,134.837209 C474.597628,60.6666667 414.040661,0 340.205421,0 Z" id="XMLID_166_" fill="#C8E6EB"></path>
            <path d="M192.448276,41 L281.551724,41 C298.888594,41 313,27 313,9.8 L313,0 L161,0 L161,9.8 C161,27 175.111406,41 192.448276,41 Z" id="XMLID_165_" fill="#415F78"></path>
            <path d="M36.254417,177.162791 L36.254417,134.837209 C36.254417,63.8914729 91.844523,5.24031008 161.734982,0.403100775 L161.734982,0 L134.745583,0 C60.6254417,0 0,60.6666667 0,134.837209 L0,177.162791 C0,251.333333 60.6254417,312 134.745583,312 L171,312 C96.8798587,312 36.254417,251.333333 36.254417,177.162791 Z" id="XMLID_53_" fill="#000000" opacity="0.05"></path>
            <circle id="XMLID_2_" fill="#3C5064" cx="200" cy="19" r="9"></circle>
            <circle id="XMLID_5_" fill="#3C5064" cx="236" cy="19" r="9"></circle>
            <circle id="XMLID_6_" fill="#3C5064" cx="273" cy="19" r="9"></circle>
            <path d="M176.415966,384.769231 C186.429972,387.985112 204.054622,391 236.5,391 C268.945378,391 286.570028,387.985112 296.584034,384.769231 C301.190476,383.16129 304.795518,381.754342 308,380.347395 C300.389356,368.287841 289.57423,358.238213 276.556022,351.404467 L276.556022,310 L196.443978,310 L196.443978,351.404467 C183.42577,358.238213 172.610644,368.086849 165,380.347395 C168.204482,381.754342 171.809524,383.16129 176.415966,384.769231 Z" id="XMLID_13_" fill="#415F78"></path>
            <path d="M199.492754,384.769231 C194.826087,383.16129 191.173913,381.754342 187.927536,380.347395 C195.637681,368.287841 206.594203,358.238213 219.782609,351.404467 L219.782609,310 L196.855072,310 L196.855072,351.404467 C183.666667,358.238213 172.710145,368.086849 165,380.347395 C168.246377,381.55335 171.695652,383.16129 176.565217,384.769231 C186.710145,387.985112 204.565217,391 237.434783,391 C241.492754,391 245.347826,391 249,390.799007 C223.231884,390.19603 208.42029,387.583127 199.492754,384.769231 Z" id="XMLID_29_" fill="#000000" opacity="0.05"></path>
            <path d="M372.818731,249 L100.181269,249 C83.4809668,249 70,235.371156 70,218.936373 L70,90.0636267 C70,73.4284199 83.6821752,60 100.181269,60 L372.818731,60 C389.519033,60 403,73.6288441 403,90.0636267 L403,218.936373 C403,235.57158 389.317825,249 372.818731,249 Z" id="XMLID_7_" fill="#415F78"></path>
            <path d="M99.676259,249 L125,249 C108.579137,249 95.323741,235.371156 95.323741,218.936373 L95.323741,90.0636267 C95.323741,73.4284199 108.776978,60 125,60 L99.676259,60 C83.2553957,60 70,73.6288441 70,90.0636267 L70,218.936373 C70,235.57158 83.4532374,249 99.676259,249 Z" id="XMLID_28_" fill="#000000" opacity="0.05"></path>
            <path d="M242.960784,443 C239.431373,443 237.078431,445.345865 235.901961,447.691729 C234.72549,445.541353 232.372549,443 228.843137,443 C224.333333,443 221,446.714286 221,451.406015 C221,452.578947 221.196078,453.75188 221.784314,454.924812 C222.176471,455.706767 222.372549,456.293233 222.764706,456.684211 C222.764706,456.879699 222.960784,456.879699 222.960784,457.075188 C223.352941,457.661654 223.54902,457.857143 223.54902,457.857143 C225.509804,460.203008 228.254902,462.744361 231.784314,465.676692 C232.960784,466.654135 234.137255,467.631579 235.313725,468.804511 C235.509804,469 235.705882,469 235.901961,469 C236.098039,469 236.294118,469 236.490196,468.804511 C237.666667,467.631579 239.039216,466.654135 240.019608,465.676692 C243.941176,462.353383 247.27451,459.616541 249.039216,456.879699 C249.039216,456.879699 249.039216,456.684211 249.235294,456.684211 C249.627451,455.706767 249.823529,456.097744 250.215686,454.924812 C250.607843,453.75188 251,452.578947 251,451.406015 C250.803922,446.518797 247.470588,443 242.960784,443 Z" id="XMLID_8_" fill="#D6F2ED"></path>
            <path d="M167,107 C139.379032,107 117,129.379032 117,157 C117,184.620968 139.379032,207 167,207 C194.620968,207 217,184.620968 217,157 C217,129.177419 194.620968,107 167,107 Z M167,187.040323 C150.266129,187.040323 136.758065,173.532258 136.758065,156.798387 C136.758065,140.064516 150.266129,126.556452 167,126.556452 C183.733871,126.556452 197.241935,140.064516 197.241935,156.798387 C197.241935,173.532258 183.733871,187.040323 167,187.040323 Z" id="XMLID_23_" fill="#51C8C8"></path>
            <path d="M308,107 C280.379032,107 258,129.379032 258,157 C258,184.620968 280.379032,207 308,207 C335.620968,207 358,184.620968 358,157 C357.798387,129.177419 335.419355,107 308,107 Z M308,187.040323 C291.266129,187.040323 277.758065,173.532258 277.758065,156.798387 C277.758065,140.064516 291.266129,126.556452 308,126.556452 C324.733871,126.556452 338.241935,140.064516 338.241935,156.798387 C338.241935,173.532258 324.532258,187.040323 308,187.040323 Z" id="XMLID_24_" fill="#51C8C8"></path>
            <path d="M237,422 C219.289308,422 205,436.289308 205,454 C205,471.710692 219.289308,486 237,486 C254.710692,486 269,471.710692 269,454 C269,436.289308 254.710692,422 237,422 Z M237,478.150943 C223.716981,478.150943 212.849057,467.283019 212.849057,454 C212.849057,440.716981 223.716981,429.849057 237,429.849057 C250.283019,429.849057 261.150943,440.716981 261.150943,454 C261.150943,467.283019 250.283019,478.150943 237,478.150943 Z" id="XMLID_46_" fill="#D6F2ED"></path>
        </g>
    </g>
</svg>