<?xml version="1.0" encoding="UTF-8"?>
<svg width="216px" height="36px" viewBox="0 0 216 36" version="1.1" xmlns="http://www.w3.org/2000/svg" xmlns:xlink="http://www.w3.org/1999/xlink">
    <!-- Generator: Sketch 49.1 (51147) - http://www.bohemiancoding.com/sketch -->
    <title>logo</title>
    <desc>Created with Sketch.</desc>
    <defs></defs>
    <g id="Page-1" stroke="none" stroke-width="1" fill="none" fill-rule="evenodd">
        <g id="logo">
            <g id="Group-5">
                <rect id="Rectangle-4" fill="#FDFDFD" x="0" y="0" width="36" height="36" rx="3"></rect>
                <g id="suit" transform="translate(3.600000, 3.600000)" fill-rule="nonzero">
                    <path d="M13.4416142,0.465733163 L9.33214928,5.68585563 C8.98210125,6.13049788 8.98210125,6.75789991 9.33214928,7.20254216 L13.4416142,12.4226646 C13.9304666,13.0436422 14.8695897,13.0436422 15.3583858,12.4226646 L19.4678507,7.20254216 C19.8178987,6.75789991 19.8178987,6.13049788 19.4678507,5.68585563 L15.3584421,0.465733163 C14.8696459,-0.155244388 13.9304103,-0.155244388 13.4416142,0.465733163 Z" id="Shape" fill="#FF5368"></path>
                    <path d="M15.2485843,0.465733163 C14.7652459,-0.155244388 13.8367158,-0.155244388 13.353433,0.465733163 L13.2066298,0.654353896 L16.8735398,5.36553288 C17.3658865,5.9981196 17.3658865,6.89033455 16.8735398,7.52280855 L13.2066298,12.2339875 L13.353433,12.4226646 C13.8367714,13.0436422 14.7653015,13.0436422 15.2485843,12.4226646 L19.311696,7.2024858 C19.6577956,6.75784356 19.6577956,6.13044152 19.311696,5.68579928 L15.2485843,0.465733163 Z" id="Shape" fill="#C5324F" opacity="0.26"></path>
                    <path d="M9.11666748,11.1939713 C9.09022781,9.40128203 7.60633679,7.9558011 5.7785046,7.9558011 C3.94509133,7.9558011 2.45742321,9.41010372 2.4399471,11.2103941 C1.03278184,11.5969949 0,12.8670407 0,14.3753831 C0,16.1904318 1.49510956,17.6618785 3.33934674,17.6618785 C4.05265398,17.6618785 4.71302552,17.4409478 5.25557423,17.0659983 L6.35995176,17.0659983 C6.9024441,17.4409478 7.562872,17.6618785 8.27612287,17.6618785 C10.12036,17.6618785 11.6154696,16.1904318 11.6154696,14.3753831 C11.6154696,12.8460129 10.5540495,11.5608204 9.11666748,11.1939713 Z" id="Shape" fill="#343434"></path>
                    <path d="M11.4386102,13.3329284 C11.0794101,12.2903668 10.2062775,11.4822368 9.11660974,11.2034562 C9.09016314,9.40551597 7.60588279,7.9558011 5.77757105,7.9558011 C5.77757105,8.81779523 6.16643198,9.53405554 6.78316225,10.0305744 C7.13723095,10.3155872 7.36690475,10.7467234 7.37395342,11.2283851 C7.38534406,12.0025717 7.91957672,12.6737597 8.67908481,12.8680714 C9.38220356,13.0480825 9.87329837,13.6755336 9.87329837,14.394131 C9.87329837,14.9281545 9.49396724,15.389005 8.96435851,15.4989035 C8.74224088,15.5449775 8.5118904,15.5692386 8.27573183,15.5692942 C6.91325247,15.5692942 6.81891309,14.9728929 5.76533456,14.9716687 C5.46043737,14.9713349 5.16140468,15.0501836 4.89169444,15.1905755 C3.42342867,15.9548017 1.65410018,15.5194921 0.691477668,14.2869034 C0.460901635,13.9917632 -0.0151372173,14.1601445 0.000369852655,14.5324641 C0.000820967417,14.5439825 0.00144125021,14.5555567 0.00200514367,14.5671308 C0.0908183624,16.2704748 1.51081485,17.6391708 3.238528,17.688806 C3.98985964,17.7103405 4.68671917,17.4860362 5.25439071,17.0926829 L4.1340472,18.5500211 C3.80332369,18.9635735 4.10179249,19.5712707 4.63568681,19.5712707 L6.97793104,19.5712707 C7.51176898,19.5712707 7.81023778,18.9635735 7.47957066,18.5500211 L6.35922715,17.0926829 C6.95390918,17.5048442 7.69035403,17.7313186 8.48268072,17.6840762 C9.59490417,17.6177475 10.5676768,17.004764 11.1234502,16.1138346 L11.1257057,16.1138346 C11.6267251,15.3070401 11.7654992,14.3004807 11.4386102,13.3329284 Z" id="Shape" fill="#3E3E3E"></path>
                    <path d="M19.1547628,19.8957832 C17.8303882,18.4336895 15.6032155,18.4029566 14.2409001,19.8037517 C12.8786412,18.4030123 10.6514684,18.4336895 9.3270375,19.8957832 C8.06552167,21.2885054 8.16243125,23.4811728 9.47124617,24.8269605 L12.4305683,27.8698482 C13.4303888,28.8978959 15.0513551,28.8978959 16.0511193,27.8698482 L19.0104413,24.8269605 C20.3193126,23.4811728 20.4162786,21.2885054 19.1547628,19.8957832 Z" id="Shape" fill="#FF5368"></path>
                    <path d="M18.9985618,19.8671095 C18.7005833,19.5359831 18.3564724,19.278701 17.9871318,19.0939227 C18.6783318,20.44686 18.4343525,22.1765598 17.3403786,23.3089138 L14.3907679,26.3617786 C13.5056543,27.2778503 12.1324696,27.3795678 11.1381215,26.6682716 L12.2966022,27.8673201 C13.2931416,28.8987386 14.9087886,28.8987386 15.9052719,27.8673201 L18.8548826,24.8144553 C20.1592901,23.464255 20.2559378,21.2643981 18.9985618,19.8671095 Z" id="Shape" fill="#C5324F" opacity="0.260303442"></path>
                    <path d="M18.0783717,16.559868 C19.402748,17.9984006 21.6299239,18.0285502 22.992241,16.6504275 C24.3545019,18.0285502 26.5816777,17.9984006 27.9061104,16.559868 C29.167628,15.1896152 29.0707183,13.032315 27.7619016,11.7082287 L24.8025754,8.71438932 C23.8027535,7.70293837 22.1817849,7.70293837 21.1819631,8.71438932 L18.2226369,11.7082287 C16.9138202,13.032315 16.8169105,15.1896152 18.0783717,16.559868 Z" id="Shape" fill="#343434"></path>
                    <path d="M27.7589524,11.7154624 L24.7889354,8.70653024 C24.3490313,8.26092755 23.7893489,8.01072164 23.2149559,7.9558011 C22.9034869,8.58889113 23.008102,9.37253916 23.5349118,9.90625978 L26.5049289,12.9151919 C26.5252974,12.9357454 26.5450436,12.9567444 26.564224,12.9780219 C27.4818836,13.9962798 26.68553,15.6111439 25.3032978,15.5744931 C24.7958946,15.5610136 24.2909244,15.4339611 23.8285584,15.1931686 C23.2967696,14.9161708 22.6543683,14.9108236 22.1232584,15.1892139 C20.7986239,15.8833515 19.120482,15.6431159 18.0404964,14.4683958 C18.0369884,14.4646082 18.0335371,14.4608206 18.0301423,14.4570329 C17.7084325,14.1038928 17.1140104,14.3731482 17.1914108,14.8413096 C17.2965352,15.4774074 17.5771685,16.0873818 18.0405529,16.5914698 C19.2067088,17.8598779 21.0701479,18.0385646 22.43303,17.1279755 L21.2937493,18.5490024 C20.9619118,18.9629673 21.261386,19.5712707 21.7970788,19.5712707 L24.147213,19.5712707 C24.6828492,19.5712707 24.9823234,18.9629673 24.6505424,18.5490024 L23.5112051,17.1278641 C24.8747096,18.0387317 26.7384882,17.8583183 27.9033993,16.591804 C29.1634769,15.2216872 29.07725,13.0509894 27.7589524,11.7154624 Z" id="Shape" fill="#343434"></path>
                    <path d="M27.7589524,11.7154624 L24.7889354,8.70653024 C24.3490313,8.26092755 23.7893489,8.01072164 23.2149559,7.9558011 C22.9034869,8.58889113 23.008102,9.37253916 23.5349118,9.90625978 L26.5049289,12.9151919 C26.5252974,12.9357454 26.5450436,12.9567444 26.564224,12.9780219 C27.4818836,13.9962798 26.68553,15.6111439 25.3032978,15.5744931 C24.7958946,15.5610136 24.2909244,15.4339611 23.8285584,15.1931686 C23.2967696,14.9161708 22.6543683,14.9108236 22.1232584,15.1892139 C20.7986239,15.8833515 19.120482,15.6431159 18.0404964,14.4683958 C18.0369884,14.4646082 18.0335371,14.4608206 18.0301423,14.4570329 C17.7084325,14.1038928 17.1140104,14.3731482 17.1914108,14.8413096 C17.2965352,15.4774074 17.5771685,16.0873818 18.0405529,16.5914698 C19.2067088,17.8598779 21.0701479,18.0385646 22.43303,17.1279755 L21.2937493,18.5490024 C20.9619118,18.9629673 21.261386,19.5712707 21.7970788,19.5712707 L24.147213,19.5712707 C24.6828492,19.5712707 24.9823234,18.9629673 24.6505424,18.5490024 L23.5112051,17.1278641 C24.8747096,18.0387317 26.7384882,17.8583183 27.9033993,16.591804 C29.1634769,15.2216872 29.07725,13.0509894 27.7589524,11.7154624 Z" id="Shape" fill="#FFFFFF" opacity="0.05"></path>
                </g>
            </g>
            <g id="Group-4" transform="translate(45.000000, 5.000000)" fill="#FFFFFF">
                <path d="M27.51,2.13 C28.8500067,2.6100024 29.52,3.249996 29.52,4.05 C29.52,4.3100013 29.4000012,4.7999964 29.16,5.52 L23.4,22.17 C23.3599998,22.3100007 23.2900005,22.479999 23.19,22.68 C23.0899995,22.880001 22.8250021,23.1449984 22.395,23.475 C21.9649979,23.8050017 21.4550029,23.97 20.865,23.97 C20.274997,23.97 19.7650021,23.8050017 19.335,23.475 C18.9049979,23.1449984 18.6200007,22.8200016 18.48,22.5 L14.97,12.15 C12.7499889,18.7100328 11.6200002,22.0499994 11.58,22.17 C11.5399998,22.2900006 11.4500007,22.4599989 11.31,22.68 C11.1699993,22.9000011 11.0100009,23.0999991 10.83,23.28 C10.3699977,23.7400023 9.8200032,23.97 9.18,23.97 C8.5399968,23.97 8.01500205,23.8200015 7.605,23.52 C7.19499795,23.2199985 6.9200007,22.9200015 6.78,22.62 L6.57,22.17 L0.78,5.52 C0.5599989,4.8599967 0.45,4.3700016 0.45,4.05 C0.45,3.249996 1.1199933,2.6200023 2.46,2.16 C3.0400029,1.959999 3.56499765,1.86 4.035,1.86 C4.50500235,1.86 4.86499875,2.0199984 5.115,2.34 C5.36500125,2.6600016 5.589999,3.1499967 5.79,3.81 L9.09,13.83 L12.36,3.96 C12.6400014,3.1199958 13.1499963,2.5400016 13.89,2.22 C14.2100016,2.0799993 14.6249974,2.01 15.135,2.01 C15.6450025,2.01 16.1199978,2.17499835 16.56,2.505 C17.0000022,2.83500165 17.2799994,3.1599984 17.4,3.48 L20.85,13.89 L24.15,3.81 C24.3100008,3.3499977 24.4399995,3.0100011 24.54,2.79 C24.6400005,2.5699989 24.8249987,2.35500105 25.095,2.145 C25.3650014,1.93499895 25.699998,1.83 26.1,1.83 C26.500002,1.83 26.9699973,1.929999 27.51,2.13 Z M28.7220833,16.11 C28.7220833,13.709988 29.5620749,11.7300078 31.2420833,10.17 C32.9220917,8.6099922 34.8420725,7.83 37.0020833,7.83 C39.1620941,7.83 41.072075,8.60499225 42.7320833,10.155 C44.3920916,11.7050077 45.2220833,13.679988 45.2220833,16.08 C45.2220833,17.7400083 44.7920876,19.2149936 43.9320833,20.505 C43.072079,21.7950065 42.0270895,22.744997 40.7970833,23.355 C39.5670772,23.9650031 38.2920899,24.27 36.9720833,24.27 C35.6520767,24.27 34.3720895,23.9450032 33.1320833,23.295 C31.8920771,22.6449968 30.8470876,21.6850064 29.9970833,20.415 C29.1470791,19.1449937 28.7220833,17.710008 28.7220833,16.11 Z M34.9920833,18.27 C35.6320865,18.7500024 36.28208,18.99 36.9420833,18.99 C37.6020866,18.99 38.26208,18.7400025 38.9220833,18.24 C39.5820866,17.7399975 39.9120833,17.0000049 39.9120833,16.02 C39.9120833,15.0399951 39.6020864,14.3100024 38.9820833,13.83 C38.3620802,13.3499976 37.6920869,13.11 36.9720833,13.11 C36.2520797,13.11 35.5820864,13.3599975 34.9620833,13.86 C34.3420802,14.3600025 34.0320833,15.0949952 34.0320833,16.065 C34.0320833,17.0350049 34.3520801,17.7699975 34.9920833,18.27 Z M66.8941667,8.31 C68.1741731,8.8700028 68.8141667,9.5599959 68.8141667,10.38 C68.8141667,10.7200017 68.6541683,11.2649962 68.3341667,12.015 C68.0141651,12.7650038 67.7441678,13.4199972 67.5241667,13.98 L64.2241667,22.02 C63.9241652,22.9000044 63.4241702,23.5199982 62.7241667,23.88 C62.4241652,24.0200007 62.044169,24.09 61.5841667,24.09 C61.1241644,24.09 60.6791688,23.9150018 60.2491667,23.565 C59.8191645,23.2149983 59.5341674,22.8600018 59.3941667,22.5 L59.1541667,21.99 C58.9941659,21.589998 58.4041718,20.0300136 57.3841667,17.31 C57.1841657,17.7900024 56.8891686,18.5749945 56.4991667,19.665 C56.1091647,20.7550054 55.8591672,21.4349986 55.7491667,21.705 C55.6391661,21.9750013 55.5691668,22.1549995 55.5391667,22.245 C55.5091665,22.3350004 55.4241674,22.4999988 55.2841667,22.74 C55.144166,22.9800012 54.9841676,23.1899991 54.8041667,23.37 C54.3241643,23.8500024 53.7741698,24.09 53.1541667,24.09 C52.5341636,24.09 52.0141688,23.9150018 51.5941667,23.565 C51.1741646,23.2149983 50.8941674,22.8600018 50.7541667,22.5 L46.2241667,11.46 C46.0241657,10.859997 45.9241667,10.4700009 45.9241667,10.29 C45.9241667,9.489996 46.494161,8.8600023 47.6341667,8.4 C48.2741699,8.1399987 48.7941647,8.01 49.1941667,8.01 C49.5941687,8.01 49.9191654,8.09499915 50.1691667,8.265 C50.4191679,8.43500085 50.5941662,8.60499915 50.6941667,8.775 C50.7941672,8.94500085 50.8741664,9.1199991 50.9341667,9.3 C51.2741684,10.100004 51.9841613,11.9799852 53.0641667,14.94 L54.8341667,10.08 C54.9541673,9.679998 55.1741651,9.3300015 55.4941667,9.03 C56.0741696,8.4499971 56.6641637,8.16 57.2641667,8.16 C57.8641697,8.16 58.3791645,8.3199984 58.8091667,8.64 C59.2391688,8.9600016 59.5341659,9.2799984 59.6941667,9.6 L59.9341667,10.11 C60.9341717,12.910014 61.5241658,14.509998 61.7041667,14.91 L63.5341667,9.93 C64.0141691,8.6499936 64.7341619,8.01 65.6941667,8.01 C66.0741686,8.01 66.4741646,8.109999 66.8941667,8.31 Z M93.9183333,12.21 C95.0983392,13.610007 95.6883333,15.1799913 95.6883333,16.92 C95.6483331,18.92001 94.96334,20.5949933 93.6333333,21.945 C92.3033267,23.2950067 90.6883428,23.97 88.7883333,23.97 L80.8983333,23.97 C79.4983263,23.97 78.6783345,23.5900038 78.4383333,22.83 C78.3183327,22.4899983 78.2583333,21.9700035 78.2583333,21.27 L78.2583333,4.62 C78.2583333,4.1399976 78.2733332,3.7900011 78.3033333,3.57 C78.3333335,3.3499989 78.4283325,3.0900015 78.5883333,2.79 C78.8683347,2.2499973 79.6483269,1.98 80.9283333,1.98 L88.4883333,1.98 C90.3283425,1.98 91.8683271,2.6199936 93.1083333,3.9 C94.4083398,5.2000065 95.0583333,6.7599909 95.0583333,8.58 C95.0583333,9.9000066 94.6783371,11.1099945 93.9183333,12.21 Z M90.3783333,16.62 C90.3783333,16.1399976 90.3233339,15.7600014 90.2133333,15.48 C90.1033328,15.1999986 89.9183346,15.0000006 89.6583333,14.88 C89.2583313,14.7199992 88.6983369,14.64 87.9783333,14.64 C87.2583297,14.64 86.7183351,14.5000014 86.3583333,14.22 C85.9983315,13.9399986 85.8183333,13.3650043 85.8183333,12.495 C85.8183333,11.6249957 86.0033315,11.0500014 86.3733333,10.77 C86.7433352,10.4899986 87.358329,10.35 88.2183333,10.35 C89.0183373,10.35 89.4983325,10.1400021 89.6583333,9.72 C89.7183336,9.4999989 89.7483333,9.1400025 89.7483333,8.64 C89.7483333,8.1399975 89.583335,7.790001 89.2533333,7.59 C88.9233317,7.389999 88.4283366,7.29 87.7683333,7.29 L83.5683333,7.29 L83.5683333,18.66 L88.4883333,18.66 C89.7483396,18.66 90.3783333,17.9800068 90.3783333,16.62 Z M108.480417,8.37 C108.860419,8.4900006 109.175415,8.69499855 109.425417,8.985 C109.675418,9.27500145 109.800417,9.7399968 109.800417,10.38 C109.800417,11.0200032 109.610419,11.7199962 109.230417,12.48 C108.850415,13.2400038 108.30042,13.62 107.580417,13.62 C107.220415,13.62 106.875418,13.5400008 106.545417,13.38 C106.215415,13.2199992 105.780419,13.14 105.240417,13.14 C104.700414,13.14 104.195419,13.3299981 103.725417,13.71 C103.255414,14.0900019 103.020417,14.5499973 103.020417,15.09 L103.020417,21.39 C103.020417,21.8500023 103.005417,22.1949989 102.975417,22.425 C102.945416,22.6550012 102.850417,22.9199985 102.690417,23.22 C102.390415,23.7400026 101.610423,24 100.350417,24 C99.3904118,24 98.7004187,23.8300017 98.2804166,23.49 C97.960415,23.2099986 97.7804168,22.7800029 97.7404166,22.2 L97.7404166,10.8 C97.7404166,10.3399977 97.7554165,9.99500115 97.7854166,9.765 C97.8154168,9.53499885 97.9004159,9.2800014 98.0404166,9 C98.320418,8.4599973 99.1004102,8.19 100.380417,8.19 C101.580423,8.19 102.330415,8.4199977 102.630417,8.88 C102.850418,9.2000016 102.960417,9.5299983 102.960417,9.87 C103.060417,9.7299993 103.205416,9.560001 103.395417,9.36 C103.585418,9.159999 103.990414,8.8900017 104.610417,8.55 C105.23042,8.2099983 105.775414,8.04 106.245417,8.04 C106.715419,8.04 107.110415,8.06499975 107.430417,8.115 C107.750418,8.16500025 108.100415,8.2499994 108.480417,8.37 Z M111.5525,10.83 C111.5525,10.3699977 111.5675,10.0250012 111.5975,9.795 C111.6275,9.56499885 111.712499,9.3000015 111.8525,9 C112.132501,8.4799974 112.912494,8.22 114.1925,8.22 C115.152505,8.22 115.832498,8.3899983 116.2325,8.73 C116.572502,9.0100014 116.7525,9.4399971 116.7725,10.02 C116.7925,10.220001 116.8025,10.5099981 116.8025,10.89 L116.8025,21.39 C116.8025,21.8500023 116.7875,22.1949989 116.7575,22.425 C116.7275,22.6550012 116.632501,22.9199985 116.4725,23.22 C116.212499,23.7400026 115.442506,24 114.1625,24 C112.902494,24 112.132501,23.7300027 111.8525,23.19 C111.712499,22.8899985 111.6275,22.6300011 111.5975,22.41 C111.5675,22.1899989 111.5525,21.8400024 111.5525,21.36 L111.5525,10.83 Z M116.4725,5.28 C116.332499,5.5600014 116.072502,5.7599994 115.6925,5.88 C115.312498,6.0000006 114.807503,6.06 114.1775,6.06 C113.547497,6.06 113.042502,6.0000006 112.6625,5.88 C112.282498,5.7599994 112.017501,5.5500015 111.8675,5.25 C111.717499,4.9499985 111.6275,4.68500115 111.5975,4.455 C111.5675,4.22499885 111.5525,3.8800023 111.5525,3.42 C111.5525,2.9599977 111.5675,2.61500115 111.5975,2.385 C111.6275,2.15499885 111.712499,1.9000014 111.8525,1.62 C112.132501,1.0799973 112.912494,0.81 114.1925,0.81 C115.452506,0.81 116.212499,1.0799973 116.4725,1.62 C116.632501,1.9200015 116.7275,2.18499885 116.7575,2.415 C116.7875,2.64500115 116.8025,2.9899977 116.8025,3.45 C116.8025,3.9100023 116.7875,4.25499885 116.7575,4.485 C116.7275,4.71500115 116.632501,4.9799985 116.4725,5.28 Z M129.894583,1.62 C130.054584,1.3199985 130.324581,1.1100006 130.704583,0.99 C131.084585,0.8699994 131.58958,0.81 132.219583,0.81 C132.849586,0.81 133.354581,0.8699994 133.734583,0.99 C134.114585,1.1100006 134.379583,1.3199985 134.529583,1.62 C134.679584,1.9200015 134.769583,2.18499885 134.799583,2.415 C134.829583,2.64500115 134.844583,2.9899977 134.844583,3.45 L134.844583,21.36 C134.844583,21.8200023 134.829583,22.1649989 134.799583,22.395 C134.769583,22.6250012 134.674584,22.8799986 134.514583,23.16 C134.214582,23.7000027 133.36959,23.97 131.979583,23.97 C130.589576,23.97 129.814584,23.4800049 129.654583,22.5 C128.814579,23.4600048 127.644591,23.94 126.144583,23.94 C124.344574,23.94 122.704591,23.1550079 121.224583,21.585 C119.744576,20.0149921 119.004583,18.1850104 119.004583,16.095 C119.004583,14.0049896 119.749576,12.1700079 121.239583,10.59 C122.729591,9.0099921 124.364574,8.22 126.144583,8.22 C127.624591,8.22 128.774579,8.719995 129.594583,9.72 L129.594583,3.42 C129.594583,2.9599977 129.609583,2.61500115 129.639583,2.385 C129.669583,2.15499885 129.754583,1.9000014 129.894583,1.62 Z M125.034583,17.91 C125.554586,18.4500027 126.18458,18.72 126.924583,18.72 C127.664587,18.72 128.279581,18.4500027 128.769583,17.91 C129.259586,17.3699973 129.504583,16.7750032 129.504583,16.125 C129.504583,15.4749968 129.269586,14.8700028 128.799583,14.31 C128.329581,13.7499972 127.694587,13.47 126.894583,13.47 C126.094579,13.47 125.454586,13.7449972 124.974583,14.295 C124.494581,14.8450028 124.254583,15.4499967 124.254583,16.11 C124.254583,16.7700033 124.514581,17.3699973 125.034583,17.91 Z M147.366667,22.02 C146.606663,23.020005 145.396675,23.52 143.736667,23.52 C142.076658,23.52 140.521674,22.7550076 139.071667,21.225 C137.621659,19.6949924 136.896667,17.9100102 136.896667,15.87 C136.896667,13.8299898 137.626659,12.0400077 139.086667,10.5 C140.546674,8.9599923 142.146658,8.19 143.886667,8.19 C144.56667,8.19 145.186664,8.31499875 145.746667,8.565 C146.306669,8.81500125 146.691666,9.04499895 146.901667,9.255 C147.111668,9.46500105 147.276666,9.6599991 147.396667,9.84 C147.456667,9.2799972 147.661665,8.85500145 148.011667,8.565 C148.361668,8.27499855 148.926663,8.13 149.706667,8.13 C150.486671,8.13 151.056665,8.1899994 151.416667,8.31 C151.776668,8.4300006 152.031666,8.63499855 152.181667,8.925 C152.331667,9.21500145 152.421666,9.4699989 152.451667,9.69 C152.481667,9.9100011 152.496667,10.2499977 152.496667,10.71 L152.496667,23.13 C152.496667,25.4300115 151.696675,27.284993 150.096667,28.695 C148.496659,30.105007 146.696677,30.81 144.696667,30.81 C143.176659,30.81 141.726674,30.4400037 140.346667,29.7 C138.96666,28.9599963 138.276667,28.290003 138.276667,27.69 C138.276667,26.9099961 138.576664,26.220003 139.176667,25.62 C139.556669,25.1999979 139.851666,24.9100008 140.061667,24.75 C140.271668,24.5899992 140.516665,24.51 140.796667,24.51 C141.076668,24.51 141.366665,24.6299988 141.666667,24.87 C142.626671,25.6100037 143.666661,25.98 144.786667,25.98 C145.54667,25.98 146.166664,25.680003 146.646667,25.08 C147.126669,24.479997 147.366667,23.7600042 147.366667,22.92 L147.366667,22.02 Z M142.026667,15.9 C142.026667,16.5400032 142.281664,17.1199974 142.791667,17.64 C143.301669,18.1600026 143.921663,18.42 144.651667,18.42 C145.38167,18.42 145.986664,18.1550027 146.466667,17.625 C146.946669,17.0949973 147.186667,16.5150031 147.186667,15.885 C147.186667,15.2549968 146.956669,14.6650027 146.496667,14.115 C146.036664,13.5649973 145.416671,13.29 144.636667,13.29 C143.856663,13.29 143.226669,13.5599973 142.746667,14.1 C142.266664,14.6400027 142.026667,15.2399967 142.026667,15.9 Z M170.23875,14.22 C170.23875,15.4400061 169.933753,16.3449971 169.32375,16.935 C168.713747,17.525003 168.038754,17.82 167.29875,17.82 L160.18875,17.82 C160.18875,18.3800028 160.518747,18.8499981 161.17875,19.23 C161.838753,19.6100019 162.498747,19.8 163.15875,19.8 C164.318756,19.8 165.228747,19.6800012 165.88875,19.44 L166.21875,19.32 C166.698752,19.0999989 167.098748,18.99 167.41875,18.99 C168.058753,18.99 168.608748,19.4399955 169.06875,20.34 C169.328751,20.8800027 169.45875,21.3399981 169.45875,21.72 C169.45875,23.5000089 167.328771,24.39 163.06875,24.39 C161.588743,24.39 160.273756,24.1350025 159.12375,23.625 C157.973744,23.1149975 157.078753,22.4400042 156.43875,21.6 C155.178744,19.9799919 154.54875,18.17001 154.54875,16.17 C154.54875,13.6499874 155.363742,11.6350075 156.99375,10.125 C158.623758,8.61499245 160.658738,7.86 163.09875,7.86 C165.878764,7.86 167.918743,8.8399902 169.21875,10.8 C169.898753,11.8400052 170.23875,12.9799938 170.23875,14.22 Z M163.90875,15.09 C164.668754,15.09 165.04875,14.7700032 165.04875,14.13 C165.04875,13.6699977 164.873752,13.3000014 164.52375,13.02 C164.173748,12.7399986 163.673753,12.6 163.02375,12.6 C162.373747,12.6 161.728753,12.8649974 161.08875,13.395 C160.448747,13.9250026 160.12875,14.489997 160.12875,15.09 L163.90875,15.09 Z" id="Wow-Bridge"></path>
            </g>
        </g>
    </g>
</svg>