<?xml version="1.0" encoding="UTF-8"?>
<svg width="292px" height="512px" viewBox="0 0 292 512" version="1.1" xmlns="http://www.w3.org/2000/svg" xmlns:xlink="http://www.w3.org/1999/xlink">
    <!-- Generator: Sketch 49.1 (51147) - http://www.bohemiancoding.com/sketch -->
    <title>015-lollipop</title>
    <desc>Created with Sketch.</desc>
    <defs></defs>
    <g id="login" stroke="none" stroke-width="1" fill="none" fill-rule="evenodd">
        <g id="015-lollipop" fill-rule="nonzero">
            <polygon id="Shape" fill="#D8E6F0" points="124.777344 275.191406 167.121094 275.191406 167.121094 512 124.777344 512"></polygon>
            <path d="M124.773438,314.109375 C131.6875,315.113281 138.757812,315.644531 145.949219,315.644531 C153.144531,315.644531 160.210938,315.113281 167.128906,314.109375 L167.128906,270.03125 L124.777344,270.03125 L124.777344,314.109375 L124.773438,314.109375 Z" id="Shape" fill="#BDCDD6"></path>
            <polygon id="Shape" fill="#BDCDD6" points="148.851562 275.191406 167.121094 275.191406 167.121094 512 148.851562 512"></polygon>
            <path d="M291.902344,145.949219 C291.902344,226.558594 226.558594,291.902344 145.949219,291.902344 C65.34375,291.902344 2.84217094e-14,226.558594 2.84217094e-14,145.949219 C2.84217094e-14,65.34375 65.34375,-2.84217094e-14 145.949219,-2.84217094e-14 C226.558594,-2.84217094e-14 291.902344,65.34375 291.902344,145.949219 Z" id="Shape" fill="#FFA436"></path>
            <path d="M191.8125,7.359375 C237.664062,31.96875 268.847656,80.359375 268.847656,136.039062 C268.847656,216.648438 203.503906,281.992188 122.898438,281.992188 C106.875,281.992188 91.457031,279.402344 77.035156,274.632812 C97.5625,285.648438 121.023438,291.902344 145.949219,291.902344 C226.558594,291.902344 291.902344,226.558594 291.902344,145.953125 C291.902344,81.367188 249.949219,26.589844 191.8125,7.359375 Z" id="Shape" fill="#CC6D0E"></path>
            <path d="M246.203125,109.199219 L167.417969,42.265625 C155.269531,31.945312 137.617188,31.34375 124.792969,40.808594 L54.355469,92.792969 C41.074219,102.59375 36.265625,120.234375 42.726562,135.421875 L76.925781,215.777344 C83.199219,230.523438 100.679688,236.832031 114.929688,229.496094 L165.035156,203.691406 C177.019531,197.519531 182.691406,183.511719 178.378906,170.738281 L160.839844,118.832031 C158.796875,112.789062 152.585938,109.199219 146.328125,110.441406 L107.6875,118.136719 C100.179688,119.632812 95.691406,127.382812 98.132812,134.636719 L109.363281,168.046875 C110.183594,170.488281 113.765625,170.015625 113.929688,167.449219 L115.140625,148.421875 C115.53125,142.273438 120.425781,137.371094 126.570312,136.964844 L136.402344,136.316406 C142.015625,135.949219 147.160156,139.445312 148.882812,144.796875 L154.242188,161.457031 C156.933594,169.824219 153.730469,178.964844 146.402344,183.820312 L120.195312,201.1875 C110.40625,207.675781 97.125,203.480469 92.835938,192.546875 L69.070312,131.945312 C64.898438,121.300781 68.527344,109.179688 77.863281,102.578125 L126.773438,68.011719 C138.011719,60.070312 153.234375,60.902344 163.539062,70.023438 L218.164062,118.363281 C227.359375,126.5 230.589844,139.460938 226.289062,150.960938 L206.609375,203.5625 C203.582031,211.652344 197.9375,218.496094 190.570312,223.007812 L93.765625,282.285156 C108.355469,287.875 124.070312,291.183594 140.480469,291.789062 L216.738281,237.632812 C223.308594,232.964844 228.285156,226.382812 230.984375,218.789062 L256.421875,147.203125 C261.238281,133.644531 257.171875,118.515625 246.203125,109.199219 Z" id="Shape" fill="#6E7093"></path>
            <path d="M122.898438,281.992188 C114.332031,281.992188 105.941406,281.246094 97.78125,279.828125 L93.773438,282.28125 C108.71875,288.007812 124.46875,291.199219 140.476562,291.789062 L161.589844,276.796875 C149.265625,280.179688 136.292969,281.992188 122.898438,281.992188 Z" id="Shape" fill="#4E5173"></path>
            <path d="M245.261719,467.339844 C244.542969,467.339844 243.808594,467.234375 243.082031,467.023438 C238.988281,465.820312 236.644531,461.527344 237.847656,457.433594 C239.273438,452.566406 238.214844,445.703125 235.324219,441.117188 C232.972656,437.386719 229.527344,434.792969 224.789062,433.195312 C222.105469,432.289062 219.214844,431.726562 216.152344,431.132812 C213.769531,430.667969 211.304688,430.191406 208.773438,429.515625 C200.519531,427.324219 194.21875,423.519531 189.511719,417.886719 C181.941406,408.820312 179.257812,395.988281 178.339844,386.824219 C177.25,375.921875 177.996094,365.132812 178.71875,354.695312 C179.015625,350.4375 182.714844,347.242188 186.960938,347.523438 C191.21875,347.816406 194.429688,351.507812 194.136719,355.765625 C193.457031,365.558594 192.757812,375.683594 193.714844,385.285156 C194.691406,395.050781 197.484375,403.320312 201.371094,407.976562 C204.03125,411.160156 207.539062,413.199219 212.742188,414.582031 C214.765625,415.121094 216.867188,415.53125 219.097656,415.960938 C222.523438,416.628906 226.066406,417.316406 229.726562,418.550781 C237.855469,421.292969 244.136719,426.113281 248.398438,432.882812 C253.6875,441.273438 255.363281,452.617188 252.671875,461.785156 C251.683594,465.152344 248.601562,467.339844 245.261719,467.339844 Z" id="Shape" fill="#9E71D3"></path>
            <path d="M93.148438,495.46875 C89.066406,495.46875 85.65625,492.273438 85.4375,488.148438 C84.972656,479.355469 80.039062,471.558594 74.816406,463.304688 C74.269531,462.445312 73.726562,461.589844 73.195312,460.734375 C67.359375,451.410156 59.976562,437.285156 63.234375,422.347656 C65,414.265625 69.722656,406.925781 77.269531,400.539062 C79.988281,398.234375 82.769531,396.273438 85.460938,394.375 C88.210938,392.429688 90.808594,390.597656 93.167969,388.53125 C101.808594,380.964844 108.070312,369.253906 110.347656,356.398438 C111.09375,352.199219 115.109375,349.390625 119.304688,350.140625 C123.507812,350.882812 126.308594,354.894531 125.566406,359.097656 C122.6875,375.347656 114.589844,390.3125 103.347656,400.15625 C100.382812,402.753906 97.328125,404.910156 94.371094,406.996094 C91.84375,408.78125 89.457031,410.46875 87.253906,412.332031 C82.355469,416.476562 79.355469,420.953125 78.332031,425.640625 C76.769531,432.8125 79.296875,441.359375 86.292969,452.535156 C86.8125,453.367188 87.34375,454.203125 87.871094,455.042969 C93.644531,464.164062 100.1875,474.507812 100.867188,487.332031 C101.09375,491.59375 97.824219,495.230469 93.5625,495.457031 C93.425781,495.464844 93.285156,495.46875 93.148438,495.46875 Z" id="Shape" fill="#9E71D3"></path>
            <path d="M232.589844,352.636719 C227.101562,350.117188 227.101562,345.949219 232.589844,343.429688 C238.082031,340.910156 243.0625,336.710938 245.210938,331.0625 C247.359375,325.417969 246.054688,318.269531 241.207031,314.664062 C236.078125,310.851562 228.925781,311.839844 222.722656,313.375 C200.128906,318.960938 178.78125,329.535156 160.648438,344.128906 L160.648438,351.941406 C178.78125,366.53125 200.128906,377.105469 222.722656,382.691406 C228.925781,384.226562 236.078125,385.214844 241.207031,381.402344 C246.054688,377.796875 247.359375,370.648438 245.210938,365.003906 C243.0625,359.355469 238.082031,355.15625 232.589844,352.636719 Z" id="Shape" fill="#50B596"></path>
            <path d="M59.3125,352.636719 C64.800781,350.117188 64.800781,345.949219 59.3125,343.429688 C53.820312,340.910156 48.839844,336.710938 46.691406,331.0625 C44.542969,325.417969 45.847656,318.269531 50.695312,314.664062 C55.824219,310.851562 62.976562,311.839844 69.179688,313.375 C91.773438,318.960938 113.117188,329.535156 131.253906,344.128906 L131.253906,351.941406 C113.117188,366.53125 91.773438,377.105469 69.179688,382.691406 C62.976562,384.226562 55.824219,385.214844 50.695312,381.402344 C45.847656,377.796875 44.542969,370.648438 46.691406,365.003906 C48.839844,359.355469 53.820312,355.15625 59.3125,352.636719 Z" id="Shape" fill="#50B596"></path>
            <path d="M169.953125,330.914062 L121.949219,330.914062 C112.496094,330.914062 104.832031,338.578125 104.832031,348.03125 C104.832031,357.484375 112.496094,365.148438 121.949219,365.148438 L169.953125,365.148438 C179.40625,365.148438 187.070312,357.484375 187.070312,348.03125 C187.070312,338.578125 179.40625,330.914062 169.953125,330.914062 Z" id="Shape" fill="#81EBC7"></path>
        </g>
    </g>
</svg>