<?xml version="1.0" encoding="UTF-8"?>
<svg width="337px" height="512px" viewBox="0 0 337 512" version="1.1" xmlns="http://www.w3.org/2000/svg" xmlns:xlink="http://www.w3.org/1999/xlink">
    <!-- Generator: Sketch 49.1 (51147) - http://www.bohemiancoding.com/sketch -->
    <title>020-ghost</title>
    <desc>Created with Sketch.</desc>
    <defs></defs>
    <g id="login" stroke="none" stroke-width="1" fill="none" fill-rule="evenodd">
        <g id="020-ghost" fill-rule="nonzero">
            <path d="M318.757812,175.375 C299.847656,158.019531 288.511719,133.664062 288.511719,107.679688 L288.511719,105.203125 C288.511719,37.390625 234.753906,0 168.433594,0 C102.113281,0 48.351562,37.390625 48.351562,105.203125 L48.351562,107.679688 C48.351562,133.664062 37.019531,158.019531 18.105469,175.375 C6.992188,185.574219 2.84217094e-14,200.378906 2.84217094e-14,216.855469 C2.84217094e-14,241.546875 21.0625,253.453125 37.460938,269.796875 C58.117188,290.386719 73.746094,331.367188 91.753906,353.59375 L56.761719,366.6875 C34.6875,374.949219 20.058594,396.042969 20.058594,419.613281 L20.058594,507.535156 C20.058594,510 22.054688,512 24.519531,512 L312.34375,512 C314.808594,512 316.808594,510 316.808594,507.535156 L316.808594,419.613281 C316.808594,396.042969 302.175781,374.949219 280.101562,366.6875 L245.109375,353.59375 C263.117188,331.367188 278.746094,290.390625 299.40625,269.796875 C315.804688,253.453125 336.863281,241.546875 336.863281,216.855469 C336.867188,200.378906 329.875,185.574219 318.757812,175.375 Z" id="Shape" fill="#6E7093"></path>
            <path d="M318.757812,175.375 C299.847656,158.019531 288.511719,133.664062 288.511719,107.679688 L288.511719,105.203125 C288.511719,37.390625 234.753906,0 168.433594,0 C154.777344,0 141.65625,1.589844 129.425781,4.699219 C134.027344,4.320312 138.703125,4.121094 143.449219,4.121094 C209.769531,4.121094 263.53125,41.511719 263.53125,109.324219 L263.53125,111.800781 C263.53125,137.785156 274.867188,162.140625 293.777344,179.496094 C304.890625,189.695312 311.882812,204.5 311.882812,220.976562 C311.882812,245.667969 290.824219,257.574219 274.425781,273.917969 C254.746094,293.53125 239.632812,331.644531 222.679688,354.429688 C221.441406,356.089844 222.121094,358.460938 224.058594,359.1875 L255.121094,370.808594 C277.195312,379.070312 291.828125,400.164062 291.828125,423.734375 L291.828125,511.65625 C291.828125,511.773438 291.800781,511.882812 291.792969,512 L312.34375,512 C314.808594,512 316.808594,510 316.808594,507.535156 L316.808594,419.613281 C316.808594,396.042969 302.179688,374.949219 280.101562,366.6875 L245.109375,353.59375 C263.121094,331.367188 278.746094,290.390625 299.40625,269.796875 C315.804688,253.453125 336.863281,241.546875 336.863281,216.855469 C336.867188,200.378906 329.875,185.574219 318.757812,175.375 Z" id="Shape" fill="#4E5173"></path>
            <path d="M74.6875,450.863281 C70.542969,450.863281 67.1875,454.222656 67.1875,458.363281 L67.1875,512 L82.1875,512 L82.1875,458.363281 C82.1875,454.222656 78.828125,450.863281 74.6875,450.863281 Z" id="Shape" fill="#363B51"></path>
            <path d="M262.179688,450.863281 C258.035156,450.863281 254.679688,454.222656 254.679688,458.363281 L254.679688,512 L269.679688,512 L269.679688,458.363281 C269.679688,454.222656 266.324219,450.863281 262.179688,450.863281 Z" id="Shape" fill="#363B51"></path>
            <path d="M264.5625,204.851562 L262.839844,204.851562 C260.945312,204.851562 259.40625,203.316406 259.40625,201.421875 L259.40625,141.964844 C259.40625,91.722656 218.675781,50.992188 168.433594,50.992188 C118.1875,50.992188 77.457031,91.722656 77.457031,141.964844 L77.457031,201.421875 C77.457031,203.316406 75.921875,204.851562 74.027344,204.851562 L72.300781,204.851562 C62.21875,204.851562 54.046875,213.027344 54.046875,223.109375 C54.046875,233.191406 62.21875,241.363281 72.300781,241.363281 L87.308594,241.363281 C106.136719,241.363281 121.394531,256.625 121.394531,275.449219 L121.394531,301.015625 C121.394531,326.992188 142.453125,348.050781 168.433594,348.050781 C194.410156,348.050781 215.46875,326.992188 215.46875,301.015625 L215.46875,275.449219 C215.46875,256.625 230.730469,241.363281 249.554688,241.363281 L264.5625,241.363281 C274.644531,241.363281 282.816406,233.191406 282.816406,223.109375 C282.820312,213.027344 274.644531,204.851562 264.5625,204.851562 Z" id="Shape" fill="#E6EFF5"></path>
            <g id="Group" transform="translate(100.000000, 131.000000)" fill="#363B51">
                <path d="M67.855469,185.226562 C58.234375,185.226562 50.429688,177.421875 50.429688,167.800781 L50.429688,122.984375 C50.429688,113.363281 58.234375,105.558594 67.855469,105.558594 C77.480469,105.558594 85.28125,113.363281 85.28125,122.984375 L85.28125,167.800781 C85.28125,177.421875 77.480469,185.226562 67.855469,185.226562 Z" id="Shape"></path>
                <path d="M130.796875,35.945312 C122.445312,27.902344 121.0625,20.105469 120.855469,17.128906 C120.160156,7.058594 111.414062,-0.566406 101.335938,0.128906 C91.265625,0.824219 83.640625,9.582031 84.332031,19.648438 C85.386719,34.886719 93.066406,50.4375 105.40625,62.316406 C107.886719,64.707031 110.96875,66.339844 114.328125,67.046875 C115.601562,67.3125 116.875,67.441406 118.140625,67.441406 C123.058594,67.441406 127.789062,65.464844 131.289062,61.828125 C138.289062,54.554688 138.070312,42.945312 130.796875,35.945312 Z" id="Shape"></path>
                <path d="M35.53125,0.125 C25.46875,-0.558594 16.707031,7.058594 16.007812,17.125 C15.804688,20.105469 14.421875,27.898438 6.066406,35.941406 C2.546875,39.335938 0.554688,43.894531 0.460938,48.78125 C0.367188,53.671875 2.1875,58.304688 5.578125,61.824219 C9.078125,65.464844 13.808594,67.441406 18.726562,67.441406 C19.988281,67.441406 21.265625,67.3125 22.539062,67.046875 C25.898438,66.339844 28.980469,64.703125 31.460938,62.316406 C43.800781,50.4375 51.480469,34.886719 52.53125,19.648438 C52.871094,14.773438 51.285156,10.054688 48.074219,6.367188 C44.863281,2.679688 40.410156,0.464844 35.53125,0.125 Z" id="Shape"></path>
                <path d="M83.140625,86.378906 C80.828125,86.378906 78.550781,85.316406 77.078125,83.308594 C73.953125,79.039062 70.875,76.574219 68.632812,76.554688 C68.621094,76.554688 68.609375,76.554688 68.597656,76.554688 C66.28125,76.554688 63.039062,79.058594 59.691406,83.4375 C57.171875,86.726562 52.464844,87.355469 49.175781,84.839844 C45.886719,82.320312 45.257812,77.613281 47.773438,74.324219 C54.316406,65.773438 61.359375,61.457031 68.789062,61.554688 C76.117188,61.632812 82.976562,65.96875 89.1875,74.449219 C91.632812,77.792969 90.90625,82.484375 87.5625,84.929688 C86.226562,85.910156 84.675781,86.378906 83.140625,86.378906 Z" id="Shape"></path>
            </g>
        </g>
    </g>
</svg>