<?xml version="1.0" encoding="UTF-8"?>
<svg width="119px" height="120px" viewBox="0 0 119 120" version="1.1" xmlns="http://www.w3.org/2000/svg" xmlns:xlink="http://www.w3.org/1999/xlink">
    <!-- Generator: Sketch 49.1 (51147) - http://www.bohemiancoding.com/sketch -->
    <title>cup (1)</title>
    <desc>Created with Sketch.</desc>
    <defs></defs>
    <g id="Page-1" stroke="none" stroke-width="1" fill="none" fill-rule="evenodd">
        <g id="cup-(1)" transform="translate(59.500000, 60.000000) rotate(-360.000000) translate(-59.500000, -60.000000) " fill-rule="nonzero">
            <path d="M119,59.5 C119,81.3158145 107.260371,100.389748 89.7501719,110.745305 C80.8883906,115.991066 70.5451523,119 59.5,119 C51.2720332,119 43.4326758,117.329119 36.3070859,114.3081 C33.8664238,113.275914 31.5082715,112.08359 29.2495957,110.745305 C11.7396289,100.389748 0,81.3158145 0,59.5 C0,26.6390332 26.6390332,0 59.5,0 C92.3609668,0 119,26.6390332 119,59.5 Z" id="Shape" fill="#343A6E"></path>
            <path d="M109,50 C109,68.332765 99.2333269,84.3611759 84.6660975,93.0633475 C77.2935751,97.4714233 68.6885992,100 59.4997688,100 C52.6546809,100 46.1326206,98.5960397 40.2048203,96.0571861 C38.1743938,95.189725 36.2124112,94.1877304 34.33344,93.0633475 C19.7664418,84.3614094 10,68.332765 10,50 C10,22.3855881 32.1617322,0 59.5,0 C86.8382678,0 109,22.3855881 109,50 Z" id="Shape" fill="#484B7F"></path>
            <rect id="Rectangle-path" fill="#F9DF73" x="53" y="92" width="12" height="23"></rect>
            <rect id="Rectangle-path" fill="#F2AE5A" x="53" y="92" width="6" height="23"></rect>
            <g id="Group" transform="translate(27.000000, 6.000000)" fill="#F9DF73">
                <path d="M32.3494542,78.3715091 C17.4804221,78.3715091 5.11250635,66.9546969 3.95002569,52.1565224 L0.149944184,3.77574449 C-0.00826464007,1.76281559 1.5853941,0.042667775 3.60763346,0.042667775 L61.0908026,0.042667775 C63.1132781,0.042667775 64.7067007,1.76328706 64.5484919,3.77574449 L60.7484104,52.156051 C59.586402,66.9546969 47.2184862,78.3715091 32.3494542,78.3715091 Z" id="Shape"></path>
                <ellipse id="Oval" cx="31.1163699" cy="84.7756829" rx="11.2259787" ry="11.2070094"></ellipse>
            </g>
            <g id="Group" transform="translate(0.000000, 6.000000)" fill="#F2AE5A">
                <path d="M35.4604687,57.0110451 C24.2800934,57.0110451 15.5479568,53.3871425 9.50592625,46.2396987 C3.96392585,39.6832976 0.853403346,30.4326692 0.260956124,18.7448591 C-0.173427576,10.1740456 0.958856624,3.53930234 1.00727667,3.26116464 L1.35692529,1.2527786 L19.6648248,1.2527786 L24.2863787,9.44648371 L31.8969394,9.44648371 L31.8969394,14.2902519 L21.4389074,14.2902519 L16.8173535,6.09654679 L5.52989539,6.09654679 C4.8110439,12.3395794 3.52744705,31.6587929 13.2379946,43.1322052 C18.3120897,49.1272317 25.7887969,52.1672769 35.4604687,52.1672769 L35.4604687,57.0110451 Z" id="Shape"></path>
                <path d="M54.5821975,73.0009502 C55.0272895,73.257764 55.4847192,73.4805059 55.9468048,73.6645404 C55.2049072,74.3765729 54.5579874,75.3477371 54.0397998,76.5078031 C52.8455938,76.2704589 51.6779257,75.9556998 50.5444776,75.570479 C40.1921317,72.0636261 32.4935768,62.6957163 31.5959436,51.2814083 L27.849908,3.71244307 C27.6939396,1.73326149 29.2650305,0.0419524377 31.2586328,0.0419524377 L41.5932868,0.0419524377 L43.8601831,49.5087439 C44.3685936,60.5742209 48.7273291,69.6489272 54.5821975,73.0009502 Z" id="Shape"></path>
                <path d="M58.717223,94.3691114 C58.6052517,94.3714292 58.4909524,94.3739788 58.3766532,94.3739788 C52.2664156,94.3739788 47.3091804,89.4405112 47.3091804,83.3543946 C47.3091804,80.3173626 48.5473834,77.5637993 50.5442448,75.570479 C51.6753651,74.4419353 53.0495167,73.5579209 54.5819647,73.0009502 C55.0270567,73.257764 55.4844864,73.4805059 55.946572,73.6645404 C55.2046744,74.3765729 54.5577547,75.3477371 54.039567,76.5078031 C53.1954752,78.3870869 52.6919533,80.7679457 52.6919533,83.3543946 C52.6921861,89.3267065 55.3727479,94.1899444 58.717223,94.3691114 Z" id="Shape"></path>
                <path d="M58.717223,94.3691114 C59.0140286,94.3593766 59.3059456,94.3401387 59.5929741,94.3086165 C59.3692641,94.3521914 59.1404329,94.3739788 58.9095065,94.3739788 C58.8461879,94.3739788 58.7805415,94.3714292 58.717223,94.3691114 Z" id="Shape"></path>
                <path d="M89.8918191,105.57273 C81.0160518,110.804037 70.6564895,113.804679 59.5939052,113.804679 C48.531321,113.804679 38.1717586,110.804037 29.2959913,105.57273 C30.6727037,102.334744 33.8907746,100.065372 37.6440266,100.065372 L81.5440166,100.065372 C85.2970359,100.065372 88.5151068,102.334744 89.8918191,105.57273 Z" id="Shape"></path>
            </g>
            <g id="Group" transform="translate(35.000000, 6.000000)" fill="#F9DF73">
                <path d="M54.3052405,105.488039 C45.3087938,110.773166 34.8083775,113.804679 23.5953807,113.804679 C15.24238,113.804679 7.28389401,112.12126 0.050022207,109.07757 L0.050022207,109.040806 C0.050022207,104.0053 4.1624611,99.9240208 9.23641176,99.9240208 L45.843701,99.9240208 C49.6479843,99.9240208 52.9098097,102.21674 54.3052405,105.488039 Z" id="Shape"></path>
                <path d="M48.0552961,56.4267484 L48.0552961,51.5331472 C57.8584689,51.5331472 65.4368332,48.4618259 70.5799184,42.4051221 C80.4222595,30.8134365 79.1214462,11.2966365 78.3928208,4.98843844 L66.9521286,4.98843844 L62.2677377,13.2664409 L51.6677489,13.2664409 L51.6677489,8.37307389 L59.3817867,8.37307389 L64.0661776,0.0950713986 L82.6230007,0.0950713986 L82.9774033,2.12411985 C83.1741888,3.2506925 87.6400865,29.8894174 74.3629658,45.5450541 C68.2387847,52.7653287 59.3876855,56.4267484 48.0552961,56.4267484 Z" id="Shape"></path>
            </g>
            <polygon id="Shape" fill="#F2AE5A" points="59.5 23 65.2168672 34.5214111 78 36.3687563 68.749887 45.3366958 70.9335084 58 59.5 52.021074 48.0662656 58 50.249887 45.3366958 41 36.3687563 53.7831328 34.5214111"></polygon>
        </g>
    </g>
</svg>