<?xml version="1.0" encoding="UTF-8"?>
<svg width="452px" height="512px" viewBox="0 0 452 512" version="1.1" xmlns="http://www.w3.org/2000/svg" xmlns:xlink="http://www.w3.org/1999/xlink">
    <!-- Generator: Sketch 49.1 (51147) - http://www.bohemiancoding.com/sketch -->
    <title>007-jester</title>
    <desc>Created with Sketch.</desc>
    <defs></defs>
    <g id="login" stroke="none" stroke-width="1" fill="none" fill-rule="evenodd">
        <g id="007-jester" fill-rule="nonzero">
            <path d="M360.660156,512 L91.246094,512 C88.9375,512 87.066406,510.128906 87.066406,507.820312 L87.066406,425.523438 C87.066406,403.460938 100.761719,383.714844 121.425781,375.984375 L225.953125,336.871094 L330.480469,375.984375 C351.144531,383.714844 364.835938,403.460938 364.835938,425.523438 L364.835938,507.820312 C364.835938,510.128906 362.96875,512 360.660156,512 Z" id="Shape" fill="#9E71D3"></path>
            <path d="M225.953125,336.871094 L121.425781,375.984375 C100.761719,383.714844 87.070312,403.460938 87.070312,425.523438 L87.070312,507.820312 C87.070312,510.128906 88.941406,512 91.246094,512 L225.953125,512 L225.953125,336.871094 Z" id="Shape" fill="#F9DC6A"></path>
            <path d="M330.480469,375.984375 L225.953125,336.871094 L225.953125,345.65625 L307,375.984375 C327.664062,383.714844 341.355469,403.460938 341.355469,425.523438 L341.355469,507.820312 C341.355469,510.128906 339.484375,512 337.179688,512 L360.65625,512 C362.964844,512 364.835938,510.128906 364.835938,507.820312 L364.835938,425.523438 C364.835938,403.460938 351.144531,383.714844 330.480469,375.984375 Z" id="Shape" fill="#7F56AF"></path>
            <path d="M145.703125,512 L145.703125,462.792969 C145.703125,458.652344 142.34375,455.292969 138.203125,455.292969 C134.058594,455.292969 130.703125,458.652344 130.703125,462.792969 L130.703125,512 L145.703125,512 Z" id="Shape" fill="#E5AC51"></path>
            <path d="M321.203125,512 L321.203125,462.792969 C321.203125,458.652344 317.847656,455.292969 313.703125,455.292969 C309.5625,455.292969 306.203125,458.652344 306.203125,462.792969 L306.203125,512 L321.203125,512 Z" id="Shape" fill="#7F56AF"></path>
            <path d="M225.953125,479.636719 L190.664062,425.535156 C189.445312,423.671875 187.078125,422.933594 185.019531,423.777344 L148.160156,438.867188 C144.394531,440.40625 140.609375,436.699219 142.074219,432.902344 L159.285156,388.285156 C160.414062,385.355469 158.367188,382.171875 155.234375,381.984375 L110.929688,379.328125 C106.082031,379.035156 104.875,372.4375 109.3125,370.460938 C139.011719,357.226562 199.742188,331.679688 225.953125,331.679688 C252.164062,331.679688 312.894531,357.226562 342.59375,370.460938 C347.03125,372.4375 345.824219,379.035156 340.976562,379.328125 L296.671875,381.984375 C293.535156,382.171875 291.492188,385.355469 292.621094,388.285156 L309.832031,432.902344 C311.296875,436.699219 307.511719,440.40625 303.746094,438.867188 L266.886719,423.777344 C264.828125,422.933594 262.460938,423.671875 261.242188,425.535156 L225.953125,479.636719 Z" id="Shape" fill="#6E7093"></path>
            <path d="M261.242188,425.535156 C262.460938,423.671875 264.824219,422.933594 266.886719,423.777344 L303.746094,438.867188 C307.511719,440.40625 311.296875,436.699219 309.832031,432.902344 L292.621094,388.285156 C291.492188,385.355469 293.535156,382.171875 296.671875,381.984375 L340.976562,379.328125 C345.820312,379.035156 347.03125,372.4375 342.59375,370.460938 C312.894531,357.226562 252.164062,331.679688 225.953125,331.679688 L225.953125,479.632812 L261.242188,425.535156 Z" id="Shape" fill="#81EBC7"></path>
            <path d="M184.515625,291.90625 L184.515625,352.859375 C184.515625,375.742188 203.066406,394.296875 225.953125,394.296875 C248.839844,394.296875 267.390625,375.742188 267.390625,352.859375 L267.390625,291.90625 L184.515625,291.90625 Z" id="Shape" fill="#F9C295"></path>
            <path d="M184.515625,333.039062 C200.757812,343.515625 219.570312,349.503906 239.625,349.503906 C249.214844,349.503906 258.515625,348.136719 267.390625,345.5625 L267.390625,291.90625 L184.515625,291.90625 L184.515625,333.039062 Z" id="Shape" fill="#E59F6A"></path>
            <path d="M337.023438,201.355469 C337.023438,132.246094 287.292969,76.222656 225.953125,76.222656 C164.609375,76.222656 114.882812,132.246094 114.882812,201.355469 C114.882812,270.460938 164.609375,326.484375 225.953125,326.484375 C287.292969,326.484375 337.023438,270.460938 337.023438,201.355469 Z" id="Shape" fill="#F9C295"></path>
            <path d="M277.480469,90.484375 C301.707031,113.4375 317.109375,147.835938 317.109375,186.292969 C317.109375,255.398438 267.382812,311.421875 206.042969,311.421875 C187.445312,311.421875 169.917969,306.265625 154.515625,297.160156 C173.828125,315.457031 198.746094,326.484375 225.953125,326.484375 C287.296875,326.484375 337.023438,270.460938 337.023438,201.355469 C337.023438,153.199219 312.871094,111.40625 277.480469,90.484375 Z" id="Shape" fill="#E59F6A"></path>
            <path d="M437.207031,75.617188 L358.542969,9.550781 C345.832031,-1.125 327.921875,-3.023438 313.246094,4.730469 L225.953125,50.921875 L138.660156,4.730469 C123.988281,-3.023438 106.074219,-1.125 93.363281,9.550781 L14.699219,75.617188 C3.753906,84.808594 -1.417969,99.167969 1.148438,113.21875 L20.949219,221.605469 L40.609375,219.671875 L37.203125,187.15625 C35.363281,169.609375 48.199219,153.9375 65.761719,152.285156 C79.65625,150.988281 92.769531,158.921875 98.058594,171.839844 L115.472656,214.386719 C115.078125,210.109375 114.878906,205.757812 114.878906,201.351562 C114.878906,187.09375 116.996094,173.40625 120.894531,160.644531 L120.894531,160.640625 C120.894531,160.636719 120.898438,160.632812 120.902344,160.632812 C123.636719,155.171875 127.238281,150.230469 131.515625,145.949219 C141.785156,135.679688 155.984375,129.324219 171.664062,129.324219 C197.222656,129.324219 218.839844,146.21875 225.953125,169.449219 C233.070312,146.21875 254.6875,129.324219 280.246094,129.324219 C302.460938,129.324219 321.671875,142.066406 331.007812,160.632812 C331.011719,160.632812 331.011719,160.636719 331.015625,160.640625 L331.015625,160.644531 C334.910156,173.40625 337.03125,187.09375 337.03125,201.351562 C337.03125,205.757812 336.832031,210.105469 336.4375,214.386719 L353.851562,171.839844 C359.140625,158.921875 372.253906,150.988281 386.148438,152.285156 C403.710938,153.9375 416.546875,169.609375 414.707031,187.15625 L411.300781,219.671875 L430.960938,221.605469 L450.761719,113.21875 C453.324219,99.167969 448.152344,84.808594 437.207031,75.617188 Z" id="Shape" fill="#9E71D3"></path>
            <path d="M450.757812,113.21875 L430.953125,221.605469 L411.296875,219.671875 L414.703125,187.15625 C416.542969,169.609375 403.707031,153.9375 386.144531,152.285156 C372.25,150.988281 359.136719,158.921875 353.847656,171.839844 L336.433594,214.386719 C336.828125,210.109375 337.027344,205.757812 337.027344,201.351562 C337.027344,187.09375 334.90625,173.40625 331.011719,160.644531 C331.011719,160.644531 331.011719,160.644531 331.011719,160.636719 L331.003906,160.636719 C321.667969,142.066406 302.457031,129.324219 280.242188,129.324219 C254.6875,129.324219 233.066406,146.222656 225.953125,169.449219 L225.953125,50.921875 L313.246094,4.730469 C327.917969,-3.023438 345.832031,-1.125 358.542969,9.550781 L437.207031,75.617188 C448.152344,84.808594 453.324219,99.167969 450.757812,113.21875 Z" id="Shape" fill="#F9DC6A"></path>
            <path d="M437.207031,75.617188 L358.542969,9.550781 C345.832031,-1.125 327.921875,-3.023438 313.246094,4.730469 L312.753906,4.992188 C320.957031,5.691406 328.9375,8.863281 335.523438,14.394531 L414.1875,80.460938 C425.132812,89.652344 430.304688,104.015625 427.738281,118.066406 L414.152344,192.425781 L411.296875,219.671875 L430.957031,221.605469 L450.761719,113.222656 C453.324219,99.167969 448.152344,84.808594 437.207031,75.617188 Z" id="Shape" fill="#E5AC51"></path>
            <path d="M444.070312,221.605469 C444.070312,233.878906 434.121094,243.832031 421.84375,243.832031 C409.570312,243.832031 399.617188,233.878906 399.617188,221.605469 C399.617188,209.328125 409.570312,199.375 421.84375,199.375 C434.121094,199.375 444.070312,209.328125 444.070312,221.605469 Z" id="Shape" fill="#9E71D3"></path>
            <path d="M52.289062,221.605469 C52.289062,233.878906 42.335938,243.832031 30.0625,243.832031 C17.785156,243.832031 7.835938,233.878906 7.835938,221.605469 C7.835938,209.328125 17.785156,199.375 30.0625,199.375 C42.335938,199.375 52.289062,209.328125 52.289062,221.605469 Z" id="Shape" fill="#F9DC6A"></path>
            <g id="Group" transform="translate(145.000000, 198.000000)" fill="#363B51">
                <path d="M156.917969,40.605469 C152.699219,38.789062 148.117188,37.277344 143.332031,36.082031 C143.265625,36.0625 143.199219,36.035156 143.128906,36.019531 C143.007812,35.988281 142.886719,35.972656 142.765625,35.945312 C138.53125,34.917969 134.148438,34.132812 129.691406,33.640625 C125.5625,33.175781 121.871094,36.15625 121.417969,40.273438 C120.960938,44.390625 123.933594,48.097656 128.050781,48.550781 C128.886719,48.640625 129.714844,48.753906 130.546875,48.867188 C121.714844,61.824219 99.757812,73.164062 80.953125,73.164062 C62.148438,73.164062 40.195312,61.824219 31.363281,48.867188 C32.191406,48.753906 33.023438,48.644531 33.859375,48.550781 C37.976562,48.097656 40.945312,44.390625 40.492188,40.273438 C40.035156,36.15625 36.332031,33.171875 32.214844,33.640625 C27.761719,34.132812 23.375,34.917969 19.140625,35.945312 C19.019531,35.972656 18.898438,35.988281 18.777344,36.019531 C18.710938,36.035156 18.644531,36.0625 18.574219,36.082031 C13.789062,37.273438 9.210938,38.789062 4.992188,40.605469 C-2.472656,43.816406 -0.15625,54.996094 7.960938,54.996094 C10.347656,54.996094 10.632812,54.253906 16.09375,52.410156 C20.519531,61.230469 28.761719,69.457031 40.007812,76.105469 C52.972656,83.769531 67.894531,88.164062 80.953125,88.164062 C94.015625,88.164062 108.9375,83.769531 121.902344,76.105469 C133.148438,69.457031 141.390625,61.230469 145.816406,52.410156 C151.28125,54.253906 151.566406,54.996094 153.949219,54.996094 C162.050781,54.996094 164.386719,43.820312 156.917969,40.605469 Z" id="Shape"></path>
                <path d="M40.730469,18.621094 C44.871094,18.621094 48.230469,15.265625 48.230469,11.121094 L48.230469,7.957031 C48.230469,3.8125 44.871094,0.457031 40.730469,0.457031 C36.585938,0.457031 33.230469,3.8125 33.230469,7.957031 L33.230469,11.121094 C33.230469,15.265625 36.585938,18.621094 40.730469,18.621094 Z" id="Shape"></path>
                <path d="M121.175781,18.621094 C125.320312,18.621094 128.675781,15.265625 128.675781,11.121094 L128.675781,7.957031 C128.675781,3.8125 125.320312,0.457031 121.175781,0.457031 C117.035156,0.457031 113.675781,3.8125 113.675781,7.957031 L113.675781,11.121094 C113.675781,15.265625 117.035156,18.621094 121.175781,18.621094 Z" id="Shape"></path>
            </g>
        </g>
    </g>
</svg>