<?xml version="1.0" encoding="UTF-8"?>
<svg width="500px" height="247px" viewBox="0 0 500 247" version="1.1" xmlns="http://www.w3.org/2000/svg" xmlns:xlink="http://www.w3.org/1999/xlink">
    <!-- Generator: Sketch 49.1 (51147) - http://www.bohemiancoding.com/sketch -->
    <title>Group 7</title>
    <desc>Created with Sketch.</desc>
    <defs>
        <rect id="path-1" x="0" y="0" width="500" height="247" rx="3"></rect>
    </defs>
    <g id="sign-up" stroke="none" stroke-width="1" fill="none" fill-rule="evenodd">
        <g id="table" transform="translate(-77.000000, -348.000000)">
            <g id="Group-7" transform="translate(77.000000, 348.000000)">
                <mask id="mask-2" fill="white">
                    <use xlink:href="#path-1"></use>
                </mask>
                <use id="Mask" fill="#00B5AA" xlink:href="#path-1"></use>
                <g id="cards" mask="url(#mask-2)">
                    <g transform="translate(78.000000, -56.000000)">
                        <circle id="Oval" fill="#0575A5" fill-rule="nonzero" cx="171" cy="171" r="171"></circle>
                        <path d="M336,217.604026 L265.221848,146.880533 C265.047074,146.666386 264.834131,146.462277 264.623867,146.278913 L194.363341,87.3402153 C191.930566,85.2997928 188.299818,85.6290443 186.287573,88.0562704 L173.085767,103.774684 L135.299741,90.036464 C132.354697,88.9603736 129.025284,90.4868425 127.943828,93.4574675 L120.922061,112.746119 L80.7327242,112.746119 C77.5787549,112.746119 75,115.325925 75,118.473221 L75,250.269524 C75,251.377736 75.3307985,252.431742 75.8999861,253.301716 L77.7602254,255.162121 L165.511553,342.86482 C167.290767,342.919695 169.065293,343 170.853212,343 C249.606687,342.998662 315.909015,289.908863 336,217.604026 Z" id="Shape" fill="#025E90" fill-rule="nonzero"></path>
                        <path d="M181.156184,254.95973 C179.130654,257.375427 175.510871,257.689995 173.1028,255.667676 L103.034428,196.854124 C100.626357,194.826462 100.30991,191.206591 102.332102,188.796237 L186.844224,88.0402696 C188.865748,85.6245735 192.489536,85.3100054 194.898942,87.3323244 L264.962641,146.144541 C267.372715,148.174206 267.691832,151.795413 265.66697,154.20777 L181.156184,254.95973 Z" id="Shape" fill="#B8D1E6" fill-rule="nonzero"></path>
                        <path d="M180.479494,252.220686 C179.396386,255.19194 176.084022,256.736912 173.119057,255.653956 L86.7776038,224.227465 C83.8092852,223.154568 82.2654377,219.84334 83.3438507,216.871415 L128.518494,92.7741234 C129.596907,89.8095751 132.909942,88.2625919 135.878931,89.3462177 L222.222396,120.763992 C225.190715,121.842254 226.734562,125.153482 225.656149,128.128088 L180.479494,252.220686 Z" id="Shape" fill="#E1EFFA" fill-rule="nonzero"></path>
                        <path d="M178,249.2765 C178,252.424826 175.427172,255 172.278966,255 L80.7223707,255 C77.5761695,255 75,252.424826 75,249.2765 L75,117.718824 C75,114.577178 77.5761695,112 80.7223707,112 L172.278966,112 C175.426504,112 178,114.577178 178,117.718824 L178,249.2765 Z" id="Shape" fill="#FFFFFF" fill-rule="nonzero"></path>
                        <g id="Group" stroke-width="1" fill="none" fill-rule="evenodd" transform="translate(84.000000, 139.000000)">
                            <path d="M57.4306667,34.1352809 C52.4473333,27.5959551 42.6386667,31.4501124 42.6386667,38.1026966 C42.6386667,31.4514607 32.8286667,27.5973034 27.8466667,34.1352809 C22.6906667,40.9004494 27.7713333,52.7501124 42.6386667,59.5638202 C57.506,52.7501124 62.5813333,40.9004494 57.4306667,34.1352809 Z" id="Shape" fill="#FF8E31" fill-rule="nonzero"></path>
                            <path d="M10.7653333,1.21685393 C9.06733333,-1.01662921 5.724,0.302022472 5.724,2.57325843 C5.724,0.304044944 2.37866667,-1.01662921 0.680666667,1.21685393 C-1.08066667,3.52247191 0.655333333,7.56269663 5.724,9.88044944 C10.7906667,7.56269663 12.5233333,3.52247191 10.7653333,1.21685393 Z" id="Shape" fill="#FF8E31" fill-rule="nonzero"></path>
                        </g>
                        <path d="M93.3660886,133 L92.3513166,130.320786 L86.6461143,130.320786 L85.6313423,133 L84,133 L88.6236352,121 L90.3943481,121 L95,133 L93.3660886,133 Z M89.5009634,122.534532 L87.0757868,129.00941 L91.940912,129.00941 L89.5009634,122.534532 Z" id="Shape" fill="#5D6D7E" fill-rule="nonzero"></path>
                        <path d="M158.641234,227.827537 C160.278576,230.099319 163.498681,228.757402 163.498681,226.452655 C163.498681,228.759462 166.718786,230.098632 168.356127,227.827537 C170.052542,225.478838 168.38438,221.363121 163.498681,219 C158.616193,221.363121 156.949957,225.478838 158.641234,227.827537 Z" id="Shape" fill="#FF8E31" fill-rule="nonzero"></path>
                        <path d="M159.633555,234 L160.648505,236.678247 L166.353422,236.678247 L167.368372,234 L169,234 L164.377482,246 L162.606459,246 L158,234 L159.633555,234 Z M163.501927,244.464194 L165.924317,237.995517 L161.060266,237.995517 L163.501927,244.464194 Z" id="Shape" fill="#5D6D7E" fill-rule="nonzero"></path>
                    </g>
                </g>
            </g>
        </g>
    </g>
</svg>